<?xml version="1.0" encoding="UTF-8" standalone="no"?>
<svg
   xmlns:dc="http://purl.org/dc/elements/1.1/"
   xmlns:cc="http://creativecommons.org/ns#"
   xmlns:rdf="http://www.w3.org/1999/02/22-rdf-syntax-ns#"
   xmlns:svg="http://www.w3.org/2000/svg"
   xmlns="http://www.w3.org/2000/svg"
   xmlns:sodipodi="http://sodipodi.sourceforge.net/DTD/sodipodi-0.dtd"
   xmlns:inkscape="http://www.inkscape.org/namespaces/inkscape"
   version="1.2"
   width="164.15334mm"
   height="46.771107mm"
   viewBox="0 0 16415.333 4677.1107"
   preserveAspectRatio="xMidYMid"
   xml:space="preserve"
   id="svg2"
   inkscape:version="0.91 r13725"
   sodipodi:docname="bayer.svg"
   style="fill-rule:evenodd;stroke-width:28.22200012;stroke-linejoin:round"><metadata
     id="metadata652"><rdf:RDF><cc:Work
         rdf:about=""><dc:format>image/svg+xml</dc:format><dc:type
           rdf:resource="http://purl.org/dc/dcmitype/StillImage" /><dc:title></dc:title></cc:Work></rdf:RDF></metadata><sodipodi:namedview
     pagecolor="#ffffff"
     bordercolor="#666666"
     borderopacity="1"
     objecttolerance="10"
     gridtolerance="10"
     guidetolerance="10"
     inkscape:pageopacity="0"
     inkscape:pageshadow="2"
     inkscape:window-width="1920"
     inkscape:window-height="997"
     id="namedview650"
     showgrid="false"
     fit-margin-top="0"
     fit-margin-left="0"
     fit-margin-right="0"
     fit-margin-bottom="0"
     inkscape:zoom="2.4000866"
     inkscape:cx="290.82284"
     inkscape:cy="82.862197"
     inkscape:window-x="1920"
     inkscape:window-y="30"
     inkscape:window-maximized="1"
     inkscape:current-layer="svg2" /><defs
     class="ClipPathGroup"
     id="defs4" /><defs
     id="defs9" /><defs
     id="defs82" /><defs
     id="defs105" /><defs
     class="TextShapeIndex"
     id="defs116" /><defs
     class="EmbeddedBulletChars"
     id="defs120" /><defs
     class="TextEmbeddedBitmaps"
     id="defs149" /><g
     class="com.sun.star.drawing.CustomShape"
     id="g186"
     transform="translate(-3285.889,-3185.889)"><g
       id="id6"><rect
         class="BoundingBox"
         x="3299"
         y="3199"
         width="1303"
         height="1203"
         id="rect189"
         style="fill:none;stroke:none" /><path
         d="m 3950,4400 -650,0 0,-1200 1300,0 0,1200 -650,0 z"
         id="path191"
         inkscape:connector-curvature="0"
         style="fill:#0000ff;stroke:none" /><path
         d="m 3950,4400 -650,0 0,-1200 1300,0 0,1200 -650,0 z"
         id="path193"
         inkscape:connector-curvature="0"
         style="fill:none;stroke:#3465a4" /><text
         class="TextShape"
         id="text195"><tspan
           class="TextParagraph"
           font-size="635px"
           font-weight="400"
           id="tspan197"
           style="font-weight:400;font-size:635px;font-family:'Liberation Sans', sans-serif"><tspan
             class="TextPosition"
             x="3739"
             y="4021"
             id="tspan199"><tspan
               id="tspan201"
               style="fill:#ffffff;stroke:none">B</tspan></tspan></tspan></text>
</g></g><g
     class="com.sun.star.drawing.CustomShape"
     id="g203"
     transform="translate(-3285.889,-3185.889)"><g
       id="id7"><rect
         class="BoundingBox"
         x="4599"
         y="3199"
         width="1303"
         height="1203"
         id="rect206"
         style="fill:none;stroke:none" /><path
         d="m 5250,4400 -650,0 0,-1200 1300,0 0,1200 -650,0 z"
         id="path208"
         inkscape:connector-curvature="0"
         style="fill:#00cc00;stroke:none" /><path
         d="m 5250,4400 -650,0 0,-1200 1300,0 0,1200 -650,0 z"
         id="path210"
         inkscape:connector-curvature="0"
         style="fill:none;stroke:#3465a4" /><text
         class="TextShape"
         id="text212"><tspan
           class="TextParagraph"
           font-size="635px"
           font-weight="400"
           id="tspan214"
           style="font-weight:400;font-size:635px;font-family:'Liberation Sans', sans-serif"><tspan
             class="TextPosition"
             x="5003"
             y="4021"
             id="tspan216"><tspan
               id="tspan218"
               style="fill:#ffffff;stroke:none">G</tspan></tspan></tspan></text>
</g></g><g
     class="com.sun.star.drawing.CustomShape"
     id="g220"
     transform="translate(-3285.889,-3185.889)"><g
       id="id8"><rect
         class="BoundingBox"
         x="3299"
         y="4399"
         width="1303"
         height="1203"
         id="rect223"
         style="fill:none;stroke:none" /><path
         d="m 3950,5600 -650,0 0,-1200 1300,0 0,1200 -650,0 z"
         id="path225"
         inkscape:connector-curvature="0"
         style="fill:#00cc00;stroke:none" /><path
         d="m 3950,5600 -650,0 0,-1200 1300,0 0,1200 -650,0 z"
         id="path227"
         inkscape:connector-curvature="0"
         style="fill:none;stroke:#3465a4" /><text
         class="TextShape"
         id="text229"><tspan
           class="TextParagraph"
           font-size="635px"
           font-weight="400"
           id="tspan231"
           style="font-weight:400;font-size:635px;font-family:'Liberation Sans', sans-serif"><tspan
             class="TextPosition"
             x="3703"
             y="5221"
             id="tspan233"><tspan
               id="tspan235"
               style="fill:#ffffff;stroke:none">G</tspan></tspan></tspan></text>
</g></g><g
     class="com.sun.star.drawing.CustomShape"
     id="g237"
     transform="translate(-3285.889,-3185.889)"><g
       id="id9"><rect
         class="BoundingBox"
         x="4599"
         y="4399"
         width="1303"
         height="1203"
         id="rect240"
         style="fill:none;stroke:none" /><path
         d="m 5250,5600 -650,0 0,-1200 1300,0 0,1200 -650,0 z"
         id="path242"
         inkscape:connector-curvature="0"
         style="fill:#ff0000;stroke:none" /><path
         d="m 5250,5600 -650,0 0,-1200 1300,0 0,1200 -650,0 z"
         id="path244"
         inkscape:connector-curvature="0"
         style="fill:none;stroke:#3465a4" /><text
         class="TextShape"
         id="text246"><tspan
           class="TextParagraph"
           font-size="635px"
           font-weight="400"
           id="tspan248"
           style="font-weight:400;font-size:635px;font-family:'Liberation Sans', sans-serif"><tspan
             class="TextPosition"
             x="5022"
             y="5221"
             id="tspan250"><tspan
               id="tspan252"
               style="fill:#ffffff;stroke:none">R</tspan></tspan></tspan></text>
</g></g><g
     class="com.sun.star.drawing.CustomShape"
     id="g254"
     transform="translate(-3285.889,-3185.889)"><g
       id="id10"><rect
         class="BoundingBox"
         x="5999"
         y="3299"
         width="1003"
         height="1003"
         id="rect257"
         style="fill:none;stroke:none" /><path
         d="m 6500,4300 -500,0 0,-1000 1000,0 0,1000 -500,0 z"
         id="path259"
         inkscape:connector-curvature="0"
         style="fill:none;stroke:#0000ff" /></g></g><g
     class="com.sun.star.drawing.CustomShape"
     id="g261"
     transform="translate(-3285.889,-3185.889)"><g
       id="id11"><rect
         class="BoundingBox"
         x="4699"
         y="5699"
         width="1003"
         height="1003"
         id="rect264"
         style="fill:none;stroke:none" /><path
         d="m 5200,6700 -500,0 0,-1000 1000,0 0,1000 -500,0 z"
         id="path266"
         inkscape:connector-curvature="0"
         style="fill:none;stroke:#00cc00" /></g></g><g
     class="com.sun.star.drawing.TextShape"
     id="g268"
     transform="translate(-3285.889,-3185.889)"><g
       id="id12"><rect
         class="BoundingBox"
         x="4000"
         y="6900"
         width="2374"
         height="963"
         id="rect271"
         style="fill:none;stroke:none" /><text
         class="TextShape"
         id="text273"><tspan
           class="TextParagraph"
           font-size="635px"
           font-weight="400"
           id="tspan275"
           style="font-weight:400;font-size:635px;font-family:'Liberation Sans', sans-serif"><tspan
             class="TextPosition"
             x="4250"
             y="7601"
             id="tspan277"><tspan
               id="tspan279"
               style="fill:#000000;stroke:none">BGGR</tspan></tspan></tspan></text>
</g></g><g
     class="com.sun.star.drawing.CustomShape"
     id="g281"
     transform="translate(-3285.889,-3185.889)"><g
       id="id13"><rect
         class="BoundingBox"
         x="8799"
         y="3199"
         width="1303"
         height="1203"
         id="rect284"
         style="fill:none;stroke:none" /><path
         d="m 9450,4400 -650,0 0,-1200 1300,0 0,1200 -650,0 z"
         id="path286"
         inkscape:connector-curvature="0"
         style="fill:#0000ff;stroke:none" /><path
         d="m 9450,4400 -650,0 0,-1200 1300,0 0,1200 -650,0 z"
         id="path288"
         inkscape:connector-curvature="0"
         style="fill:none;stroke:#3465a4" /><text
         class="TextShape"
         id="text290"><tspan
           class="TextParagraph"
           font-size="635px"
           font-weight="400"
           id="tspan292"
           style="font-weight:400;font-size:635px;font-family:'Liberation Sans', sans-serif"><tspan
             class="TextPosition"
             x="9239"
             y="4021"
             id="tspan294"><tspan
               id="tspan296"
               style="fill:#ffffff;stroke:none">B</tspan></tspan></tspan></text>
</g></g><g
     class="com.sun.star.drawing.CustomShape"
     id="g298"
     transform="translate(-3285.889,-3185.889)"><g
       id="id14"><rect
         class="BoundingBox"
         x="7499"
         y="3199"
         width="1303"
         height="1203"
         id="rect301"
         style="fill:none;stroke:none" /><path
         d="m 8150,4400 -650,0 0,-1200 1300,0 0,1200 -650,0 z"
         id="path303"
         inkscape:connector-curvature="0"
         style="fill:#00cc00;stroke:none" /><path
         d="m 8150,4400 -650,0 0,-1200 1300,0 0,1200 -650,0 z"
         id="path305"
         inkscape:connector-curvature="0"
         style="fill:none;stroke:#3465a4" /><text
         class="TextShape"
         id="text307"><tspan
           class="TextParagraph"
           font-size="635px"
           font-weight="400"
           id="tspan309"
           style="font-weight:400;font-size:635px;font-family:'Liberation Sans', sans-serif"><tspan
             class="TextPosition"
             x="7903"
             y="4021"
             id="tspan311"><tspan
               id="tspan313"
               style="fill:#ffffff;stroke:none">G</tspan></tspan></tspan></text>
</g></g><g
     class="com.sun.star.drawing.CustomShape"
     id="g315"
     transform="translate(-3285.889,-3185.889)"><g
       id="id15"><rect
         class="BoundingBox"
         x="8799"
         y="4399"
         width="1303"
         height="1203"
         id="rect318"
         style="fill:none;stroke:none" /><path
         d="m 9450,5600 -650,0 0,-1200 1300,0 0,1200 -650,0 z"
         id="path320"
         inkscape:connector-curvature="0"
         style="fill:#00cc00;stroke:none" /><path
         d="m 9450,5600 -650,0 0,-1200 1300,0 0,1200 -650,0 z"
         id="path322"
         inkscape:connector-curvature="0"
         style="fill:none;stroke:#3465a4" /><text
         class="TextShape"
         id="text324"><tspan
           class="TextParagraph"
           font-size="635px"
           font-weight="400"
           id="tspan326"
           style="font-weight:400;font-size:635px;font-family:'Liberation Sans', sans-serif"><tspan
             class="TextPosition"
             x="9203"
             y="5221"
             id="tspan328"><tspan
               id="tspan330"
               style="fill:#ffffff;stroke:none">G</tspan></tspan></tspan></text>
</g></g><g
     class="com.sun.star.drawing.CustomShape"
     id="g332"
     transform="translate(-3285.889,-3185.889)"><g
       id="id16"><rect
         class="BoundingBox"
         x="7499"
         y="4399"
         width="1303"
         height="1203"
         id="rect335"
         style="fill:none;stroke:none" /><path
         d="m 8150,5600 -650,0 0,-1200 1300,0 0,1200 -650,0 z"
         id="path337"
         inkscape:connector-curvature="0"
         style="fill:#ff0000;stroke:none" /><path
         d="m 8150,5600 -650,0 0,-1200 1300,0 0,1200 -650,0 z"
         id="path339"
         inkscape:connector-curvature="0"
         style="fill:none;stroke:#3465a4" /><text
         class="TextShape"
         id="text341"><tspan
           class="TextParagraph"
           font-size="635px"
           font-weight="400"
           id="tspan343"
           style="font-weight:400;font-size:635px;font-family:'Liberation Sans', sans-serif"><tspan
             class="TextPosition"
             x="7922"
             y="5221"
             id="tspan345"><tspan
               id="tspan347"
               style="fill:#ffffff;stroke:none">R</tspan></tspan></tspan></text>
</g></g><g
     class="com.sun.star.drawing.TextShape"
     id="g349"
     transform="translate(-3285.889,-3185.889)"><g
       id="id17"><rect
         class="BoundingBox"
         x="8200"
         y="6900"
         width="2374"
         height="963"
         id="rect352"
         style="fill:none;stroke:none" /><text
         class="TextShape"
         id="text354"><tspan
           class="TextParagraph"
           font-size="635px"
           font-weight="400"
           id="tspan356"
           style="font-weight:400;font-size:635px;font-family:'Liberation Sans', sans-serif"><tspan
             class="TextPosition"
             x="8450"
             y="7601"
             id="tspan358"><tspan
               id="tspan360"
               style="fill:#000000;stroke:none">GBRG</tspan></tspan></tspan></text>
</g></g><g
     class="com.sun.star.drawing.CustomShape"
     id="g362"
     transform="translate(-3285.889,-3185.889)"><g
       id="id18"><rect
         class="BoundingBox"
         x="17299"
         y="4399"
         width="1303"
         height="1203"
         id="rect365"
         style="fill:none;stroke:none" /><path
         d="m 17950,5600 -650,0 0,-1200 1300,0 0,1200 -650,0 z"
         id="path367"
         inkscape:connector-curvature="0"
         style="fill:#0000ff;stroke:none" /><path
         d="m 17950,5600 -650,0 0,-1200 1300,0 0,1200 -650,0 z"
         id="path369"
         inkscape:connector-curvature="0"
         style="fill:none;stroke:#3465a4" /><text
         class="TextShape"
         id="text371"><tspan
           class="TextParagraph"
           font-size="635px"
           font-weight="400"
           id="tspan373"
           style="font-weight:400;font-size:635px;font-family:'Liberation Sans', sans-serif"><tspan
             class="TextPosition"
             x="17739"
             y="5221"
             id="tspan375"><tspan
               id="tspan377"
               style="fill:#ffffff;stroke:none">B</tspan></tspan></tspan></text>
</g></g><g
     class="com.sun.star.drawing.CustomShape"
     id="g379"
     transform="translate(-3285.889,-3185.889)"><g
       id="id19"><rect
         class="BoundingBox"
         x="17299"
         y="3199"
         width="1303"
         height="1203"
         id="rect382"
         style="fill:none;stroke:none" /><path
         d="m 17950,4400 -650,0 0,-1200 1300,0 0,1200 -650,0 z"
         id="path384"
         inkscape:connector-curvature="0"
         style="fill:#00cc00;stroke:none" /><path
         d="m 17950,4400 -650,0 0,-1200 1300,0 0,1200 -650,0 z"
         id="path386"
         inkscape:connector-curvature="0"
         style="fill:none;stroke:#3465a4" /><text
         class="TextShape"
         id="text388"><tspan
           class="TextParagraph"
           font-size="635px"
           font-weight="400"
           id="tspan390"
           style="font-weight:400;font-size:635px;font-family:'Liberation Sans', sans-serif"><tspan
             class="TextPosition"
             x="17703"
             y="4021"
             id="tspan392"><tspan
               id="tspan394"
               style="fill:#ffffff;stroke:none">G</tspan></tspan></tspan></text>
</g></g><g
     class="com.sun.star.drawing.CustomShape"
     id="g396"
     transform="translate(-3285.889,-3185.889)"><g
       id="id20"><rect
         class="BoundingBox"
         x="15999"
         y="4399"
         width="1303"
         height="1203"
         id="rect399"
         style="fill:none;stroke:none" /><path
         d="m 16650,5600 -650,0 0,-1200 1300,0 0,1200 -650,0 z"
         id="path401"
         inkscape:connector-curvature="0"
         style="fill:#00cc00;stroke:none" /><path
         d="m 16650,5600 -650,0 0,-1200 1300,0 0,1200 -650,0 z"
         id="path403"
         inkscape:connector-curvature="0"
         style="fill:none;stroke:#3465a4" /><text
         class="TextShape"
         id="text405"><tspan
           class="TextParagraph"
           font-size="635px"
           font-weight="400"
           id="tspan407"
           style="font-weight:400;font-size:635px;font-family:'Liberation Sans', sans-serif"><tspan
             class="TextPosition"
             x="16403"
             y="5221"
             id="tspan409"><tspan
               id="tspan411"
               style="fill:#ffffff;stroke:none">G</tspan></tspan></tspan></text>
</g></g><g
     class="com.sun.star.drawing.CustomShape"
     id="g413"
     transform="translate(-3285.889,-3185.889)"><g
       id="id21"><rect
         class="BoundingBox"
         x="15999"
         y="3199"
         width="1303"
         height="1203"
         id="rect416"
         style="fill:none;stroke:none" /><path
         d="m 16650,4400 -650,0 0,-1200 1300,0 0,1200 -650,0 z"
         id="path418"
         inkscape:connector-curvature="0"
         style="fill:#ff0000;stroke:none" /><path
         d="m 16650,4400 -650,0 0,-1200 1300,0 0,1200 -650,0 z"
         id="path420"
         inkscape:connector-curvature="0"
         style="fill:none;stroke:#3465a4" /><text
         class="TextShape"
         id="text422"><tspan
           class="TextParagraph"
           font-size="635px"
           font-weight="400"
           id="tspan424"
           style="font-weight:400;font-size:635px;font-family:'Liberation Sans', sans-serif"><tspan
             class="TextPosition"
             x="16422"
             y="4021"
             id="tspan426"><tspan
               id="tspan428"
               style="fill:#ffffff;stroke:none">R</tspan></tspan></tspan></text>
</g></g><g
     class="com.sun.star.drawing.TextShape"
     id="g430"
     transform="translate(-3285.889,-3185.889)"><g
       id="id22"><rect
         class="BoundingBox"
         x="16700"
         y="6900"
         width="2374"
         height="963"
         id="rect433"
         style="fill:none;stroke:none" /><text
         class="TextShape"
         id="text435"><tspan
           class="TextParagraph"
           font-size="635px"
           font-weight="400"
           id="tspan437"
           style="font-weight:400;font-size:635px;font-family:'Liberation Sans', sans-serif"><tspan
             class="TextPosition"
             x="16950"
             y="7601"
             id="tspan439"><tspan
               id="tspan441"
               style="fill:#000000;stroke:none">RGGB</tspan></tspan></tspan></text>
</g></g><g
     class="com.sun.star.drawing.CustomShape"
     id="g443"
     transform="translate(-3285.889,-3185.889)"><g
       id="id23"><rect
         class="BoundingBox"
         x="11699"
         y="4399"
         width="1303"
         height="1203"
         id="rect446"
         style="fill:none;stroke:none" /><path
         d="m 12350,5600 -650,0 0,-1200 1300,0 0,1200 -650,0 z"
         id="path448"
         inkscape:connector-curvature="0"
         style="fill:#0000ff;stroke:none" /><path
         d="m 12350,5600 -650,0 0,-1200 1300,0 0,1200 -650,0 z"
         id="path450"
         inkscape:connector-curvature="0"
         style="fill:none;stroke:#3465a4" /><text
         class="TextShape"
         id="text452"><tspan
           class="TextParagraph"
           font-size="635px"
           font-weight="400"
           id="tspan454"
           style="font-weight:400;font-size:635px;font-family:'Liberation Sans', sans-serif"><tspan
             class="TextPosition"
             x="12139"
             y="5221"
             id="tspan456"><tspan
               id="tspan458"
               style="fill:#ffffff;stroke:none">B</tspan></tspan></tspan></text>
</g></g><g
     class="com.sun.star.drawing.CustomShape"
     id="g460"
     transform="translate(-3285.889,-3185.889)"><g
       id="id24"><rect
         class="BoundingBox"
         x="11699"
         y="3199"
         width="1303"
         height="1203"
         id="rect463"
         style="fill:none;stroke:none" /><path
         d="m 12350,4400 -650,0 0,-1200 1300,0 0,1200 -650,0 z"
         id="path465"
         inkscape:connector-curvature="0"
         style="fill:#00cc00;stroke:none" /><path
         d="m 12350,4400 -650,0 0,-1200 1300,0 0,1200 -650,0 z"
         id="path467"
         inkscape:connector-curvature="0"
         style="fill:none;stroke:#3465a4" /><text
         class="TextShape"
         id="text469"><tspan
           class="TextParagraph"
           font-size="635px"
           font-weight="400"
           id="tspan471"
           style="font-weight:400;font-size:635px;font-family:'Liberation Sans', sans-serif"><tspan
             class="TextPosition"
             x="12103"
             y="4021"
             id="tspan473"><tspan
               id="tspan475"
               style="fill:#ffffff;stroke:none">G</tspan></tspan></tspan></text>
</g></g><g
     class="com.sun.star.drawing.CustomShape"
     id="g477"
     transform="translate(-3285.889,-3185.889)"><g
       id="id25"><rect
         class="BoundingBox"
         x="12999"
         y="4399"
         width="1303"
         height="1203"
         id="rect480"
         style="fill:none;stroke:none" /><path
         d="m 13650,5600 -650,0 0,-1200 1300,0 0,1200 -650,0 z"
         id="path482"
         inkscape:connector-curvature="0"
         style="fill:#00cc00;stroke:none" /><path
         d="m 13650,5600 -650,0 0,-1200 1300,0 0,1200 -650,0 z"
         id="path484"
         inkscape:connector-curvature="0"
         style="fill:none;stroke:#3465a4" /><text
         class="TextShape"
         id="text486"><tspan
           class="TextParagraph"
           font-size="635px"
           font-weight="400"
           id="tspan488"
           style="font-weight:400;font-size:635px;font-family:'Liberation Sans', sans-serif"><tspan
             class="TextPosition"
             x="13403"
             y="5221"
             id="tspan490"><tspan
               id="tspan492"
               style="fill:#ffffff;stroke:none">G</tspan></tspan></tspan></text>
</g></g><g
     class="com.sun.star.drawing.CustomShape"
     id="g494"
     transform="translate(-3285.889,-3185.889)"><g
       id="id26"><rect
         class="BoundingBox"
         x="12999"
         y="3199"
         width="1303"
         height="1203"
         id="rect497"
         style="fill:none;stroke:none" /><path
         d="m 13650,4400 -650,0 0,-1200 1300,0 0,1200 -650,0 z"
         id="path499"
         inkscape:connector-curvature="0"
         style="fill:#ff0000;stroke:none" /><path
         d="m 13650,4400 -650,0 0,-1200 1300,0 0,1200 -650,0 z"
         id="path501"
         inkscape:connector-curvature="0"
         style="fill:none;stroke:#3465a4" /><text
         class="TextShape"
         id="text503"><tspan
           class="TextParagraph"
           font-size="635px"
           font-weight="400"
           id="tspan505"
           style="font-weight:400;font-size:635px;font-family:'Liberation Sans', sans-serif"><tspan
             class="TextPosition"
             x="13422"
             y="4021"
             id="tspan507"><tspan
               id="tspan509"
               style="fill:#ffffff;stroke:none">R</tspan></tspan></tspan></text>
</g></g><g
     class="com.sun.star.drawing.TextShape"
     id="g511"
     transform="translate(-3285.889,-3185.889)"><g
       id="id27"><rect
         class="BoundingBox"
         x="12400"
         y="6900"
         width="2374"
         height="963"
         id="rect514"
         style="fill:none;stroke:none" /><text
         class="TextShape"
         id="text516"><tspan
           class="TextParagraph"
           font-size="635px"
           font-weight="400"
           id="tspan518"
           style="font-weight:400;font-size:635px;font-family:'Liberation Sans', sans-serif"><tspan
             class="TextPosition"
             x="12650"
             y="7601"
             id="tspan520"><tspan
               id="tspan522"
               style="fill:#000000;stroke:none">GRBG</tspan></tspan></tspan></text>
</g></g><g
     class="com.sun.star.drawing.CustomShape"
     id="g524"
     transform="translate(-3285.889,-3185.889)"><g
       id="id28"><rect
         class="BoundingBox"
         x="5999"
         y="5699"
         width="1003"
         height="1003"
         id="rect527"
         style="fill:none;stroke:none" /><path
         d="m 6500,6700 -500,0 0,-1000 1000,0 0,1000 -500,0 z"
         id="path529"
         inkscape:connector-curvature="0"
         style="fill:none;stroke:#0000ff" /></g></g><g
     class="com.sun.star.drawing.CustomShape"
     id="g531"
     transform="translate(-3285.889,-3185.889)"><g
       id="id29"><rect
         class="BoundingBox"
         x="3399"
         y="5699"
         width="1003"
         height="1003"
         id="rect534"
         style="fill:none;stroke:none" /><path
         d="m 3900,6700 -500,0 0,-1000 1000,0 0,1000 -500,0 z"
         id="path536"
         inkscape:connector-curvature="0"
         style="fill:none;stroke:#0000ff" /></g></g><g
     class="com.sun.star.drawing.CustomShape"
     id="g538"
     transform="translate(-3285.889,-3185.889)"><g
       id="id30"><rect
         class="BoundingBox"
         x="5999"
         y="4499"
         width="1003"
         height="1003"
         id="rect541"
         style="fill:none;stroke:none" /><path
         d="m 6500,5500 -500,0 0,-1000 1000,0 0,1000 -500,0 z"
         id="path543"
         inkscape:connector-curvature="0"
         style="fill:none;stroke:#00cc00" /></g></g><g
     class="com.sun.star.drawing.CustomShape"
     id="g545"
     transform="translate(-3285.889,-3185.889)"><g
       id="id31"><rect
         class="BoundingBox"
         x="7599"
         y="5799"
         width="1003"
         height="1003"
         id="rect548"
         style="fill:none;stroke:none" /><path
         d="m 8100,6800 -500,0 0,-1000 1000,0 0,1000 -500,0 z"
         id="path550"
         inkscape:connector-curvature="0"
         style="fill:none;stroke:#00cc00" /></g></g><g
     class="com.sun.star.drawing.CustomShape"
     id="g552"
     transform="translate(-3285.889,-3185.889)"><g
       id="id32"><rect
         class="BoundingBox"
         x="10199"
         y="5799"
         width="1003"
         height="1003"
         id="rect555"
         style="fill:none;stroke:none" /><path
         d="m 10700,6800 -500,0 0,-1000 1000,0 0,1000 -500,0 z"
         id="path557"
         inkscape:connector-curvature="0"
         style="fill:none;stroke:#00cc00" /></g></g><g
     class="com.sun.star.drawing.CustomShape"
     id="g559"
     transform="translate(-3285.889,-3185.889)"><g
       id="id33"><rect
         class="BoundingBox"
         x="8899"
         y="5799"
         width="1003"
         height="1003"
         id="rect562"
         style="fill:none;stroke:none" /><path
         d="m 9400,6800 -500,0 0,-1000 1000,0 0,1000 -500,0 z"
         id="path564"
         inkscape:connector-curvature="0"
         style="fill:none;stroke:#0000ff" /></g></g><g
     class="com.sun.star.drawing.CustomShape"
     id="g566"
     transform="translate(-3285.889,-3185.889)"><g
       id="id34"><rect
         class="BoundingBox"
         x="10199"
         y="4499"
         width="1003"
         height="1003"
         id="rect569"
         style="fill:none;stroke:none" /><path
         d="m 10700,5500 -500,0 0,-1000 1000,0 0,1000 -500,0 z"
         id="path571"
         inkscape:connector-curvature="0"
         style="fill:none;stroke:#ff0000" /></g></g><g
     class="com.sun.star.drawing.CustomShape"
     id="g573"
     transform="translate(-3285.889,-3185.889)"><g
       id="id35"><rect
         class="BoundingBox"
         x="10199"
         y="3299"
         width="1003"
         height="1003"
         id="rect576"
         style="fill:none;stroke:none" /><path
         d="m 10700,4300 -500,0 0,-1000 1000,0 0,1000 -500,0 z"
         id="path578"
         inkscape:connector-curvature="0"
         style="fill:none;stroke:#00cc00" /></g></g><g
     class="com.sun.star.drawing.CustomShape"
     id="g580"
     transform="translate(-3285.889,-3185.889)"><g
       id="id36"><rect
         class="BoundingBox"
         x="14399"
         y="3299"
         width="1003"
         height="1003"
         id="rect583"
         style="fill:none;stroke:none" /><path
         d="m 14900,4300 -500,0 0,-1000 1000,0 0,1000 -500,0 z"
         id="path585"
         inkscape:connector-curvature="0"
         style="fill:none;stroke:#00cc00" /></g></g><g
     class="com.sun.star.drawing.CustomShape"
     id="g587"
     transform="translate(-3285.889,-3185.889)"><g
       id="id37"><rect
         class="BoundingBox"
         x="14399"
         y="5799"
         width="1003"
         height="1003"
         id="rect590"
         style="fill:none;stroke:none" /><path
         d="m 14900,6800 -500,0 0,-1000 1000,0 0,1000 -500,0 z"
         id="path592"
         inkscape:connector-curvature="0"
         style="fill:none;stroke:#00cc00" /></g></g><g
     class="com.sun.star.drawing.CustomShape"
     id="g594"
     transform="translate(-3285.889,-3185.889)"><g
       id="id38"><rect
         class="BoundingBox"
         x="11799"
         y="5799"
         width="1003"
         height="1003"
         id="rect597"
         style="fill:none;stroke:none" /><path
         d="m 12300,6800 -500,0 0,-1000 1000,0 0,1000 -500,0 z"
         id="path599"
         inkscape:connector-curvature="0"
         style="fill:none;stroke:#00cc00" /></g></g><g
     class="com.sun.star.drawing.CustomShape"
     id="g601"
     transform="translate(-3285.889,-3185.889)"><g
       id="id39"><rect
         class="BoundingBox"
         x="14399"
         y="4499"
         width="1003"
         height="1003"
         id="rect604"
         style="fill:none;stroke:none" /><path
         d="m 14900,5500 -500,0 0,-1000 1000,0 0,1000 -500,0 z"
         id="path606"
         inkscape:connector-curvature="0"
         style="fill:none;stroke:#0000ff" /></g></g><g
     class="com.sun.star.drawing.CustomShape"
     id="g608"
     transform="translate(-3285.889,-3185.889)"><g
       id="id40"><rect
         class="BoundingBox"
         x="13099"
         y="5799"
         width="1003"
         height="1003"
         id="rect611"
         style="fill:none;stroke:none" /><path
         d="m 13600,6800 -500,0 0,-1000 1000,0 0,1000 -500,0 z"
         id="path613"
         inkscape:connector-curvature="0"
         style="fill:none;stroke:#ff0000" /></g></g><g
     class="com.sun.star.drawing.CustomShape"
     id="g615"
     transform="translate(-3285.889,-3185.889)"><g
       id="id41"><rect
         class="BoundingBox"
         x="16099"
         y="5799"
         width="1003"
         height="1003"
         id="rect618"
         style="fill:none;stroke:none" /><path
         d="m 16600,6800 -500,0 0,-1000 1000,0 0,1000 -500,0 z"
         id="path620"
         inkscape:connector-curvature="0"
         style="fill:none;stroke:#ff0000" /></g></g><g
     class="com.sun.star.drawing.CustomShape"
     id="g622"
     transform="translate(-3398.7778,-3185.889)"><g
       id="id42"><rect
         class="BoundingBox"
         x="18799"
         y="5799"
         width="1003"
         height="1003"
         id="rect625"
         style="fill:none;stroke:none" /><path
         d="m 19300,6800 -500,0 0,-1000 1000,0 0,1000 -500,0 z"
         id="path627"
         inkscape:connector-curvature="0"
         style="fill:none;stroke:#ff0000" /></g></g><g
     class="com.sun.star.drawing.CustomShape"
     id="g629"
     transform="translate(-3398.7778,-3185.889)"><g
       id="id43"><rect
         class="BoundingBox"
         x="18799"
         y="3299"
         width="1003"
         height="1003"
         id="rect632"
         style="fill:none;stroke:none" /><path
         d="m 19300,4300 -500,0 0,-1000 1000,0 0,1000 -500,0 z"
         id="path634"
         inkscape:connector-curvature="0"
         style="fill:none;stroke:#ff0000" /></g></g><g
     class="com.sun.star.drawing.CustomShape"
     id="g636"
     transform="translate(-3285.889,-3185.889)"><g
       id="id44"><rect
         class="BoundingBox"
         x="17399"
         y="5799"
         width="1003"
         height="1003"
         id="rect639"
         style="fill:none;stroke:none" /><path
         d="m 17900,6800 -500,0 0,-1000 1000,0 0,1000 -500,0 z"
         id="path641"
         inkscape:connector-curvature="0"
         style="fill:none;stroke:#00cc00" /></g></g><g
     class="com.sun.star.drawing.CustomShape"
     id="g643"
     transform="translate(-3398.7778,-3185.889)"><g
       id="id45"><rect
         class="BoundingBox"
         x="18799"
         y="4499"
         width="1003"
         height="1003"
         id="rect646"
         style="fill:none;stroke:none" /><path
         d="m 19300,5500 -500,0 0,-1000 1000,0 0,1000 -500,0 z"
         id="path648"
         inkscape:connector-curvature="0"
         style="fill:none;stroke:#00cc00" /></g></g></svg>