<?xml version="1.0" encoding="UTF-8"?>
<svg id="svg2" width="164.15mm" height="46.771mm" fill-rule="evenodd" stroke-linejoin="round" stroke-width="28.222" preserveAspectRatio="xMidYMid" version="1.2" viewBox="0 0 16415.333 4677.1107" xml:space="preserve" xmlns="http://www.w3.org/2000/svg" xmlns:cc="http://creativecommons.org/ns#" xmlns:dc="http://purl.org/dc/elements/1.1/" xmlns:rdf="http://www.w3.org/1999/02/22-rdf-syntax-ns#"><metadata id="metadata652"><rdf:RDF><cc:Work rdf:about=""><dc:format>image/svg+xml</dc:format><dc:type rdf:resource="http://purl.org/dc/dcmitype/StillImage"/><dc:title/></cc:Work></rdf:RDF></metadata><g id="g186" class="com.sun.star.drawing.CustomShape" transform="translate(-3285.9 -3185.9)"><g id="id6"><rect id="rect189" class="BoundingBox" x="3299" y="3199" width="1303" height="1203" fill="none"/><path id="path191" d="m3950 4400h-650v-1200h1300v1200h-650z" fill="#00f"/><path id="path193" d="m3950
4400h-650v-1200h1300v1200h-650z" fill="none" stroke="#3465a4"/><text id="text195" class="TextShape"><tspan id="tspan197" class="TextParagraph" font-family="sans-serif" font-size="635px" font-weight="400"><tspan id="tspan199" class="TextPosition" x="3739" y="4021"><tspan id="tspan201" fill="#ffffff">B</tspan></tspan></tspan></text>
</g></g><g id="g203" class="com.sun.star.drawing.CustomShape" transform="translate(-3285.9 -3185.9)"><g id="id7"><rect id="rect206" class="BoundingBox" x="4599" y="3199" width="1303" height="1203" fill="none"/><path id="path208" d="m5250 4400h-650v-1200h1300v1200h-650z" fill="#0c0"/><path id="path210" d="m5250 4400h-650v-1200h1300v1200h-650z" fill="none" stroke="#3465a4"/><text id="text212" class="TextShape"><tspan id="tspan214" class="TextParagraph" font-family="sans-serif" font-size="635px" font-weight="400"><tspan id="tspan216" class="TextPosition" x="5003" y="4021"><tspan id="tspan218" fill="#ffffff">G</tspan></tspan></tspan></text>
</g></g><g id="g220" class="com.sun.star.drawing.CustomShape" transform="translate(-3285.9 -3185.9)"><g id="id8"><rect id="rect223" class="BoundingBox" x="3299" y="4399" width="1303" height="1203" fill="none"/><path id="path225" d="m3950 5600h-650v-1200h1300v1200h-650z" fill="#0c0"/><path id="path227" d="m3950 5600h-650v-1200h1300v1200h-650z" fill="none" stroke="#3465a4"/><text id="text229" class="TextShape"><tspan id="tspan231" class="TextParagraph" font-family="sans-serif" font-size="635px" font-weight="400"><tspan id="tspan233" class="TextPosition" x="3703" y="5221"><tspan id="tspan235" fill="#ffffff">G</tspan></tspan></tspan></text>
</g></g><g id="g237" class="com.sun.star.drawing.CustomShape" transform="translate(-3285.9 -3185.9)"><g id="id9"><rect id="rect240" class="BoundingBox" x="4599" y="4399" width="1303" height="1203" fill="none"/><path id="path242" d="m5250 5600h-650v-1200h1300v1200h-650z" fill="#f00"/><path id="path244" d="m5250 5600h-650v-1200h1300v1200h-650z" fill="none" stroke="#3465a4"/><text id="text246" class="TextShape"><tspan id="tspan248" class="TextParagraph" font-family="sans-serif" font-size="635px" font-weight="400"><tspan id="tspan250" class="TextPosition" x="5022" y="5221"><tspan id="tspan252" fill="#ffffff">R</tspan></tspan></tspan></text>
</g></g><g id="g254" class="com.sun.star.drawing.CustomShape" transform="translate(-3285.9 -3185.9)"><g id="id10" fill="none"><rect id="rect257" class="BoundingBox" x="5999" y="3299" width="1003" height="1003"/><path id="path259" d="m6500 4300h-500v-1e3h1e3v1e3h-500z" stroke="#00f"/></g></g><g id="g261" class="com.sun.star.drawing.CustomShape" transform="translate(-3285.9 -3185.9)"><g id="id11" fill="none"><rect id="rect264" class="BoundingBox" x="4699" y="5699" width="1003" height="1003"/><path id="path266" d="m5200 6700h-500v-1e3h1e3v1e3h-500z" stroke="#0c0"/></g></g><g id="g268" class="com.sun.star.drawing.TextShape" transform="translate(-3285.9 -3185.9)"><g id="id12"><rect id="rect271" class="BoundingBox" x="4e3" y="6900" width="2374" height="963" fill="none"/><text id="text273" class="TextShape"><tspan id="tspan275" class="TextParagraph" font-family="sans-serif" font-size="635px"
font-weight="400"><tspan id="tspan277" class="TextPosition" x="4250" y="7601"><tspan id="tspan279" fill="#000000">BGGR</tspan></tspan></tspan></text>
</g></g><g id="g281" class="com.sun.star.drawing.CustomShape" transform="translate(-3285.9 -3185.9)"><g id="id13"><rect id="rect284" class="BoundingBox" x="8799" y="3199" width="1303" height="1203" fill="none"/><path id="path286" d="m9450 4400h-650v-1200h1300v1200h-650z" fill="#00f"/><path id="path288" d="m9450 4400h-650v-1200h1300v1200h-650z" fill="none" stroke="#3465a4"/><text id="text290" class="TextShape"><tspan id="tspan292" class="TextParagraph" font-family="sans-serif" font-size="635px" font-weight="400"><tspan id="tspan294" class="TextPosition" x="9239" y="4021"><tspan id="tspan296" fill="#ffffff">B</tspan></tspan></tspan></text>
</g></g><g id="g298" class="com.sun.star.drawing.CustomShape" transform="translate(-3285.9 -3185.9)"><g id="id14"><rect id="rect301" class="BoundingBox" x="7499" y="3199" width="1303" height="1203" fill="none"/><path id="path303" d="m8150 4400h-650v-1200h1300v1200h-650z" fill="#0c0"/><path id="path305" d="m8150 4400h-650v-1200h1300v1200h-650z" fill="none" stroke="#3465a4"/><text id="text307" class="TextShape"><tspan id="tspan309" class="TextParagraph" font-family="sans-serif" font-size="635px" font-weight="400"><tspan id="tspan311" class="TextPosition" x="7903" y="4021"><tspan id="tspan313" fill="#ffffff">G</tspan></tspan></tspan></text>
</g></g><g id="g315" class="com.sun.star.drawing.CustomShape" transform="translate(-3285.9 -3185.9)"><g id="id15"><rect id="rect318" class="BoundingBox" x="8799" y="4399" width="1303" height="1203" fill="none"/><path id="path320" d="m9450 5600h-650v-1200h1300v1200h-650z" fill="#0c0"/><path id="path322" d="m9450 5600h-650v-1200h1300v1200h-650z" fill="none" stroke="#3465a4"/><text id="text324" class="TextShape"><tspan id="tspan326" class="TextParagraph" font-family="sans-serif" font-size="635px" font-weight="400"><tspan id="tspan328" class="TextPosition" x="9203" y="5221"><tspan id="tspan330" fill="#ffffff">G</tspan></tspan></tspan></text>
</g></g><g id="g332" class="com.sun.star.drawing.CustomShape" transform="translate(-3285.9 -3185.9)"><g id="id16"><rect id="rect335" class="BoundingBox" x="7499" y="4399" width="1303" height="1203" fill="none"/><path id="path337" d="m8150 5600h-650v-1200h1300v1200h-650z" fill="#f00"/><path id="path339" d="m8150 5600h-650v-1200h1300v1200h-650z" fill="none" stroke="#3465a4"/><text id="text341" class="TextShape"><tspan id="tspan343" class="TextParagraph" font-family="sans-serif" font-size="635px" font-weight="400"><tspan id="tspan345" class="TextPosition" x="7922" y="5221"><tspan id="tspan347" fill="#ffffff">R</tspan></tspan></tspan></text>
</g></g><g id="g349" class="com.sun.star.drawing.TextShape" transform="translate(-3285.9 -3185.9)"><g id="id17"><rect id="rect352" class="BoundingBox" x="8200" y="6900" width="2374" height="963" fill="none"/><text id="text354" class="TextShape"><tspan id="tspan356" class="TextParagraph" font-family="sans-serif" font-size="635px" font-weight="400"><tspan id="tspan358" class="TextPosition" x="8450" y="7601"><tspan id="tspan360" fill="#000000">GBRG</tspan></tspan></tspan></text>
</g></g><g id="g362" class="com.sun.star.drawing.CustomShape" transform="translate(-3285.9 -3185.9)"><g id="id18"><rect id="rect365" class="BoundingBox" x="17299" y="4399" width="1303" height="1203" fill="none"/><path id="path367" d="m17950 5600h-650v-1200h1300v1200h-650z" fill="#00f"/><path id="path369" d="m17950 5600h-650v-1200h1300v1200h-650z" fill="none" stroke="#3465a4"/><text id="text371" class="TextShape"><tspan id="tspan373" class="TextParagraph" font-family="sans-serif" font-size="635px" font-weight="400"><tspan id="tspan375" class="TextPosition" x="17739" y="5221"><tspan id="tspan377" fill="#ffffff">B</tspan></tspan></tspan></text>
</g></g><g id="g379" class="com.sun.star.drawing.CustomShape" transform="translate(-3285.9 -3185.9)"><g id="id19"><rect id="rect382" class="BoundingBox" x="17299" y="3199" width="1303" height="1203" fill="none"/><path id="path384" d="m17950 4400h-650v-1200h1300v1200h-650z" fill="#0c0"/><path id="path386" d="m17950 4400h-650v-1200h1300v1200h-650z" fill="none" stroke="#3465a4"/><text id="text388" class="TextShape"><tspan id="tspan390" class="TextParagraph" font-family="sans-serif" font-size="635px" font-weight="400"><tspan id="tspan392" class="TextPosition" x="17703" y="4021"><tspan id="tspan394" fill="#ffffff">G</tspan></tspan></tspan></text>
</g></g><g id="g396" class="com.sun.star.drawing.CustomShape" transform="translate(-3285.9 -3185.9)"><g id="id20"><rect id="rect399" class="BoundingBox" x="15999" y="4399" width="1303" height="1203" fill="none"/><path id="path401" d="m16650 5600h-650v-1200h1300v1200h-650z" fill="#0c0"/><path id="path403" d="m16650 5600h-650v-1200h1300v1200h-650z" fill="none" stroke="#3465a4"/><text id="text405" class="TextShape"><tspan id="tspan407" class="TextParagraph" font-family="sans-serif" font-size="635px" font-weight="400"><tspan id="tspan409" class="TextPosition" x="16403" y="5221"><tspan id="tspan411" fill="#ffffff">G</tspan></tspan></tspan></text>
</g></g><g id="g413" class="com.sun.star.drawing.CustomShape" transform="translate(-3285.9 -3185.9)"><g id="id21"><rect id="rect416" class="BoundingBox" x="15999" y="3199" width="1303" height="1203" fill="none"/><path id="path418" d="m16650 4400h-650v-1200h1300v1200h-650z" fill="#f00"/><path id="path420" d="m16650 4400h-650v-1200h1300v1200h-650z" fill="none" stroke="#3465a4"/><text id="text422" class="TextShape"><tspan id="tspan424" class="TextParagraph" font-family="sans-serif" font-size="635px" font-weight="400"><tspan id="tspan426" class="TextPosition" x="16422" y="4021"><tspan id="tspan428" fill="#ffffff">R</tspan></tspan></tspan></text>
</g></g><g id="g430" class="com.sun.star.drawing.TextShape" transform="translate(-3285.9 -3185.9)"><g id="id22"><rect id="rect433" class="BoundingBox" x="16700" y="6900" width="2374" height="963" fill="none"/><text id="text435" class="TextShape"><tspan id="tspan437" class="TextParagraph" font-family="sans-serif" font-size="635px" font-weight="400"><tspan id="tspan439" class="TextPosition" x="16950" y="7601"><tspan id="tspan441" fill="#000000">RGGB</tspan></tspan></tspan></text>
</g></g><g id="g443" class="com.sun.star.drawing.CustomShape" transform="translate(-3285.9 -3185.9)"><g id="id23"><rect id="rect446" class="BoundingBox" x="11699" y="4399" width="1303" height="1203" fill="none"/><path id="path448" d="m12350 5600h-650v-1200h1300v1200h-650z" fill="#00f"/><path id="path450" d="m12350 5600h-650v-1200h1300v1200h-650z" fill="none" stroke="#3465a4"/><text id="text452" class="TextShape"><tspan id="tspan454" class="TextParagraph" font-family="sans-serif" font-size="635px" font-weight="400"><tspan id="tspan456" class="TextPosition" x="12139" y="5221"><tspan id="tspan458" fill="#ffffff">B</tspan></tspan></tspan></text>
</g></g><g id="g460" class="com.sun.star.drawing.CustomShape" transform="translate(-3285.9 -3185.9)"><g id="id24"><rect id="rect463" class="BoundingBox" x="11699" y="3199" width="1303" height="1203" fill="none"/><path id="path465" d="m12350 4400h-650v-1200h1300v1200h-650z" fill="#0c0"/><path id="path467" d="m12350 4400h-650v-1200h1300v1200h-650z" fill="none" stroke="#3465a4"/><text id="text469" class="TextShape"><tspan id="tspan471" class="TextParagraph" font-family="sans-serif" font-size="635px" font-weight="400"><tspan id="tspan473" class="TextPosition" x="12103" y="4021"><tspan id="tspan475" fill="#ffffff">G</tspan></tspan></tspan></text>
</g></g><g id="g477" class="com.sun.star.drawing.CustomShape" transform="translate(-3285.9 -3185.9)"><g id="id25"><rect id="rect480" class="BoundingBox" x="12999" y="4399" width="1303" height="1203" fill="none"/><path id="path482" d="m13650 5600h-650v-1200h1300v1200h-650z" fill="#0c0"/><path id="path484" d="m13650 5600h-650v-1200h1300v1200h-650z" fill="none" stroke="#3465a4"/><text id="text486" class="TextShape"><tspan id="tspan488" class="TextParagraph" font-family="sans-serif" font-size="635px" font-weight="400"><tspan id="tspan490" class="TextPosition" x="13403" y="5221"><tspan id="tspan492" fill="#ffffff">G</tspan></tspan></tspan></text>
</g></g><g id="g494" class="com.sun.star.drawing.CustomShape" transform="translate(-3285.9 -3185.9)"><g id="id26"><rect id="rect497" class="BoundingBox" x="12999" y="3199" width="1303" height="1203" fill="none"/><path id="path499" d="m13650 4400h-650v-1200h1300v1200h-650z" fill="#f00"/><path id="path501" d="m13650 4400h-650v-1200h1300v1200h-650z" fill="none" stroke="#3465a4"/><text id="text503" class="TextShape"><tspan id="tspan505" class="TextParagraph" font-family="sans-serif" font-size="635px" font-weight="400"><tspan id="tspan507" class="TextPosition" x="13422" y="4021"><tspan id="tspan509" fill="#ffffff">R</tspan></tspan></tspan></text>
</g></g><g id="g511" class="com.sun.star.drawing.TextShape" transform="translate(-3285.9 -3185.9)"><g id="id27"><rect id="rect514" class="BoundingBox" x="12400" y="6900" width="2374" height="963" fill="none"/><text id="text516" class="TextShape"><tspan id="tspan518" class="TextParagraph" font-family="sans-serif" font-size="635px" font-weight="400"><tspan id="tspan520" class="TextPosition" x="12650" y="7601"><tspan id="tspan522" fill="#000000">GRBG</tspan></tspan></tspan></text>
</g></g><g id="g524" class="com.sun.star.drawing.CustomShape" transform="translate(-3285.9 -3185.9)"><g id="id28" fill="none"><rect id="rect527" class="BoundingBox" x="5999" y="5699" width="1003" height="1003"/><path id="path529" d="m6500 6700h-500v-1e3h1e3v1e3h-500z" stroke="#00f"/></g></g><g id="g531" class="com.sun.star.drawing.CustomShape" transform="translate(-3285.9 -3185.9)"><g id="id29" fill="none"><rect id="rect534" class="BoundingBox" x="3399" y="5699" width="1003" height="1003"/><path id="path536" d="m3900 6700h-500v-1e3h1e3v1e3h-500z" stroke="#00f"/></g></g><g id="g538" class="com.sun.star.drawing.CustomShape" transform="translate(-3285.9 -3185.9)"><g id="id30" fill="none"><rect id="rect541" class="BoundingBox" x="5999" y="4499" width="1003" height="1003"/><path id="path543" d="m6500 5500h-500v-1e3h1e3v1e3h-500z" stroke="#0c0"/></g></g><g id="g545"
class="com.sun.star.drawing.CustomShape" transform="translate(-3285.9 -3185.9)"><g id="id31" fill="none"><rect id="rect548" class="BoundingBox" x="7599" y="5799" width="1003" height="1003"/><path id="path550" d="m8100 6800h-500v-1e3h1e3v1e3h-500z" stroke="#0c0"/></g></g><g id="g552" class="com.sun.star.drawing.CustomShape" transform="translate(-3285.9 -3185.9)"><g id="id32" fill="none"><rect id="rect555" class="BoundingBox" x="10199" y="5799" width="1003" height="1003"/><path id="path557" d="m10700 6800h-500v-1e3h1e3v1e3h-500z" stroke="#0c0"/></g></g><g id="g559" class="com.sun.star.drawing.CustomShape" transform="translate(-3285.9 -3185.9)"><g id="id33" fill="none"><rect id="rect562" class="BoundingBox" x="8899" y="5799" width="1003" height="1003"/><path id="path564" d="m9400 6800h-500v-1e3h1e3v1e3h-500z" stroke="#00f"/></g></g><g id="g566" class="com.sun.star.drawing.CustomShape"
transform="translate(-3285.9 -3185.9)"><g id="id34" fill="none"><rect id="rect569" class="BoundingBox" x="10199" y="4499" width="1003" height="1003"/><path id="path571" d="m10700 5500h-500v-1e3h1e3v1e3h-500z" stroke="#f00"/></g></g><g id="g573" class="com.sun.star.drawing.CustomShape" transform="translate(-3285.9 -3185.9)"><g id="id35" fill="none"><rect id="rect576" class="BoundingBox" x="10199" y="3299" width="1003" height="1003"/><path id="path578" d="m10700 4300h-500v-1e3h1e3v1e3h-500z" stroke="#0c0"/></g></g><g id="g580" class="com.sun.star.drawing.CustomShape" transform="translate(-3285.9 -3185.9)"><g id="id36" fill="none"><rect id="rect583" class="BoundingBox" x="14399" y="3299" width="1003" height="1003"/><path id="path585" d="m14900 4300h-500v-1e3h1e3v1e3h-500z" stroke="#0c0"/></g></g><g id="g587" class="com.sun.star.drawing.CustomShape" transform="translate(-3285.9 -3185.9)"><g
id="id37" fill="none"><rect id="rect590" class="BoundingBox" x="14399" y="5799" width="1003" height="1003"/><path id="path592" d="m14900 6800h-500v-1e3h1e3v1e3h-500z" stroke="#0c0"/></g></g><g id="g594" class="com.sun.star.drawing.CustomShape" transform="translate(-3285.9 -3185.9)"><g id="id38" fill="none"><rect id="rect597" class="BoundingBox" x="11799" y="5799" width="1003" height="1003"/><path id="path599" d="m12300 6800h-500v-1e3h1e3v1e3h-500z" stroke="#0c0"/></g></g><g id="g601" class="com.sun.star.drawing.CustomShape" transform="translate(-3285.9 -3185.9)"><g id="id39" fill="none"><rect id="rect604" class="BoundingBox" x="14399" y="4499" width="1003" height="1003"/><path id="path606" d="m14900 5500h-500v-1e3h1e3v1e3h-500z" stroke="#00f"/></g></g><g id="g608" class="com.sun.star.drawing.CustomShape" transform="translate(-3285.9 -3185.9)"><g id="id40" fill="none"><rect id="rect611"
class="BoundingBox" x="13099" y="5799" width="1003" height="1003"/><path id="path613" d="m13600 6800h-500v-1e3h1e3v1e3h-500z" stroke="#f00"/></g></g><g id="g615" class="com.sun.star.drawing.CustomShape" transform="translate(-3285.9 -3185.9)"><g id="id41" fill="none"><rect id="rect618" class="BoundingBox" x="16099" y="5799" width="1003" height="1003"/><path id="path620" d="m16600 6800h-500v-1e3h1e3v1e3h-500z" stroke="#f00"/></g></g><g id="g622" class="com.sun.star.drawing.CustomShape" transform="translate(-3398.8 -3185.9)"><g id="id42" fill="none"><rect id="rect625" class="BoundingBox" x="18799" y="5799" width="1003" height="1003"/><path id="path627" d="m19300 6800h-500v-1e3h1e3v1e3h-500z" stroke="#f00"/></g></g><g id="g629" class="com.sun.star.drawing.CustomShape" transform="translate(-3398.8 -3185.9)"><g id="id43" fill="none"><rect id="rect632" class="BoundingBox" x="18799" y="3299"
width="1003" height="1003"/><path id="path634" d="m19300 4300h-500v-1e3h1e3v1e3h-500z" stroke="#f00"/></g></g><g id="g636" class="com.sun.star.drawing.CustomShape" transform="translate(-3285.9 -3185.9)"><g id="id44" fill="none"><rect id="rect639" class="BoundingBox" x="17399" y="5799" width="1003" height="1003"/><path id="path641" d="m17900 6800h-500v-1e3h1e3v1e3h-500z" stroke="#0c0"/></g></g><g id="g643" class="com.sun.star.drawing.CustomShape" transform="translate(-3398.8 -3185.9)"><g id="id45" fill="none"><rect id="rect646" class="BoundingBox" x="18799" y="4499" width="1003" height="1003"/><path id="path648" d="m19300 5500h-500v-1e3h1e3v1e3h-500z" stroke="#0c0"/></g></g></svg>
