<?xml version="1.0" encoding="UTF-8" standalone="no"?>
<!-- Created with Inkscape (http://www.inkscape.org/) -->

<svg
   xmlns:dc="http://purl.org/dc/elements/1.1/"
   xmlns:cc="http://creativecommons.org/ns#"
   xmlns:rdf="http://www.w3.org/1999/02/22-rdf-syntax-ns#"
   xmlns:svg="http://www.w3.org/2000/svg"
   xmlns="http://www.w3.org/2000/svg"
   xmlns:sodipodi="http://sodipodi.sourceforge.net/DTD/sodipodi-0.dtd"
   xmlns:inkscape="http://www.inkscape.org/namespaces/inkscape"
   id="svg2"
   version="1.1"
   inkscape:version="0.91 r13725"
   xml:space="preserve"
   width="208.59436mm"
   height="95.859146mm"
   viewBox="0 0 739.11388 339.6584"
   sodipodi:docname="crop.svg"><metadata
     id="metadata8"><rdf:RDF><cc:Work
         rdf:about=""><dc:format>image/svg+xml</dc:format><dc:type
           rdf:resource="http://purl.org/dc/dcmitype/StillImage" /><dc:title></dc:title></cc:Work></rdf:RDF></metadata><defs
     id="defs6"><clipPath
       clipPathUnits="userSpaceOnUse"
       id="clipPath44"><path
         d="m 0,0 0,1895 4118,0 L 4118,0 0,0 Z m 3051.62,250.48 8.19,17.01 -46.93,23.31 29.61,-25.515 -38.12,8.505 47.25,-23.31 z m -1559.25,800.73 -8.5,-17.01 46.93,-23.31 -29.29,25.2 37.8,-8.19 -46.94,23.31 z"
         id="path46"
         inkscape:connector-curvature="0"
         style="clip-rule:evenodd" /></clipPath><clipPath
       clipPathUnits="userSpaceOnUse"
       id="clipPath64"><path
         d="m 0,0 0,1895 4118,0 0,-1626 -1,0 0,1 -2,0 0,1 -2,0 0,1 -2,0 0,1 -2,0 0,1 -2,0 0,1 -2,0 0,1 -2,0 0,1 -2,0 0,1 -2,0 0,1 -2,0 0,1 -2,0 0,1 -2,0 0,1 -2,0 0,1 -2,0 0,1 -2,0 0,1 -2,0 0,1 -2,0 0,1 -1,0 0,-1 1,0 0,-1 1,0 0,-1 2,0 0,-1 1,0 0,-1 1,0 0,-1 1,0 0,-1 1,0 0,-1 1,0 0,-1 2,0 0,-1 1,0 0,-1 1,0 0,-1 1,0 0,-1 1,0 0,-1 1,0 0,-1 1,0 0,-1 2,0 0,-1 1,0 0,-1 1,0 0,-1 1,0 0,-1 1,0 0,-1 1,0 0,-1 -4,0 0,1 -5,0 0,1 -4,0 0,1 -5,0 0,1 -4,0 0,1 -4,0 0,1 -4,0 0,-1 2,0 0,-1 2,0 0,-1 2,0 0,-1 2,0 0,-1 2,0 0,-1 2,0 0,-1 2,0 0,-1 2,0 0,-1 2,0 0,-1 2,0 0,-1 2,0 0,-1 2,0 0,-1 2,0 0,-1 2,0 0,-1 2,0 0,-1 2,0 0,-1 2,0 0,-1 2,0 0,-1 2,0 0,-1 1,0 0,3 1,0 0,2 1,0 0,2 1,0 L 4118,0 0,0 Z m 4074,272 0,-1 1,0 0,1 -1,0 z m -1486,743 0,-1 1,0 0,1 -1,0 z m -2,1 0,-1 1,0 0,1 -1,0 0,1 -1,0 0,1 -1,0 0,1 -1,0 0,1 -1,0 0,1 -1,0 0,1 -2,0 0,1 -1,0 0,1 -1,0 0,1 -1,0 0,1 -1,0 0,1 -1,0 0,1 -2,0 0,1 -1,0 0,1 -1,0 0,1 -1,0 0,1 -1,0 0,1 -1,0 0,1 -2,0 0,1 -1,0 0,2 2,0 0,-1 4,0 0,-1 5,0 0,-1 4,0 0,-1 5,0 0,-1 5,0 0,-1 4,0 0,-1 3,0 0,1 -2,0 0,1 -2,0 0,1 -2,0 0,1 -2,0 0,1 -2,0 0,1 -2,0 0,1 -2,0 0,1 -2,0 0,1 -2,0 0,1 -2,0 0,1 -2,0 0,1 -2,0 0,1 -2,0 0,1 -2,0 0,1 -3,0 0,1 -2,0 0,1 -2,0 0,1 -2,0 0,1 -2,0 0,1 -2,0 0,-2 -1,0 0,-2 -1,0 0,-2 -1,0 0,-2 -1,0 0,-2 -1,0 0,-2 -1,0 0,-2 -1,0 0,-2 2,0 0,-1 2,0 0,-1 2,0 0,-1 2,0 0,-1 2,0 0,-1 2,0 0,-1 2,0 0,-1 2,0 0,-1 2,0 0,-1 2,0 0,-1 2,0 0,-1 2,0 0,-1 2,0 0,-1 2,0 0,-1 2,0 0,-1 2,0 0,-1 2,0 0,-1 2,0 0,-1 2,0 z"
         id="path66"
         inkscape:connector-curvature="0"
         style="clip-rule:evenodd" /></clipPath><clipPath
       clipPathUnits="userSpaceOnUse"
       id="clipPath84"><path
         d="m 0,0 0,1895 4118,0 0,-136 -3,0 0,-1 -11,0 0,-1 -11,0 0,-1 -11,0 0,-1 -11,0 0,-1 5,0 0,-1 6,0 0,-1 7,0 0,-1 6,0 0,-1 6,0 0,-1 4,0 0,-1 -1,0 0,-1 -3,0 0,-1 -3,0 0,-1 -2,0 0,-1 -3,0 0,-1 -3,0 0,-1 -3,0 0,-1 -3,0 0,-1 -3,0 0,-1 -3,0 0,-1 -3,0 0,-1 7,0 0,1 11,0 0,1 11,0 0,1 11,0 0,1 3,0 L 4118,0 0,0 Z m 2552,1599 0,-1 2,0 0,1 11,0 0,1 11,0 0,1 11,0 0,1 11,0 0,1 -4,0 0,1 -7,0 0,1 -6,0 0,1 -7,0 0,1 -6,0 0,1 -3,0 0,1 2,0 0,1 2,0 0,1 3,0 0,1 3,0 0,1 3,0 0,1 3,0 0,1 3,0 0,1 2,0 0,1 3,0 0,1 3,0 0,1 3,0 0,1 -7,0 0,-1 -12,0 0,-1 -11,0 0,-1 -11,0 0,-1 -4,0 0,-1 1,0 0,-12 1,0 0,-4 z"
         id="path86"
         inkscape:connector-curvature="0"
         style="clip-rule:evenodd" /></clipPath><clipPath
       clipPathUnits="userSpaceOnUse"
       id="clipPath104"><path
         d="m 0,0 0,1895 4118,0 L 4118,0 0,0 Z m 3056.98,1740.43 -1.58,18.9 -52.6,-4.72 38.74,-6.3 -36.85,-12.6 52.29,4.72 z m -1570.28,-123.79 1.58,-18.9 52.6,4.72 -38.43,5.99 36.54,12.91 -52.29,-4.72 z"
         id="path106"
         inkscape:connector-curvature="0"
         style="clip-rule:evenodd" /></clipPath></defs><sodipodi:namedview
     pagecolor="#ffffff"
     bordercolor="#666666"
     borderopacity="1"
     objecttolerance="10"
     gridtolerance="10"
     guidetolerance="10"
     inkscape:pageopacity="0"
     inkscape:pageshadow="2"
     inkscape:window-width="1920"
     inkscape:window-height="997"
     id="namedview4"
     showgrid="false"
     inkscape:zoom="0.99625351"
     inkscape:cx="259.01763"
     inkscape:cy="118.19072"
     inkscape:window-x="1920"
     inkscape:window-y="30"
     inkscape:window-maximized="1"
     inkscape:current-layer="g10"
     units="mm"
     fit-margin-top="0"
     fit-margin-left="0"
     fit-margin-right="0"
     fit-margin-bottom="0" /><g
     id="g10"
     inkscape:groupmode="layer"
     inkscape:label="crop"
     transform="matrix(1.25,0,0,-1.25,-0.35237428,339.91141)"><g
       id="g14"
       transform="matrix(0.14375794,0,0,0.14375794,-0.12334269,-0.08856738)"><path
         inkscape:connector-curvature="0"
         id="path16"
         style="fill:#7f7f7f;fill-opacity:1;fill-rule:evenodd;stroke:none"
         d="m 2860.42,3.20508 0,1887.79492 -258.62,0 0,-13.54 -1428.52,13.54 0,-17.95 -1084.5451,0 0,-13.23 L 213.79,21.1602 l -125.0551,0 0,-17.95512 1343.4751,0 0,17.95512 -959.49,0 0,1838.6598 2320.92,0 0,-1838.6598 -1231.97,0 0,-13.54497 1040.13,0 0,-4.41015" /><path
         inkscape:connector-curvature="0"
         id="path18"
         style="fill:none;stroke:#000000;stroke-width:2.36249995;stroke-linecap:butt;stroke-linejoin:miter;stroke-miterlimit:10;stroke-dasharray:none;stroke-opacity:1"
         d="m 2860.42,3.20508 0,1887.79492 -258.62,0 0,-13.54 -1428.52,13.54 0,-17.95 -1084.5451,0 0,-13.23 L 213.79,21.1602 l -125.0551,0 0,-17.95512 1343.4751,0 0,17.95512 -959.49,0 0,1838.6598 2320.92,0 0,-1838.6598 -1231.97,0 0,-13.54497 1040.13,0 0,-4.41015 258.62,0 z" /><path
         inkscape:connector-curvature="0"
         id="path20"
         style="fill:none;stroke:#ff0000;stroke-width:2.36249995;stroke-linecap:butt;stroke-linejoin:miter;stroke-miterlimit:10;stroke-dasharray:none;stroke-opacity:1"
         d="m 280.885,47.9351 2552.76,0 0,1762.74 -2552.76,0 0,-1762.74 z" /><path
         inkscape:connector-curvature="0"
         id="path22"
         style="fill:none;stroke:#0000ff;stroke-width:2.36249995;stroke-linecap:butt;stroke-linejoin:miter;stroke-miterlimit:10;stroke-dasharray:none;stroke-opacity:1"
         d="m 539.5,52.3452 2200.59,0 0,1700.37 -2200.59,0 0,-1700.37 z" /><path
         inkscape:connector-curvature="0"
         id="path24"
         style="fill:none;stroke:#00b000;stroke-width:2.36249995;stroke-linecap:butt;stroke-linejoin:miter;stroke-miterlimit:10;stroke-dasharray:none;stroke-opacity:1"
         d="m 1492.37,1040.5 1063.12,0 0,567 -1063.12,0 0,-567 z" /><path
         inkscape:connector-curvature="0"
         id="path26"
         style="fill:none;stroke:#d100d1;stroke-width:2.36249995;stroke-linecap:butt;stroke-linejoin:miter;stroke-miterlimit:10;stroke-dasharray:none;stroke-opacity:1"
         d="m 3051.62,260.875 1063.12,0 0,1488.38 -1063.12,0 0,-1488.38 z" /><path
         inkscape:connector-curvature="0"
         id="path28"
         style="fill:#000000;fill-opacity:1;fill-rule:evenodd;stroke:none"
         d="m 4,1891 1169.28,0 0,-17.95 -1084.5451,0 0,-13.23 125.0551,0 0,-1838.6598 -125.0551,0 0,-17.95512 -84.7349,0" /><path
         inkscape:connector-curvature="0"
         id="path30"
         style="fill:none;stroke:#000000;stroke-width:2.36249995;stroke-linecap:butt;stroke-linejoin:miter;stroke-miterlimit:10;stroke-dasharray:none;stroke-opacity:1"
         d="m 4,1891 1169.28,0 0,-17.95 -1084.5451,0 0,-13.23 125.0551,0 0,-1838.6598 -125.0551,0 0,-17.95512 L 4,3.20508 4,1891 Z" /><path
         inkscape:connector-curvature="0"
         id="path32"
         style="fill:#000000;fill-opacity:1;fill-rule:evenodd;stroke:none"
         d="m 2601.8,3.20508 0,4.41015 -1040.13,0 0,13.54497 -129.46,0 0,-17.95512" /><path
         inkscape:connector-curvature="0"
         id="path34"
         style="fill:none;stroke:#000000;stroke-width:2.36249995;stroke-linecap:butt;stroke-linejoin:miter;stroke-miterlimit:10;stroke-dasharray:none;stroke-opacity:1"
         d="m 2601.8,3.20508 0,4.41015 -1040.13,0 0,13.54497 -129.46,0 0,-17.95512 1169.59,0 z" /><path
         inkscape:connector-curvature="0"
         id="path36"
         style="fill:#000000;fill-opacity:1;fill-rule:evenodd;stroke:none"
         d="m 1432.21,1891 1169.59,0 0,-13.54 -1040.13,0 0,-17.64 -129.46,0" /><path
         inkscape:connector-curvature="0"
         id="path38"
         style="fill:none;stroke:#000000;stroke-width:2.36249995;stroke-linecap:butt;stroke-linejoin:miter;stroke-miterlimit:10;stroke-dasharray:none;stroke-opacity:1"
         d="m 1432.21,1891 1169.59,0 0,-13.54 -1040.13,0 0,-17.64 -129.46,0 0,31.18 z" /></g><g
       id="g40"
       transform="matrix(0.14375794,0,0,0.14375794,-0.12334269,-0.08856738)"><g
         clip-path="url(#clipPath44)"
         id="g42"><path
           inkscape:connector-curvature="0"
           id="path48"
           style="fill:none;stroke:#000000;stroke-width:2.36249995;stroke-linecap:butt;stroke-linejoin:miter;stroke-miterlimit:10;stroke-dasharray:none;stroke-opacity:1"
           d="M 1492.37,1040.5 3051.62,260.875" /></g></g><g
       id="g50"
       transform="matrix(0.14375794,0,0,0.14375794,-0.12334269,-0.08856738)"><path
         inkscape:connector-curvature="0"
         id="path52"
         style="fill:#000000;fill-opacity:1;fill-rule:evenodd;stroke:none"
         d="m 1539.31,1027.9 -37.8,8.19 29.29,-25.2 8.51,17.01" /><path
         inkscape:connector-curvature="0"
         id="path54"
         style="fill:none;stroke:#000000;stroke-width:4.7249999;stroke-linecap:butt;stroke-linejoin:miter;stroke-miterlimit:10;stroke-dasharray:none;stroke-opacity:1"
         d="m 1539.31,1027.9 -37.8,8.19 29.29,-25.2 8.51,17.01 z" /><path
         inkscape:connector-curvature="0"
         id="path56"
         style="fill:#000000;fill-opacity:1;fill-rule:evenodd;stroke:none"
         d="m 3004.37,273.79 38.12,-8.505 -29.61,25.515 -8.51,-17.01" /><path
         inkscape:connector-curvature="0"
         id="path58"
         style="fill:none;stroke:#000000;stroke-width:4.7249999;stroke-linecap:butt;stroke-linejoin:miter;stroke-miterlimit:10;stroke-dasharray:none;stroke-opacity:1"
         d="m 3004.37,273.79 38.12,-8.505 -29.61,25.515 -8.51,-17.01 z" /></g><g
       id="g60"
       transform="matrix(0.14375794,0,0,0.14375794,-0.12334269,-0.08856738)"><g
         clip-path="url(#clipPath64)"
         id="g62"><path
           inkscape:connector-curvature="0"
           id="path68"
           style="fill:none;stroke:#000000;stroke-width:2.36249995;stroke-linecap:butt;stroke-linejoin:miter;stroke-miterlimit:10;stroke-dasharray:none;stroke-opacity:1"
           d="M 2555.5,1040.5 4114.75,260.875" /></g></g><g
       id="g70"
       transform="matrix(0.14375794,0,0,0.14375794,-0.12334269,-0.08856738)"><path
         inkscape:connector-curvature="0"
         id="path72"
         style="fill:#000000;fill-opacity:1;fill-rule:evenodd;stroke:none"
         d="m 2602.43,1027.9 -37.8,8.19 29.3,-25.2 8.5,17.01" /><path
         inkscape:connector-curvature="0"
         id="path74"
         style="fill:none;stroke:#000000;stroke-width:4.7249999;stroke-linecap:butt;stroke-linejoin:miter;stroke-miterlimit:10;stroke-dasharray:none;stroke-opacity:1"
         d="m 2602.43,1027.9 -37.8,8.19 29.3,-25.2 8.5,17.01 z" /><path
         inkscape:connector-curvature="0"
         id="path76"
         style="fill:#000000;fill-opacity:1;fill-rule:evenodd;stroke:none"
         d="m 4067.5,273.79 38.11,-8.505 -29.61,25.515 -8.5,-17.01" /><path
         inkscape:connector-curvature="0"
         id="path78"
         style="fill:none;stroke:#000000;stroke-width:4.7249999;stroke-linecap:butt;stroke-linejoin:miter;stroke-miterlimit:10;stroke-dasharray:none;stroke-opacity:1"
         d="m 4067.5,273.79 38.11,-8.505 -29.61,25.515 -8.5,-17.01 z" /></g><g
       id="g80"
       transform="matrix(0.14375794,0,0,0.14375794,-0.12334269,-0.08856738)"><g
         clip-path="url(#clipPath84)"
         id="g82"><path
           inkscape:connector-curvature="0"
           id="path88"
           style="fill:none;stroke:#000000;stroke-width:2.36249995;stroke-linecap:butt;stroke-linejoin:miter;stroke-miterlimit:10;stroke-dasharray:none;stroke-opacity:1"
           d="m 2555.5,1607.5 1559.25,141.75" /></g></g><g
       id="g90"
       transform="matrix(0.14375794,0,0,0.14375794,-0.12334269,-0.08856738)"><path
         inkscape:connector-curvature="0"
         id="path92"
         style="fill:#000000;fill-opacity:1;fill-rule:evenodd;stroke:none"
         d="m 2602.12,1621.36 -36.54,-12.91 38.43,-5.99 -1.89,18.9" /><path
         inkscape:connector-curvature="0"
         id="path94"
         style="fill:none;stroke:#000000;stroke-width:4.7249999;stroke-linecap:butt;stroke-linejoin:miter;stroke-miterlimit:10;stroke-dasharray:none;stroke-opacity:1"
         d="m 2602.12,1621.36 -36.54,-12.91 38.43,-5.99 -1.89,18.9 z" /><path
         inkscape:connector-curvature="0"
         id="path96"
         style="fill:#000000;fill-opacity:1;fill-rule:evenodd;stroke:none"
         d="m 4067.81,1735.71 36.86,12.6 -38.75,6.3 1.89,-18.9" /><path
         inkscape:connector-curvature="0"
         id="path98"
         style="fill:none;stroke:#000000;stroke-width:4.7249999;stroke-linecap:butt;stroke-linejoin:miter;stroke-miterlimit:10;stroke-dasharray:none;stroke-opacity:1"
         d="m 4067.81,1735.71 36.86,12.6 -38.75,6.3 1.89,-18.9 z" /></g><g
       id="g100"
       transform="matrix(0.14375794,0,0,0.14375794,-0.12334269,-0.08856738)"><g
         clip-path="url(#clipPath104)"
         id="g102"><path
           inkscape:connector-curvature="0"
           id="path108"
           style="fill:none;stroke:#000000;stroke-width:2.36249995;stroke-linecap:butt;stroke-linejoin:miter;stroke-miterlimit:10;stroke-dasharray:none;stroke-opacity:1"
           d="m 1492.37,1607.5 1559.25,141.75" /></g></g><g
       id="g110"
       transform="matrix(0.14375794,0,0,0.14375794,-0.12334269,-0.08856738)"><path
         inkscape:connector-curvature="0"
         id="path112"
         style="fill:#000000;fill-opacity:1;fill-rule:evenodd;stroke:none"
         d="m 1538.99,1621.36 -36.54,-12.91 38.43,-5.99 -1.89,18.9" /><path
         inkscape:connector-curvature="0"
         id="path114"
         style="fill:none;stroke:#000000;stroke-width:4.7249999;stroke-linecap:butt;stroke-linejoin:miter;stroke-miterlimit:10;stroke-dasharray:none;stroke-opacity:1"
         d="m 1538.99,1621.36 -36.54,-12.91 38.43,-5.99 -1.89,18.9 z" /><path
         inkscape:connector-curvature="0"
         id="path116"
         style="fill:#000000;fill-opacity:1;fill-rule:evenodd;stroke:none"
         d="m 3004.69,1735.71 36.85,12.6 -38.74,6.3 1.89,-18.9" /><path
         inkscape:connector-curvature="0"
         id="path118"
         style="fill:none;stroke:#000000;stroke-width:4.7249999;stroke-linecap:butt;stroke-linejoin:miter;stroke-miterlimit:10;stroke-dasharray:none;stroke-opacity:1"
         d="m 3004.69,1735.71 36.85,12.6 -38.74,6.3 1.89,-18.9 z" /><g
         transform="scale(10,10)"
         id="g120"><text
           id="text122"
           style="font-variant:normal;font-weight:normal;font-size:6.61499977px;font-family:Helvetica;-inkscape-font-specification:Helvetica;writing-mode:lr-tb;fill:#d10000;fill-opacity:1;fill-rule:nonzero;stroke:none"
           transform="matrix(1,0,0,-1,204.52,9.07751)"><tspan
             id="tspan124"
             sodipodi:role="line"
             y="0"
             x="0 3.3074999 6.9854398 8.45397 12.13191 15.80985 19.11735 21.320145 24.998085 28.676025 31.983524 35.661465 39.339405 41.178375 44.856316 48.534256 52.212196 55.890137 59.568073">v4l2_cropcap.bounds</tspan></text>
</g><g
         transform="scale(10,10)"
         id="g126"><text
           id="text128"
           style="font-variant:normal;font-weight:normal;font-size:6.61499977px;font-family:Helvetica;-inkscape-font-specification:Helvetica;writing-mode:lr-tb;fill:#0000d1;fill-opacity:1;fill-rule:nonzero;stroke:none"
           transform="matrix(1,0,0,-1,58.5175,166.42)"><tspan
             id="tspan130"
             sodipodi:role="line"
             y="0"
             x="0 3.3074999 6.9854398 8.45397 12.13191 15.80985 19.11735 21.320145 24.998085 28.676025 31.983524 35.661465 39.339405 41.178375 44.856316 48.534256 50.373226 52.576019 56.25396 59.561459">v4l2_cropcap.defrect</tspan></text>
</g><g
         transform="scale(10,10)"
         id="g132"><text
           id="text134"
           style="font-variant:normal;font-weight:normal;font-size:6.61499977px;font-family:Helvetica;-inkscape-font-specification:Helvetica;writing-mode:lr-tb;fill:#008f00;fill-opacity:1;fill-rule:nonzero;stroke:none"
           transform="matrix(1,0,0,-1,153.49,152.245)"><tspan
             id="tspan136"
             sodipodi:role="line"
             y="0"
             x="0 3.3074999 6.9854398 8.45397 12.13191 15.80985 19.11735 21.320145 24.998085 28.676025 30.514996">v4l2_crop.c</tspan></text>
</g><g
         transform="scale(10,10)"
         id="g138"><text
           id="text140"
           style="font-variant:normal;font-weight:normal;font-size:6.61499977px;font-family:Helvetica;-inkscape-font-specification:Helvetica;writing-mode:lr-tb;fill:#b000b0;fill-opacity:1;fill-rule:nonzero;stroke:none"
           transform="matrix(1,0,0,-1,309.415,30.34)"><tspan
             id="tspan142"
             sodipodi:role="line"
             y="0"
             x="0 3.3074999 6.9854398 8.45397 12.13191 15.80985 17.648821 21.326759 23.529554 29.03985 32.717789">v4l2_format</tspan></text>
</g></g></g></svg>