<?xml version="1.0" encoding="UTF-8" standalone="no"?>
<!-- Created with Inkscape (http://www.inkscape.org/) -->

<svg
   xmlns:dc="http://purl.org/dc/elements/1.1/"
   xmlns:cc="http://creativecommons.org/ns#"
   xmlns:rdf="http://www.w3.org/1999/02/22-rdf-syntax-ns#"
   xmlns:svg="http://www.w3.org/2000/svg"
   xmlns="http://www.w3.org/2000/svg"
   xmlns:sodipodi="http://sodipodi.sourceforge.net/DTD/sodipodi-0.dtd"
   xmlns:inkscape="http://www.inkscape.org/namespaces/inkscape"
   id="svg2"
   version="1.1"
   inkscape:version="0.91 r13725"
   xml:space="preserve"
   width="208.59436mm"
   height="95.859146mm"
   viewBox="0 0 739.11388 339.6584"
   sodipodi:docname="crop.svg"><metadata
     id="metadata8"><rdf:RDF><cc:Work
	 rdf:about=""><dc:format>image/svg+xml</dc:format><dc:type
	   rdf:resource="http://purl.org/dc/dcmitype/StillImage" /><dc:title /></cc:Work></rdf:RDF></metadata><defs
     id="defs6"><clipPath
       clipPathUnits="userSpaceOnUse"
       id="clipPath44"><path
	 d="m 0,0 0,1895 4118,0 L 4118,0 0,0 Z m 3051.62,250.48 8.19,17.01 -46.93,23.31 29.61,-25.515 -38.12,8.505 47.25,-23.31 z m -1559.25,800.73 -8.5,-17.01 46.93,-23.31 -29.29,25.2 37.8,-8.19 -46.94,23.31 z"
	 id="path46"
	 inkscape:connector-curvature="0"
	 style="clip-rule:evenodd" /></clipPath><clipPath
       clipPathUnits="userSpaceOnUse"
       id="clipPath64"><path
	 d="m 0,0 0,1895 4118,0 0,-1626 -1,0 0,1 -2,0 0,1 -2,0 0,1 -2,0 0,1 -2,0 0,1 -2,0 0,1 -2,0 0,1 -2,0 0,1 -2,0 0,1 -2,0 0,1 -2,0 0,1 -2,0 0,1 -2,0 0,1 -2,0 0,1 -2,0 0,1 -2,0 0,1 -2,0 0,1 -2,0 0,1 -1,0 0,-1 1,0 0,-1 1,0 0,-1 2,0 0,-1 1,0 0,-1 1,0 0,-1 1,0 0,-1 1,0 0,-1 1,0 0,-1 2,0 0,-1 1,0 0,-1 1,0 0,-1 1,0 0,-1 1,0 0,-1 1,0 0,-1 1,0 0,-1 2,0 0,-1 1,0 0,-1 1,0 0,-1 1,0 0,-1 1,0 0,-1 1,0 0,-1 -4,0 0,1 -5,0 0,1 -4,0 0,1 -5,0 0,1 -4,0 0,1 -4,0 0,1 -4,0 0,-1 2,0 0,-1 2,0 0,-1 2,0 0,-1 2,0 0,-1 2,0 0,-1 2,0 0,-1 2,0 0,-1 2,0 0,-1 2,0 0,-1 2,0 0,-1 2,0 0,-1 2,0 0,-1 2,0 0,-1 2,0 0,-1 2,0 0,-1 2,0 0,-1 2,0 0,-1 2,0 0,-1 2,0 0,-1 1,0 0,3 1,0 0,2 1,0 0,2 1,0 L 4118,0 0,0 Z m 4074,272 0,-1 1,0 0,1 -1,0 z m -1486,743 0,-1 1,0 0,1 -1,0 z m -2,1 0,-1 1,0 0,1 -1,0 0,1 -1,0 0,1 -1,0 0,1 -1,0 0,1 -1,0 0,1 -1,0 0,1 -2,0 0,1 -1,0 0,1 -1,0 0,1 -1,0 0,1 -1,0 0,1 -1,0 0,1 -2,0 0,1 -1,0 0,1 -1,0 0,1
-1,0 0,1 -1,0 0,1 -1,0 0,1 -2,0 0,1 -1,0 0,2 2,0 0,-1 4,0 0,-1 5,0 0,-1 4,0 0,-1 5,0 0,-1 5,0 0,-1 4,0 0,-1 3,0 0,1 -2,0 0,1 -2,0 0,1 -2,0 0,1 -2,0 0,1 -2,0 0,1 -2,0 0,1 -2,0 0,1 -2,0 0,1 -2,0 0,1 -2,0 0,1 -2,0 0,1 -2,0 0,1 -2,0 0,1 -2,0 0,1 -3,0 0,1 -2,0 0,1 -2,0 0,1 -2,0 0,1 -2,0 0,1 -2,0 0,-2 -1,0 0,-2 -1,0 0,-2 -1,0 0,-2 -1,0 0,-2 -1,0 0,-2 -1,0 0,-2 -1,0 0,-2 2,0 0,-1 2,0 0,-1 2,0 0,-1 2,0 0,-1 2,0 0,-1 2,0 0,-1 2,0 0,-1 2,0 0,-1 2,0 0,-1 2,0 0,-1 2,0 0,-1 2,0 0,-1 2,0 0,-1 2,0 0,-1 2,0 0,-1 2,0 0,-1 2,0 0,-1 2,0 0,-1 2,0 z"
	 id="path66"
	 inkscape:connector-curvature="0"
	 style="clip-rule:evenodd" /></clipPath><clipPath
       clipPathUnits="userSpaceOnUse"
       id="clipPath84"><path
	 d="m 0,0 0,1895 4118,0 0,-136 -3,0 0,-1 -11,0 0,-1 -11,0 0,-1 -11,0 0,-1 -11,0 0,-1 5,0 0,-1 6,0 0,-1 7,0 0,-1 6,0 0,-1 6,0 0,-1 4,0 0,-1 -1,0 0,-1 -3,0 0,-1 -3,0 0,-1 -2,0 0,-1 -3,0 0,-1 -3,0 0,-1 -3,0 0,-1 -3,0 0,-1 -3,0 0,-1 -3,0 0,-1 -3,0 0,-1 7,0 0,1 11,0 0,1 11,0 0,1 11,0 0,1 3,0 L 4118,0 0,0 Z m 2552,1599 0,-1 2,0 0,1 11,0 0,1 11,0 0,1 11,0 0,1 11,0 0,1 -4,0 0,1 -7,0 0,1 -6,0 0,1 -7,0 0,1 -6,0 0,1 -3,0 0,1 2,0 0,1 2,0 0,1 3,0 0,1 3,0 0,1 3,0 0,1 3,0 0,1 3,0 0,1 2,0 0,1 3,0 0,1 3,0 0,1 3,0 0,1 -7,0 0,-1 -12,0 0,-1 -11,0 0,-1 -11,0 0,-1 -4,0 0,-1 1,0 0,-12 1,0 0,-4 z"
	 id="path86"
	 inkscape:connector-curvature="0"
	 style="clip-rule:evenodd" /></clipPath><clipPath
       clipPathUnits="userSpaceOnUse"
       id="clipPath104"><path
	 d="m 0,0 0,1895 4118,0 L 4118,0 0,0 Z m 3056.98,1740.43 -1.58,18.9 -52.6,-4.72 38.74,-6.3 -36.85,-12.6 52.29,4.72 z m -1570.28,-123.79 1.58,-18.9 52.6,4.72 -38.43,5.99 36.54,12.91 -52.29,-4.72 z"
	 id="path106"
	 inkscape:connector-curvature="0"
	 style="clip-rule:evenodd" /></clipPath></defs><sodipodi:namedview
     pagecolor="#ffffff"
     bordercolor="#666666"
     borderopacity="1"
     objecttolerance="10"
     gridtolerance="10"
     guidetolerance="10"
     inkscape:pageopacity="0"
     inkscape:pageshadow="2"
     inkscape:window-width="1920"
     inkscape:window-height="997"
     id="namedview4"
     showgrid="false"
     inkscape:zoom="0.99625351"
     inkscape:cx="-73.227122"
     inkscape:cy="114.17568"
     inkscape:window-x="1920"
     inkscape:window-y="30"
     inkscape:window-maximized="1"
     inkscape:current-layer="g10"
     units="mm"
     fit-margin-top="0"
     fit-margin-left="0"
     fit-margin-right="0"
     fit-margin-bottom="0" /><g
     id="g10"
     inkscape:groupmode="layer"
     inkscape:label="crop"
     transform="matrix(1.25,0,0,-1.25,-0.35237428,339.91141)"><path
       d="m 411.08474,0.37218832 0,271.38551168 -37.17867,0 0,-1.94649 -205.3611,1.94649 0,-2.58046 -155.911966,0 0,-1.90192 17.977663,-264.3219406 -17.977663,0 0,-2.58119108 193.135216,0 0,2.58119108 -137.934309,0 0,264.3219406 333.650679,0 0,-264.3219406 -177.10547,0 0,-1.947197 149.52695,0 0,-0.63399408"
       style="fill:#7f7f7f;fill-opacity:1;fill-rule:evenodd;stroke:none"
       id="path16"
       inkscape:connector-curvature="0" /><path
       d="m 411.08474,0.37218832 0,271.38551168 -37.17867,0 0,-1.94649 -205.3611,1.94649 0,-2.58046 -155.911966,0 0,-1.90192 17.977663,-264.3219406 -17.977663,0 0,-2.58119108 193.135216,0 0,2.58119108 -137.934309,0 0,264.3219406 333.650679,0 0,-264.3219406 -177.10547,0 0,-1.947197 149.52695,0 0,-0.63399408 37.17867,0 z"
       style="fill:none;stroke:#000000;stroke-width:0.33962813;stroke-linecap:butt;stroke-linejoin:miter;stroke-miterlimit:10;stroke-dasharray:none;stroke-opacity:1"
       id="path18"
       inkscape:connector-curvature="0" /><path
       d="m 40.256106,6.8024838 366.979524,0 0,253.4078762 -366.979524,0 0,-253.4078762 z"
       style="fill:none;stroke:#ff0000;stroke-width:0.33962813;stroke-linecap:butt;stroke-linejoin:miter;stroke-miterlimit:10;stroke-dasharray:none;stroke-opacity:1"
       id="path20"
       inkscape:connector-curvature="0" /><path
       d="m 77.434066,7.4364707 316.352284,0 0,244.4416893 -316.352284,0 0,-244.4416893 z"
       style="fill:none;stroke:#0000ff;stroke-width:0.33962813;stroke-linecap:butt;stroke-linejoin:miter;stroke-miterlimit:10;stroke-dasharray:none;stroke-opacity:1"
       id="path22"
       inkscape:connector-curvature="0" /><path
       d="m 214.41669,149.49157 152.83195,0 0,81.51075 -152.83195,0 0,-81.51075 z"
       style="fill:none;stroke:#00b000;stroke-width:0.33962813;stroke-linecap:butt;stroke-linejoin:miter;stroke-miterlimit:10;stroke-dasharray:none;stroke-opacity:1"
       id="path24"
       inkscape:connector-curvature="0" /><path
       d="m 438.57126,37.414285 152.83194,0 0,213.966445 -152.83194,0 0,-213.966445 z"
       style="fill:none;stroke:#d100d1;stroke-width:0.33962813;stroke-linecap:butt;stroke-linejoin:miter;stroke-miterlimit:10;stroke-dasharray:none;stroke-opacity:1"
       id="path26"
       inkscape:connector-curvature="0" /><path
       d="m 0.45168907,271.7577 168.09328093,0 0,-2.58046 -155.911966,0 0,-1.90192 17.977663,0 0,-264.3219406 -17.977663,0 0,-2.58119108 -12.18131493,0"
       style="fill:#000000;fill-opacity:1;fill-rule:evenodd;stroke:none"
       id="path28"
       inkscape:connector-curvature="0" /><path
       d="m 0.45168907,271.7577 168.09328093,0 0,-2.58046 -155.911966,0 0,-1.90192 17.977663,0 0,-264.3219406 -17.977663,0 0,-2.58119108 -12.18131493,0 0,271.38551168 z"
       style="fill:none;stroke:#000000;stroke-width:0.33962813;stroke-linecap:butt;stroke-linejoin:miter;stroke-miterlimit:10;stroke-dasharray:none;stroke-opacity:1"
       id="path30"
       inkscape:connector-curvature="0" /><path
       d="m 373.90607,0.37218832 0,0.63399408 -149.52695,0 0,1.947197 -18.6109,0 0,-2.58119108"
       style="fill:#000000;fill-opacity:1;fill-rule:evenodd;stroke:none"
       id="path32"
       inkscape:connector-curvature="0" /><path
       d="m 373.90607,0.37218832 0,0.63399408 -149.52695,0 0,1.947197 -18.6109,0 0,-2.58119108 168.13785,0 z"
       style="fill:none;stroke:#000000;stroke-width:0.33962813;stroke-linecap:butt;stroke-linejoin:miter;stroke-miterlimit:10;stroke-dasharray:none;stroke-opacity:1"
       id="path34"
       inkscape:connector-curvature="0" /><path
       d="m 205.76822,271.7577 168.13785,0 0,-1.94649 -149.52695,0 0,-2.53589 -18.6109,0"
       style="fill:#000000;fill-opacity:1;fill-rule:evenodd;stroke:none"
       id="path36"
       inkscape:connector-curvature="0" /><path
       d="m 205.76822,271.7577 168.13785,0 0,-1.94649 -149.52695,0 0,-2.53589 -18.6109,0 0,4.48238 z"
       style="fill:none;stroke:#000000;stroke-width:0.33962813;stroke-linecap:butt;stroke-linejoin:miter;stroke-miterlimit:10;stroke-dasharray:none;stroke-opacity:1"
       id="path38"
       inkscape:connector-curvature="0" /><g
       id="g40"
       transform="matrix(0.14375794,0,0,0.14375794,-0.12334269,-0.08856738)"><g
	 clip-path="url(#clipPath44)"
	 id="g42"><path
	   inkscape:connector-curvature="0"
	   id="path48"
	   style="fill:none;stroke:#000000;stroke-width:2.36249995;stroke-linecap:butt;stroke-linejoin:miter;stroke-miterlimit:10;stroke-dasharray:none;stroke-opacity:1"
	   d="M 1492.37,1040.5 3051.62,260.875" /></g></g><g
       id="g50"
       transform="matrix(0.14375794,0,0,0.14375794,-0.12334269,-0.08856738)"><path
	 inkscape:connector-curvature="0"
	 id="path52"
	 style="fill:#000000;fill-opacity:1;fill-rule:evenodd;stroke:none"
	 d="m 1539.31,1027.9 -37.8,8.19 29.29,-25.2 8.51,17.01" /><path
	 inkscape:connector-curvature="0"
	 id="path54"
	 style="fill:none;stroke:#000000;stroke-width:4.7249999;stroke-linecap:butt;stroke-linejoin:miter;stroke-miterlimit:10;stroke-dasharray:none;stroke-opacity:1"
	 d="m 1539.31,1027.9 -37.8,8.19 29.29,-25.2 8.51,17.01 z" /><path
	 inkscape:connector-curvature="0"
	 id="path56"
	 style="fill:#000000;fill-opacity:1;fill-rule:evenodd;stroke:none"
	 d="m 3004.37,273.79 38.12,-8.505 -29.61,25.515 -8.51,-17.01" /><path
	 inkscape:connector-curvature="0"
	 id="path58"
	 style="fill:none;stroke:#000000;stroke-width:4.7249999;stroke-linecap:butt;stroke-linejoin:miter;stroke-miterlimit:10;stroke-dasharray:none;stroke-opacity:1"
	 d="m 3004.37,273.79 38.12,-8.505 -29.61,25.515 -8.51,-17.01 z" /></g><g
       id="g60"
       transform="matrix(0.14375794,0,0,0.14375794,-0.12334269,-0.08856738)"><g
	 clip-path="url(#clipPath64)"
	 id="g62"><path
	   inkscape:connector-curvature="0"
	   id="path68"
	   style="fill:none;stroke:#000000;stroke-width:2.36249995;stroke-linecap:butt;stroke-linejoin:miter;stroke-miterlimit:10;stroke-dasharray:none;stroke-opacity:1"
	   d="M 2555.5,1040.5 4114.75,260.875" /></g></g><g
       id="g70"
       transform="matrix(0.14375794,0,0,0.14375794,-0.12334269,-0.08856738)"><path
	 inkscape:connector-curvature="0"
	 id="path72"
	 style="fill:#000000;fill-opacity:1;fill-rule:evenodd;stroke:none"
	 d="m 2602.43,1027.9 -37.8,8.19 29.3,-25.2 8.5,17.01" /><path
	 inkscape:connector-curvature="0"
	 id="path74"
	 style="fill:none;stroke:#000000;stroke-width:4.7249999;stroke-linecap:butt;stroke-linejoin:miter;stroke-miterlimit:10;stroke-dasharray:none;stroke-opacity:1"
	 d="m 2602.43,1027.9 -37.8,8.19 29.3,-25.2 8.5,17.01 z" /><path
	 inkscape:connector-curvature="0"
	 id="path76"
	 style="fill:#000000;fill-opacity:1;fill-rule:evenodd;stroke:none"
	 d="m 4067.5,273.79 38.11,-8.505 -29.61,25.515 -8.5,-17.01" /><path
	 inkscape:connector-curvature="0"
	 id="path78"
	 style="fill:none;stroke:#000000;stroke-width:4.7249999;stroke-linecap:butt;stroke-linejoin:miter;stroke-miterlimit:10;stroke-dasharray:none;stroke-opacity:1"
	 d="m 4067.5,273.79 38.11,-8.505 -29.61,25.515 -8.5,-17.01 z" /></g><g
       id="g80"
       transform="matrix(0.14375794,0,0,0.14375794,-0.12334269,-0.08856738)"><g
	 clip-path="url(#clipPath84)"
	 id="g82"><path
	   inkscape:connector-curvature="0"
	   id="path88"
	   style="fill:none;stroke:#000000;stroke-width:2.36249995;stroke-linecap:butt;stroke-linejoin:miter;stroke-miterlimit:10;stroke-dasharray:none;stroke-opacity:1"
	   d="m 2555.5,1607.5 1559.25,141.75" /></g></g><g
       id="g90"
       transform="matrix(0.14375794,0,0,0.14375794,-0.12334269,-0.08856738)"><path
	 inkscape:connector-curvature="0"
	 id="path92"
	 style="fill:#000000;fill-opacity:1;fill-rule:evenodd;stroke:none"
	 d="m 2602.12,1621.36 -36.54,-12.91 38.43,-5.99 -1.89,18.9" /><path
	 inkscape:connector-curvature="0"
	 id="path94"
	 style="fill:none;stroke:#000000;stroke-width:4.7249999;stroke-linecap:butt;stroke-linejoin:miter;stroke-miterlimit:10;stroke-dasharray:none;stroke-opacity:1"
	 d="m 2602.12,1621.36 -36.54,-12.91 38.43,-5.99 -1.89,18.9 z" /><path
	 inkscape:connector-curvature="0"
	 id="path96"
	 style="fill:#000000;fill-opacity:1;fill-rule:evenodd;stroke:none"
	 d="m 4067.81,1735.71 36.86,12.6 -38.75,6.3 1.89,-18.9" /><path
	 inkscape:connector-curvature="0"
	 id="path98"
	 style="fill:none;stroke:#000000;stroke-width:4.7249999;stroke-linecap:butt;stroke-linejoin:miter;stroke-miterlimit:10;stroke-dasharray:none;stroke-opacity:1"
	 d="m 4067.81,1735.71 36.86,12.6 -38.75,6.3 1.89,-18.9 z" /></g><g
       id="g100"
       transform="matrix(0.14375794,0,0,0.14375794,-0.12334269,-0.08856738)"><g
	 clip-path="url(#clipPath104)"
	 id="g102"><path
	   inkscape:connector-curvature="0"
	   id="path108"
	   style="fill:none;stroke:#000000;stroke-width:2.36249995;stroke-linecap:butt;stroke-linejoin:miter;stroke-miterlimit:10;stroke-dasharray:none;stroke-opacity:1"
	   d="m 1492.37,1607.5 1559.25,141.75" /></g></g><path
       d="m 221.11869,232.99481 -5.25292,-1.85592 5.52462,-0.86111 -0.2717,2.71703"
       style="fill:#000000;fill-opacity:1;fill-rule:evenodd;stroke:none"
       id="path112"
       inkscape:connector-curvature="0" /><path
       d="m 221.11869,232.99481 -5.25292,-1.85592 5.52462,-0.86111 -0.2717,2.71703 z"
       style="fill:none;stroke:#000000;stroke-width:0.67925626;stroke-linecap:butt;stroke-linejoin:miter;stroke-miterlimit:10;stroke-dasharray:none;stroke-opacity:1"
       id="path114"
       inkscape:connector-curvature="0" /><path
       d="m 431.8247,249.43353 5.29748,1.81135 -5.56918,0.90567 0.2717,-2.71702"
       style="fill:#000000;fill-opacity:1;fill-rule:evenodd;stroke:none"
       id="path116"
       inkscape:connector-curvature="0" /><path
       d="m 431.8247,249.43353 5.29748,1.81135 -5.56918,0.90567 0.2717,-2.71702 z"
       style="fill:none;stroke:#000000;stroke-width:0.67925626;stroke-linecap:butt;stroke-linejoin:miter;stroke-miterlimit:10;stroke-dasharray:none;stroke-opacity:1"
       id="path118"
       inkscape:connector-curvature="0" /><g
       id="g120"
       transform="matrix(1.4375794,0,0,1.4375794,-0.12334269,-0.08856738)"><text
	 transform="matrix(1,0,0,-1,204.52,9.07751)"
	 style="font-variant:normal;font-weight:normal;font-size:6.61499977px;font-family:sans-serif;-inkscape-font-specification:sans-serif;writing-mode:lr-tb;fill:#d10000;fill-opacity:1;fill-rule:nonzero;stroke:none"
	 id="text122"><tspan
	   x="0 3.3074999 6.9854398 8.45397 12.13191 15.80985 19.11735 21.320145 24.998085 28.676025 31.983524 35.661465 39.339405 41.178375 44.856316 48.534256 52.212196 55.890137 59.568073"
	   y="0"
	   sodipodi:role="line"
	   id="tspan124">v4l2_cropcap.bounds</tspan></text>
</g><g
       id="g126"
       transform="matrix(1.4375794,0,0,1.4375794,-0.12334269,-0.08856738)"><text
	 transform="matrix(1,0,0,-1,58.5175,166.42)"
	 style="font-variant:normal;font-weight:normal;font-size:6.61499977px;font-family:sans-serif;-inkscape-font-specification:sans-serif;writing-mode:lr-tb;fill:#0000d1;fill-opacity:1;fill-rule:nonzero;stroke:none"
	 id="text128"><tspan
	   x="0 3.3074999 6.9854398 8.45397 12.13191 15.80985 19.11735 21.320145 24.998085 28.676025 31.983524 35.661465 39.339405 41.178375 44.856316 48.534256 50.373226 52.576019 56.25396 59.561459"
	   y="0"
	   sodipodi:role="line"
	   id="tspan130">v4l2_cropcap.defrect</tspan></text>
</g><g
       id="g132"
       transform="matrix(1.4375794,0,0,1.4375794,-0.12334269,-0.08856738)"><text
	 transform="matrix(1,0,0,-1,153.49,152.245)"
	 style="font-variant:normal;font-weight:normal;font-size:6.61499977px;font-family:sans-serif;-inkscape-font-specification:sans-serif;writing-mode:lr-tb;fill:#008f00;fill-opacity:1;fill-rule:nonzero;stroke:none"
	 id="text134"><tspan
	   x="0 3.3074999 6.9854398 8.45397 12.13191 15.80985 19.11735 21.320145 24.998085 28.676025 30.514996"
	   y="0"
	   sodipodi:role="line"
	   id="tspan136">v4l2_crop.c</tspan></text>
</g><g
       id="g138"
       transform="matrix(1.4375794,0,0,1.4375794,-0.12334269,-0.08856738)"><text
	 transform="matrix(1,0,0,-1,309.415,30.34)"
	 style="font-variant:normal;font-weight:normal;font-size:6.61499977px;font-family:sans-serif;-inkscape-font-specification:sans-serif;writing-mode:lr-tb;fill:#b000b0;fill-opacity:1;fill-rule:nonzero;stroke:none"
	 id="text140"><tspan
	   x="0 3.3074999 6.9854398 8.45397 12.13191 15.80985 17.648821 21.326759 23.529554 29.03985 32.717789"
	   y="0"
	   sodipodi:role="line"
	   id="tspan142">v4l2_format</tspan></text>
</g><text
       xml:space="preserve"
       style="font-style:normal;font-weight:normal;font-size:32px;line-height:125%;font-family:sans-serif;letter-spacing:0px;word-spacing:0px;fill:#000000;fill-opacity:1;stroke:none;stroke-width:1px;stroke-linecap:butt;stroke-linejoin:miter;stroke-opacity:1"
       x="-99.291145"
       y="-239.49893"
       id="text3396"
       sodipodi:linespacing="125%"
       transform="scale(1,-1)"><tspan
	 sodipodi:role="line"
	 id="tspan3398"
	 x="-99.291145"
	 y="-239.49893"></tspan><tspan
	 sodipodi:role="line"
	 x="-99.291145"
	 y="-199.49893"
	 id="tspan3400" /></text>
</g></svg>
