<?xml version="1.0" encoding="UTF-8" standalone="no"?>
<!-- Created with Inkscape (http://www.inkscape.org/) -->

<svg
   xmlns:dc="http://purl.org/dc/elements/1.1/"
   xmlns:cc="http://creativecommons.org/ns#"
   xmlns:rdf="http://www.w3.org/1999/02/22-rdf-syntax-ns#"
   xmlns:svg="http://www.w3.org/2000/svg"
   xmlns="http://www.w3.org/2000/svg"
   xmlns:sodipodi="http://sodipodi.sourceforge.net/DTD/sodipodi-0.dtd"
   xmlns:inkscape="http://www.inkscape.org/namespaces/inkscape"
   id="svg2"
   version="1.1"
   inkscape:version="0.91 r13725"
   xml:space="preserve"
   width="192.39857mm"
   height="146.83536mm"
   viewBox="0 0 681.72724 520.28277"
   sodipodi:docname="vbi_hsync.svg"><metadata
     id="metadata8"><rdf:RDF><cc:Work
         rdf:about=""><dc:format>image/svg+xml</dc:format><dc:type
           rdf:resource="http://purl.org/dc/dcmitype/StillImage" /><dc:title></dc:title></cc:Work></rdf:RDF></metadata><defs
     id="defs6"><clipPath
       clipPathUnits="userSpaceOnUse"
       id="clipPath30"><path
         d="m 0,0 0,1163 1544,0 L 1544,0 0,0 Z m 187.184,836.05 0,-19.278 48.517,0 -38.556,9.639 38.556,9.639 -48.517,0 z m 689.189,-19.278 0,19.278 -48.516,0 38.556,-9.639 -38.556,-9.639 48.516,0 z"
         id="path32"
         inkscape:connector-curvature="0"
         style="clip-rule:evenodd" /></clipPath><clipPath
       clipPathUnits="userSpaceOnUse"
       id="clipPath52"><path
         d="m 0,0 0,1163 1544,0 L 1544,0 0,0 Z m 804.08,79.3887 0,19.2778 -48.516,0 38.556,-9.6389 -38.556,-9.6389 48.516,0 z m -703.647,19.2778 0,-19.2778 48.517,0 -38.556,9.6389 38.556,9.6389 -48.517,0 z"
         id="path54"
         inkscape:connector-curvature="0"
         style="clip-rule:evenodd" /></clipPath><clipPath
       clipPathUnits="userSpaceOnUse"
       id="clipPath94"><path
         d="m 0,0 0,1163 1544,0 L 1544,0 0,0 Z m 471.535,195.057 0,19.278 -48.516,0 38.555,-9.639 -38.555,-9.639 48.516,0 z m -284.351,19.278 0,-19.278 48.517,0 -38.556,9.639 38.556,9.639 -48.517,0 z"
         id="path96"
         inkscape:connector-curvature="0"
         style="clip-rule:evenodd" /></clipPath></defs><sodipodi:namedview
     pagecolor="#ffffff"
     bordercolor="#666666"
     borderopacity="1"
     objecttolerance="10"
     gridtolerance="10"
     guidetolerance="10"
     inkscape:pageopacity="0"
     inkscape:pageshadow="2"
     inkscape:window-width="1920"
     inkscape:window-height="997"
     id="namedview4"
     showgrid="false"
     inkscape:zoom="1.5350601"
     inkscape:cx="371.68466"
     inkscape:cy="431.48708"
     inkscape:window-x="1920"
     inkscape:window-y="30"
     inkscape:window-maximized="1"
     inkscape:current-layer="g10"
     units="mm"
     fit-margin-top="0"
     fit-margin-left="0"
     fit-margin-right="0"
     fit-margin-bottom="0" /><g
     id="g10"
     inkscape:groupmode="layer"
     inkscape:label="vbi_hsync"
     transform="matrix(1.25,0,0,-1.25,-0.3625824,520.79867)"><g
       id="g14"
       transform="matrix(0.36030235,0,0,0.36030235,-0.75498483,-1.0743684)"><path
         inkscape:connector-curvature="0"
         id="path16"
         style="fill:none;stroke:#000000;stroke-width:2.40974998;stroke-linecap:butt;stroke-linejoin:miter;stroke-miterlimit:10;stroke-dasharray:none;stroke-opacity:1"
         d="M 32.9604,580.617 4.04346,493.866" /><path
         inkscape:connector-curvature="0"
         id="path18"
         style="fill:none;stroke:#000000;stroke-width:2.40974998;stroke-linecap:butt;stroke-linejoin:miter;stroke-miterlimit:10;stroke-dasharray:none;stroke-opacity:1"
         d="m 192.004,855.328 0,-665.091" /><path
         inkscape:connector-curvature="0"
         id="path20"
         style="fill:none;stroke:#000000;stroke-width:2.40974998;stroke-linecap:butt;stroke-linejoin:miter;stroke-miterlimit:10;stroke-dasharray:none;stroke-opacity:1"
         d="m 466.715,392.656 0,-202.419" /><path
         inkscape:connector-curvature="0"
         id="path22"
         style="fill:none;stroke:#000000;stroke-width:2.40974998;stroke-linecap:butt;stroke-linejoin:miter;stroke-miterlimit:10;stroke-dasharray:none;stroke-opacity:1"
         d="m 799.261,508.324 0,-433.7549" /><path
         inkscape:connector-curvature="0"
         id="path24"
         style="fill:none;stroke:#000000;stroke-width:4.81949997;stroke-linecap:butt;stroke-linejoin:miter;stroke-miterlimit:10;stroke-dasharray:none;stroke-opacity:1"
         d="m 857.095,537.241 231.335,0" /></g><g
       id="g26"
       transform="matrix(0.36030235,0,0,0.36030235,-0.75498483,-1.0743684)"><g
         clip-path="url(#clipPath30)"
         id="g28"><path
           inkscape:connector-curvature="0"
           id="path34"
           style="fill:none;stroke:#000000;stroke-width:2.40974998;stroke-linecap:butt;stroke-linejoin:miter;stroke-miterlimit:10;stroke-dasharray:none;stroke-opacity:1"
           d="m 871.553,826.411 -679.549,0" /></g></g><g
       id="g36"
       transform="matrix(0.36030235,0,0,0.36030235,-0.75498483,-1.0743684)"><path
         inkscape:connector-curvature="0"
         id="path38"
         style="fill:#000000;fill-opacity:1;fill-rule:evenodd;stroke:none"
         d="m 827.857,816.772 38.556,9.639 -38.556,9.639 0,-19.278" /><path
         inkscape:connector-curvature="0"
         id="path40"
         style="fill:none;stroke:#000000;stroke-width:2.40974998;stroke-linecap:butt;stroke-linejoin:miter;stroke-miterlimit:10;stroke-dasharray:none;stroke-opacity:1"
         d="m 827.857,816.772 38.556,9.639 -38.556,9.639 0,-19.278 z" /><path
         inkscape:connector-curvature="0"
         id="path42"
         style="fill:#000000;fill-opacity:1;fill-rule:evenodd;stroke:none"
         d="m 235.701,836.05 -38.556,-9.639 38.556,-9.639 0,19.278" /><path
         inkscape:connector-curvature="0"
         id="path44"
         style="fill:none;stroke:#000000;stroke-width:2.40974998;stroke-linecap:butt;stroke-linejoin:miter;stroke-miterlimit:10;stroke-dasharray:none;stroke-opacity:1"
         d="m 235.701,836.05 -38.556,-9.639 38.556,-9.639 0,19.278 z" /><path
         inkscape:connector-curvature="0"
         id="path46"
         style="fill:none;stroke:#000000;stroke-width:2.40974998;stroke-linecap:butt;stroke-linejoin:miter;stroke-miterlimit:10;stroke-dasharray:none;stroke-opacity:1"
         d="m 1073.97,493.866 28.92,86.751" /></g><g
       id="g48"
       transform="matrix(0.36030235,0,0,0.36030235,-0.75498483,-1.0743684)"><g
         clip-path="url(#clipPath52)"
         id="g50"><path
           inkscape:connector-curvature="0"
           id="path56"
           style="fill:none;stroke:#000000;stroke-width:2.40974998;stroke-linecap:butt;stroke-linejoin:miter;stroke-miterlimit:10;stroke-dasharray:none;stroke-opacity:1"
           d="m 105.253,89.0276 694.008,0" /></g></g><path
       d="m 52.91205,34.475403 -13.891817,-3.472918 13.891817,-3.472918 0,6.945836"
       style="fill:#000000;fill-opacity:1;fill-rule:evenodd;stroke:none"
       id="path60"
       inkscape:connector-curvature="0" /><path
       d="m 52.91205,34.475403 -13.891817,-3.472918 13.891817,-3.472918 0,6.945836 z"
       style="fill:none;stroke:#000000;stroke-width:0.86823857;stroke-linecap:butt;stroke-linejoin:miter;stroke-miterlimit:10;stroke-dasharray:none;stroke-opacity:1"
       id="path62"
       inkscape:connector-curvature="0" /><path
       d="m 271.4765,27.529567 13.89182,3.472918 -13.89182,3.472918 0,-6.945836"
       style="fill:#000000;fill-opacity:1;fill-rule:evenodd;stroke:none"
       id="path64"
       inkscape:connector-curvature="0" /><path
       d="m 271.4765,27.529567 13.89182,3.472918 -13.89182,3.472918 0,-6.945836 z"
       style="fill:none;stroke:#000000;stroke-width:0.86823857;stroke-linecap:butt;stroke-linejoin:miter;stroke-miterlimit:10;stroke-dasharray:none;stroke-opacity:1"
       id="path66"
       inkscape:connector-curvature="0" /><path
       d="m 5.9113292,192.49483 31.2565888,0 0,-10.41887 26.046978,0 10.418863,-93.769765 88.560511,0 10.41887,93.769765 10.41886,0"
       style="fill:none;stroke:#000000;stroke-width:1.73647714;stroke-linecap:butt;stroke-linejoin:miter;stroke-miterlimit:10;stroke-dasharray:none;stroke-opacity:1"
       id="path68"
       inkscape:connector-curvature="0" /><path
       d="m 162.19427,88.306195 260.47086,0"
       style="fill:none;stroke:#000000;stroke-width:0.86823857;stroke-linecap:butt;stroke-linejoin:miter;stroke-miterlimit:10;stroke-dasharray:none;stroke-opacity:1"
       id="path70"
       inkscape:connector-curvature="0" /><path
       d="m 37.167918,182.07596 0,-156.282907"
       style="fill:none;stroke:#000000;stroke-width:0.86823857;stroke-linecap:butt;stroke-linejoin:miter;stroke-miterlimit:10;stroke-dasharray:none;stroke-opacity:1"
       id="path72"
       inkscape:connector-curvature="0" /><path
       d="m 235.12632,182.07596 52.09431,0 0,10.41887 20.83773,0 10.41886,208.3769 83.35162,0"
       style="fill:none;stroke:#000000;stroke-width:1.73647714;stroke-linecap:butt;stroke-linejoin:miter;stroke-miterlimit:10;stroke-dasharray:none;stroke-opacity:1"
       id="path74"
       inkscape:connector-curvature="0" /><path
       d="m 391.4089,192.49483 31.25623,0"
       style="fill:none;stroke:#000000;stroke-width:0.86823857;stroke-linecap:butt;stroke-linejoin:miter;stroke-miterlimit:10;stroke-dasharray:none;stroke-opacity:1"
       id="path76"
       inkscape:connector-curvature="0" /><path
       d="m 401.82884,400.87173 20.83629,0"
       style="fill:none;stroke:#000000;stroke-width:0.86823857;stroke-linecap:butt;stroke-linejoin:miter;stroke-miterlimit:10;stroke-dasharray:none;stroke-opacity:1"
       id="path78"
       inkscape:connector-curvature="0" /><path
       d="m 328.89608,192.49483 10.41887,208.3769"
       style="fill:none;stroke:#000000;stroke-width:0.86823857;stroke-linecap:butt;stroke-linejoin:miter;stroke-miterlimit:10;stroke-dasharray:none;stroke-opacity:1"
       id="path80"
       inkscape:connector-curvature="0" /><path
       d="m 349.73381,192.49483 10.41886,208.3769"
       style="fill:none;stroke:#000000;stroke-width:0.86823857;stroke-linecap:butt;stroke-linejoin:miter;stroke-miterlimit:10;stroke-dasharray:none;stroke-opacity:1"
       id="path82"
       inkscape:connector-curvature="0" /><path
       d="m 370.57262,192.49483 10.41634,208.3769"
       style="fill:none;stroke:#000000;stroke-width:0.86823857;stroke-linecap:butt;stroke-linejoin:miter;stroke-miterlimit:10;stroke-dasharray:none;stroke-opacity:1"
       id="path84"
       inkscape:connector-curvature="0" /><path
       d="m 396.61887,385.24541 10.41995,31.25623"
       style="fill:none;stroke:#000000;stroke-width:0.86823857;stroke-linecap:butt;stroke-linejoin:miter;stroke-miterlimit:10;stroke-dasharray:none;stroke-opacity:1"
       id="path86"
       inkscape:connector-curvature="0" /><path
       d="m 183.032,135.19126 52.09432,0 0,93.76977 -52.09432,0 0,-93.76977 z"
       style="fill:none;stroke:#000000;stroke-width:1.73647714;stroke-linecap:butt;stroke-linejoin:miter;stroke-miterlimit:10;stroke-dasharray:none;stroke-opacity:1"
       id="path88"
       inkscape:connector-curvature="0" /><g
       id="g90"
       transform="matrix(0.36030235,0,0,0.36030235,-0.75498483,-1.0743684)"><g
         clip-path="url(#clipPath94)"
         id="g92"><path
           inkscape:connector-curvature="0"
           id="path98"
           style="fill:none;stroke:#000000;stroke-width:2.40974998;stroke-linecap:butt;stroke-linejoin:miter;stroke-miterlimit:10;stroke-dasharray:none;stroke-opacity:1"
           d="m 192.004,204.696 274.711,0" /></g></g><g
       id="g100"
       transform="matrix(0.36030235,0,0,0.36030235,-0.75498483,-1.0743684)"><path
         inkscape:connector-curvature="0"
         id="path102"
         style="fill:#000000;fill-opacity:1;fill-rule:evenodd;stroke:none"
         d="m 235.701,214.335 -38.556,-9.639 38.556,-9.639 0,19.278" /><path
         inkscape:connector-curvature="0"
         id="path104"
         style="fill:none;stroke:#000000;stroke-width:2.40974998;stroke-linecap:butt;stroke-linejoin:miter;stroke-miterlimit:10;stroke-dasharray:none;stroke-opacity:1"
         d="m 235.701,214.335 -38.556,-9.639 38.556,-9.639 0,19.278 z" /><path
         inkscape:connector-curvature="0"
         id="path106"
         style="fill:#000000;fill-opacity:1;fill-rule:evenodd;stroke:none"
         d="m 423.019,195.057 38.555,9.639 -38.555,9.639 0,-19.278" /><path
         inkscape:connector-curvature="0"
         id="path108"
         style="fill:none;stroke:#000000;stroke-width:2.40974998;stroke-linecap:butt;stroke-linejoin:miter;stroke-miterlimit:10;stroke-dasharray:none;stroke-opacity:1"
         d="m 423.019,195.057 38.555,9.639 -38.555,9.639 0,-19.278 z" /><g
         transform="scale(10,10)"
         id="g110"><text
           id="text112"
           style="font-variant:normal;font-weight:normal;font-size:5.78340006px;font-family:Helvetica;-inkscape-font-specification:Helvetica;writing-mode:lr-tb;fill:#000000;fill-opacity:1;fill-rule:nonzero;stroke:none"
           transform="matrix(1,0,0,-1,121.856,52.2783)"><tspan
             id="tspan114"
             sodipodi:role="line"
             y="0"
             x="0 3.8575277 5.1414428 8.3570127 11.248713 14.140413 15.748199 18.963768 22.179338 25.071039 28.28661">Black Level</tspan><tspan
             id="tspan116"
             sodipodi:role="line"
             y="28.917"
             x="0 3.8575277 6.749228 9.964798 12.856498 14.464283 17.679853 20.895424 23.787125 27.002695">Sync Level</tspan><tspan
             id="tspan118"
             sodipodi:role="line"
             y="-57.834"
             x="0 5.4595294 8.6751003 9.9590149 11.5668 14.782371 16.390156 19.605726 22.821297 25.712996 28.928566">White Level</tspan></text>
<text
           id="text120"
           style="font-variant:normal;font-weight:bold;font-size:5.78340006px;font-family:Helvetica;-inkscape-font-specification:Helvetica-Bold;writing-mode:lr-tb;fill:#000000;fill-opacity:1;fill-rule:nonzero;stroke:none"
           transform="matrix(1,0,0,-1,44.5841,75.4119)"><tspan
             id="tspan122"
             sodipodi:role="line"
             y="0"
             x="0 3.5336573 5.4595294 7.3854017 10.600972 13.816543">offset</tspan></text>
<text
           id="text124"
           style="font-variant:normal;font-weight:normal;font-size:5.78340006px;font-family:Helvetica;-inkscape-font-specification:Helvetica;writing-mode:lr-tb;fill:#000000;fill-opacity:1;fill-rule:nonzero;stroke:none"
           transform="matrix(1,0,0,-1,13.2468,13.2403)"><tspan
             id="tspan126"
             sodipodi:role="line"
             y="0"
             x="0 3.2155704 4.499485 7.7150555 10.930626 12.538411 15.430111 18.321812 21.537382 24.429081 27.644651 29.570524 31.178308 32.786095 36.001663 39.217236 40.501152 43.392849">Line synchr. pulse</tspan><tspan
             id="tspan128"
             sodipodi:role="line"
             y="11.5668"
             x="14.9414 18.156971 19.440886 22.656456 25.872026 27.479811 30.695381 31.979296 35.194866 38.410439 41.302135 42.586052 45.801624">Line blanking</tspan></text>
</g></g></g></svg>