<?xml version="1.0" encoding="UTF-8" standalone="no"?>
<!-- Created with Inkscape (http://www.inkscape.org/) -->

<svg
   xmlns:dc="http://purl.org/dc/elements/1.1/"
   xmlns:cc="http://creativecommons.org/ns#"
   xmlns:rdf="http://www.w3.org/1999/02/22-rdf-syntax-ns#"
   xmlns:svg="http://www.w3.org/2000/svg"
   xmlns="http://www.w3.org/2000/svg"
   xmlns:sodipodi="http://sodipodi.sourceforge.net/DTD/sodipodi-0.dtd"
   xmlns:inkscape="http://www.inkscape.org/namespaces/inkscape"
   id="svg2"
   version="1.1"
   inkscape:version="0.91 r13725"
   xml:space="preserve"
   width="209.46608mm"
   height="51.576824mm"
   viewBox="0 0 742.20265 182.75252"
   sodipodi:docname="vbi_625.svg"><metadata
     id="metadata8"><rdf:RDF><cc:Work
         rdf:about=""><dc:format>image/svg+xml</dc:format><dc:type
           rdf:resource="http://purl.org/dc/dcmitype/StillImage" /><dc:title></dc:title></cc:Work></rdf:RDF></metadata><defs
     id="defs6"><clipPath
       clipPathUnits="userSpaceOnUse"
       id="clipPath20"><path
         d="m 0,0 5950,0 0,4546 L 0,4546 0,0 Z m 0,4546 5950,0 0,1 -5950,0 0,-1 z m 0,1 2211,0 0,1 -2211,0 0,-1 z m 2250,0 3700,0 0,1 -3700,0 0,-1 z m -2250,1 2215,0 0,1 -2215,0 0,-1 z m 2250,0 3700,0 0,1 -3700,0 0,-1 z m -2250,1 2219,0 0,1 -2219,0 0,-1 z m 2250,0 3700,0 0,1 -3700,0 0,-1 z m -2250,1 2223,0 0,1 -2223,0 0,-1 z m 2250,0 3700,0 0,1 -3700,0 0,-1 z m -2250,1 2227,0 0,1 -2227,0 0,-1 z m 2250,0 3700,0 0,1 -3700,0 0,-1 z m -2250,1 2231,0 0,1 -2231,0 0,-1 z m 2250,0 3700,0 0,1 -3700,0 0,-1 z m -2250,1 2235,0 0,1 -2235,0 0,-1 z m 2250,0 3700,0 0,1 -3700,0 0,-1 z m -2250,1 2239,0 0,1 -2239,0 0,-1 z m 2250,0 3700,0 0,1 -3700,0 0,-1 z m -2250,1 2241,0 0,1 -2241,0 0,-1 z m 2250,0 3700,0 0,1 -3700,0 0,-1 z m -2250,1 2240,0 0,1 -2240,0 0,-1 z m 2250,0 3700,0 0,1 -3700,0 0,-1 z m -2250,1 2236,0 0,1 -2236,0 0,-1 z m 2250,0 3700,0 0,1 -3700,0 0,-1 z m -2250,1 2232,0 0,1 -2232,0 0,-1 z m 2250,0 3700,0 0,1 -3700,0 0,-1 z m -2250,1 2228,0 0,1 -2228,0 0,-1 z m 2250,0 3700,0 0,1 -3700,0 0,-1 z m -2250,1 2224,0 0,1 -2224,0 0,-1 z m 2250,0 3700,0 0,1 -3700,0 0,-1 z m -2250,1 2220,0 0,1 -2220,0 0,-1 z m 2250,0 3700,0 0,1 -3700,0 0,-1 z m -2250,1 2216,0 0,1 -2216,0 0,-1 z m 2250,0 3700,0 0,1 -3700,0 0,-1 z m -2250,1 2212,0 0,1 -2212,0 0,-1 z m 2250,0 3700,0 0,1 -3700,0 0,-1 z m -2250,1 2208,0 0,1 -2208,0 0,-1 z m 2250,0 3700,0 0,1 -3700,0 0,-1 z m -2250,1 5950,0 0,1 -5950,0 0,-1 z m 0,1 5950,0 0,3854 -5950,0 0,-3854 z"
         id="path22"
         inkscape:connector-curvature="0" /></clipPath><clipPath
       clipPathUnits="userSpaceOnUse"
       id="clipPath98"><path
         d="m 0,0 5950,0 0,3922 L 0,3922 0,0 Z m 0,3922 5950,0 0,1 -5950,0 0,-1 z m 0,1 2209,0 0,1 -2209,0 0,-1 z m 2250,0 3700,0 0,1 -3700,0 0,-1 z m -2250,1 2213,0 0,1 -2213,0 0,-1 z m 2250,0 3700,0 0,1 -3700,0 0,-1 z m -2250,1 2217,0 0,1 -2217,0 0,-1 z m 2250,0 3700,0 0,1 -3700,0 0,-1 z m -2250,1 2221,0 0,1 -2221,0 0,-1 z m 2250,0 3700,0 0,1 -3700,0 0,-1 z m -2250,1 2225,0 0,1 -2225,0 0,-1 z m 2250,0 3700,0 0,1 -3700,0 0,-1 z m -2250,1 2229,0 0,1 -2229,0 0,-1 z m 2250,0 3700,0 0,1 -3700,0 0,-1 z m -2250,1 2233,0 0,1 -2233,0 0,-1 z m 2250,0 3700,0 0,1 -3700,0 0,-1 z m -2250,1 2237,0 0,1 -2237,0 0,-1 z m 2250,0 3700,0 0,1 -3700,0 0,-1 z m -2250,1 2241,0 0,1 -2241,0 0,-1 z m 2250,0 3700,0 0,1 -3700,0 0,-1 z m -2250,1 2241,0 0,1 -2241,0 0,-1 z m 2250,0 3700,0 0,1 -3700,0 0,-1 z m -2250,1 2237,0 0,1 -2237,0 0,-1 z m 2250,0 3700,0 0,1 -3700,0 0,-1 z m -2250,1 2233,0 0,1 -2233,0 0,-1 z m 2250,0 3700,0 0,1 -3700,0 0,-1 z m -2250,1 2229,0 0,1 -2229,0 0,-1 z m 2250,0 3700,0 0,1 -3700,0 0,-1 z m -2250,1 2225,0 0,1 -2225,0 0,-1 z m 2250,0 3700,0 0,1 -3700,0 0,-1 z m -2250,1 2221,0 0,1 -2221,0 0,-1 z m 2250,0 3700,0 0,1 -3700,0 0,-1 z m -2250,1 2217,0 0,1 -2217,0 0,-1 z m 2250,0 3700,0 0,1 -3700,0 0,-1 z m -2250,1 2213,0 0,1 -2213,0 0,-1 z m 2250,0 3700,0 0,1 -3700,0 0,-1 z m -2250,1 2209,0 0,1 -2209,0 0,-1 z m 2250,0 3700,0 0,1 -3700,0 0,-1 z m -2250,1 5950,0 0,1 -5950,0 0,-1 z m 0,1 5950,0 0,4478 -5950,0 0,-4478 z"
         id="path100"
         inkscape:connector-curvature="0" /></clipPath></defs><sodipodi:namedview
     pagecolor="#ffffff"
     bordercolor="#666666"
     borderopacity="1"
     objecttolerance="10"
     gridtolerance="10"
     guidetolerance="10"
     inkscape:pageopacity="0"
     inkscape:pageshadow="2"
     inkscape:window-width="1920"
     inkscape:window-height="997"
     id="namedview4"
     showgrid="false"
     fit-margin-top="0"
     fit-margin-left="0"
     fit-margin-right="0"
     fit-margin-bottom="0"
     inkscape:zoom="1.5350601"
     inkscape:cx="372.04724"
     inkscape:cy="251.45527"
     inkscape:window-x="1920"
     inkscape:window-y="30"
     inkscape:window-maximized="1"
     inkscape:current-layer="g10"
     units="mm" /><g
     id="g10"
     inkscape:groupmode="layer"
     inkscape:label="vbi_625"
     transform="matrix(0.125,0,0,-0.125,-87.571875,638.69874)"><g
       id="g12"
       transform="matrix(1.3045828,0,0,1.3045828,-213.38312,-1110.9872)"><path
         d="m 2132.25,4598.15 0,-85.05"
         style="fill:none;stroke:#000000;stroke-width:2.36249995;stroke-linecap:butt;stroke-linejoin:miter;stroke-miterlimit:10;stroke-dasharray:none;stroke-opacity:1"
         id="path14"
         inkscape:connector-curvature="0" /></g><g
       id="g16"
       transform="matrix(1.3045828,0,0,1.3045828,-213.38312,-1110.9872)"><g
         id="g18"
         clip-path="url(#clipPath20)"><path
           d="m 2132.25,4555.63 113.4,0"
           style="fill:none;stroke:#000000;stroke-width:2.36249995;stroke-linecap:butt;stroke-linejoin:miter;stroke-miterlimit:10;stroke-dasharray:none;stroke-opacity:1"
           id="path24"
           inkscape:connector-curvature="0" /></g></g><g
       id="g26"
       transform="matrix(1.3045828,0,0,1.3045828,-213.38312,-1110.9872)"><path
         d="m 2202.81,4546.18 37.8,9.45 -37.8,9.45 0,-18.9"
         style="fill:#000000;fill-opacity:1;fill-rule:evenodd;stroke:none"
         id="path28"
         inkscape:connector-curvature="0" /><path
         d="m 2202.81,4546.18 37.8,9.45 -37.8,9.45 0,-18.9 z"
         style="fill:none;stroke:#000000;stroke-width:2.36249995;stroke-linecap:butt;stroke-linejoin:miter;stroke-miterlimit:10;stroke-dasharray:none;stroke-opacity:1"
         id="path30"
         inkscape:connector-curvature="0" /><path
         d="m 1565.25,4626.5 0,56.7"
         style="fill:none;stroke:#000000;stroke-width:2.36249995;stroke-linecap:butt;stroke-linejoin:miter;stroke-miterlimit:10;stroke-dasharray:none;stroke-opacity:1"
         id="path32"
         inkscape:connector-curvature="0" /><path
         d="m 1848.75,4683.2 0,-56.7"
         style="fill:none;stroke:#000000;stroke-width:2.36249995;stroke-linecap:butt;stroke-linejoin:miter;stroke-miterlimit:10;stroke-dasharray:none;stroke-opacity:1"
         id="path34"
         inkscape:connector-curvature="0" /><path
         d="m 2132.25,4683.2 0,-56.7"
         style="fill:none;stroke:#000000;stroke-width:2.36249995;stroke-linecap:butt;stroke-linejoin:miter;stroke-miterlimit:10;stroke-dasharray:none;stroke-opacity:1"
         id="path36"
         inkscape:connector-curvature="0" /><path
         d="m 2415.75,4683.2 0,-56.7"
         style="fill:none;stroke:#000000;stroke-width:2.36249995;stroke-linecap:butt;stroke-linejoin:miter;stroke-miterlimit:10;stroke-dasharray:none;stroke-opacity:1"
         id="path38"
         inkscape:connector-curvature="0" /><path
         d="m 2699.25,4683.2 0,-56.7"
         style="fill:none;stroke:#000000;stroke-width:2.36249995;stroke-linecap:butt;stroke-linejoin:miter;stroke-miterlimit:10;stroke-dasharray:none;stroke-opacity:1"
         id="path40"
         inkscape:connector-curvature="0" /><path
         d="m 2982.75,4683.2 0,-56.7"
         style="fill:none;stroke:#000000;stroke-width:2.36249995;stroke-linecap:butt;stroke-linejoin:miter;stroke-miterlimit:10;stroke-dasharray:none;stroke-opacity:1"
         id="path42"
         inkscape:connector-curvature="0" /><path
         d="m 3266.25,4683.2 0,-56.7"
         style="fill:none;stroke:#000000;stroke-width:2.36249995;stroke-linecap:butt;stroke-linejoin:miter;stroke-miterlimit:10;stroke-dasharray:none;stroke-opacity:1"
         id="path44"
         inkscape:connector-curvature="0" /><path
         d="m 3549.75,4683.2 0,-56.7"
         style="fill:none;stroke:#000000;stroke-width:2.36249995;stroke-linecap:butt;stroke-linejoin:miter;stroke-miterlimit:10;stroke-dasharray:none;stroke-opacity:1"
         id="path46"
         inkscape:connector-curvature="0" /><path
         d="m 3833.25,4683.2 0,-56.7"
         style="fill:none;stroke:#000000;stroke-width:2.36249995;stroke-linecap:butt;stroke-linejoin:miter;stroke-miterlimit:10;stroke-dasharray:none;stroke-opacity:1"
         id="path48"
         inkscape:connector-curvature="0" /><path
         d="m 4116.75,4683.2 0,-56.7"
         style="fill:none;stroke:#000000;stroke-width:2.36249995;stroke-linecap:butt;stroke-linejoin:miter;stroke-miterlimit:10;stroke-dasharray:none;stroke-opacity:1"
         id="path50"
         inkscape:connector-curvature="0" /><path
         d="m 4400.25,4683.2 0,-56.7"
         style="fill:none;stroke:#000000;stroke-width:2.36249995;stroke-linecap:butt;stroke-linejoin:miter;stroke-miterlimit:10;stroke-dasharray:none;stroke-opacity:1"
         id="path52"
         inkscape:connector-curvature="0" /><path
         d="m 4683.75,4683.2 0,-56.7"
         style="fill:none;stroke:#000000;stroke-width:2.36249995;stroke-linecap:butt;stroke-linejoin:miter;stroke-miterlimit:10;stroke-dasharray:none;stroke-opacity:1"
         id="path54"
         inkscape:connector-curvature="0" /><path
         d="m 1281.75,4768.25 0,-56.7"
         style="fill:none;stroke:#000000;stroke-width:2.36249995;stroke-linecap:butt;stroke-linejoin:miter;stroke-miterlimit:10;stroke-dasharray:none;stroke-opacity:1"
         id="path56"
         inkscape:connector-curvature="0" /><path
         d="m 1565.25,4711.55 0,56.7"
         style="fill:none;stroke:#000000;stroke-width:2.36249995;stroke-linecap:butt;stroke-linejoin:miter;stroke-miterlimit:10;stroke-dasharray:none;stroke-opacity:1"
         id="path58"
         inkscape:connector-curvature="0" /><path
         d="m 1848.75,4768.25 0,-56.7"
         style="fill:none;stroke:#000000;stroke-width:2.36249995;stroke-linecap:butt;stroke-linejoin:miter;stroke-miterlimit:10;stroke-dasharray:none;stroke-opacity:1"
         id="path60"
         inkscape:connector-curvature="0" /><path
         d="m 2132.25,4768.25 0,-56.7"
         style="fill:none;stroke:#000000;stroke-width:2.36249995;stroke-linecap:butt;stroke-linejoin:miter;stroke-miterlimit:10;stroke-dasharray:none;stroke-opacity:1"
         id="path62"
         inkscape:connector-curvature="0" /><path
         d="m 2415.75,4768.25 0,-56.7"
         style="fill:none;stroke:#000000;stroke-width:2.36249995;stroke-linecap:butt;stroke-linejoin:miter;stroke-miterlimit:10;stroke-dasharray:none;stroke-opacity:1"
         id="path64"
         inkscape:connector-curvature="0" /><path
         d="m 2699.25,4768.25 0,-56.7"
         style="fill:none;stroke:#000000;stroke-width:2.36249995;stroke-linecap:butt;stroke-linejoin:miter;stroke-miterlimit:10;stroke-dasharray:none;stroke-opacity:1"
         id="path66"
         inkscape:connector-curvature="0" /><path
         d="m 2982.75,4768.25 0,-56.7"
         style="fill:none;stroke:#000000;stroke-width:2.36249995;stroke-linecap:butt;stroke-linejoin:miter;stroke-miterlimit:10;stroke-dasharray:none;stroke-opacity:1"
         id="path68"
         inkscape:connector-curvature="0" /><path
         d="m 3266.25,4768.25 0,-56.7"
         style="fill:none;stroke:#000000;stroke-width:2.36249995;stroke-linecap:butt;stroke-linejoin:miter;stroke-miterlimit:10;stroke-dasharray:none;stroke-opacity:1"
         id="path70"
         inkscape:connector-curvature="0" /><path
         d="m 3549.75,4768.25 0,-56.7"
         style="fill:none;stroke:#000000;stroke-width:2.36249995;stroke-linecap:butt;stroke-linejoin:miter;stroke-miterlimit:10;stroke-dasharray:none;stroke-opacity:1"
         id="path72"
         inkscape:connector-curvature="0" /><path
         d="m 3833.25,4768.25 0,-56.7"
         style="fill:none;stroke:#000000;stroke-width:2.36249995;stroke-linecap:butt;stroke-linejoin:miter;stroke-miterlimit:10;stroke-dasharray:none;stroke-opacity:1"
         id="path74"
         inkscape:connector-curvature="0" /><path
         d="m 4116.75,4768.25 0,-56.7"
         style="fill:none;stroke:#000000;stroke-width:2.36249995;stroke-linecap:butt;stroke-linejoin:miter;stroke-miterlimit:10;stroke-dasharray:none;stroke-opacity:1"
         id="path76"
         inkscape:connector-curvature="0" /><path
         d="m 4400.25,4768.25 0,-56.7"
         style="fill:none;stroke:#000000;stroke-width:2.36249995;stroke-linecap:butt;stroke-linejoin:miter;stroke-miterlimit:10;stroke-dasharray:none;stroke-opacity:1"
         id="path78"
         inkscape:connector-curvature="0" /><path
         d="m 4683.75,4768.25 0,-56.7"
         style="fill:none;stroke:#000000;stroke-width:2.36249995;stroke-linecap:butt;stroke-linejoin:miter;stroke-miterlimit:10;stroke-dasharray:none;stroke-opacity:1"
         id="path80"
         inkscape:connector-curvature="0" /><path
         d="m 1281.75,4683.2 0,-56.7"
         style="fill:none;stroke:#000000;stroke-width:2.36249995;stroke-linecap:butt;stroke-linejoin:miter;stroke-miterlimit:10;stroke-dasharray:none;stroke-opacity:1"
         id="path82"
         inkscape:connector-curvature="0" /><path
         d="m 714.75,4683.2 0,-56.7"
         style="fill:none;stroke:#000000;stroke-width:2.36249995;stroke-linecap:butt;stroke-linejoin:miter;stroke-miterlimit:10;stroke-dasharray:none;stroke-opacity:1"
         id="path84"
         inkscape:connector-curvature="0" /><path
         d="m 714.75,4768.25 0,-56.7"
         style="fill:none;stroke:#000000;stroke-width:2.36249995;stroke-linecap:butt;stroke-linejoin:miter;stroke-miterlimit:10;stroke-dasharray:none;stroke-opacity:1"
         id="path86"
         inkscape:connector-curvature="0" /><path
         d="m 998.25,4683.2 0,-56.7"
         style="fill:none;stroke:#000000;stroke-width:2.36249995;stroke-linecap:butt;stroke-linejoin:miter;stroke-miterlimit:10;stroke-dasharray:none;stroke-opacity:1"
         id="path88"
         inkscape:connector-curvature="0" /><path
         d="m 998.25,4768.25 0,-56.7"
         style="fill:none;stroke:#000000;stroke-width:2.36249995;stroke-linecap:butt;stroke-linejoin:miter;stroke-miterlimit:10;stroke-dasharray:none;stroke-opacity:1"
         id="path90"
         inkscape:connector-curvature="0" /><path
         d="m 2132.25,3974.45 0,-85.05"
         style="fill:none;stroke:#000000;stroke-width:2.36249995;stroke-linecap:butt;stroke-linejoin:miter;stroke-miterlimit:10;stroke-dasharray:none;stroke-opacity:1"
         id="path92"
         inkscape:connector-curvature="0" /></g><g
       id="g94"
       transform="matrix(1.3045828,0,0,1.3045828,-213.38312,-1110.9872)"><g
         id="g96"
         clip-path="url(#clipPath98)"><path
           d="m 2132.25,3931.93 113.4,0"
           style="fill:none;stroke:#000000;stroke-width:2.36249995;stroke-linecap:butt;stroke-linejoin:miter;stroke-miterlimit:10;stroke-dasharray:none;stroke-opacity:1"
           id="path102"
           inkscape:connector-curvature="0" /></g></g><path
       inkscape:connector-curvature="0"
       id="path106"
       style="fill:#000000;fill-opacity:1;fill-rule:evenodd;stroke:none"
       d="m 2660.365,4006.2129 49.3132,12.3283 -49.3132,12.3283 0,-24.6566" /><path
       inkscape:connector-curvature="0"
       id="path108"
       style="fill:none;stroke:#000000;stroke-width:3.08207679;stroke-linecap:butt;stroke-linejoin:miter;stroke-miterlimit:10;stroke-dasharray:none;stroke-opacity:1"
       d="m 2660.365,4006.2129 49.3132,12.3283 -49.3132,12.3283 0,-24.6566 z" /><path
       inkscape:connector-curvature="0"
       id="path110"
       style="fill:none;stroke:#000000;stroke-width:3.08207679;stroke-linecap:butt;stroke-linejoin:miter;stroke-miterlimit:10;stroke-dasharray:none;stroke-opacity:1"
       d="m 6266.806,4184.9668 0,-73.9698" /><path
       inkscape:connector-curvature="0"
       id="path112"
       style="fill:none;stroke:#000000;stroke-width:3.08207679;stroke-linecap:butt;stroke-linejoin:miter;stroke-miterlimit:10;stroke-dasharray:none;stroke-opacity:1"
       d="m 5896.9567,4184.9668 0,-73.9698" /><path
       inkscape:connector-curvature="0"
       id="path114"
       style="fill:none;stroke:#000000;stroke-width:3.08207679;stroke-linecap:butt;stroke-linejoin:miter;stroke-miterlimit:10;stroke-dasharray:none;stroke-opacity:1"
       d="m 5527.1075,4184.9668 0,-73.9698" /><path
       inkscape:connector-curvature="0"
       id="path116"
       style="fill:none;stroke:#000000;stroke-width:3.08207679;stroke-linecap:butt;stroke-linejoin:miter;stroke-miterlimit:10;stroke-dasharray:none;stroke-opacity:1"
       d="m 5157.2583,4184.9668 0,-73.9698" /><path
       inkscape:connector-curvature="0"
       id="path118"
       style="fill:none;stroke:#000000;stroke-width:3.08207679;stroke-linecap:butt;stroke-linejoin:miter;stroke-miterlimit:10;stroke-dasharray:none;stroke-opacity:1"
       d="m 4787.409,4184.9668 0,-73.9698" /><path
       inkscape:connector-curvature="0"
       id="path120"
       style="fill:none;stroke:#000000;stroke-width:3.08207679;stroke-linecap:butt;stroke-linejoin:miter;stroke-miterlimit:10;stroke-dasharray:none;stroke-opacity:1"
       d="m 4417.5598,4184.9668 0,-73.9698" /><path
       inkscape:connector-curvature="0"
       id="path122"
       style="fill:none;stroke:#000000;stroke-width:3.08207679;stroke-linecap:butt;stroke-linejoin:miter;stroke-miterlimit:10;stroke-dasharray:none;stroke-opacity:1"
       d="m 4047.7106,4184.9668 0,-73.9698" /><path
       inkscape:connector-curvature="0"
       id="path124"
       style="fill:none;stroke:#000000;stroke-width:3.08207679;stroke-linecap:butt;stroke-linejoin:miter;stroke-miterlimit:10;stroke-dasharray:none;stroke-opacity:1"
       d="m 3677.8613,4184.9668 0,-73.9698" /><path
       inkscape:connector-curvature="0"
       id="path126"
       style="fill:none;stroke:#000000;stroke-width:3.08207679;stroke-linecap:butt;stroke-linejoin:miter;stroke-miterlimit:10;stroke-dasharray:none;stroke-opacity:1"
       d="m 3308.0121,4184.9668 0,-73.9698" /><path
       inkscape:connector-curvature="0"
       id="path128"
       style="fill:none;stroke:#000000;stroke-width:3.08207679;stroke-linecap:butt;stroke-linejoin:miter;stroke-miterlimit:10;stroke-dasharray:none;stroke-opacity:1"
       d="m 2938.1629,4184.9668 0,-73.9698" /><path
       inkscape:connector-curvature="0"
       id="path130"
       style="fill:none;stroke:#000000;stroke-width:3.08207679;stroke-linecap:butt;stroke-linejoin:miter;stroke-miterlimit:10;stroke-dasharray:none;stroke-opacity:1"
       d="m 2568.3136,4184.9668 0,-73.9698" /><path
       inkscape:connector-curvature="0"
       id="path132"
       style="fill:none;stroke:#000000;stroke-width:3.08207679;stroke-linecap:butt;stroke-linejoin:miter;stroke-miterlimit:10;stroke-dasharray:none;stroke-opacity:1"
       d="m 2198.4644,4184.9668 0,-73.9698" /><path
       inkscape:connector-curvature="0"
       id="path134"
       style="fill:none;stroke:#000000;stroke-width:3.08207679;stroke-linecap:butt;stroke-linejoin:miter;stroke-miterlimit:10;stroke-dasharray:none;stroke-opacity:1"
       d="m 1828.6152,4184.9668 0,-73.9698" /><path
       inkscape:connector-curvature="0"
       id="path136"
       style="fill:none;stroke:#000000;stroke-width:3.08207679;stroke-linecap:butt;stroke-linejoin:miter;stroke-miterlimit:10;stroke-dasharray:none;stroke-opacity:1"
       d="m 1458.7659,4184.9668 0,-73.9698" /><path
       inkscape:connector-curvature="0"
       id="path138"
       style="fill:none;stroke:#000000;stroke-width:3.08207679;stroke-linecap:butt;stroke-linejoin:miter;stroke-miterlimit:10;stroke-dasharray:none;stroke-opacity:1"
       d="m 6266.806,4295.9216 0,-73.9699" /><path
       inkscape:connector-curvature="0"
       id="path140"
       style="fill:none;stroke:#000000;stroke-width:3.08207679;stroke-linecap:butt;stroke-linejoin:miter;stroke-miterlimit:10;stroke-dasharray:none;stroke-opacity:1"
       d="m 5896.9567,4295.9216 0,-73.9699" /><path
       inkscape:connector-curvature="0"
       id="path142"
       style="fill:none;stroke:#000000;stroke-width:3.08207679;stroke-linecap:butt;stroke-linejoin:miter;stroke-miterlimit:10;stroke-dasharray:none;stroke-opacity:1"
       d="m 5527.1075,4295.9216 0,-73.9699" /><path
       inkscape:connector-curvature="0"
       id="path144"
       style="fill:none;stroke:#000000;stroke-width:3.08207679;stroke-linecap:butt;stroke-linejoin:miter;stroke-miterlimit:10;stroke-dasharray:none;stroke-opacity:1"
       d="m 5157.2583,4295.9216 0,-73.9699" /><path
       inkscape:connector-curvature="0"
       id="path146"
       style="fill:none;stroke:#000000;stroke-width:3.08207679;stroke-linecap:butt;stroke-linejoin:miter;stroke-miterlimit:10;stroke-dasharray:none;stroke-opacity:1"
       d="m 4787.409,4295.9216 0,-73.9699" /><path
       inkscape:connector-curvature="0"
       id="path148"
       style="fill:none;stroke:#000000;stroke-width:3.08207679;stroke-linecap:butt;stroke-linejoin:miter;stroke-miterlimit:10;stroke-dasharray:none;stroke-opacity:1"
       d="m 4417.5598,4295.9216 0,-73.9699" /><path
       inkscape:connector-curvature="0"
       id="path150"
       style="fill:none;stroke:#000000;stroke-width:3.08207679;stroke-linecap:butt;stroke-linejoin:miter;stroke-miterlimit:10;stroke-dasharray:none;stroke-opacity:1"
       d="m 4047.7106,4295.9216 0,-73.9699" /><path
       inkscape:connector-curvature="0"
       id="path152"
       style="fill:none;stroke:#000000;stroke-width:3.08207679;stroke-linecap:butt;stroke-linejoin:miter;stroke-miterlimit:10;stroke-dasharray:none;stroke-opacity:1"
       d="m 3677.8613,4295.9216 0,-73.9699" /><path
       inkscape:connector-curvature="0"
       id="path154"
       style="fill:none;stroke:#000000;stroke-width:3.08207679;stroke-linecap:butt;stroke-linejoin:miter;stroke-miterlimit:10;stroke-dasharray:none;stroke-opacity:1"
       d="m 3308.0121,4295.9216 0,-73.9699" /><path
       inkscape:connector-curvature="0"
       id="path156"
       style="fill:none;stroke:#000000;stroke-width:3.08207679;stroke-linecap:butt;stroke-linejoin:miter;stroke-miterlimit:10;stroke-dasharray:none;stroke-opacity:1"
       d="m 2938.1629,4295.9216 0,-73.9699" /><path
       inkscape:connector-curvature="0"
       id="path158"
       style="fill:none;stroke:#000000;stroke-width:3.08207679;stroke-linecap:butt;stroke-linejoin:miter;stroke-miterlimit:10;stroke-dasharray:none;stroke-opacity:1"
       d="m 2568.3136,4295.9216 0,-73.9699" /><path
       inkscape:connector-curvature="0"
       id="path160"
       style="fill:none;stroke:#000000;stroke-width:3.08207679;stroke-linecap:butt;stroke-linejoin:miter;stroke-miterlimit:10;stroke-dasharray:none;stroke-opacity:1"
       d="m 2198.4644,4295.9216 0,-73.9699" /><path
       inkscape:connector-curvature="0"
       id="path162"
       style="fill:none;stroke:#000000;stroke-width:3.08207679;stroke-linecap:butt;stroke-linejoin:miter;stroke-miterlimit:10;stroke-dasharray:none;stroke-opacity:1"
       d="m 1828.6152,4295.9216 0,-73.9699" /><path
       inkscape:connector-curvature="0"
       id="path164"
       style="fill:none;stroke:#000000;stroke-width:3.08207679;stroke-linecap:butt;stroke-linejoin:miter;stroke-miterlimit:10;stroke-dasharray:none;stroke-opacity:1"
       d="m 1458.7659,4295.9216 0,-73.9699" /><path
       inkscape:connector-curvature="0"
       id="path166"
       style="fill:none;stroke:#000000;stroke-width:3.08207679;stroke-linecap:butt;stroke-linejoin:miter;stroke-miterlimit:10;stroke-dasharray:none;stroke-opacity:1"
       d="m 719.06746,4295.9216 0,-73.9699" /><path
       inkscape:connector-curvature="0"
       id="path168"
       style="fill:none;stroke:#000000;stroke-width:3.08207679;stroke-linecap:butt;stroke-linejoin:miter;stroke-miterlimit:10;stroke-dasharray:none;stroke-opacity:1"
       d="m 719.06746,4184.9668 0,-73.9698" /><path
       inkscape:connector-curvature="0"
       id="path170"
       style="fill:none;stroke:#000000;stroke-width:3.08207679;stroke-linecap:butt;stroke-linejoin:miter;stroke-miterlimit:10;stroke-dasharray:none;stroke-opacity:1"
       d="m 1088.9167,4295.9216 0,-73.9699" /><path
       inkscape:connector-curvature="0"
       id="path172"
       style="fill:none;stroke:#000000;stroke-width:3.08207679;stroke-linecap:butt;stroke-linejoin:miter;stroke-miterlimit:10;stroke-dasharray:none;stroke-opacity:1"
       d="m 1088.9167,4184.9668 0,-73.9698" /><path
       inkscape:connector-curvature="0"
       id="path174"
       style="fill:none;stroke:#000000;stroke-width:3.08207679;stroke-linecap:butt;stroke-linejoin:miter;stroke-miterlimit:10;stroke-dasharray:none;stroke-opacity:1"
       d="m 1144.3876,4684.2698 18.4924,0 0,110.9548 -18.4924,0 0,-110.9548 z" /><path
       inkscape:connector-curvature="0"
       id="path176"
       style="fill:none;stroke:#000000;stroke-width:3.08207679;stroke-linecap:butt;stroke-linejoin:miter;stroke-miterlimit:10;stroke-dasharray:none;stroke-opacity:1"
       d="m 1070.4242,4739.7407 18.4925,0 0,-110.9548 36.9849,0 0,110.9548 18.486,0" /><path
       inkscape:connector-curvature="0"
       id="path178"
       style="fill:none;stroke:#000000;stroke-width:3.08207679;stroke-linecap:butt;stroke-linejoin:miter;stroke-miterlimit:10;stroke-dasharray:none;stroke-opacity:1"
       d="m 700.575,4739.7407 18.49246,0 0,-110.9548 36.98492,0 0,110.9548 18.49247,0" /><path
       inkscape:connector-curvature="0"
       id="path180"
       style="fill:none;stroke:#000000;stroke-width:3.08207679;stroke-linecap:butt;stroke-linejoin:miter;stroke-miterlimit:10;stroke-dasharray:none;stroke-opacity:1"
       d="m 809.886,4739.7407 3.28754,0" /><path
       inkscape:connector-curvature="0"
       id="path182"
       style="fill:none;stroke:#000000;stroke-width:3.08207679;stroke-linecap:butt;stroke-linejoin:miter;stroke-miterlimit:10;stroke-dasharray:none;stroke-opacity:1"
       d="m 809.886,4739.7407 3.28754,0" /><path
       inkscape:connector-curvature="0"
       id="path184"
       style="fill:none;stroke:#000000;stroke-width:3.08207679;stroke-linecap:butt;stroke-linejoin:miter;stroke-miterlimit:10;stroke-dasharray:none;stroke-opacity:1"
       d="m 774.54485,4684.2698 18.49246,0 0,110.9548 -18.49246,0 0,-110.9548 z" /><path
       inkscape:connector-curvature="0"
       id="path186"
       style="fill:none;stroke:#000000;stroke-width:3.08207679;stroke-linecap:butt;stroke-linejoin:miter;stroke-miterlimit:10;stroke-dasharray:none;stroke-opacity:1"
       d="m 793.03731,4739.7407 18.49246,0 18.49246,73.9698 18.49246,-36.9849 18.49246,92.4688 18.49247,-55.4839 18.49246,18.499 18.49246,-36.9849 18.49246,55.4708 18.49246,-73.9698 18.49246,55.4839 18.49247,-73.9699 18.49241,110.9548 18.4925,-92.4688 18.4925,55.4839 18.4924,-55.4839 0,-36.9849" /><path
       inkscape:connector-curvature="0"
       id="path188"
       style="fill:none;stroke:#000000;stroke-width:3.08207679;stroke-linecap:butt;stroke-linejoin:miter;stroke-miterlimit:10;stroke-dasharray:none;stroke-opacity:1"
       d="m 1162.8865,4739.7407 18.486,0 0,92.4688 18.499,-18.499 18.4859,36.9849 18.499,-36.9849 18.4859,36.9849 18.499,-55.4708 18.4859,55.4708 18.499,-18.4859 18.486,55.4708 18.499,-55.4708 18.4859,18.4859 18.499,36.9849 18.4859,-73.9698 18.499,36.9849 18.4859,-55.4708 0,-55.4839 18.499,0 0,-110.9548 36.985,0 0,110.9548 18.4859,0 0,55.4839 18.499,36.9849 18.4859,-36.9849 18.499,55.4708 18.4859,-18.4859 18.499,55.4708 18.486,-18.4859 0,-129.4537 18.4989,0 0,-110.9548 18.486,0 0,110.9548 166.4387,0 0,-110.9548 18.4859,0 0,110.9548 166.4387,0 0,-110.9548 18.4859,0 0,110.9548 166.4387,0 0,-110.9548 18.4859,0 0,110.9548 166.4387,0 0,-110.9548 18.4859,0 0,110.9548 166.4387,0 0,-110.9548 147.9397,0 0,110.9548 36.9849,0 0,-110.9548 147.9397,0 0,110.9548 36.985,0 0,-110.9548 147.9397,0 0,110.9548 36.9849,0 0,-110.9548 147.9397,0 0,110.9548 36.9849,0 0,-110.9548 147.9397,0 0,110.9548 36.9849,0 0,-110.9548 18.4859,0 0,110.9548 166.4387,0 0,-110.9548 18.486,0 0,110.9548 166.4386,0 0,-110.9548 18.486,0 0,110.9548 166.4387,0 0,-110.9548 18.4859,0 0,110.9548 166.4387,0 0,-110.9548 18.4859,0 0,110.9548 166.4387,0 0,-110.9548 36.9849,0 0,110.9548 332.8643,0 0,-110.9548 36.9849,0 0,110.9548 18.486,0" /><path
       inkscape:connector-curvature="0"
       id="path190"
       style="fill:none;stroke:#000000;stroke-width:3.08207679;stroke-linecap:butt;stroke-linejoin:miter;stroke-miterlimit:10;stroke-dasharray:none;stroke-opacity:1"
       d="m 700.575,3926.0723 18.49246,0 0,-110.9547 36.98492,0 0,110.9547 18.49247,0" /><path
       inkscape:connector-curvature="0"
       id="path192"
       style="fill:none;stroke:#000000;stroke-width:3.08207679;stroke-linecap:butt;stroke-linejoin:miter;stroke-miterlimit:10;stroke-dasharray:none;stroke-opacity:1"
       d="m 774.54485,3870.6015 18.49246,0 0,110.9547 -18.49246,0 0,-110.9547 z" /><path
       inkscape:connector-curvature="0"
       id="path194"
       style="fill:none;stroke:#000000;stroke-width:3.08207679;stroke-linecap:butt;stroke-linejoin:miter;stroke-miterlimit:10;stroke-dasharray:none;stroke-opacity:1"
       d="m 793.03731,3926.0723 18.49246,0 0,92.4689 18.49246,-36.985 18.49246,73.9699 18.49246,-73.9699 18.49247,73.9699 18.49246,-36.9849 18.49246,18.4859 18.49246,-73.9698 18.49246,55.4839 18.49246,-18.499 18.49247,36.9849 18.49241,-73.9698 18.4925,92.4688 18.4925,-92.4688 18.4924,55.4839 0,-92.4689" /><path
       inkscape:connector-curvature="0"
       id="path196"
       style="fill:none;stroke:#000000;stroke-width:3.08207679;stroke-linecap:butt;stroke-linejoin:miter;stroke-miterlimit:10;stroke-dasharray:none;stroke-opacity:1"
       d="m 1070.4242,3926.0723 18.4925,0 0,-110.9547 36.9849,0 0,110.9547 18.486,0" /><path
       inkscape:connector-curvature="0"
       id="path198"
       style="fill:none;stroke:#000000;stroke-width:3.08207679;stroke-linecap:butt;stroke-linejoin:miter;stroke-miterlimit:10;stroke-dasharray:none;stroke-opacity:1"
       d="m 1144.3876,3870.6015 18.4924,0 0,110.9547 -18.4924,0 0,-110.9547 z" /><path
       inkscape:connector-curvature="0"
       id="path200"
       style="fill:none;stroke:#000000;stroke-width:3.08207679;stroke-linecap:butt;stroke-linejoin:miter;stroke-miterlimit:10;stroke-dasharray:none;stroke-opacity:1"
       d="m 1162.8865,3926.0723 18.486,0 0,55.4839 18.499,92.4558 18.4859,-55.4708 36.9849,36.9849 18.499,-55.4839 18.4859,18.499 18.499,-36.985 18.486,55.4709 18.499,-18.4859 18.4859,-36.985 18.499,18.486 18.4859,36.9849 18.499,-36.9849 18.4859,36.9849 0,-110.9548 18.499,0 0,-110.9547 18.486,0 0,110.9547 166.4386,0 0,-110.9547 18.486,0 0,110.9547 166.4387,0 0,-110.9547 18.4859,0 0,110.9547 166.4387,0 0,-110.9547 18.4859,0 0,110.9547 166.4387,0 0,-110.9547 18.4859,0 0,110.9547 166.4387,0 0,-110.9547 147.9397,0 0,110.9547 36.9849,0 0,-110.9547 147.9397,0 0,110.9547 36.9849,0 0,-110.9547 147.9397,0 0,110.9547 36.985,0 0,-110.9547 147.9397,0 0,110.9547 36.9849,0 0,-110.9547 147.9397,0 0,110.9547 36.9849,0 0,-110.9547 18.4859,0 0,110.9547 166.4387,0 0,-110.9547 18.4859,0 0,110.9547 166.4387,0 0,-110.9547 18.486,0 0,110.9547 166.4386,0 0,-110.9547 18.486,0 0,110.9547 166.4387,0 0,-110.9547 18.4859,0 0,110.9547 351.3633,0 0,-110.9547 36.9849,0 0,110.9547 18.486,0" /><path
       inkscape:connector-curvature="0"
       id="path202"
       style="fill:none;stroke:#000000;stroke-width:3.08207679;stroke-linecap:butt;stroke-linejoin:miter;stroke-miterlimit:10;stroke-dasharray:none;stroke-opacity:1"
       d="m 5453.1376,4795.2246 -36.9849,-110.9548" /><path
       inkscape:connector-curvature="0"
       id="path204"
       style="fill:none;stroke:#000000;stroke-width:3.08207679;stroke-linecap:butt;stroke-linejoin:miter;stroke-miterlimit:10;stroke-dasharray:none;stroke-opacity:1"
       d="m 5434.6387,4739.7407 92.4688,0 0,-110.9548 36.9849,0 0,110.9548 18.486,0" /><path
       inkscape:connector-curvature="0"
       id="path206"
       style="fill:none;stroke:#000000;stroke-width:3.08207679;stroke-linecap:butt;stroke-linejoin:miter;stroke-miterlimit:10;stroke-dasharray:none;stroke-opacity:1"
       d="m 5582.5784,4684.2698 18.4924,0 0,110.9548 -18.4924,0 0,-110.9548 z" /><path
       inkscape:connector-curvature="0"
       id="path208"
       style="fill:none;stroke:#000000;stroke-width:3.08207679;stroke-linecap:butt;stroke-linejoin:miter;stroke-miterlimit:10;stroke-dasharray:none;stroke-opacity:1"
       d="m 5601.0773,4739.7407 295.8794,0 0,-110.9548 36.9849,0 0,110.9548 18.486,0" /><path
       inkscape:connector-curvature="0"
       id="path210"
       style="fill:none;stroke:#000000;stroke-width:3.08207679;stroke-linecap:butt;stroke-linejoin:miter;stroke-miterlimit:10;stroke-dasharray:none;stroke-opacity:1"
       d="m 5952.4276,4684.2698 18.4924,0 0,110.9548 -18.4924,0 0,-110.9548 z" /><path
       inkscape:connector-curvature="0"
       id="path212"
       style="fill:none;stroke:#000000;stroke-width:3.08207679;stroke-linecap:butt;stroke-linejoin:miter;stroke-miterlimit:10;stroke-dasharray:none;stroke-opacity:1"
       d="m 5970.9266,4739.7407 129.4407,0 0,147.9396 18.499,-36.9849 18.4859,36.9849 18.499,-36.9849 18.4859,18.499 18.499,-36.9849 18.4859,36.9849 18.499,-36.9849 18.486,-18.499 0,-73.9698" /><path
       inkscape:connector-curvature="0"
       id="path214"
       style="fill:none;stroke:#000000;stroke-width:3.08207679;stroke-linecap:butt;stroke-linejoin:miter;stroke-miterlimit:10;stroke-dasharray:none;stroke-opacity:1"
       d="m 4842.8799,4684.2698 18.4924,0 0,110.9548 -18.4924,0 0,-110.9548 z" /><path
       inkscape:connector-curvature="0"
       id="path216"
       style="fill:none;stroke:#000000;stroke-width:3.08207679;stroke-linecap:butt;stroke-linejoin:miter;stroke-miterlimit:10;stroke-dasharray:none;stroke-opacity:1"
       d="m 4861.3789,4739.7407 295.8794,0 0,-110.9548 36.9849,0 0,110.9548 18.4859,0" /><path
       inkscape:connector-curvature="0"
       id="path218"
       style="fill:none;stroke:#000000;stroke-width:3.08207679;stroke-linecap:butt;stroke-linejoin:miter;stroke-miterlimit:10;stroke-dasharray:none;stroke-opacity:1"
       d="m 5212.7291,4684.2698 18.4925,0 0,110.9548 -18.4925,0 0,-110.9548 z" /><path
       inkscape:connector-curvature="0"
       id="path220"
       style="fill:none;stroke:#000000;stroke-width:3.08207679;stroke-linecap:butt;stroke-linejoin:miter;stroke-miterlimit:10;stroke-dasharray:none;stroke-opacity:1"
       d="m 5231.2281,4739.7407 166.4256,0" /><path
       inkscape:connector-curvature="0"
       id="path222"
       style="fill:none;stroke:#000000;stroke-width:3.08207679;stroke-linecap:butt;stroke-linejoin:miter;stroke-miterlimit:10;stroke-dasharray:none;stroke-opacity:1"
       d="m 5416.1527,4795.2246 -36.9849,-110.9548" /><path
       inkscape:connector-curvature="0"
       id="path224"
       style="fill:none;stroke:#000000;stroke-width:3.08207679;stroke-linecap:butt;stroke-linejoin:miter;stroke-miterlimit:10;stroke-dasharray:none;stroke-opacity:1"
       d="m 4473.0307,3870.6015 18.4924,0 0,110.9547 -18.4924,0 0,-110.9547 z" /><path
       inkscape:connector-curvature="0"
       id="path226"
       style="fill:none;stroke:#000000;stroke-width:3.08207679;stroke-linecap:butt;stroke-linejoin:miter;stroke-miterlimit:10;stroke-dasharray:none;stroke-opacity:1"
       d="m 4491.5296,3926.0723 295.8794,0 0,-110.9547 36.9849,0 0,110.9547 18.486,0" /><path
       inkscape:connector-curvature="0"
       id="path228"
       style="fill:none;stroke:#000000;stroke-width:3.08207679;stroke-linecap:butt;stroke-linejoin:miter;stroke-miterlimit:10;stroke-dasharray:none;stroke-opacity:1"
       d="m 4842.8799,3870.6015 18.4924,0 0,110.9547 -18.4924,0 0,-110.9547 z" /><path
       inkscape:connector-curvature="0"
       id="path230"
       style="fill:none;stroke:#000000;stroke-width:3.08207679;stroke-linecap:butt;stroke-linejoin:miter;stroke-miterlimit:10;stroke-dasharray:none;stroke-opacity:1"
       d="m 4861.3789,3926.0723 295.8794,0 0,-110.9547 36.9849,0 0,110.9547 18.4859,0" /><path
       inkscape:connector-curvature="0"
       id="path232"
       style="fill:none;stroke:#000000;stroke-width:3.08207679;stroke-linecap:butt;stroke-linejoin:miter;stroke-miterlimit:10;stroke-dasharray:none;stroke-opacity:1"
       d="m 5212.7291,3870.6015 18.4925,0 0,110.9547 -18.4925,0 0,-110.9547 z" /><path
       inkscape:connector-curvature="0"
       id="path234"
       style="fill:none;stroke:#000000;stroke-width:3.08207679;stroke-linecap:butt;stroke-linejoin:miter;stroke-miterlimit:10;stroke-dasharray:none;stroke-opacity:1"
       d="m 5416.1527,3981.5562 -36.9849,-110.9547" /><path
       inkscape:connector-curvature="0"
       id="path236"
       style="fill:none;stroke:#000000;stroke-width:3.08207679;stroke-linecap:butt;stroke-linejoin:miter;stroke-miterlimit:10;stroke-dasharray:none;stroke-opacity:1"
       d="m 5231.2281,3926.0723 166.4256,0" /><path
       inkscape:connector-curvature="0"
       id="path238"
       style="fill:none;stroke:#000000;stroke-width:3.08207679;stroke-linecap:butt;stroke-linejoin:miter;stroke-miterlimit:10;stroke-dasharray:none;stroke-opacity:1"
       d="m 5453.1376,3981.5562 -36.9849,-110.9547" /><path
       inkscape:connector-curvature="0"
       id="path240"
       style="fill:none;stroke:#000000;stroke-width:3.08207679;stroke-linecap:butt;stroke-linejoin:miter;stroke-miterlimit:10;stroke-dasharray:none;stroke-opacity:1"
       d="m 5434.6387,3926.0723 92.4688,0 0,-110.9547 36.9849,0 0,110.9547 18.486,0" /><path
       inkscape:connector-curvature="0"
       id="path242"
       style="fill:none;stroke:#000000;stroke-width:3.08207679;stroke-linecap:butt;stroke-linejoin:miter;stroke-miterlimit:10;stroke-dasharray:none;stroke-opacity:1"
       d="m 5582.5784,3870.6015 18.4924,0 0,110.9547 -18.4924,0 0,-110.9547 z" /><path
       inkscape:connector-curvature="0"
       id="path244"
       style="fill:none;stroke:#000000;stroke-width:3.08207679;stroke-linecap:butt;stroke-linejoin:miter;stroke-miterlimit:10;stroke-dasharray:none;stroke-opacity:1"
       d="m 5601.0773,3926.0723 295.8794,0 0,-110.9547 36.9849,0 0,110.9547 18.486,0" /><path
       inkscape:connector-curvature="0"
       id="path246"
       style="fill:none;stroke:#000000;stroke-width:3.08207679;stroke-linecap:butt;stroke-linejoin:miter;stroke-miterlimit:10;stroke-dasharray:none;stroke-opacity:1"
       d="m 5952.4276,3870.6015 18.4924,0 0,110.9547 -18.4924,0 0,-110.9547 z" /><path
       inkscape:connector-curvature="0"
       id="path248"
       style="fill:none;stroke:#000000;stroke-width:3.08207679;stroke-linecap:butt;stroke-linejoin:miter;stroke-miterlimit:10;stroke-dasharray:none;stroke-opacity:1"
       d="m 5970.9266,3926.0723 18.4859,0 0,73.9699 18.499,36.9849 18.4859,-36.9849 18.499,36.9849 18.486,-18.4859 18.4989,0 18.486,-36.985 18.499,55.4709 18.4859,-18.4859 0,36.9849 18.499,-18.499 18.4859,18.499 18.499,-36.9849 18.4859,18.4859 18.499,-55.4709 18.486,18.486 0,-73.9699" /><path
       inkscape:connector-curvature="0"
       id="path250"
       style="fill:none;stroke:#000000;stroke-width:3.08207679;stroke-linecap:butt;stroke-linejoin:miter;stroke-miterlimit:10;stroke-dasharray:none;stroke-opacity:1"
       d="m 6248.307,4739.7407 18.499,0 0,-110.9548 36.9849,0 0,110.9548 18.4859,0" /><path
       inkscape:connector-curvature="0"
       id="path252"
       style="fill:none;stroke:#000000;stroke-width:3.08207679;stroke-linecap:butt;stroke-linejoin:miter;stroke-miterlimit:10;stroke-dasharray:none;stroke-opacity:1"
       d="m 6248.307,3926.0723 18.499,0 0,-110.9547 36.9849,0 0,110.9547 18.4859,0" /><path
       inkscape:connector-curvature="0"
       id="path254"
       style="fill:none;stroke:#000000;stroke-width:3.08207679;stroke-linecap:butt;stroke-linejoin:miter;stroke-miterlimit:10;stroke-dasharray:none;stroke-opacity:1"
       d="m 6322.2768,3870.6015 18.4925,0 0,110.9547 -18.4925,0 0,-110.9547 z" /><path
       inkscape:connector-curvature="0"
       id="path256"
       style="fill:none;stroke:#000000;stroke-width:3.08207679;stroke-linecap:butt;stroke-linejoin:miter;stroke-miterlimit:10;stroke-dasharray:none;stroke-opacity:1"
       d="m 6322.2768,4684.2698 18.4925,0 0,110.9548 -18.4925,0 0,-110.9548 z" /><path
       inkscape:connector-curvature="0"
       id="path258"
       style="fill:none;stroke:#000000;stroke-width:3.08207679;stroke-linecap:butt;stroke-linejoin:miter;stroke-miterlimit:10;stroke-dasharray:none;stroke-opacity:1"
       d="m 6340.7758,4739.7407 18.4859,0 0,55.4839 18.499,55.4708 18.486,-92.4558 18.4989,55.4709 18.486,0 18.499,55.4839 18.4859,-73.9698 18.499,36.9849 18.4859,-36.9849 36.985,73.9698 18.4989,-36.9849 18.486,36.9849 18.499,-55.4839 18.4859,36.9849 0,-110.9547 18.499,0" /><path
       inkscape:connector-curvature="0"
       id="path260"
       style="fill:none;stroke:#000000;stroke-width:3.08207679;stroke-linecap:butt;stroke-linejoin:miter;stroke-miterlimit:10;stroke-dasharray:none;stroke-opacity:1"
       d="m 6340.7758,3926.0723 18.4859,0 0,129.4538 18.499,-18.499 18.486,18.499 18.4989,-36.9849 18.486,18.4859 18.499,-36.9849 18.4859,18.499 18.499,-18.499 18.4859,55.4839 18.499,-18.499 18.486,36.9849 18.4989,-73.9698 18.486,55.4839 18.499,-55.4839 18.4859,36.9849 0,-110.9548 18.499,0" /><path
       inkscape:connector-curvature="0"
       id="path262"
       style="fill:none;stroke:#000000;stroke-width:3.08207679;stroke-linecap:butt;stroke-linejoin:miter;stroke-miterlimit:10;stroke-dasharray:none;stroke-opacity:1"
       d="m 6636.6552,4184.9668 0,-73.9698" /><path
       inkscape:connector-curvature="0"
       id="path264"
       style="fill:none;stroke:#000000;stroke-width:3.08207679;stroke-linecap:butt;stroke-linejoin:miter;stroke-miterlimit:10;stroke-dasharray:none;stroke-opacity:1"
       d="m 6636.6552,4295.9216 0,-73.9699" /><path
       inkscape:connector-curvature="0"
       id="path266"
       style="fill:none;stroke:#000000;stroke-width:3.08207679;stroke-linecap:butt;stroke-linejoin:miter;stroke-miterlimit:10;stroke-dasharray:none;stroke-opacity:1"
       d="m 6266.806,4998.6351 0,-73.9698" /><path
       inkscape:connector-curvature="0"
       id="path268"
       style="fill:none;stroke:#000000;stroke-width:3.08207679;stroke-linecap:butt;stroke-linejoin:miter;stroke-miterlimit:10;stroke-dasharray:none;stroke-opacity:1"
       d="m 6266.806,5109.5899 0,-73.9699" /><path
       inkscape:connector-curvature="0"
       id="path270"
       style="fill:none;stroke:#000000;stroke-width:3.08207679;stroke-linecap:butt;stroke-linejoin:miter;stroke-miterlimit:10;stroke-dasharray:none;stroke-opacity:1"
       d="m 6636.6552,4998.6351 0,-73.9698" /><path
       inkscape:connector-curvature="0"
       id="path272"
       style="fill:none;stroke:#000000;stroke-width:3.08207679;stroke-linecap:butt;stroke-linejoin:miter;stroke-miterlimit:10;stroke-dasharray:none;stroke-opacity:1"
       d="m 6636.6552,5109.5899 0,-73.9699" /><g
       transform="matrix(13.045828,0,0,13.045828,-213.38312,-1110.9872)"
       id="g274"><text
         id="text276"
         style="font-variant:normal;font-weight:normal;font-size:5.67000008px;font-family:Helvetica;-inkscape-font-specification:Helvetica;writing-mode:lr-tb;fill:#000000;fill-opacity:1;fill-rule:nonzero;stroke:none"
         transform="matrix(1,0,0,-1,288.506,427.212)"><tspan
           id="tspan278"
           sodipodi:role="line"
           y="0"
           x="0 3.1525199 5.9875202 7.5637798 9.1400404 10.7163 11.97504 15.12756 16.386299">1st field</tspan><tspan
           id="tspan280"
           sodipodi:role="line"
           y="-36.855"
           x="-62.6819 20.9506 49.300598 79.0681 107.4181 135.7681 -5.9819002 -34.331902 -94.184402 -91.031883 -87.879356 -122.5344 -119.38188 -116.22936 -150.8844 -147.73187 -144.57936 162.5416 165.69412">1456783231231131022</tspan><tspan
           id="tspan282"
           sodipodi:role="line"
           y="-45.360031"
           x="-62.6824 20.9501 49.300098 79.067596 107.4176 135.76759 -5.9823999 -34.332401 -94.184898 -91.032379 -87.87986 -122.5349 -119.38238 -116.22986 -150.8849 -147.73238 -144.57986 162.54111 165.69362">1456783262562462322</tspan><tspan
           id="tspan284"
           sodipodi:role="line"
           y="-36.855"
           x="-207.5849 -204.43237 -201.27986">308</tspan><tspan
           id="tspan286"
           sodipodi:role="line"
           y="-45.360031"
           x="-207.5849 -204.43237 -201.27986">621</tspan><tspan
           id="tspan288"
           sodipodi:role="line"
           y="-36.855"
           x="-179.23489 -176.08238 -172.92986">309</tspan><tspan
           id="tspan290"
           sodipodi:role="line"
           y="-45.360031"
           x="-179.23489 -176.08238 -172.92986">622</tspan><tspan
           id="tspan292"
           sodipodi:role="line"
           y="62.369968"
           x="-0.94690001 2.2056201 5.35814 8.5106602 10.08692 11.66318 12.92192 16.07444 17.333179">2nd field</tspan></text>
<text
         id="text294"
         style="font-variant:normal;font-weight:normal;font-size:4.7249999px;font-family:Helvetica;-inkscape-font-specification:Helvetica;writing-mode:lr-tb;fill:#000000;fill-opacity:1;fill-rule:nonzero;stroke:none"
         transform="matrix(1,0,0,-1,225.9829,394.60953)"><tspan
           id="tspan296"
           sodipodi:role="line"
           y="0"
           x="0 1.5734251 4.2005248">(1)</tspan></text>
<text
         id="text298"
         style="font-variant:normal;font-weight:normal;font-size:5.67000008px;font-family:Helvetica;-inkscape-font-specification:Helvetica;writing-mode:lr-tb;fill:#000000;fill-opacity:1;fill-rule:nonzero;stroke:none"
         transform="matrix(1,0,0,-1,395.9239,401.69703)"><tspan
           id="tspan300"
           sodipodi:role="line"
           y="0"
           x="0 -28.35 -56.700001 -85.050003 -111.9825 -141.75 -201.60249 -198.44998 -195.29745 -229.9525 -226.79997 -223.64746 -258.30249 -255.14998 -251.99747">765432313312311</tspan><tspan
           id="tspan302"
           sodipodi:role="line"
           y="-8.5050297"
           x="81.897499 85.050018 88.202538 53.547501 56.70002 59.852539 25.1975 28.350019 31.502541 -3.1524999 1.9999999e-05 3.15254 -31.502501 -28.349979 -25.19746 -59.852501 -56.699982 -53.547459 -88.202499 -85.04998 -81.897461 -115.135 -111.98248 -108.82996 -144.9025 -141.74998 -138.59746 -173.2525 -170.09998 -166.94746 -201.60249 -198.44998 -195.29745 -229.9525 -226.79997 -223.64746 -258.30249 -255.14998 -251.99747">336335321320319318317316315314313312311</tspan><tspan
           id="tspan304"
           sodipodi:role="line"
           y="0"
           x="-170.10001 28.35 55.123699 58.276218 83.473701 86.626221 -315.00229 -311.84979 -308.69727">182223309</tspan><tspan
           id="tspan306"
           sodipodi:role="line"
           y="-8.5050297"
           x="-315.00229 -311.84979 -308.69727">309</tspan><tspan
           id="tspan308"
           sodipodi:role="line"
           y="0"
           x="-286.65231 -283.49979 -280.34726">310</tspan><tspan
           id="tspan310"
           sodipodi:role="line"
           y="-8.5050297"
           x="-286.65231 -283.49979 -280.34726">310</tspan><tspan
           id="tspan312"
           sodipodi:role="line"
           y="0"
           x="111.8237 114.97622">24</tspan><tspan
           id="tspan314"
           sodipodi:role="line"
           y="-8.5050297"
           x="110.24743 113.39995 116.55247">337</tspan><tspan
           id="tspan316"
           sodipodi:role="line"
           y="-62.36993"
           x="83.473732 86.626251">23</tspan><tspan
           id="tspan318"
           sodipodi:role="line"
           y="-70.874962"
           x="83.473732 86.626251">23</tspan><tspan
           id="tspan320"
           sodipodi:role="line"
           y="-62.36993"
           x="111.82373 114.97625">24</tspan><tspan
           id="tspan322"
           sodipodi:role="line"
           y="-70.874962"
           x="111.82373 114.97625">24</tspan></text>
</g></g></svg>