<?xml version="1.0" encoding="UTF-8" standalone="no"?>
<!--
    Permission is granted to copy, distribute and/or modify this
    document under the terms of the GNU Free Documentation License,
    Version 1.1 or any later version published by the Free Software
    Foundation, with no Invariant Sections, no Front-Cover Texts
    and no Back-Cover Texts. A copy of the license is included at
    Documentation/media/uapi/fdl-appendix.rst.

    TODO: replace it to GFDL-1.1-or-later WITH no-invariant-sections
-->
<svg
   xmlns:dc="http://purl.org/dc/elements/1.1/"
   xmlns:cc="http://creativecommons.org/ns#"
   xmlns:rdf="http://www.w3.org/1999/02/22-rdf-syntax-ns#"
   xmlns:svg="http://www.w3.org/2000/svg"
   xmlns="http://www.w3.org/2000/svg"
   xmlns:sodipodi="http://sodipodi.sourceforge.net/DTD/sodipodi-0.dtd"
   xmlns:inkscape="http://www.inkscape.org/namespaces/inkscape"
   id="svg2"
   version="1.1"
   inkscape:version="0.91 r13725"
   xml:space="preserve"
   width="192.39857mm"
   height="146.83536mm"
   viewBox="0 0 681.72724 520.28277"
   sodipodi:docname="vbi_hsync.svg"><sodipodi:namedview
     pagecolor="#ffffff"
     bordercolor="#666666"
     borderopacity="1"
     objecttolerance="10"
     gridtolerance="10"
     guidetolerance="10"
     inkscape:pageopacity="0"
     inkscape:pageshadow="2"
     inkscape:window-width="1920"
     inkscape:window-height="997"
     id="namedview4"
     showgrid="false"
     inkscape:zoom="1.5350601"
     inkscape:cx="131.95463"
     inkscape:cy="428.88132"
     inkscape:window-x="1920"
     inkscape:window-y="30"
     inkscape:window-maximized="1"
     inkscape:current-layer="g10"
     units="mm"
     fit-margin-top="0"
     fit-margin-left="0"
     fit-margin-right="0"
     fit-margin-bottom="0" /><metadata
     id="metadata8"><rdf:RDF><cc:Work
	 rdf:about=""><dc:format>image/svg+xml</dc:format><dc:type
	   rdf:resource="http://purl.org/dc/dcmitype/StillImage" /><dc:title /></cc:Work></rdf:RDF></metadata><defs
     id="defs6"><clipPath
       clipPathUnits="userSpaceOnUse"
       id="clipPath30"><path
	 d="m 0,0 0,1163 1544,0 L 1544,0 0,0 Z m 187.184,836.05 0,-19.278 48.517,0 -38.556,9.639 38.556,9.639 -48.517,0 z m 689.189,-19.278 0,19.278 -48.516,0 38.556,-9.639 -38.556,-9.639 48.516,0 z"
	 id="path32"
	 inkscape:connector-curvature="0"
	 style="clip-rule:evenodd" /></clipPath><clipPath
       clipPathUnits="userSpaceOnUse"
       id="clipPath52"><path
	 d="m 0,0 0,1163 1544,0 L 1544,0 0,0 Z m 804.08,79.3887 0,19.2778 -48.516,0 38.556,-9.6389 -38.556,-9.6389 48.516,0 z m -703.647,19.2778 0,-19.2778 48.517,0 -38.556,9.6389 38.556,9.6389 -48.517,0 z"
	 id="path54"
	 inkscape:connector-curvature="0"
	 style="clip-rule:evenodd" /></clipPath><clipPath
       clipPathUnits="userSpaceOnUse"
       id="clipPath94"><path
	 d="m 0,0 0,1163 1544,0 L 1544,0 0,0 Z m 471.535,195.057 0,19.278 -48.516,0 38.555,-9.639 -38.555,-9.639 48.516,0 z m -284.351,19.278 0,-19.278 48.517,0 -38.556,9.639 38.556,9.639 -48.517,0 z"
	 id="path96"
	 inkscape:connector-curvature="0"
	 style="clip-rule:evenodd" /></clipPath></defs><g
     id="g10"
     inkscape:groupmode="layer"
     inkscape:label="vbi_hsync"
     transform="matrix(1.25,0,0,-1.25,-0.3625824,520.79867)"><g
       id="g14"
       transform="matrix(0.36030235,0,0,0.36030235,-0.75498483,-1.0743684)"
       style=""><path
	 inkscape:connector-curvature="0"
	 id="path16"
	 style="fill:none;stroke:#000000;stroke-width:2.40974998;stroke-linecap:butt;stroke-linejoin:miter;stroke-miterlimit:10;stroke-dasharray:none;stroke-opacity:1"
	 d="M 32.9604,580.617 4.04346,493.866" /><path
	 inkscape:connector-curvature="0"
	 id="path18"
	 style="fill:none;stroke:#000000;stroke-width:2.40974998;stroke-linecap:butt;stroke-linejoin:miter;stroke-miterlimit:10;stroke-dasharray:none;stroke-opacity:1"
	 d="m 192.004,855.328 0,-665.091" /><path
	 inkscape:connector-curvature="0"
	 id="path20"
	 style="fill:none;stroke:#000000;stroke-width:2.40974998;stroke-linecap:butt;stroke-linejoin:miter;stroke-miterlimit:10;stroke-dasharray:none;stroke-opacity:1"
	 d="m 466.715,392.656 0,-202.419" /><path
	 inkscape:connector-curvature="0"
	 id="path22"
	 style="fill:none;stroke:#000000;stroke-width:2.40974998;stroke-linecap:butt;stroke-linejoin:miter;stroke-miterlimit:10;stroke-dasharray:none;stroke-opacity:1"
	 d="m 799.261,508.324 0,-433.7549" /><path
	 inkscape:connector-curvature="0"
	 id="path24"
	 style="fill:none;stroke:#000000;stroke-width:4.81949997;stroke-linecap:butt;stroke-linejoin:miter;stroke-miterlimit:10;stroke-dasharray:none;stroke-opacity:1"
	 d="m 857.095,537.241 231.335,0" /></g><g
       id="g26"
       transform="matrix(0.36030235,0,0,0.36030235,-0.75498483,-1.0743684)"
       style=""><g
	 clip-path="url(#clipPath30)"
	 id="g28"
	 style=""><path
	   inkscape:connector-curvature="0"
	   id="path34"
	   style="fill:none;stroke:#000000;stroke-width:2.40974998;stroke-linecap:butt;stroke-linejoin:miter;stroke-miterlimit:10;stroke-dasharray:none;stroke-opacity:1"
	   d="m 871.553,826.411 -679.549,0" /></g></g><g
       id="g36"
       transform="matrix(0.36030235,0,0,0.36030235,-0.75498483,-1.0743684)"
       style=""><path
	 inkscape:connector-curvature="0"
	 id="path38"
	 style="fill:#000000;fill-opacity:1;fill-rule:evenodd;stroke:none"
	 d="m 827.857,816.772 38.556,9.639 -38.556,9.639 0,-19.278" /><path
	 inkscape:connector-curvature="0"
	 id="path40"
	 style="fill:none;stroke:#000000;stroke-width:2.40974998;stroke-linecap:butt;stroke-linejoin:miter;stroke-miterlimit:10;stroke-dasharray:none;stroke-opacity:1"
	 d="m 827.857,816.772 38.556,9.639 -38.556,9.639 0,-19.278 z" /><path
	 inkscape:connector-curvature="0"
	 id="path42"
	 style="fill:#000000;fill-opacity:1;fill-rule:evenodd;stroke:none"
	 d="m 235.701,836.05 -38.556,-9.639 38.556,-9.639 0,19.278" /><path
	 inkscape:connector-curvature="0"
	 id="path44"
	 style="fill:none;stroke:#000000;stroke-width:2.40974998;stroke-linecap:butt;stroke-linejoin:miter;stroke-miterlimit:10;stroke-dasharray:none;stroke-opacity:1"
	 d="m 235.701,836.05 -38.556,-9.639 38.556,-9.639 0,19.278 z" /><path
	 inkscape:connector-curvature="0"
	 id="path46"
	 style="fill:none;stroke:#000000;stroke-width:2.40974998;stroke-linecap:butt;stroke-linejoin:miter;stroke-miterlimit:10;stroke-dasharray:none;stroke-opacity:1"
	 d="m 1073.97,493.866 28.92,86.751" /></g><g
       id="g48"
       transform="matrix(0.36030235,0,0,0.36030235,-0.75498483,-1.0743684)"
       style=""><g
	 clip-path="url(#clipPath52)"
	 id="g50"
	 style=""><path
	   inkscape:connector-curvature="0"
	   id="path56"
	   style="fill:none;stroke:#000000;stroke-width:2.40974998;stroke-linecap:butt;stroke-linejoin:miter;stroke-miterlimit:10;stroke-dasharray:none;stroke-opacity:1"
	   d="m 105.253,89.0276 694.008,0" /></g></g><path
       d="m 52.91205,34.475403 -13.891817,-3.472918 13.891817,-3.472918 0,6.945836"
       style="fill:#000000;fill-opacity:1;fill-rule:evenodd;stroke:none"
       id="path60"
       inkscape:connector-curvature="0" /><path
       d="m 52.91205,34.475403 -13.891817,-3.472918 13.891817,-3.472918 0,6.945836 z"
       style="fill:none;stroke:#000000;stroke-width:0.86823857;stroke-linecap:butt;stroke-linejoin:miter;stroke-miterlimit:10;stroke-dasharray:none;stroke-opacity:1"
       id="path62"
       inkscape:connector-curvature="0" /><path
       d="m 271.4765,27.529567 13.89182,3.472918 -13.89182,3.472918 0,-6.945836"
       style="fill:#000000;fill-opacity:1;fill-rule:evenodd;stroke:none"
       id="path64"
       inkscape:connector-curvature="0" /><path
       d="m 271.4765,27.529567 13.89182,3.472918 -13.89182,3.472918 0,-6.945836 z"
       style="fill:none;stroke:#000000;stroke-width:0.86823857;stroke-linecap:butt;stroke-linejoin:miter;stroke-miterlimit:10;stroke-dasharray:none;stroke-opacity:1"
       id="path66"
       inkscape:connector-curvature="0" /><path
       d="m 5.9113292,192.49483 31.2565888,0 0,-10.41887 26.046978,0 10.418863,-93.769765 88.560511,0 10.41887,93.769765 10.41886,0"
       style="fill:none;stroke:#000000;stroke-width:1.73647714;stroke-linecap:butt;stroke-linejoin:miter;stroke-miterlimit:10;stroke-dasharray:none;stroke-opacity:1"
       id="path68"
       inkscape:connector-curvature="0" /><path
       d="m 162.19427,88.306195 260.47086,0"
       style="fill:none;stroke:#000000;stroke-width:0.86823857;stroke-linecap:butt;stroke-linejoin:miter;stroke-miterlimit:10;stroke-dasharray:none;stroke-opacity:1"
       id="path70"
       inkscape:connector-curvature="0" /><path
       d="m 37.167918,182.07596 0,-156.282907"
       style="fill:none;stroke:#000000;stroke-width:0.86823857;stroke-linecap:butt;stroke-linejoin:miter;stroke-miterlimit:10;stroke-dasharray:none;stroke-opacity:1"
       id="path72"
       inkscape:connector-curvature="0" /><path
       d="m 235.12632,182.07596 52.09431,0 0,10.41887 20.83773,0 10.41886,208.3769 83.35162,0"
       style="fill:none;stroke:#000000;stroke-width:1.73647714;stroke-linecap:butt;stroke-linejoin:miter;stroke-miterlimit:10;stroke-dasharray:none;stroke-opacity:1"
       id="path74"
       inkscape:connector-curvature="0" /><path
       d="m 391.4089,192.49483 31.25623,0"
       style="fill:none;stroke:#000000;stroke-width:0.86823857;stroke-linecap:butt;stroke-linejoin:miter;stroke-miterlimit:10;stroke-dasharray:none;stroke-opacity:1"
       id="path76"
       inkscape:connector-curvature="0" /><path
       d="m 401.82884,400.87173 20.83629,0"
       style="fill:none;stroke:#000000;stroke-width:0.86823857;stroke-linecap:butt;stroke-linejoin:miter;stroke-miterlimit:10;stroke-dasharray:none;stroke-opacity:1"
       id="path78"
       inkscape:connector-curvature="0" /><path
       d="m 328.89608,192.49483 10.41887,208.3769"
       style="fill:none;stroke:#000000;stroke-width:0.86823857;stroke-linecap:butt;stroke-linejoin:miter;stroke-miterlimit:10;stroke-dasharray:none;stroke-opacity:1"
       id="path80"
       inkscape:connector-curvature="0" /><path
       d="m 349.73381,192.49483 10.41886,208.3769"
       style="fill:none;stroke:#000000;stroke-width:0.86823857;stroke-linecap:butt;stroke-linejoin:miter;stroke-miterlimit:10;stroke-dasharray:none;stroke-opacity:1"
       id="path82"
       inkscape:connector-curvature="0" /><path
       d="m 370.57262,192.49483 10.41634,208.3769"
       style="fill:none;stroke:#000000;stroke-width:0.86823857;stroke-linecap:butt;stroke-linejoin:miter;stroke-miterlimit:10;stroke-dasharray:none;stroke-opacity:1"
       id="path84"
       inkscape:connector-curvature="0" /><path
       d="m 396.61887,385.24541 10.41995,31.25623"
       style="fill:none;stroke:#000000;stroke-width:0.86823857;stroke-linecap:butt;stroke-linejoin:miter;stroke-miterlimit:10;stroke-dasharray:none;stroke-opacity:1"
       id="path86"
       inkscape:connector-curvature="0" /><path
       d="m 183.032,135.19126 52.09432,0 0,93.76977 -52.09432,0 0,-93.76977 z"
       style="fill:none;stroke:#000000;stroke-width:1.73647714;stroke-linecap:butt;stroke-linejoin:miter;stroke-miterlimit:10;stroke-dasharray:none;stroke-opacity:1"
       id="path88"
       inkscape:connector-curvature="0" /><g
       id="g90"
       transform="matrix(0.36030235,0,0,0.36030235,-0.75498483,-1.0743684)"
       style=""><g
	 clip-path="url(#clipPath94)"
	 id="g92"
	 style=""><path
	   inkscape:connector-curvature="0"
	   id="path98"
	   style="fill:none;stroke:#000000;stroke-width:2.40974998;stroke-linecap:butt;stroke-linejoin:miter;stroke-miterlimit:10;stroke-dasharray:none;stroke-opacity:1"
	   d="m 192.004,204.696 274.711,0" /></g></g><path
       d="m 84.168639,76.151036 -13.891817,-3.472955 13.891817,-3.472954 0,6.945909"
       style="fill:#000000;fill-opacity:1;fill-rule:evenodd;stroke:none"
       id="path102"
       inkscape:connector-curvature="0" /><path
       d="m 84.168639,76.151036 -13.891817,-3.472955 13.891817,-3.472954 0,6.945909 z"
       style="fill:none;stroke:#000000;stroke-width:0.86823857;stroke-linecap:butt;stroke-linejoin:miter;stroke-miterlimit:10;stroke-dasharray:none;stroke-opacity:1"
       id="path104"
       inkscape:connector-curvature="0" /><path
       d="m 151.65975,69.205127 13.89146,3.472954 -13.89146,3.472955 0,-6.945909"
       style="fill:#000000;fill-opacity:1;fill-rule:evenodd;stroke:none"
       id="path106"
       inkscape:connector-curvature="0" /><path
       d="m 151.65975,69.205127 13.89146,3.472954 -13.89146,3.472955 0,-6.945909 z"
       style="fill:none;stroke:#000000;stroke-width:0.86823857;stroke-linecap:butt;stroke-linejoin:miter;stroke-miterlimit:10;stroke-dasharray:none;stroke-opacity:1"
       id="path108"
       inkscape:connector-curvature="0" /><text
       id="text112"
       style="font-variant:normal;font-weight:normal;font-size:20.83772659px;font-family:sans-serif;-inkscape-font-specification:sans-serif;writing-mode:lr-tb;fill:#000000;fill-opacity:1;fill-rule:nonzero;stroke:none;font-style:normal;font-stretch:normal;"
       transform="scale(1,-1)"
       x="438.29504"
       y="-187.28558"><tspan
	 id="tspan114"
	 sodipodi:role="line"
	 y="-187.28558"
	 x="438.29504 452.19382 456.81979 468.40555 478.82443 489.24329 495.03619 506.62195 518.2077 528.62659 540.21234">Black Level</tspan><tspan
	 id="tspan116"
	 sodipodi:role="line"
	 y="-83.096947"
	 x="438.29504 452.19382 462.61267 474.19846 484.61731 490.41019 501.99597 513.58173 524.00061 535.58636">Sync Level</tspan><tspan
	 id="tspan118"
	 sodipodi:role="line"
	 y="-395.66284"
	 x="438.29504 457.96585 469.55164 474.17761 479.97049 491.55627 497.34915 508.93494 520.52069 530.93958 542.52533">White Level</tspan></text>
<text
       id="text120"
       style="font-variant:normal;font-weight:normal;font-size:20.83772659px;font-family:sans-serif;-inkscape-font-specification:sans-serif;writing-mode:lr-tb;fill:#000000;fill-opacity:1;fill-rule:nonzero;stroke:none;font-style:normal;font-stretch:normal;"
       transform="scale(1,-1)"
       x="159.88258"
       y="-270.63647"><tspan
	 id="tspan122"
	 sodipodi:role="line"
	 y="-270.63647"
	 x="159.88258 172.61443 179.55339 186.49236 198.07812 209.66391">offset</tspan></text>
<text
       id="text124"
       style="font-variant:normal;font-weight:normal;font-size:20.83772659px;font-family:sans-serif;-inkscape-font-specification:sans-serif;writing-mode:lr-tb;fill:#000000;fill-opacity:1;fill-rule:nonzero;stroke:none;font-style:normal;font-stretch:normal;"
       transform="scale(1,-1)"
       x="46.973549"
       y="-46.630745"><tspan
	 id="tspan126"
	 sodipodi:role="line"
	 y="-46.630745"
	 x="46.973549 58.559322 63.185299 74.771072 86.35685 92.149734 102.5686 112.98746 124.57324 134.9921 146.57788 153.51685 159.30972 165.10262 176.68839 188.27417 192.90015 203.319">Line synchr. pulse</tspan><tspan
	 id="tspan128"
	 sodipodi:role="line"
	 y="-4.9552913"
	 x="100.80776 112.39354 117.01952 128.60529 140.19107 145.98395 157.56973 162.19569 173.78148 185.36726 195.78612 200.41209 211.99788">Line blanking</tspan></text>
<text
       id="text3473"
       style="font-variant:normal;font-weight:normal;font-size:20.83772659px;font-family:sans-serif;-inkscape-font-specification:sans-serif;writing-mode:lr-tb;fill:#000000;fill-opacity:1;fill-rule:nonzero;stroke:none;font-style:normal;font-stretch:normal;"
       transform="scale(1,-1)"
       x="46.973549 58.559322 63.185299 74.771072 86.35685 92.149734 102.5686 112.98746 124.57324 134.9921 146.57788 153.51685 159.30972 165.10262 176.68839 188.27417 192.90015 203.319"
       y="-46.630745"><tspan
	 id="tspan3475"
	 sodipodi:role="line"
	 y="-46.630745"
	 x="46.973549 58.559322 63.185299 74.771072 86.35685 92.149734 102.5686 112.98746 124.57324 134.9921 146.57788 153.51685 159.30972 165.10262 176.68839 188.27417 192.90015 203.319">Line synchr. pulse</tspan></text>
<text
       id="text3477"
       style="font-variant:normal;font-weight:normal;font-size:20.83772659px;font-family:sans-serif;-inkscape-font-specification:sans-serif;writing-mode:lr-tb;fill:#000000;fill-opacity:1;fill-rule:nonzero;stroke:none;font-style:normal;font-stretch:normal;"
       transform="scale(1,-1)"
       x="100.80776 112.39354 117.01952 128.60529 140.19107 145.98395 157.56973 162.19569 173.78148 185.36726 195.78612 200.41209 211.99788"
       y="-4.9552913"><tspan
	 id="tspan3479"
	 sodipodi:role="line"
	 y="-4.9552913"
	 x="100.80776 112.39354 117.01952 128.60529 140.19107 145.98395 157.56973 162.19569 173.78148 185.36726 195.78612 200.41209 211.99788">Line blanking</tspan></text>
<text
       id="text3607"
       style="font-variant:normal;font-weight:normal;font-size:20.83772659px;font-family:sans-serif;-inkscape-font-specification:sans-serif;writing-mode:lr-tb;fill:#000000;fill-opacity:1;fill-rule:nonzero;stroke:none;font-style:normal;font-stretch:normal;"
       transform="scale(1,-1)"
       x="438.29504 452.19382 456.81979 468.40555 478.82443 489.24329 495.03619 506.62195 518.2077 528.62659 540.21234"
       y="-187.28558"><tspan
	 id="tspan3609"
	 sodipodi:role="line"
	 y="-187.28558"
	 x="438.29504 452.19382 456.81979 468.40555 478.82443 489.24329 495.03619 506.62195 518.2077 528.62659 540.21234">Black Level</tspan></text>
<text
       id="text3611"
       style="font-variant:normal;font-weight:normal;font-size:20.83772659px;font-family:sans-serif;-inkscape-font-specification:sans-serif;writing-mode:lr-tb;fill:#000000;fill-opacity:1;fill-rule:nonzero;stroke:none;font-style:normal;font-stretch:normal;"
       transform="scale(1,-1)"
       x="438.29504 452.19382 462.61267 474.19846 484.61731 490.41019 501.99597 513.58173 524.00061 535.58636"
       y="-83.096947"><tspan
	 id="tspan3613"
	 sodipodi:role="line"
	 y="-83.096947"
	 x="438.29504 452.19382 462.61267 474.19846 484.61731 490.41019 501.99597 513.58173 524.00061 535.58636">Sync Level</tspan></text>
<text
       id="text3615"
       style="font-variant:normal;font-weight:normal;font-size:20.83772659px;font-family:sans-serif;-inkscape-font-specification:sans-serif;writing-mode:lr-tb;fill:#000000;fill-opacity:1;fill-rule:nonzero;stroke:none;font-style:normal;font-stretch:normal;"
       transform="scale(1,-1)"
       x="438.29504 457.96585 469.55164 474.17761 479.97049 491.55627 497.34915 508.93494 520.52069 530.93958 542.52533"
       y="-395.66284"><tspan
	 id="tspan3617"
	 sodipodi:role="line"
	 y="-395.66284"
	 x="438.29504 457.96585 469.55164 474.17761 479.97049 491.55627 497.34915 508.93494 520.52069 530.93958 542.52533">White Level</tspan></text>
</g></svg>
