<?xml version="1.0" encoding="UTF-8" standalone="no"?>
<!-- Created with Inkscape (http://www.inkscape.org/) -->

<svg
   xmlns:dc="http://purl.org/dc/elements/1.1/"
   xmlns:cc="http://creativecommons.org/ns#"
   xmlns:rdf="http://www.w3.org/1999/02/22-rdf-syntax-ns#"
   xmlns:svg="http://www.w3.org/2000/svg"
   xmlns="http://www.w3.org/2000/svg"
   xmlns:sodipodi="http://sodipodi.sourceforge.net/DTD/sodipodi-0.dtd"
   xmlns:inkscape="http://www.inkscape.org/namespaces/inkscape"
   id="svg2"
   version="1.1"
   inkscape:version="0.91 r13725"
   xml:space="preserve"
   width="208.73068mm"
   height="51.395489mm"
   viewBox="0 0 739.59691 182.11"
   sodipodi:docname="vbi_525.svg"><metadata
     id="metadata8"><rdf:RDF><cc:Work
         rdf:about=""><dc:format>image/svg+xml</dc:format><dc:type
           rdf:resource="http://purl.org/dc/dcmitype/StillImage" /><dc:title></dc:title></cc:Work></rdf:RDF></metadata><defs
     id="defs6"><clipPath
       clipPathUnits="userSpaceOnUse"
       id="clipPath20"><path
         d="m 0,0 5950,0 0,3922 L 0,3922 0,0 Z m 0,3922 5950,0 0,1 -5950,0 0,-1 z m 0,1 1359,0 0,1 -1359,0 0,-1 z m 1399,0 4551,0 0,1 -4551,0 0,-1 z m -1399,1 1363,0 0,1 -1363,0 0,-1 z m 1399,0 4551,0 0,1 -4551,0 0,-1 z m -1399,1 1367,0 0,1 -1367,0 0,-1 z m 1399,0 4551,0 0,1 -4551,0 0,-1 z m -1399,1 1371,0 0,1 -1371,0 0,-1 z m 1399,0 4551,0 0,1 -4551,0 0,-1 z m -1399,1 1375,0 0,1 -1375,0 0,-1 z m 1399,0 4551,0 0,1 -4551,0 0,-1 z m -1399,1 1379,0 0,1 -1379,0 0,-1 z m 1399,0 4551,0 0,1 -4551,0 0,-1 z m -1399,1 1383,0 0,1 -1383,0 0,-1 z m 1399,0 4551,0 0,1 -4551,0 0,-1 z m -1399,1 1387,0 0,1 -1387,0 0,-1 z m 1399,0 4551,0 0,1 -4551,0 0,-1 z m -1399,1 1391,0 0,1 -1391,0 0,-1 z m 1399,0 4551,0 0,1 -4551,0 0,-1 z m -1399,1 1390,0 0,1 -1390,0 0,-1 z m 1399,0 4551,0 0,1 -4551,0 0,-1 z m -1399,1 1386,0 0,1 -1386,0 0,-1 z m 1399,0 4551,0 0,1 -4551,0 0,-1 z m -1399,1 1382,0 0,1 -1382,0 0,-1 z m 1399,0 4551,0 0,1 -4551,0 0,-1 z m -1399,1 1378,0 0,1 -1378,0 0,-1 z m 1399,0 4551,0 0,1 -4551,0 0,-1 z m -1399,1 1374,0 0,1 -1374,0 0,-1 z m 1399,0 4551,0 0,1 -4551,0 0,-1 z m -1399,1 1370,0 0,1 -1370,0 0,-1 z m 1399,0 4551,0 0,1 -4551,0 0,-1 z m -1399,1 1366,0 0,1 -1366,0 0,-1 z m 1399,0 4551,0 0,1 -4551,0 0,-1 z m -1399,1 1362,0 0,1 -1362,0 0,-1 z m 1399,0 4551,0 0,1 -4551,0 0,-1 z m -1399,1 1358,0 0,1 -1358,0 0,-1 z m 1399,0 4551,0 0,1 -4551,0 0,-1 z m -1399,1 5950,0 0,1 -5950,0 0,-1 z m 0,1 5950,0 0,4478 -5950,0 0,-4478 z"
         id="path22"
         inkscape:connector-curvature="0" /></clipPath><clipPath
       clipPathUnits="userSpaceOnUse"
       id="clipPath98"><path
         d="m 0,0 5950,0 0,4546 L 0,4546 0,0 Z m 0,4546 5950,0 0,1 -5950,0 0,-1 z m 0,1 1360,0 0,1 -1360,0 0,-1 z m 1399,0 4551,0 0,1 -4551,0 0,-1 z m -1399,1 1364,0 0,1 -1364,0 0,-1 z m 1399,0 4551,0 0,1 -4551,0 0,-1 z m -1399,1 1368,0 0,1 -1368,0 0,-1 z m 1399,0 4551,0 0,1 -4551,0 0,-1 z m -1399,1 1372,0 0,1 -1372,0 0,-1 z m 1399,0 4551,0 0,1 -4551,0 0,-1 z m -1399,1 1376,0 0,1 -1376,0 0,-1 z m 1399,0 4551,0 0,1 -4551,0 0,-1 z m -1399,1 1380,0 0,1 -1380,0 0,-1 z m 1399,0 4551,0 0,1 -4551,0 0,-1 z m -1399,1 1384,0 0,1 -1384,0 0,-1 z m 1399,0 4551,0 0,1 -4551,0 0,-1 z m -1399,1 1388,0 0,1 -1388,0 0,-1 z m 1399,0 4551,0 0,1 -4551,0 0,-1 z m -1399,1 1391,0 0,1 -1391,0 0,-1 z m 1399,0 4551,0 0,1 -4551,0 0,-1 z m -1399,1 1389,0 0,1 -1389,0 0,-1 z m 1399,0 4551,0 0,1 -4551,0 0,-1 z m -1399,1 1385,0 0,1 -1385,0 0,-1 z m 1399,0 4551,0 0,1 -4551,0 0,-1 z m -1399,1 1381,0 0,1 -1381,0 0,-1 z m 1399,0 4551,0 0,1 -4551,0 0,-1 z m -1399,1 1377,0 0,1 -1377,0 0,-1 z m 1399,0 4551,0 0,1 -4551,0 0,-1 z m -1399,1 1373,0 0,1 -1373,0 0,-1 z m 1399,0 4551,0 0,1 -4551,0 0,-1 z m -1399,1 1369,0 0,1 -1369,0 0,-1 z m 1399,0 4551,0 0,1 -4551,0 0,-1 z m -1399,1 1365,0 0,1 -1365,0 0,-1 z m 1399,0 4551,0 0,1 -4551,0 0,-1 z m -1399,1 1361,0 0,1 -1361,0 0,-1 z m 1399,0 4551,0 0,1 -4551,0 0,-1 z m -1399,1 1357,0 0,1 -1357,0 0,-1 z m 1399,0 4551,0 0,1 -4551,0 0,-1 z m -1399,1 5950,0 0,1 -5950,0 0,-1 z m 0,1 5950,0 0,3854 -5950,0 0,-3854 z"
         id="path100"
         inkscape:connector-curvature="0" /></clipPath></defs><sodipodi:namedview
     pagecolor="#ffffff"
     bordercolor="#666666"
     borderopacity="1"
     objecttolerance="10"
     gridtolerance="10"
     guidetolerance="10"
     inkscape:pageopacity="0"
     inkscape:pageshadow="2"
     inkscape:window-width="1920"
     inkscape:window-height="997"
     id="namedview4"
     showgrid="false"
     fit-margin-top="0"
     fit-margin-left="0"
     fit-margin-right="0"
     fit-margin-bottom="0"
     inkscape:zoom="1.5350601"
     inkscape:cx="372.04724"
     inkscape:cy="135.87437"
     inkscape:window-x="1920"
     inkscape:window-y="30"
     inkscape:window-maximized="1"
     inkscape:current-layer="g10"
     units="mm" /><g
     id="g10"
     inkscape:groupmode="layer"
     inkscape:label="vbi_525"
     transform="matrix(0.125,0,0,-0.125,-87.571875,638.05691)"><g
       id="g12"
       transform="matrix(1.3000026,0,0,1.3000026,-210.17435,-1094.2823)"><path
         d="m 1281.75,3974.45 0,-85.05"
         style="fill:none;stroke:#000000;stroke-width:2.36249995;stroke-linecap:butt;stroke-linejoin:miter;stroke-miterlimit:10;stroke-dasharray:none;stroke-opacity:1"
         id="path14"
         inkscape:connector-curvature="0" /></g><g
       id="g16"
       transform="matrix(1.3000026,0,0,1.3000026,-210.17435,-1094.2823)"><g
         id="g18"
         clip-path="url(#clipPath20)"><path
           d="m 1281.75,3931.93 113.4,0"
           style="fill:none;stroke:#000000;stroke-width:2.36249995;stroke-linecap:butt;stroke-linejoin:miter;stroke-miterlimit:10;stroke-dasharray:none;stroke-opacity:1"
           id="path24"
           inkscape:connector-curvature="0" /></g></g><g
       id="g26"
       transform="matrix(1.3000026,0,0,1.3000026,-210.17435,-1094.2823)"><path
         d="m 1352.31,3922.48 37.8,9.45 -37.8,9.45 0,-18.9"
         style="fill:#000000;fill-opacity:1;fill-rule:evenodd;stroke:none"
         id="path28"
         inkscape:connector-curvature="0" /><path
         d="m 1352.31,3922.48 37.8,9.45 -37.8,9.45 0,-18.9 z"
         style="fill:none;stroke:#000000;stroke-width:2.36249995;stroke-linecap:butt;stroke-linejoin:miter;stroke-miterlimit:10;stroke-dasharray:none;stroke-opacity:1"
         id="path30"
         inkscape:connector-curvature="0" /><path
         d="m 4683.75,4059.5 0,-56.7"
         style="fill:none;stroke:#000000;stroke-width:2.36249995;stroke-linecap:butt;stroke-linejoin:miter;stroke-miterlimit:10;stroke-dasharray:none;stroke-opacity:1"
         id="path32"
         inkscape:connector-curvature="0" /><path
         d="m 4400.25,4059.5 0,-56.7"
         style="fill:none;stroke:#000000;stroke-width:2.36249995;stroke-linecap:butt;stroke-linejoin:miter;stroke-miterlimit:10;stroke-dasharray:none;stroke-opacity:1"
         id="path34"
         inkscape:connector-curvature="0" /><path
         d="m 4116.75,4059.5 0,-56.7"
         style="fill:none;stroke:#000000;stroke-width:2.36249995;stroke-linecap:butt;stroke-linejoin:miter;stroke-miterlimit:10;stroke-dasharray:none;stroke-opacity:1"
         id="path36"
         inkscape:connector-curvature="0" /><path
         d="m 3833.25,4059.5 0,-56.7"
         style="fill:none;stroke:#000000;stroke-width:2.36249995;stroke-linecap:butt;stroke-linejoin:miter;stroke-miterlimit:10;stroke-dasharray:none;stroke-opacity:1"
         id="path38"
         inkscape:connector-curvature="0" /><path
         d="m 3549.75,4059.5 0,-56.7"
         style="fill:none;stroke:#000000;stroke-width:2.36249995;stroke-linecap:butt;stroke-linejoin:miter;stroke-miterlimit:10;stroke-dasharray:none;stroke-opacity:1"
         id="path40"
         inkscape:connector-curvature="0" /><path
         d="m 3266.25,4059.5 0,-56.7"
         style="fill:none;stroke:#000000;stroke-width:2.36249995;stroke-linecap:butt;stroke-linejoin:miter;stroke-miterlimit:10;stroke-dasharray:none;stroke-opacity:1"
         id="path42"
         inkscape:connector-curvature="0" /><path
         d="m 2982.75,4059.5 0,-56.7"
         style="fill:none;stroke:#000000;stroke-width:2.36249995;stroke-linecap:butt;stroke-linejoin:miter;stroke-miterlimit:10;stroke-dasharray:none;stroke-opacity:1"
         id="path44"
         inkscape:connector-curvature="0" /><path
         d="m 2699.25,4059.5 0,-56.7"
         style="fill:none;stroke:#000000;stroke-width:2.36249995;stroke-linecap:butt;stroke-linejoin:miter;stroke-miterlimit:10;stroke-dasharray:none;stroke-opacity:1"
         id="path46"
         inkscape:connector-curvature="0" /><path
         d="m 2415.75,4059.5 0,-56.7"
         style="fill:none;stroke:#000000;stroke-width:2.36249995;stroke-linecap:butt;stroke-linejoin:miter;stroke-miterlimit:10;stroke-dasharray:none;stroke-opacity:1"
         id="path48"
         inkscape:connector-curvature="0" /><path
         d="m 2132.25,4059.5 0,-56.7"
         style="fill:none;stroke:#000000;stroke-width:2.36249995;stroke-linecap:butt;stroke-linejoin:miter;stroke-miterlimit:10;stroke-dasharray:none;stroke-opacity:1"
         id="path50"
         inkscape:connector-curvature="0" /><path
         d="m 1848.75,4059.5 0,-56.7"
         style="fill:none;stroke:#000000;stroke-width:2.36249995;stroke-linecap:butt;stroke-linejoin:miter;stroke-miterlimit:10;stroke-dasharray:none;stroke-opacity:1"
         id="path52"
         inkscape:connector-curvature="0" /><path
         d="m 1565.25,4059.5 0,-56.7"
         style="fill:none;stroke:#000000;stroke-width:2.36249995;stroke-linecap:butt;stroke-linejoin:miter;stroke-miterlimit:10;stroke-dasharray:none;stroke-opacity:1"
         id="path54"
         inkscape:connector-curvature="0" /><path
         d="m 1281.75,4059.5 0,-56.7"
         style="fill:none;stroke:#000000;stroke-width:2.36249995;stroke-linecap:butt;stroke-linejoin:miter;stroke-miterlimit:10;stroke-dasharray:none;stroke-opacity:1"
         id="path56"
         inkscape:connector-curvature="0" /><path
         d="m 998.25,4059.5 0,-56.7"
         style="fill:none;stroke:#000000;stroke-width:2.36249995;stroke-linecap:butt;stroke-linejoin:miter;stroke-miterlimit:10;stroke-dasharray:none;stroke-opacity:1"
         id="path58"
         inkscape:connector-curvature="0" /><path
         d="m 714.75,4059.5 0,-56.7"
         style="fill:none;stroke:#000000;stroke-width:2.36249995;stroke-linecap:butt;stroke-linejoin:miter;stroke-miterlimit:10;stroke-dasharray:none;stroke-opacity:1"
         id="path60"
         inkscape:connector-curvature="0" /><path
         d="m 4683.75,4144.55 0,-56.7"
         style="fill:none;stroke:#000000;stroke-width:2.36249995;stroke-linecap:butt;stroke-linejoin:miter;stroke-miterlimit:10;stroke-dasharray:none;stroke-opacity:1"
         id="path62"
         inkscape:connector-curvature="0" /><path
         d="m 4400.25,4144.55 0,-56.7"
         style="fill:none;stroke:#000000;stroke-width:2.36249995;stroke-linecap:butt;stroke-linejoin:miter;stroke-miterlimit:10;stroke-dasharray:none;stroke-opacity:1"
         id="path64"
         inkscape:connector-curvature="0" /><path
         d="m 4116.75,4144.55 0,-56.7"
         style="fill:none;stroke:#000000;stroke-width:2.36249995;stroke-linecap:butt;stroke-linejoin:miter;stroke-miterlimit:10;stroke-dasharray:none;stroke-opacity:1"
         id="path66"
         inkscape:connector-curvature="0" /><path
         d="m 3833.25,4144.55 0,-56.7"
         style="fill:none;stroke:#000000;stroke-width:2.36249995;stroke-linecap:butt;stroke-linejoin:miter;stroke-miterlimit:10;stroke-dasharray:none;stroke-opacity:1"
         id="path68"
         inkscape:connector-curvature="0" /><path
         d="m 3549.75,4144.55 0,-56.7"
         style="fill:none;stroke:#000000;stroke-width:2.36249995;stroke-linecap:butt;stroke-linejoin:miter;stroke-miterlimit:10;stroke-dasharray:none;stroke-opacity:1"
         id="path70"
         inkscape:connector-curvature="0" /><path
         d="m 3266.25,4144.55 0,-56.7"
         style="fill:none;stroke:#000000;stroke-width:2.36249995;stroke-linecap:butt;stroke-linejoin:miter;stroke-miterlimit:10;stroke-dasharray:none;stroke-opacity:1"
         id="path72"
         inkscape:connector-curvature="0" /><path
         d="m 2982.75,4144.55 0,-56.7"
         style="fill:none;stroke:#000000;stroke-width:2.36249995;stroke-linecap:butt;stroke-linejoin:miter;stroke-miterlimit:10;stroke-dasharray:none;stroke-opacity:1"
         id="path74"
         inkscape:connector-curvature="0" /><path
         d="m 2699.25,4144.55 0,-56.7"
         style="fill:none;stroke:#000000;stroke-width:2.36249995;stroke-linecap:butt;stroke-linejoin:miter;stroke-miterlimit:10;stroke-dasharray:none;stroke-opacity:1"
         id="path76"
         inkscape:connector-curvature="0" /><path
         d="m 2415.75,4144.55 0,-56.7"
         style="fill:none;stroke:#000000;stroke-width:2.36249995;stroke-linecap:butt;stroke-linejoin:miter;stroke-miterlimit:10;stroke-dasharray:none;stroke-opacity:1"
         id="path78"
         inkscape:connector-curvature="0" /><path
         d="m 2132.25,4144.55 0,-56.7"
         style="fill:none;stroke:#000000;stroke-width:2.36249995;stroke-linecap:butt;stroke-linejoin:miter;stroke-miterlimit:10;stroke-dasharray:none;stroke-opacity:1"
         id="path80"
         inkscape:connector-curvature="0" /><path
         d="m 1848.75,4144.55 0,-56.7"
         style="fill:none;stroke:#000000;stroke-width:2.36249995;stroke-linecap:butt;stroke-linejoin:miter;stroke-miterlimit:10;stroke-dasharray:none;stroke-opacity:1"
         id="path82"
         inkscape:connector-curvature="0" /><path
         d="m 1565.25,4144.55 0,-56.7"
         style="fill:none;stroke:#000000;stroke-width:2.36249995;stroke-linecap:butt;stroke-linejoin:miter;stroke-miterlimit:10;stroke-dasharray:none;stroke-opacity:1"
         id="path84"
         inkscape:connector-curvature="0" /><path
         d="m 1281.75,4144.55 0,-56.7"
         style="fill:none;stroke:#000000;stroke-width:2.36249995;stroke-linecap:butt;stroke-linejoin:miter;stroke-miterlimit:10;stroke-dasharray:none;stroke-opacity:1"
         id="path86"
         inkscape:connector-curvature="0" /><path
         d="m 998.25,4144.55 0,-56.7"
         style="fill:none;stroke:#000000;stroke-width:2.36249995;stroke-linecap:butt;stroke-linejoin:miter;stroke-miterlimit:10;stroke-dasharray:none;stroke-opacity:1"
         id="path88"
         inkscape:connector-curvature="0" /><path
         d="m 714.75,4144.55 0,-56.7"
         style="fill:none;stroke:#000000;stroke-width:2.36249995;stroke-linecap:butt;stroke-linejoin:miter;stroke-miterlimit:10;stroke-dasharray:none;stroke-opacity:1"
         id="path90"
         inkscape:connector-curvature="0" /><path
         d="m 1281.75,4598.15 0,-85.05"
         style="fill:none;stroke:#000000;stroke-width:2.36249995;stroke-linecap:butt;stroke-linejoin:miter;stroke-miterlimit:10;stroke-dasharray:none;stroke-opacity:1"
         id="path92"
         inkscape:connector-curvature="0" /></g><g
       id="g94"
       transform="matrix(1.3000026,0,0,1.3000026,-210.17435,-1094.2823)"><g
         id="g96"
         clip-path="url(#clipPath98)"><path
           d="m 1281.75,4555.63 113.4,0"
           style="fill:none;stroke:#000000;stroke-width:2.36249995;stroke-linecap:butt;stroke-linejoin:miter;stroke-miterlimit:10;stroke-dasharray:none;stroke-opacity:1"
           id="path102"
           inkscape:connector-curvature="0" /></g></g><path
       inkscape:connector-curvature="0"
       id="path106"
       style="fill:#000000;fill-opacity:1;fill-rule:evenodd;stroke:none"
       d="m 1547.8322,4815.7637 49.1401,12.2851 -49.1401,12.285 0,-24.5701" /><path
       inkscape:connector-curvature="0"
       id="path108"
       style="fill:none;stroke:#000000;stroke-width:3.07125616;stroke-linecap:butt;stroke-linejoin:miter;stroke-miterlimit:10;stroke-dasharray:none;stroke-opacity:1"
       d="m 1547.8322,4815.7637 49.1401,12.2851 -49.1401,12.285 0,-24.5701 z" /><path
       inkscape:connector-curvature="0"
       id="path110"
       style="fill:none;stroke:#000000;stroke-width:3.07125616;stroke-linecap:butt;stroke-linejoin:miter;stroke-miterlimit:10;stroke-dasharray:none;stroke-opacity:1"
       d="m 1456.104,5104.4553 0,-73.7101" /><path
       inkscape:connector-curvature="0"
       id="path112"
       style="fill:none;stroke:#000000;stroke-width:3.07125616;stroke-linecap:butt;stroke-linejoin:miter;stroke-miterlimit:10;stroke-dasharray:none;stroke-opacity:1"
       d="m 1824.6548,5030.7452 0,73.7101" /><path
       inkscape:connector-curvature="0"
       id="path114"
       style="fill:none;stroke:#000000;stroke-width:3.07125616;stroke-linecap:butt;stroke-linejoin:miter;stroke-miterlimit:10;stroke-dasharray:none;stroke-opacity:1"
       d="m 2193.2055,5104.4553 0,-73.7101" /><path
       inkscape:connector-curvature="0"
       id="path116"
       style="fill:none;stroke:#000000;stroke-width:3.07125616;stroke-linecap:butt;stroke-linejoin:miter;stroke-miterlimit:10;stroke-dasharray:none;stroke-opacity:1"
       d="m 2561.7563,5104.4553 0,-73.7101" /><path
       inkscape:connector-curvature="0"
       id="path118"
       style="fill:none;stroke:#000000;stroke-width:3.07125616;stroke-linecap:butt;stroke-linejoin:miter;stroke-miterlimit:10;stroke-dasharray:none;stroke-opacity:1"
       d="m 2930.307,5104.4553 0,-73.7101" /><path
       inkscape:connector-curvature="0"
       id="path120"
       style="fill:none;stroke:#000000;stroke-width:3.07125616;stroke-linecap:butt;stroke-linejoin:miter;stroke-miterlimit:10;stroke-dasharray:none;stroke-opacity:1"
       d="m 3298.8578,5104.4553 0,-73.7101" /><path
       inkscape:connector-curvature="0"
       id="path122"
       style="fill:none;stroke:#000000;stroke-width:3.07125616;stroke-linecap:butt;stroke-linejoin:miter;stroke-miterlimit:10;stroke-dasharray:none;stroke-opacity:1"
       d="m 3667.4085,5104.4553 0,-73.7101" /><path
       inkscape:connector-curvature="0"
       id="path124"
       style="fill:none;stroke:#000000;stroke-width:3.07125616;stroke-linecap:butt;stroke-linejoin:miter;stroke-miterlimit:10;stroke-dasharray:none;stroke-opacity:1"
       d="m 4035.9593,5104.4553 0,-73.7101" /><path
       inkscape:connector-curvature="0"
       id="path126"
       style="fill:none;stroke:#000000;stroke-width:3.07125616;stroke-linecap:butt;stroke-linejoin:miter;stroke-miterlimit:10;stroke-dasharray:none;stroke-opacity:1"
       d="m 4404.51,5104.4553 0,-73.7101" /><path
       inkscape:connector-curvature="0"
       id="path128"
       style="fill:none;stroke:#000000;stroke-width:3.07125616;stroke-linecap:butt;stroke-linejoin:miter;stroke-miterlimit:10;stroke-dasharray:none;stroke-opacity:1"
       d="m 4773.0608,5104.4553 0,-73.7101" /><path
       inkscape:connector-curvature="0"
       id="path130"
       style="fill:none;stroke:#000000;stroke-width:3.07125616;stroke-linecap:butt;stroke-linejoin:miter;stroke-miterlimit:10;stroke-dasharray:none;stroke-opacity:1"
       d="m 5141.6115,5104.4553 0,-73.7101" /><path
       inkscape:connector-curvature="0"
       id="path132"
       style="fill:none;stroke:#000000;stroke-width:3.07125616;stroke-linecap:butt;stroke-linejoin:miter;stroke-miterlimit:10;stroke-dasharray:none;stroke-opacity:1"
       d="m 5510.1623,5104.4553 0,-73.7101" /><path
       inkscape:connector-curvature="0"
       id="path134"
       style="fill:none;stroke:#000000;stroke-width:3.07125616;stroke-linecap:butt;stroke-linejoin:miter;stroke-miterlimit:10;stroke-dasharray:none;stroke-opacity:1"
       d="m 5878.713,5104.4553 0,-73.7101" /><path
       inkscape:connector-curvature="0"
       id="path136"
       style="fill:none;stroke:#000000;stroke-width:3.07125616;stroke-linecap:butt;stroke-linejoin:miter;stroke-miterlimit:10;stroke-dasharray:none;stroke-opacity:1"
       d="m 1456.104,4993.8901 0,-73.7102" /><path
       inkscape:connector-curvature="0"
       id="path138"
       style="fill:none;stroke:#000000;stroke-width:3.07125616;stroke-linecap:butt;stroke-linejoin:miter;stroke-miterlimit:10;stroke-dasharray:none;stroke-opacity:1"
       d="m 1824.6548,4920.1799 0,73.7102" /><path
       inkscape:connector-curvature="0"
       id="path140"
       style="fill:none;stroke:#000000;stroke-width:3.07125616;stroke-linecap:butt;stroke-linejoin:miter;stroke-miterlimit:10;stroke-dasharray:none;stroke-opacity:1"
       d="m 2193.2055,4993.8901 0,-73.7102" /><path
       inkscape:connector-curvature="0"
       id="path142"
       style="fill:none;stroke:#000000;stroke-width:3.07125616;stroke-linecap:butt;stroke-linejoin:miter;stroke-miterlimit:10;stroke-dasharray:none;stroke-opacity:1"
       d="m 2561.7563,4993.8901 0,-73.7102" /><path
       inkscape:connector-curvature="0"
       id="path144"
       style="fill:none;stroke:#000000;stroke-width:3.07125616;stroke-linecap:butt;stroke-linejoin:miter;stroke-miterlimit:10;stroke-dasharray:none;stroke-opacity:1"
       d="m 2930.307,4993.8901 0,-73.7102" /><path
       inkscape:connector-curvature="0"
       id="path146"
       style="fill:none;stroke:#000000;stroke-width:3.07125616;stroke-linecap:butt;stroke-linejoin:miter;stroke-miterlimit:10;stroke-dasharray:none;stroke-opacity:1"
       d="m 3298.8578,4993.8901 0,-73.7102" /><path
       inkscape:connector-curvature="0"
       id="path148"
       style="fill:none;stroke:#000000;stroke-width:3.07125616;stroke-linecap:butt;stroke-linejoin:miter;stroke-miterlimit:10;stroke-dasharray:none;stroke-opacity:1"
       d="m 3667.4085,4993.8901 0,-73.7102" /><path
       inkscape:connector-curvature="0"
       id="path150"
       style="fill:none;stroke:#000000;stroke-width:3.07125616;stroke-linecap:butt;stroke-linejoin:miter;stroke-miterlimit:10;stroke-dasharray:none;stroke-opacity:1"
       d="m 4035.9593,4993.8901 0,-73.7102" /><path
       inkscape:connector-curvature="0"
       id="path152"
       style="fill:none;stroke:#000000;stroke-width:3.07125616;stroke-linecap:butt;stroke-linejoin:miter;stroke-miterlimit:10;stroke-dasharray:none;stroke-opacity:1"
       d="m 4404.51,4993.8901 0,-73.7102" /><path
       inkscape:connector-curvature="0"
       id="path154"
       style="fill:none;stroke:#000000;stroke-width:3.07125616;stroke-linecap:butt;stroke-linejoin:miter;stroke-miterlimit:10;stroke-dasharray:none;stroke-opacity:1"
       d="m 4773.0608,4993.8901 0,-73.7102" /><path
       inkscape:connector-curvature="0"
       id="path156"
       style="fill:none;stroke:#000000;stroke-width:3.07125616;stroke-linecap:butt;stroke-linejoin:miter;stroke-miterlimit:10;stroke-dasharray:none;stroke-opacity:1"
       d="m 5141.6115,4993.8901 0,-73.7102" /><path
       inkscape:connector-curvature="0"
       id="path158"
       style="fill:none;stroke:#000000;stroke-width:3.07125616;stroke-linecap:butt;stroke-linejoin:miter;stroke-miterlimit:10;stroke-dasharray:none;stroke-opacity:1"
       d="m 5510.1623,4993.8901 0,-73.7102" /><path
       inkscape:connector-curvature="0"
       id="path160"
       style="fill:none;stroke:#000000;stroke-width:3.07125616;stroke-linecap:butt;stroke-linejoin:miter;stroke-miterlimit:10;stroke-dasharray:none;stroke-opacity:1"
       d="m 5878.713,4993.8901 0,-73.7102" /><path
       inkscape:connector-curvature="0"
       id="path162"
       style="fill:none;stroke:#000000;stroke-width:3.07125616;stroke-linecap:butt;stroke-linejoin:miter;stroke-miterlimit:10;stroke-dasharray:none;stroke-opacity:1"
       d="m 719.00254,5104.4553 0,-73.7101" /><path
       inkscape:connector-curvature="0"
       id="path164"
       style="fill:none;stroke:#000000;stroke-width:3.07125616;stroke-linecap:butt;stroke-linejoin:miter;stroke-miterlimit:10;stroke-dasharray:none;stroke-opacity:1"
       d="m 719.00254,4993.8901 0,-73.7102" /><path
       inkscape:connector-curvature="0"
       id="path166"
       style="fill:none;stroke:#000000;stroke-width:3.07125616;stroke-linecap:butt;stroke-linejoin:miter;stroke-miterlimit:10;stroke-dasharray:none;stroke-opacity:1"
       d="m 1087.5533,5104.4553 0,-73.7101" /><path
       inkscape:connector-curvature="0"
       id="path168"
       style="fill:none;stroke:#000000;stroke-width:3.07125616;stroke-linecap:butt;stroke-linejoin:miter;stroke-miterlimit:10;stroke-dasharray:none;stroke-opacity:1"
       d="m 1087.5533,4993.8901 0,-73.7102" /><path
       inkscape:connector-curvature="0"
       id="path170"
       style="fill:none;stroke:#000000;stroke-width:3.07125616;stroke-linecap:butt;stroke-linejoin:miter;stroke-miterlimit:10;stroke-dasharray:none;stroke-opacity:1"
       d="m 700.575,4735.9046 18.42754,0 0,-110.5653 36.85507,0 0,110.5653 18.42754,0" /><path
       inkscape:connector-curvature="0"
       id="path172"
       style="fill:none;stroke:#000000;stroke-width:3.07125616;stroke-linecap:butt;stroke-linejoin:miter;stroke-miterlimit:10;stroke-dasharray:none;stroke-opacity:1"
       d="m 774.28515,4680.6285 18.42754,0 0,110.5652 -18.42754,0 0,-110.5652 z" /><path
       inkscape:connector-curvature="0"
       id="path174"
       style="fill:none;stroke:#000000;stroke-width:3.07125616;stroke-linecap:butt;stroke-linejoin:miter;stroke-miterlimit:10;stroke-dasharray:none;stroke-opacity:1"
       d="m 792.71269,4735.9046 18.42753,0 0,92.1442 18.42754,-18.4341 18.42754,36.8551 18.42754,-36.8551 18.42753,36.8551 18.42754,-55.2761 18.42754,55.2761 18.42754,-18.421 18.42753,55.2761 18.42754,-55.2761 18.42754,18.421 18.4275,36.8551 18.4276,-92.1312 18.4275,55.2761 18.4275,-55.2761 0,-55.2891" /><path
       inkscape:connector-curvature="0"
       id="path176"
       style="fill:none;stroke:#000000;stroke-width:3.07125616;stroke-linecap:butt;stroke-linejoin:miter;stroke-miterlimit:10;stroke-dasharray:none;stroke-opacity:1"
       d="m 1069.1257,4735.9046 18.4276,0 0,-110.5653 36.8551,0 0,110.5653 18.421,0" /><path
       inkscape:connector-curvature="0"
       id="path178"
       style="fill:none;stroke:#000000;stroke-width:3.07125616;stroke-linecap:butt;stroke-linejoin:miter;stroke-miterlimit:10;stroke-dasharray:none;stroke-opacity:1"
       d="m 1142.8294,4680.6285 18.4275,0 0,110.5652 -18.4275,0 0,-110.5652 z" /><path
       inkscape:connector-curvature="0"
       id="path180"
       style="fill:none;stroke:#000000;stroke-width:3.07125616;stroke-linecap:butt;stroke-linejoin:miter;stroke-miterlimit:10;stroke-dasharray:none;stroke-opacity:1"
       d="m 1456.104,4735.9046 0,-110.5653 18.4211,0 0,110.5653 165.8543,0 0,-110.5653 18.421,0 0,110.5653 165.8544,0 0,-110.5653 18.421,0 0,110.5653 165.8544,0 0,-110.5653 18.421,0 0,110.5653 165.8543,0 0,-110.5653 18.4211,0 0,110.5653 165.8543,0 0,-110.5653 18.421,0 0,110.5653 165.8544,0 0,-110.5653 147.4203,0 0,110.5653 36.8551,0 0,-110.5653 147.4203,0 0,110.5653 36.855,0 0,-110.5653 147.4203,0 0,110.5653 36.8551,0 0,-110.5653 147.4203,0 0,110.5653 36.8551,0 0,-110.5653 147.4203,0 0,110.5653 36.855,0 0,-110.5653 147.4203,0 0,110.5653 36.8551,0 0,-110.5653 18.4211,0 0,110.5653 165.8543,0 0,-110.5653 18.421,0 0,110.5653 165.8544,0 0,-110.5653 18.421,0 0,110.5653 165.8543,0 0,-110.5653 18.4211,0 0,110.5653 165.8543,0 0,-110.5653 18.4211,0 0,110.5653 165.8543,0 0,-110.5653 18.421,0 0,110.5653 165.8544,0 0,-110.5653 36.855,0 0,110.5653 18.4211,0" /><path
       inkscape:connector-curvature="0"
       id="path182"
       style="fill:none;stroke:#000000;stroke-width:3.07125616;stroke-linecap:butt;stroke-linejoin:miter;stroke-miterlimit:10;stroke-dasharray:none;stroke-opacity:1"
       d="m 1161.2634,4735.9046 294.8406,0" /><path
       inkscape:connector-curvature="0"
       id="path184"
       style="fill:none;stroke:#000000;stroke-width:3.07125616;stroke-linecap:butt;stroke-linejoin:miter;stroke-miterlimit:10;stroke-dasharray:none;stroke-opacity:1"
       d="m 6320.9739,4735.9046 18.421,0 0,92.1442 18.4341,-18.4341 18.421,73.7102 18.4341,-55.2761 18.421,36.855 18.434,-18.434 18.4211,36.8551 18.434,-36.8551 18.421,36.8551 18.4341,-36.8551 18.421,18.434 18.4341,-36.855 18.421,36.855 18.434,-36.855 18.4211,-18.4341 0,-73.7101 18.434,0" /><path
       inkscape:connector-curvature="0"
       id="path186"
       style="fill:none;stroke:#000000;stroke-width:3.07125616;stroke-linecap:butt;stroke-linejoin:miter;stroke-miterlimit:10;stroke-dasharray:none;stroke-opacity:1"
       d="m 4828.3369,4680.6285 18.4275,0 0,110.5652 -18.4275,0 0,-110.5652 z" /><path
       inkscape:connector-curvature="0"
       id="path188"
       style="fill:none;stroke:#000000;stroke-width:3.07125616;stroke-linecap:butt;stroke-linejoin:miter;stroke-miterlimit:10;stroke-dasharray:none;stroke-opacity:1"
       d="m 4846.7709,4735.9046 294.8406,0 0,-110.5653 36.8551,0 0,110.5653 18.421,0" /><path
       inkscape:connector-curvature="0"
       id="path190"
       style="fill:none;stroke:#000000;stroke-width:3.07125616;stroke-linecap:butt;stroke-linejoin:miter;stroke-miterlimit:10;stroke-dasharray:none;stroke-opacity:1"
       d="m 5196.8876,4680.6285 18.4276,0 0,110.5652 -18.4276,0 0,-110.5652 z" /><path
       inkscape:connector-curvature="0"
       id="path192"
       style="fill:none;stroke:#000000;stroke-width:3.07125616;stroke-linecap:butt;stroke-linejoin:miter;stroke-miterlimit:10;stroke-dasharray:none;stroke-opacity:1"
       d="m 5565.4384,4680.6285 18.4275,0 0,110.5652 -18.4275,0 0,-110.5652 z" /><path
       inkscape:connector-curvature="0"
       id="path194"
       style="fill:none;stroke:#000000;stroke-width:3.07125616;stroke-linecap:butt;stroke-linejoin:miter;stroke-miterlimit:10;stroke-dasharray:none;stroke-opacity:1"
       d="m 5933.9891,4680.6285 18.4276,0 0,110.5652 -18.4276,0 0,-110.5652 z" /><path
       inkscape:connector-curvature="0"
       id="path196"
       style="fill:none;stroke:#000000;stroke-width:3.07125616;stroke-linecap:butt;stroke-linejoin:miter;stroke-miterlimit:10;stroke-dasharray:none;stroke-opacity:1"
       d="m 5952.4232,4735.9046 294.8406,0 0,-110.5653 36.855,0 0,110.5653 18.4211,0" /><path
       inkscape:connector-curvature="0"
       id="path198"
       style="fill:none;stroke:#000000;stroke-width:3.07125616;stroke-linecap:butt;stroke-linejoin:miter;stroke-miterlimit:10;stroke-dasharray:none;stroke-opacity:1"
       d="m 6302.5399,4680.6285 18.4275,0 0,110.5652 -18.4275,0 0,-110.5652 z" /><path
       inkscape:connector-curvature="0"
       id="path200"
       style="fill:none;stroke:#000000;stroke-width:3.07125616;stroke-linecap:butt;stroke-linejoin:miter;stroke-miterlimit:10;stroke-dasharray:none;stroke-opacity:1"
       d="m 5786.5688,4735.9046 92.1442,0 0,-110.5653 36.8551,0 0,110.5653 18.421,0" /><path
       inkscape:connector-curvature="0"
       id="path202"
       style="fill:none;stroke:#000000;stroke-width:3.07125616;stroke-linecap:butt;stroke-linejoin:miter;stroke-miterlimit:10;stroke-dasharray:none;stroke-opacity:1"
       d="m 5805.0029,4791.1937 -36.8551,-110.5652" /><path
       inkscape:connector-curvature="0"
       id="path204"
       style="fill:none;stroke:#000000;stroke-width:3.07125616;stroke-linecap:butt;stroke-linejoin:miter;stroke-miterlimit:10;stroke-dasharray:none;stroke-opacity:1"
       d="m 5583.8724,4735.9046 165.8414,0" /><path
       inkscape:connector-curvature="0"
       id="path206"
       style="fill:none;stroke:#000000;stroke-width:3.07125616;stroke-linecap:butt;stroke-linejoin:miter;stroke-miterlimit:10;stroke-dasharray:none;stroke-opacity:1"
       d="m 5768.1478,4791.1937 -36.8551,-110.5652" /><path
       inkscape:connector-curvature="0"
       id="path208"
       style="fill:none;stroke:#000000;stroke-width:3.07125616;stroke-linecap:butt;stroke-linejoin:miter;stroke-miterlimit:10;stroke-dasharray:none;stroke-opacity:1"
       d="m 5215.3217,4735.9046 294.8406,0 0,-110.5653 36.855,0 0,110.5653 18.4211,0" /><path
       inkscape:connector-curvature="0"
       id="path210"
       style="fill:none;stroke:#000000;stroke-width:3.07125616;stroke-linecap:butt;stroke-linejoin:miter;stroke-miterlimit:10;stroke-dasharray:none;stroke-opacity:1"
       d="m 6247.2638,5104.4553 0,-73.7101" /><path
       inkscape:connector-curvature="0"
       id="path212"
       style="fill:none;stroke:#000000;stroke-width:3.07125616;stroke-linecap:butt;stroke-linejoin:miter;stroke-miterlimit:10;stroke-dasharray:none;stroke-opacity:1"
       d="m 6247.2638,4993.8901 0,-73.7102" /><path
       inkscape:connector-curvature="0"
       id="path214"
       style="fill:none;stroke:#000000;stroke-width:3.07125616;stroke-linecap:butt;stroke-linejoin:miter;stroke-miterlimit:10;stroke-dasharray:none;stroke-opacity:1"
       d="m 6615.8145,5104.4553 0,-73.7101" /><path
       inkscape:connector-curvature="0"
       id="path216"
       style="fill:none;stroke:#000000;stroke-width:3.07125616;stroke-linecap:butt;stroke-linejoin:miter;stroke-miterlimit:10;stroke-dasharray:none;stroke-opacity:1"
       d="m 6615.8145,4993.8901 0,-73.7102" /><path
       inkscape:connector-curvature="0"
       id="path218"
       style="fill:none;stroke:#000000;stroke-width:3.07125616;stroke-linecap:butt;stroke-linejoin:miter;stroke-miterlimit:10;stroke-dasharray:none;stroke-opacity:1"
       d="m 700.575,3925.0929 18.42754,0 0,-110.5652 36.85507,0 0,110.5652 18.42754,0" /><path
       inkscape:connector-curvature="0"
       id="path220"
       style="fill:none;stroke:#000000;stroke-width:3.07125616;stroke-linecap:butt;stroke-linejoin:miter;stroke-miterlimit:10;stroke-dasharray:none;stroke-opacity:1"
       d="m 774.28515,3869.8168 18.42754,0 0,110.5652 -18.42754,0 0,-110.5652 z" /><path
       inkscape:connector-curvature="0"
       id="path222"
       style="fill:none;stroke:#000000;stroke-width:3.07125616;stroke-linecap:butt;stroke-linejoin:miter;stroke-miterlimit:10;stroke-dasharray:none;stroke-opacity:1"
       d="m 1142.8294,3869.8168 18.4275,0 0,110.5652 -18.4275,0 0,-110.5652 z" /><path
       inkscape:connector-curvature="0"
       id="path224"
       style="fill:none;stroke:#000000;stroke-width:3.07125616;stroke-linecap:butt;stroke-linejoin:miter;stroke-miterlimit:10;stroke-dasharray:none;stroke-opacity:1"
       d="m 792.71269,3925.0929 18.42753,0 0,110.5652 18.42754,-36.855 18.42754,18.434 18.42754,-36.8551 18.42753,36.8551 0,-92.1442 202.70293,0 0,-110.5652 36.8551,0 0,110.5652 18.421,0" /><path
       inkscape:connector-curvature="0"
       id="path226"
       style="fill:none;stroke:#000000;stroke-width:3.07125616;stroke-linecap:butt;stroke-linejoin:miter;stroke-miterlimit:10;stroke-dasharray:none;stroke-opacity:1"
       d="m 1161.2634,3925.0929 110.5653,0 0,-110.5652 18.421,0 0,110.5652 165.8543,0 0,-110.5652 18.4211,0 0,110.5652 165.8543,0 0,-110.5652 18.421,0 0,110.5652 165.8544,0 0,-110.5652 18.421,0 0,110.5652 165.8544,0 0,-110.5652 18.421,0 0,110.5652 165.8543,0 0,-110.5652 18.4211,0 0,110.5652 165.8543,0 0,-110.5652 147.4203,0 0,110.5652 36.8551,0 0,-110.5652 147.4203,0 0,110.5652 36.8551,0 0,-110.5652 147.4203,0 0,110.5652 36.855,0 0,-110.5652 147.4203,0 0,110.5652 36.8551,0 0,-110.5652 147.4203,0 0,110.5652 36.8551,0 0,-110.5652 147.4203,0 0,110.5652 36.855,0 0,-110.5652 18.4211,0 0,110.5652 165.8543,0 0,-110.5652 18.4211,0 0,110.5652 165.8543,0 0,-110.5652 18.421,0 0,110.5652 165.8544,0 0,-110.5652 18.421,0 0,110.5652 165.8543,0" /><path
       inkscape:connector-curvature="0"
       id="path228"
       style="fill:none;stroke:#000000;stroke-width:3.07125616;stroke-linecap:butt;stroke-linejoin:miter;stroke-miterlimit:10;stroke-dasharray:none;stroke-opacity:1"
       d="m 4220.2346,3925.0929 0,-110.5652 18.4211,0 0,110.5652 165.8543,0 0,-110.5652 18.4211,0 0,110.5652 55.2891,0" /><path
       inkscape:connector-curvature="0"
       id="path230"
       style="fill:none;stroke:#000000;stroke-width:3.07125616;stroke-linecap:butt;stroke-linejoin:miter;stroke-miterlimit:10;stroke-dasharray:none;stroke-opacity:1"
       d="m 4478.2202,3925.0929 294.8406,0 0,-110.5652 36.855,0 0,110.5652 18.4211,0" /><path
       inkscape:connector-curvature="0"
       id="path232"
       style="fill:none;stroke:#000000;stroke-width:3.07125616;stroke-linecap:butt;stroke-linejoin:miter;stroke-miterlimit:10;stroke-dasharray:none;stroke-opacity:1"
       d="m 5952.4232,3925.0929 128.9862,0 0,73.7102 18.4341,36.855 18.421,-18.421 18.434,36.8551 18.4211,-36.8551 18.434,18.421 18.421,-36.855 18.4341,18.434 18.421,-36.8551 0,-55.2891 18.4341,0 0,-110.5652 36.855,0 0,110.5652 18.4211,0" /><path
       inkscape:connector-curvature="0"
       id="path234"
       style="fill:none;stroke:#000000;stroke-width:3.07125616;stroke-linecap:butt;stroke-linejoin:miter;stroke-miterlimit:10;stroke-dasharray:none;stroke-opacity:1"
       d="m 6302.5399,3869.8168 18.4275,0 0,110.5652 -18.4275,0 0,-110.5652 z" /><path
       inkscape:connector-curvature="0"
       id="path236"
       style="fill:none;stroke:#000000;stroke-width:3.07125616;stroke-linecap:butt;stroke-linejoin:miter;stroke-miterlimit:10;stroke-dasharray:none;stroke-opacity:1"
       d="m 6320.9739,3925.0929 18.421,0 0,73.7102 18.4341,36.855 18.421,-36.855 18.4341,36.855 18.421,-18.421 18.434,0 18.4211,-36.8551 18.434,55.2761 18.421,-18.421 0,36.8551 18.4341,-18.4341 18.421,18.4341 18.4341,-36.8551 18.421,18.421 18.434,-55.2761 18.4211,18.4211 0,-73.7102 18.434,0" /><path
       inkscape:connector-curvature="0"
       id="path238"
       style="fill:none;stroke:#000000;stroke-width:3.07125616;stroke-linecap:butt;stroke-linejoin:miter;stroke-miterlimit:10;stroke-dasharray:none;stroke-opacity:1"
       d="m 5933.9891,3869.8168 18.4276,0 0,110.5652 -18.4276,0 0,-110.5652 z" /><path
       inkscape:connector-curvature="0"
       id="path240"
       style="fill:none;stroke:#000000;stroke-width:3.07125616;stroke-linecap:butt;stroke-linejoin:miter;stroke-miterlimit:10;stroke-dasharray:none;stroke-opacity:1"
       d="m 5786.5688,3925.0929 92.1442,0 0,-110.5652 36.8551,0 0,110.5652 18.421,0" /><path
       inkscape:connector-curvature="0"
       id="path242"
       style="fill:none;stroke:#000000;stroke-width:3.07125616;stroke-linecap:butt;stroke-linejoin:miter;stroke-miterlimit:10;stroke-dasharray:none;stroke-opacity:1"
       d="m 5805.0029,3980.382 -36.8551,-110.5652" /><path
       inkscape:connector-curvature="0"
       id="path244"
       style="fill:none;stroke:#000000;stroke-width:3.07125616;stroke-linecap:butt;stroke-linejoin:miter;stroke-miterlimit:10;stroke-dasharray:none;stroke-opacity:1"
       d="m 5768.1478,3980.382 -36.8551,-110.5652" /><path
       inkscape:connector-curvature="0"
       id="path246"
       style="fill:none;stroke:#000000;stroke-width:3.07125616;stroke-linecap:butt;stroke-linejoin:miter;stroke-miterlimit:10;stroke-dasharray:none;stroke-opacity:1"
       d="m 4828.3369,3869.8168 18.4275,0 0,110.5652 -18.4275,0 0,-110.5652 z" /><path
       inkscape:connector-curvature="0"
       id="path248"
       style="fill:none;stroke:#000000;stroke-width:3.07125616;stroke-linecap:butt;stroke-linejoin:miter;stroke-miterlimit:10;stroke-dasharray:none;stroke-opacity:1"
       d="m 5583.8724,3925.0929 165.8414,0" /><path
       inkscape:connector-curvature="0"
       id="path250"
       style="fill:none;stroke:#000000;stroke-width:3.07125616;stroke-linecap:butt;stroke-linejoin:miter;stroke-miterlimit:10;stroke-dasharray:none;stroke-opacity:1"
       d="m 4846.7709,3925.0929 294.8406,0 0,-110.5652 36.8551,0 0,110.5652 18.421,0" /><path
       inkscape:connector-curvature="0"
       id="path252"
       style="fill:none;stroke:#000000;stroke-width:3.07125616;stroke-linecap:butt;stroke-linejoin:miter;stroke-miterlimit:10;stroke-dasharray:none;stroke-opacity:1"
       d="m 5196.8876,3869.8168 18.4276,0 0,110.5652 -18.4276,0 0,-110.5652 z" /><path
       inkscape:connector-curvature="0"
       id="path254"
       style="fill:none;stroke:#000000;stroke-width:3.07125616;stroke-linecap:butt;stroke-linejoin:miter;stroke-miterlimit:10;stroke-dasharray:none;stroke-opacity:1"
       d="m 5215.3217,3925.0929 294.8406,0 0,-110.5652 36.855,0 0,110.5652 18.4211,0" /><path
       inkscape:connector-curvature="0"
       id="path256"
       style="fill:none;stroke:#000000;stroke-width:3.07125616;stroke-linecap:butt;stroke-linejoin:miter;stroke-miterlimit:10;stroke-dasharray:none;stroke-opacity:1"
       d="m 5565.4384,3869.8168 18.4275,0 0,110.5652 -18.4275,0 0,-110.5652 z" /><path
       inkscape:connector-curvature="0"
       id="path258"
       style="fill:none;stroke:#000000;stroke-width:3.07125616;stroke-linecap:butt;stroke-linejoin:miter;stroke-miterlimit:10;stroke-dasharray:none;stroke-opacity:1"
       d="m 6247.2638,4293.6437 0,-73.7102" /><path
       inkscape:connector-curvature="0"
       id="path260"
       style="fill:none;stroke:#000000;stroke-width:3.07125616;stroke-linecap:butt;stroke-linejoin:miter;stroke-miterlimit:10;stroke-dasharray:none;stroke-opacity:1"
       d="m 6247.2638,4183.0784 0,-73.7101" /><path
       inkscape:connector-curvature="0"
       id="path262"
       style="fill:none;stroke:#000000;stroke-width:3.07125616;stroke-linecap:butt;stroke-linejoin:miter;stroke-miterlimit:10;stroke-dasharray:none;stroke-opacity:1"
       d="m 6615.8145,4293.6437 0,-73.7102" /><path
       inkscape:connector-curvature="0"
       id="path264"
       style="fill:none;stroke:#000000;stroke-width:3.07125616;stroke-linecap:butt;stroke-linejoin:miter;stroke-miterlimit:10;stroke-dasharray:none;stroke-opacity:1"
       d="m 6615.8145,4183.0784 0,-73.7101" /><text
       transform="scale(1,-1)"
       style="font-variant:normal;font-weight:normal;font-size:61.42512512px;font-family:Helvetica;-inkscape-font-specification:Helvetica;writing-mode:lr-tb;fill:#000000;fill-opacity:1;fill-rule:nonzero;stroke:none"
       id="text268"
       x="1621.9453"
       y="-4035.6582"><tspan
         x="1621.9453 1642.3999 1676.5522"
         y="-4035.6582"
         sodipodi:role="line"
         id="tspan270">(1)</tspan></text>
<text
       transform="scale(1,-1)"
       style="font-variant:normal;font-weight:normal;font-size:73.71015167px;font-family:Helvetica;-inkscape-font-specification:Helvetica;writing-mode:lr-tb;fill:#000000;fill-opacity:1;fill-rule:nonzero;stroke:none"
       id="text272"
       x="4199.7334"
       y="-4127.7959"><tspan
         x="4199.7334 3831.1829 2725.5305 3112.509 3462.6321 4568.2842 4916.3442 4957.3271 5653.4458 5694.4287 5284.895 5325.8779 2356.9773 1988.4264 1210.3424 1251.3252 1292.3081 1619.8759 841.79163 882.77454 923.75732"
         y="-4127.7959"
         sodipodi:role="line"
         id="tspan274">874569101211322631262</tspan><tspan
         x="4158.748 4199.7314 4240.7144 3790.1975 3831.1807 3872.1633 2684.5457 2725.5283 2766.5112 3071.5237 3112.5063 3153.4895 3421.647 3462.6299 3503.6125 4527.2988 4568.2822 4609.2646 4895.8496 4936.833 4977.8154 5632.9517 5673.9341 5714.917 5264.4009 5305.3833 5346.3662 2315.9946 2356.9775 2397.9604 1947.444 1988.4269 2029.4097 1210.3424 1251.3252 1292.3081 1578.8931 1619.876 1660.8589 841.79163 882.77454 923.75732"
         y="-4238.3613"
         sodipodi:role="line"
         id="tspan276">271270267268269272273275274266265263264262</tspan><tspan
         x="2725.5347 4568.2881 1988.4331 2356.9839 1619.8822 3094.0852 3462.636 4916.3506 4957.334 5284.9019 5325.8843 5653.4526 5694.4351 3812.7656 4181.3164"
         y="-5049.1729"
         sodipodi:role="line"
         id="tspan278">492315610111278</tspan><tspan
         x="2725.5474 4568.3013 1988.446 2356.9966 1619.8953 3094.0981 3462.6489 4916.3638 4957.3472 5284.9146 5325.8975 5653.4653 5694.4482 3812.7788 4181.3296"
         y="-4938.6074"
         sodipodi:role="line"
         id="tspan280">492315610111278</tspan><tspan
         x="841.81781 882.8006 923.78326"
         y="-5049.1729"
         sodipodi:role="line"
         id="tspan282">524</tspan><tspan
         x="841.81781 882.8006 923.78326"
         y="-4938.6074"
         sodipodi:role="line"
         id="tspan284">261</tspan><tspan
         x="1210.3684 1251.3512 1292.3342"
         y="-5049.1729"
         sodipodi:role="line"
         id="tspan286">525</tspan><tspan
         x="1210.3684 1251.3512 1292.3342"
         y="-4938.6074"
         sodipodi:role="line"
         id="tspan288">262</tspan><tspan
         x="6022.0161 6062.999"
         y="-5049.1729"
         sodipodi:role="line"
         id="tspan290">22</tspan><tspan
         x="6022.0161 6062.999"
         y="-4938.6074"
         sodipodi:role="line"
         id="tspan292">22</tspan><tspan
         x="6390.5669 6431.5498"
         y="-5049.1729"
         sodipodi:role="line"
         id="tspan294">23</tspan><tspan
         x="6390.5669 6431.5498"
         y="-4938.6074"
         sodipodi:role="line"
         id="tspan296">23</tspan><tspan
         x="6001.5244 6042.5068 6083.4902"
         y="-4238.3623"
         sodipodi:role="line"
         id="tspan298">285</tspan><tspan
         x="6022.0156 6062.9985"
         y="-4127.7964"
         sodipodi:role="line"
         id="tspan300">22</tspan><tspan
         x="6370.0747 6411.0571 6452.04"
         y="-4238.3623"
         sodipodi:role="line"
         id="tspan302">286</tspan><tspan
         x="6390.5664 6431.5493"
         y="-4127.7964"
         sodipodi:role="line"
         id="tspan304">23</tspan><tspan
         x="3540.4146 3581.3972 3618.2522 3638.7437 3659.2354 3679.7266 3696.0901 3737.073 3753.4365"
         y="-4459.4922"
         sodipodi:role="line"
         id="tspan306">1st field</tspan><tspan
         x="3528.1047 3569.0876 3610.0703 3651.0532 3671.5447 3692.0361 3708.3999 3749.3826 3765.7463"
         y="-3648.6809"
         sodipodi:role="line"
         id="tspan308">2nd field</tspan></text>
</g></svg>