/* XPM */
static char * load_xpm[] = {
"22 22 5 1",
". c None",
"# c #000000",
"c c #838100",
"a c #ffff00",
"b c #ffffff",
"......................",
"......................",
"......................",
"............####....#.",
"...........#....##.##.",
"..................###.",
".................####.",
".####...........#####.",
"#abab##########.......",
"#babababababab#.......",
"#ababababababa#.......",
"#babababababab#.......",
"#ababab###############",
"#babab##cccccccccccc##",
"#abab##cccccccccccc##.",
"#bab##cccccccccccc##..",
"#ab##cccccccccccc##...",
"#b##cccccccccccc##....",
"###cccccccccccc##.....",
"##cccccccccccc##......",
"###############.......",
"......................"
};
