/* XPM */
static char * menu_xpm[] = {
"12 12 2 1",
"  c white",
". c black",
"            ",
" .......... ",
" .        . ",
" . ..     . ",
" . ....   . ",
" . ...... . ",
" . ...... . ",
" . ....   . ",
" . ..     . ",
" .        . ",
" .......... ",
"            "
};
