/* XPM */
static char * menuback_xpm[] = {
"12 12 2 1",
"  c white",
". c black",
"            ",
" .......... ",
" .        . ",
" .     .. . ",
" .   .... . ",
" . ...... . ",
" . ...... . ",
" .   .... . ",
" .     .. . ",
" .        . ",
" .......... ",
"            "
};
