/* XPM */
static char * symbol_mod_xpm[] = {
"12 12 2 1",
"  c white",
". c black",
"            ",
" .......... ",
" .        . ",
" .        . ",
" .   ..   . ",
" .  ....  . ",
" .  ....  . ",
" .   ..   . ",
" .        . ",
" .        . ",
" .......... ",
"            "
};
