<?xml version="1.0" encoding="UTF-8" standalone="no"?>
<svg stroke-linejoin="round" xmlns:rdf="http://www.w3.org/1999/02/22-rdf-syntax-ns#" xmlns="http://www.w3.org/2000/svg" clip-path="url(#a)" xml:space="preserve" fill-rule="evenodd" height="178.78mm" viewBox="0 0 24285.662 17877.829" width="251.99mm" version="1.2" xmlns:cc="http://creativecommons.org/ns#" xmlns:dc="http://purl.org/dc/elements/1.1/" preserveAspectRatio="xMidYMid" stroke-width="28.222"><defs><clipPath id="a" clipPathUnits="userSpaceOnUse"><rect y="0" x="0" width="28000" height="21000"/></clipPath></defs><g transform="matrix(1.004 0 0 1 -2185.6 -2186)" class="com.sun.star.drawing.CustomShape"><path fill="#fcf" d="m12231 4800c-516 0-1031 515-1031 1031v4124c0 516 515 1032 1031 1032h8538c516 0 1032-516 1032-1032v-4124c0-516-516-1031-1032-1031h-8538z"/></g><g transform="translate(-2140.9 -2186)" class="com.sun.star.drawing.CustomShape"><path fill="#ffc" d="m3595 15607c-293 0-585 292-585 585v2340c0 293 292 586 585 586h3275c293 0 586-293 586-586v-2340c0-293-293-585-586-585h-3275z"/></g><g transform="translate(-2197.3 -2186)" class="com.sun.star.drawing.CustomShape"><path fill="#e6e6e6" d="m2663 2186c-461 0-922 461-922 922v11169c0 461 461 923 922 923h3692c461 0 922-462 922-923v-11169c0-461-461-922-922-922h-3692z"/></g><g transform="translate(-2140.9 -2186)" class="com.sun.star.drawing.RectangleShape"><path fill="#ff8080" d="m4461 8602h-2260v-1086h4520v1086h-2260z"/><path fill="none" d="m4461 8602h-2260v-1086h4520v1086h-2260z" stroke="#3465af"/><text class="TextShape"><tspan font-size="635px" font-family="&apos;Times New Roman&apos;, serif" font-weight="400" class="TextParagraph"><tspan y="8275" x="2579" class="TextPosition"><tspan fill="#000000">Audio decoder</tspan></tspan></tspan></text>
</g><g transform="translate(-2140.9 -2186)" class="com.sun.star.drawing.RectangleShape"><path fill="#ff8080" d="m4461 11772h-2260v-1270h4520v1270h-2260z"/><path fill="none" d="m4461 11772h-2260v-1270h4520v1270h-2260z" stroke="#3465af"/><text class="TextShape"><tspan font-size="635px" font-family="&apos;Times New Roman&apos;, serif" font-weight="400" class="TextParagraph"><tspan y="11353" x="2617" class="TextPosition"><tspan fill="#000000">Video decoder</tspan></tspan></tspan></text>
</g><g transform="translate(-2140.9 -2186)" class="com.sun.star.drawing.RectangleShape"><path fill="#ff8080" d="m4453 10217h-2269v-1224h4537v1224h-2268z"/><path fill="none" d="m4453 10217h-2269v-1224h4537v1224h-2268z" stroke="#3465af"/><text class="TextShape"><tspan font-size="635px" font-family="&apos;Times New Roman&apos;, serif" font-weight="400" class="TextParagraph"><tspan y="9821" x="2571" class="TextPosition"><tspan fill="#000000">Audio encoder</tspan></tspan></tspan></text>
</g><g transform="translate(-2140.9 -2468.2)" class="com.sun.star.drawing.RectangleShape"><path fill="#cfc" d="m15711 12832h-3810v-1281h7620v1281h-3810z"/><path fill="none" d="m15711 12832h-3810v-1281h7620v1281h-3810z" stroke="#3465af"/><text class="TextShape"><tspan font-size="635px" font-family="&apos;Times New Roman&apos;, serif" font-weight="400" class="TextParagraph"><tspan y="12407" x="12377" class="TextPosition"><tspan fill="#000000">Button Key/IR input logic</tspan></tspan></tspan></text>
</g><g transform="translate(-2140.9 -2411.8)" class="com.sun.star.drawing.RectangleShape"><path fill="#cfe7f5" d="m14169 14572h-2268v-1412h4536v1412h-2268z"/><path fill="none" d="m14169 14572h-2268v-1412h4536v1412h-2268z" stroke="#3465af"/><text class="TextShape"><tspan font-size="635px" font-family="&apos;Times New Roman&apos;, serif" font-weight="400" class="TextParagraph"><tspan y="14082" x="12882" class="TextPosition"><tspan fill="#000000">EEPROM</tspan></tspan></tspan></text>
</g><g transform="translate(-2140.9 -2186)" class="com.sun.star.drawing.RectangleShape"><path fill="#fc9" d="m5140 17662h-1563v-1715h3126v1715h-1563z"/><path fill="none" d="m5140 17662h-1563v-1715h3126v1715h-1563z" stroke="#3465af"/><text class="TextShape"><tspan font-size="635px" font-family="&apos;Times New Roman&apos;, serif" font-weight="400" class="TextParagraph"><tspan y="17020" x="4276" class="TextPosition"><tspan fill="#000000">Sensor</tspan></tspan></tspan></text>
</g><g transform="translate(-2140.9 -2186)" class="com.sun.star.drawing.CustomShape"><path fill="#729fcf" d="m6719 8030 385-353v176h1167v-176l386 353-386 354v-177h-1167v177l-385-354z"/><path fill="none" d="m6719 8030 385-353v176h1167v-176l386 353-386 354v-177h-1167v177l-385-354z" stroke="#3465af"/></g><g transform="translate(-2140.9 -2186)" class="com.sun.star.drawing.CustomShape"><path fill="#729fcf" d="m6719 9612 385-353v176h1167v-176l386 353-386 354v-177h-1167v177l-385-354z"/><path fill="none" d="m6719 9612 385-353v176h1167v-176l386 353-386 354v-177h-1167v177l-385-354z" stroke="#3465af"/></g><g transform="translate(-2140.9 -2186)" class="com.sun.star.drawing.CustomShape"><path fill="#729fcf" d="m6721 11100 385-353v176h1166v-176l386 353-386 354v-177h-1166v177l-385-354z"/><path fill="none" d="m6721 11100 385-353v176h1166v-176l386 353-386 354v-177h-1166v177l-385-354z" stroke="#3465af"/></g><g transform="translate(-2140.9 -2411.8)" class="com.sun.star.drawing.CustomShape"><path fill="#729fcf" d="m9962 13854 385-353v176h1166v-176l386 353-386 354v-177h-1166v177l-385-354z"/><path fill="none" d="m9962 13854 385-353v176h1166v-176l386 353-386 354v-177h-1166v177l-385-354z" stroke="#3465af"/></g><g transform="translate(-2140.9 -2468.2)" class="com.sun.star.drawing.CustomShape"><path fill="#729fcf" d="m9962 12163 385-353v176h1166v-176l386 353-386 354v-177h-1166v177l-385-354z"/><path fill="none" d="m9962 12163 385-353v176h1166v-176l386 353-386 354v-177h-1166v177l-385-354z" stroke="#3465af"/></g><g transform="translate(-2140.9 -2186)" class="com.sun.star.drawing.CustomShape"><path fill="#729fcf" d="m9962 17158 670-353v176h2028v-176l671 353-671 354v-177h-2028v177l-670-354z"/><path fill="none" d="m9962 17158 670-353v176h2028v-176l671 353-671 354v-177h-2028v177l-670-354z" stroke="#3465af"/></g><g transform="matrix(0 .83339 -1.0005 0 30268 -5276.3)" class="com.sun.star.drawing.CustomShape"><path fill="#729fcf" d="m23229 12779 1009-978 1009 978h-505v2959h505l-1009 979-1009-979h504v-2959h-504z"/><path fill="none" d="m23229 12779 1009-978 1009 978h-505v2959h505l-1009 979-1009-979h504v-2959h-504z" stroke="#3465af"/></g><g transform="translate(-9973.6 -666.6)" class="com.sun.star.drawing.TextShape"><text class="TextShape"><tspan font-size="706px" font-family="&apos;Times New Roman&apos;, serif" font-weight="400" class="TextParagraph"><tspan y="15832" x="24341" class="TextPosition" transform="matrix(0,-1,1,0,8509,40173)"><tspan fill="#000000">System Bus</tspan></tspan></tspan></text>
</g><g transform="translate(-2140.9 -2186)" class="com.sun.star.drawing.RectangleShape"><path fill="#cff" d="m13151 9262h-1250v-875h2499v875h-1249z"/><path fill="none" d="m13151 9262h-1250v-875h2499v875h-1249z" stroke="#3465af"/><text class="TextShape"><tspan font-size="635px" font-family="&apos;Times New Roman&apos;, serif" font-weight="400" class="TextParagraph"><tspan y="9040" x="12215" class="TextPosition"><tspan fill="#000000">Demux</tspan></tspan></tspan></text>
</g><g transform="translate(-2140.9 -2186)" class="com.sun.star.drawing.CustomShape"><path fill="#729fcf" d="m9996 8765 373-357v178h1130v-178l374 357-374 358v-179h-1130v179l-373-358z"/><path fill="none" d="m9996 8765 373-357v178h1130v-178l374 357-374 358v-179h-1130v179l-373-358z" stroke="#3465af"/></g><g transform="translate(-2140.9 -2186)" class="com.sun.star.drawing.CustomShape"><path fill="#729fcf" d="m9996 7378 373-358v179h1130v-179l374 358-374 358v-179h-1130v179l-373-358z"/><path fill="none" d="m9996 7378 373-358v179h1130v-179l374 358-374 358v-179h-1130v179l-373-358z" stroke="#3465af"/></g><g transform="translate(-2140.9 -2186)" class="com.sun.star.drawing.RectangleShape"><path fill="#cff" d="m16322 7992h-4421v-1270h8841v1270h-4420z"/><path fill="none" d="m16322 7992h-4421v-1270h8841v1270h-4420z" stroke="#3465af"/><text class="TextShape"><tspan font-size="635px" font-family="&apos;Times New Roman&apos;, serif" font-weight="400" class="TextParagraph"><tspan y="7573" x="12786" class="TextPosition"><tspan fill="#000000">Conditional Access Module</tspan></tspan></tspan></text>
</g><g transform="translate(-2140.9 -2186)" class="com.sun.star.drawing.RectangleShape"><path fill="#ff8080" d="m4445 13287h-2269v-1224h4537v1224h-2268z"/><path fill="none" d="m4445 13287h-2269v-1224h4537v1224h-2268z" stroke="#3465af"/><text class="TextShape"><tspan font-size="635px" font-family="&apos;Times New Roman&apos;, serif" font-weight="400" class="TextParagraph"><tspan y="12891" x="2601" class="TextPosition"><tspan fill="#000000">Video encoder</tspan></tspan></tspan></text>
</g><g transform="translate(-2140.9 -2186)" class="com.sun.star.drawing.CustomShape"><path fill="#729fcf" d="m6721 12634 385-353v176h1166v-176l386 353-386 354v-177h-1166v177l-385-354z"/><path fill="none" d="m6721 12634 385-353v176h1166v-176l386 353-386 354v-177h-1166v177l-385-354z" stroke="#3465af"/></g><g transform="translate(-2140.9 -2186)" class="com.sun.star.drawing.CustomShape"><path fill="#729fcf" d="m20791 7545 385-353v176h1166v-176l386 353-386 354v-177h-1166v177l-385-354z"/><path fill="none" d="m20791 7545 385-353v176h1166v-176l386 353-386 354v-177h-1166v177l-385-354z" stroke="#3465af"/></g><g transform="translate(-2028 -2186)" class="com.sun.star.drawing.TextShape"><text class="TextShape"><tspan font-size="635px" font-family="&apos;Times New Roman&apos;, serif" font-weight="400" class="TextParagraph"><tspan y="14478" x="1990" class="TextPosition"><tspan fill="#000000">Radio / Analog TV</tspan></tspan></tspan></text>
</g><g transform="translate(-2140.9 -2186)" class="com.sun.star.drawing.TextShape"><text class="TextShape"><tspan font-size="635px" font-family="&apos;Times New Roman&apos;, serif" font-weight="700" class="TextParagraph"><tspan y="10724" x="14956" class="TextPosition"><tspan fill="#000000">Digital TV</tspan></tspan></tspan></text>
</g><g transform="translate(-8970.5 -1395.8)" class="com.sun.star.drawing.TextShape"><text class="TextShape"><tspan font-size="494px" font-family="&apos;Times New Roman&apos;, serif" font-weight="400" class="TextParagraph"><tspan y="19167" x="14724" class="TextPosition"><tspan fill="#000000">PS.: picture is not complete: other blocks may be present</tspan></tspan></tspan></text>
</g><g transform="translate(-2140.9 -2186)" class="com.sun.star.drawing.TextShape"><text class="TextShape"><tspan font-size="635px" font-family="&apos;Times New Roman&apos;, serif" font-weight="400" class="TextParagraph"><tspan y="18561" x="4199" class="TextPosition"><tspan fill="#000000">Webcam</tspan></tspan></tspan></text>
</g><g transform="translate(-2140.9 -2468.2)" class="com.sun.star.drawing.RectangleShape"><path fill="#f90" d="m14552 16372h-2650v-1412h5299v1412h-2649z"/><path fill="none" d="m14552 16372h-2650v-1412h5299v1412h-2649z" stroke="#3465af"/><text class="TextShape"><tspan font-size="635px" font-family="&apos;Times New Roman&apos;, serif" font-weight="400" class="TextParagraph"><tspan y="15882" x="12265" class="TextPosition"><tspan fill="#000000">Processing blocks</tspan></tspan></tspan></text>
</g><g transform="translate(-2140.9 -2468.2)" class="com.sun.star.drawing.CustomShape"><path fill="#729fcf" d="m9962 15654 385-353v176h1166v-176l386 353-386 354v-177h-1166v177l-385-354z"/><path fill="none" d="m9962 15654 385-353v176h1166v-176l386 353-386 354v-177h-1166v177l-385-354z" stroke="#3465af"/></g><g transform="translate(-2140.9 -2186)" class="com.sun.star.drawing.CustomShape"><path fill="#729fcf" d="m6702 16954 397-353v176h1201v-176l398 353-398 354v-177h-1201v177l-397-354z"/><path fill="none" d="m6702 16954 397-353v176h1201v-176l398 353-398 354v-177h-1201v177l-397-354z" stroke="#3465af"/></g><g transform="translate(-2479.5 -2186)" class="com.sun.star.drawing.TextShape"><text class="TextShape"><tspan font-size="635px" font-family="&apos;Times New Roman&apos;, serif" font-weight="400" class="TextParagraph"><tspan y="8792" x="22850" class="TextPosition"><tspan fill="#000000">Smartcard</tspan></tspan></tspan></text>
</g><g transform="matrix(1.0048 0 0 1 -2207.4 -2186)" class="com.sun.star.drawing.CustomShape"><path fill="#fcf" d="m2766 2600c-333 0-666 333-666 666v2668c0 333 333 666 666 666h18368c333 0 667-333 667-666v-2668c0-333-334-666-667-666h-18368z"/></g><g transform="translate(-2140.9 -2186)" class="com.sun.star.drawing.RectangleShape"><path fill="#ff8080" d="m5121 5155h-1614v-1816h3227v1816h-1613z"/><path fill="none" d="m5121 5155h-1614v-1816h3227v1816h-1613z" stroke="#3465af"/><text font-size="635px" font-family="&apos;Times New Roman&apos;, serif" font-weight="400" class="TextShape"><tspan class="TextParagraph"><tspan y="4111" x="4374" class="TextPosition"><tspan fill="#000000">Tuner</tspan></tspan></tspan><tspan class="TextParagraph"><tspan y="4814" x="4151" class="TextPosition"><tspan fill="#000000">FM/TV</tspan></tspan></tspan></text>
</g><g transform="translate(-2140.9 -2186)" class="com.sun.star.drawing.CustomShape"><path fill="#ff8080" d="m2902 3702c0 111 40 202 88 202h530c48 0 89-91 89-202 0-110-41-202-89-202h-530c-48 0-88 92-88 202z"/><path fill="none" d="m2902 3702c0 111 40 202 88 202h530c48 0 89-91 89-202 0-110-41-202-89-202h-530c-48 0-88 92-88 202z" stroke="#3465af"/><path fill="#ffb3b3" d="m2902 3702c0 111 40 202 88 202s88-91 88-202c0-110-40-202-88-202s-88 92-88 202z"/><path fill="none" d="m2902 3702c0 111 40 202 88 202s88-91 88-202c0-110-40-202-88-202s-88 92-88 202z" stroke="#3465af"/></g><g transform="translate(-2140.9 -2186)" class="com.sun.star.drawing.CustomShape"><path fill="#ff8080" d="m2903 4267c0 110 40 202 88 202h530c48 0 89-92 89-202s-41-203-89-203h-530c-48 0-88 93-88 203z"/><path fill="none" d="m2903 4267c0 110 40 202 88 202h530c48 0 89-92 89-202s-41-203-89-203h-530c-48 0-88 93-88 203z" stroke="#3465af"/><path fill="#ffb3b3" d="m2903 4267c0 110 40 202 88 202s88-92 88-202-40-203-88-203-88 93-88 203z"/><path fill="none" d="m2903 4267c0 110 40 202 88 202s88-92 88-202-40-203-88-203-88 93-88 203z" stroke="#3465af"/></g><g transform="translate(-2140.9 -2186)" class="com.sun.star.drawing.CustomShape"><path fill="#729fcf" d="m6719 4196 385-353v176h1167v-176l386 353-386 354v-177h-1167v177l-385-354z"/><path fill="none" d="m6719 4196 385-353v176h1167v-176l386 353-386 354v-177h-1167v177l-385-354z" stroke="#3465af"/></g><g transform="translate(-2140.9 -2186)" class="com.sun.star.drawing.CustomShape"><path fill="#729fcf" d="m9979 4150 402-368v184h1217v-184l403 368-403 369v-185h-1217v185l-402-369z"/><path fill="none" d="m9979 4150 402-368v184h1217v-184l403 368-403 369v-185h-1217v185l-402-369z" stroke="#3465af"/></g><g transform="translate(-2140.9 -2186)" class="com.sun.star.drawing.RectangleShape"><path fill="#cff" d="m16500 6189h-4500v-1389h9e3v1389h-4500z"/><path fill="none" d="m16500 6189h-4500v-1389h9e3v1389h-4500z" stroke="#3465af"/><text class="TextShape"><tspan font-size="635px" font-family="&apos;Times New Roman&apos;, serif" font-weight="400" class="TextParagraph"><tspan y="5710" x="12051" class="TextPosition"><tspan fill="#000000">Satellite Equipment Control (SEC)</tspan></tspan></tspan></text>
</g><g transform="translate(-2140.9 -2186)" class="com.sun.star.drawing.CustomShape"><path fill="#cff" d="m13400 4600h-1400v-1e3h2800v1e3h-1400z"/><path fill="none" d="m13400 4600h-1400v-1e3h2800v1e3h-1400z" stroke="#3465af"/><text class="TextShape"><tspan font-size="635px" font-family="&apos;Times New Roman&apos;, serif" font-weight="400" class="TextParagraph"><tspan y="4316" x="12465" class="TextPosition"><tspan fill="#000000">Demod</tspan></tspan></tspan></text>
</g><g transform="translate(-2140.9 -2186)" class="com.sun.star.drawing.CustomShape"><path fill="#729fcf" d="m9979 5451 402-368v184h1217v-184l403 368-403 369v-185h-1217v185l-402-369z"/><path fill="none" d="m9979 5451 402-368v184h1217v-184l403 368-403 369v-185h-1217v185l-402-369z" stroke="#3465af"/></g><path fill="#ff9" d="m7855.1 9099v7302h-1270v-14605h1270v7303z"/><path fill="none" d="m7855.1 9099v7302h-1270v-14605h1270v7303z" stroke="#3465af"/><text y="-6640.4663" x="-20770.572" transform="rotate(-90)" class="TextShape"><tspan font-size="635px" font-family="&apos;Times New Roman&apos;, serif" font-weight="400" class="TextParagraph"><tspan y="7409.5396" x="-11193.634" class="TextPosition" transform="matrix(0,-1,1,0,-4473,23627)"><tspan fill="#000000">I2C Bus (control bus)</tspan></tspan></tspan></text>
<g transform="translate(-2197.3 -2186)" class="com.sun.star.drawing.TextShape"><text class="TextShape"><tspan font-size="635px" font-family="&apos;Times New Roman&apos;, serif" font-weight="400" class="TextParagraph"><tspan y="3278" x="9391" class="TextPosition"><tspan fill="#000000">Digital TV Frontend</tspan></tspan></tspan></text>
</g><g transform="matrix(1.015 0 0 .99994 -2233.3 -2185.7)" class="com.sun.star.drawing.CustomShape"><g stroke="#3465af" fill="none"><path d="m3e3 2800c-18 0-35 1-53 3"/><path d="m2915 2808c-17 3-35 7-52 12"/><path d="m2832 2830c-16 6-33 12-49 20"/><path d="m2754 2864c-15 8-31 17-46 27"/><path d="m2681 2909c-14 10-28 21-42 32"/><path d="m2614 2962c-13 12-26 24-38 37"/><path d="m2554 3023c-11 13-22 27-33 41"/><path d="m2502 3091c-10 14-19 29-28 45"/><path d="m2459 3164c-8 16-15 32-22 49"/><path d="m2426 3243c-5 17-10 34-14 51"/><path d="m2406 3326c-3 18-5 35-6 53"/><path d="m2400 3411v53"/><path d="m2400 3497v53"/><path d="m2400 3582v53"/><path d="m2400 3668v53"/><path d="m2400 3753v53"/><path d="m2400 3839v53"/><path d="m2400 3924v53"/><path d="m2400 4009v54"/><path d="m2400 4095v53"/><path d="m2400 4180v53"/><path d="m2400 4266v53"/><path d="m2400 4351v53"/><path d="m2400 4437v53"/><path d="m2400 4522v53"/><path d="m2400 4607v54"/><path d="m2400 4693v53"/><path d="m2400 4778v53"/><path d="m2400 4864v53"/><path d="m2400 4949v53"/><path d="m2400 5035v53"/><path d="m2400 5120v53"/><path d="m2400 5205v54"/><path d="m2400 5291v53"/><path d="m2400 5376v53"/><path d="m2400 5462v53"/><path d="m2400 5547v53"/><path d="m2400 5633v53"/><path d="m2400 5718v53"/><path d="m2400 5803c0 18 1 36 3 53"/><path d="m2408 5888c4 18 8 35 13 52"/><path d="m2431 5971c6 16 13 33 20 49"/><path d="m2466 6049c8 15 17 31 27 46"/><path d="m2511 6122c10 14 21 28 32 42"/><path d="m2564 6188c12 13 25 26 38 38"/><path d="m2626 6248c13 11 27 23 41 33"/><path d="m2694 6300c14 10 29 19 45 27"/><path d="m2768 6343c15 7 32 15 48 21"/><path d="m2847 6375c17 5 34 10 51 14"/><path d="m2930 6395c17 2 35 4 53 5"/><path d="m3015 6400h53"/><path d="m3100 6400h53"/><path d="m3186 6400h53"/><path d="m3271 6400h53"/><path d="m3357 6400h53"/><path d="m3442 6400h53"/><path d="m3527 6400h54"/><path d="m3613 6400h53"/><path d="m3698 6400h53"/><path d="m3784 6400h53"/><path d="m3869 6400h53"/><path d="m3955 6400h53"/><path d="m4040 6400h53"/><path d="m4125 6400h54"/><path d="m4211 6400h53"/><path d="m4296 6400h53"/><path d="m4382 6400h53"/><path d="m4467 6400h53"/><path d="m4553 6400h53"/><path d="m4638 6400h53"/><path d="m4723 6400h54"/><path d="m4809 6400h53"/><path d="m4894 6400h53"/><path d="m4980 6400h53"/><path d="m5065 6400h53"/><path d="m5151 6400h53"/><path d="m5236 6400h53"/><path d="m5322 6400h53"/><path d="m5407 6400h53"/><path d="m5492 6400h53"/><path d="m5578 6400h53"/><path d="m5663 6400h53"/><path d="m5749 6400h53"/><path d="m5834 6400h53"/><path d="m5920 6400h53"/><path d="m6005 6400h53"/><path d="m6090 6400h53"/><path d="m6176 6400h53"/><path d="m6261 6400h53"/><path d="m6347 6400h53"/><path d="m6432 6400h53"/><path d="m6518 6400h53"/><path d="m6603 6400h53"/><path d="m6688 6400h54"/><path d="m6774 6400h53"/><path d="m6859 6400h53"/><path d="m6945 6400h53"/><path d="m7030 6400h53"/><path d="m7116 6400h53"/><path d="m7201 6400h53"/><path d="m7286 6400h54"/><path d="m7372 6400h53"/><path d="m7457 6400h53"/><path d="m7543 6400h53"/><path d="m7628 6400h53"/><path d="m7714 6400h53"/><path d="m7799 6400h53"/><path d="m7884 6400h54"/><path d="m7970 6400h53"/><path d="m8055 6400h53"/><path d="m8141 6400h53"/><path d="m8226 6400h53"/><path d="m8312 6400h53"/><path d="m8397 6400h53"/><path d="m8482 6400h54"/><path d="m8568 6400h53"/><path d="m8653 6400h53"/><path d="m8739 6400h53"/><path d="m8824 6400h53"/><path d="m8910 6400h53"/><path d="m8995 6400h53"/><path d="m9081 6400h53"/><path d="m9166 6400h53"/><path d="m9251 6400h53"/><path d="m9337 6400h53"/><path d="m9422 6400h53"/><path d="m9508 6400h53"/><path d="m9593 6400h53"/><path d="m9679 6400h53"/><path d="m9764 6400h53"/><path d="m9849 6400h53"/><path d="m9935 6400h53"/><path d="m10020 6400h53"/><path d="m10106 6400h53"/><path d="m10191 6400h53"/><path d="m10277 6400h53"/><path d="m10362 6400h53"/><path d="m10447 6400h53"/><path d="m10533 6400h53"/><path d="m10618 6400h53"/><path d="m10704 6400h53"/><path d="m10789 6400h53"/><path d="m10875 6400h53"/><path d="m10960 6400h53"/><path d="m11045 6400h54"/><path d="m11131 6400h53"/><path d="m11216 6400h53"/><path d="m11302 6400h53"/><path d="m11387 6400h53"/><path d="m11473 6400h53"/><path d="m11558 6400h53"/><path d="m11643 6400h54"/><path d="m11729 6400h53"/><path d="m11814 6400h53"/><path d="m11900 6400h53"/><path d="m11985 6400h53"/><path d="m12071 6400h53"/><path d="m12156 6400h53"/><path d="m12241 6400h54"/><path d="m12327 6400h53"/><path d="m12412 6400h53"/><path d="m12498 6400h53"/><path d="m12583 6400h53"/><path d="m12669 6400h53"/><path d="m12754 6400h53"/><path d="m12839 6400h54"/><path d="m12925 6400h53"/><path d="m13010 6400h53"/><path d="m13096 6400h53"/><path d="m13181 6400h53"/><path d="m13267 6400h53"/><path d="m13352 6400h53"/><path d="m13438 6400h53"/><path d="m13523 6400h53"/><path d="m13608 6400h53"/><path d="m13694 6400h53"/><path d="m13779 6400h53"/><path d="m13865 6400h53"/><path d="m13950 6400h53"/><path d="m14036 6400h53"/><path d="m14121 6400h53"/><path d="m14206 6400h53"/><path d="m14292 6400h53"/><path d="m14377 6400h53"/><path d="m14463 6400h53"/><path d="m14548 6400h53"/><path d="m14634 6400h53"/><path d="m14719 6400h53"/><path d="m14804 6400h54"/><path d="m14890 6400h53"/><path d="m14975 6400h53"/><path d="m15061 6400h53"/><path d="m15146 6400h53"/><path d="m15232 6400h53"/><path d="m15317 6400h53"/><path d="m15402 6400h54"/><path d="m15488 6400h53"/><path d="m15573 6400h53"/><path d="m15659 6400h53"/><path d="m15744 6400h53"/><path d="m15830 6400h53"/><path d="m15915 6400h53"/><path d="m16000 6400h54"/><path d="m16086 6400h53"/><path d="m16171 6400h53"/><path d="m16257 6400h53"/><path d="m16342 6400h53"/><path d="m16428 6400h53"/><path d="m16513 6400h53"/><path d="m16598 6400h54"/><path d="m16684 6400h53"/><path d="m16769 6400h53"/><path d="m16855 6400h53"/><path d="m16940 6400h53"/><path d="m17026 6400h53"/><path d="m17111 6400h53"/><path d="m17196 6400h54"/><path d="m17282 6400h53"/><path d="m17367 6400h53"/><path d="m17453 6400h53"/><path d="m17538 6400h53"/><path d="m17624 6400h53"/><path d="m17709 6400h53"/><path d="m17795 6400h53"/><path d="m17880 6400h53"/><path d="m17965 6400h53"/><path d="m18051 6400h53"/><path d="m18136 6400h53"/><path d="m18222 6400h53"/><path d="m18307 6400h53"/><path d="m18393 6400h53"/><path d="m18478 6400h53"/><path d="m18563 6400h53"/><path d="m18649 6400h53"/><path d="m18734 6400h53"/><path d="m18820 6400h53"/><path d="m18905 6400h53"/><path d="m18991 6400h53"/><path d="m19076 6400h53"/><path d="m19161 6400h54"/><path d="m19247 6400h53"/><path d="m19332 6400h53"/><path d="m19418 6400h53"/><path d="m19503 6400h53"/><path d="m19589 6400h53"/><path d="m19674 6400h53"/><path d="m19759 6400h54"/><path d="m19845 6400h53"/><path d="m19930 6400h53"/><path d="m20016 6400h53"/><path d="m20101 6400h53"/><path d="m20187 6400h53"/><path d="m20272 6400h53"/><path d="m20357 6400h54"/><path d="m20443 6400h53"/><path d="m20528 6400h53"/><path d="m20614 6400c17-1 35-2 53-5"/><path d="m20699 6390c17-4 34-9 51-14"/><path d="m20781 6365c16-6 32-13 48-21"/><path d="m20858 6329c15-8 31-17 45-27"/><path d="m20930 6283c14-10 28-21 42-32"/><path d="m20996 6229c13-12 25-25 37-38"/><path d="m21055 6167c11-14 22-28 33-42"/><path d="m21106 6098c10-15 19-30 27-45"/><path d="m21148 6024c7-16 14-33 20-49"/><path d="m21179 5944c5-17 9-34 13-51"/><path d="m21197 5861c2-18 4-35 4-53"/><path d="m21201 5776v-54"/><path d="m21201 5690v-53"/><path d="m21201 5605v-53"/><path d="m21201 5519v-53"/><path d="m21201 5434v-53"/><path d="m21201 5348v-53"/><path d="m21201 5263v-53"/><path d="m21201 5178v-54"/><path d="m21201 5092v-53"/><path d="m21201 5007v-53"/><path d="m21201 4921v-53"/><path d="m21201 4836v-53"/><path d="m21201 4750v-53"/><path d="m21201 4665v-53"/><path d="m21201 4579v-53"/><path d="m21201 4494v-53"/><path d="m21201 4409v-53"/><path d="m21201 4323v-53"/><path d="m21201 4238v-53"/><path d="m21201 4152v-53"/><path d="m21201 4067v-53"/><path d="m21201 3981v-53"/><path d="m21201 3896v-53"/><path d="m21201 3811v-53"/><path d="m21201 3725v-53"/><path d="m21201 3640v-53"/><path d="m21201 3554v-53"/><path d="m21201 3469v-53"/><path d="m21201 3383c-1-17-3-35-5-52"/><path d="m21190 3299c-4-17-8-35-14-51"/><path d="m21165 3217c-6-16-13-33-21-49"/><path d="m21129 3140c-9-16-18-31-28-46"/><path d="m21082 3068c-10-14-21-28-33-42"/><path d="m21027 3002c-12-13-24-25-37-37"/><path d="m20965 2944c-14-12-28-22-42-33"/><path d="m20896 2893c-15-9-30-18-46-27"/><path d="m20821 2852c-16-8-32-14-49-20"/><path d="m20741 2821c-17-5-34-9-51-12"/><path d="m20658 2804c-18-3-35-4-53-4"/><path d="m20573 2800h-53"/><path d="m20487 2800h-53"/><path d="m20402 2800h-53"/><path d="m20316 2800h-53"/><path d="m20231 2800h-53"/><path d="m20146 2800h-54"/><path d="m20060 2800h-53"/><path d="m19975 2800h-53"/><path d="m19889 2800h-53"/><path d="m19804 2800h-53"/><path d="m19718 2800h-53"/><path d="m19633 2800h-53"/><path d="m19548 2800h-54"/><path d="m19462 2800h-53"/><path d="m19377 2800h-53"/><path d="m19291 2800h-53"/><path d="m19206 2800h-53"/><path d="m19120 2800h-53"/><path d="m19035 2800h-53"/><path d="m18950 2800h-54"/><path d="m18864 2800h-53"/><path d="m18779 2800h-53"/><path d="m18693 2800h-53"/><path d="m18608 2800h-53"/><path d="m18522 2800h-53"/><path d="m18437 2800h-53"/><path d="m18352 2800h-54"/><path d="m18266 2800h-53"/><path d="m18181 2800h-53"/><path d="m18095 2800h-53"/><path d="m18010 2800h-53"/><path d="m17924 2800h-53"/><path d="m17839 2800h-53"/><path d="m17753 2800h-53"/><path d="m17668 2800h-53"/><path d="m17583 2800h-53"/><path d="m17497 2800h-53"/><path d="m17412 2800h-53"/><path d="m17326 2800h-53"/><path d="m17241 2800h-53"/><path d="m17155 2800h-53"/><path d="m17070 2800h-53"/><path d="m16985 2800h-53"/><path d="m16899 2800h-53"/><path d="m16814 2800h-53"/><path d="m16728 2800h-53"/><path d="m16643 2800h-53"/><path d="m16557 2800h-53"/><path d="m16472 2800h-53"/><path d="m16387 2800h-54"/><path d="m16301 2800h-53"/><path d="m16216 2800h-53"/><path d="m16130 2800h-53"/><path d="m16045 2800h-53"/><path d="m15959 2800h-53"/><path d="m15874 2800h-53"/><path d="m15789 2800h-54"/><path d="m15703 2800h-53"/><path d="m15618 2800h-53"/><path d="m15532 2800h-53"/><path d="m15447 2800h-53"/><path d="m15361 2800h-53"/><path d="m15276 2800h-53"/><path d="m15191 2800h-54"/><path d="m15105 2800h-53"/><path d="m15020 2800h-53"/><path d="m14934 2800h-53"/><path d="m14849 2800h-53"/><path d="m14763 2800h-53"/><path d="m14678 2800h-53"/><path d="m14593 2800h-54"/><path d="m14507 2800h-53"/><path d="m14422 2800h-53"/><path d="m14336 2800h-53"/><path d="m14251 2800h-53"/><path d="m14165 2800h-53"/><path d="m14080 2800h-53"/><path d="m13994 2800h-53"/><path d="m13909 2800h-53"/><path d="m13824 2800h-53"/><path d="m13738 2800h-53"/><path d="m13653 2800h-53"/><path d="m13567 2800h-53"/><path d="m13482 2800h-53"/><path d="m13396 2800h-53"/><path d="m13311 2800h-53"/><path d="m13226 2800h-53"/><path d="m13140 2800h-53"/><path d="m13055 2800h-53"/><path d="m12969 2800h-53"/><path d="m12884 2800h-53"/><path d="m12798 2800h-53"/><path d="m12713 2800h-53"/><path d="m12628 2800h-53"/><path d="m12542 2800h-53"/><path d="m12457 2800h-53"/><path d="m12371 2800h-53"/><path d="m12286 2800h-53"/><path d="m12200 2800h-53"/><path d="m12115 2800h-53"/><path d="m12030 2800h-54"/><path d="m11944 2800h-53"/><path d="m11859 2800h-53"/><path d="m11773 2800h-53"/><path d="m11688 2800h-53"/><path d="m11602 2800h-53"/><path d="m11517 2800h-53"/><path d="m11432 2800h-54"/><path d="m11346 2800h-53"/><path d="m11261 2800h-53"/><path d="m11175 2800h-53"/><path d="m11090 2800h-53"/><path d="m11004 2800h-53"/><path d="m10919 2800h-53"/><path d="m10834 2800h-54"/><path d="m10748 2800h-53"/><path d="m10663 2800h-53"/><path d="m10577 2800h-53"/><path d="m10492 2800h-53"/><path d="m10406 2800h-53"/><path d="m10321 2800h-53"/><path d="m10236 2800h-54"/><path d="m10150 2800h-53"/><path d="m10065 2800h-53"/><path d="m9979 2800h-53"/><path d="m9894 2800h-53"/><path d="m9808 2800h-53"/><path d="m9723 2800h-53"/><path d="m9637 2800h-53"/><path d="m9552 2800h-53"/><path d="m9467 2800h-53"/><path d="m9381 2800h-53"/><path d="m9296 2800h-53"/><path d="m9210 2800h-53"/><path d="m9125 2800h-53"/><path d="m9039 2800h-53"/><path d="m8954 2800h-53"/><path d="m8869 2800h-53"/><path d="m8783 2800h-53"/><path d="m8698 2800h-53"/><path d="m8612 2800h-53"/><path d="m8527 2800h-53"/><path d="m8441 2800h-53"/><path d="m8356 2800h-53"/><path d="m8271 2800h-54"/><path d="m8185 2800h-53"/><path d="m8100 2800h-53"/><path d="m8014 2800h-53"/><path d="m7929 2800h-53"/><path d="m7843 2800h-53"/><path d="m7758 2800h-53"/><path d="m7673 2800h-54"/><path d="m7587 2800h-53"/><path d="m7502 2800h-53"/><path d="m7416 2800h-53"/><path d="m7331 2800h-53"/><path d="m7245 2800h-53"/><path d="m7160 2800h-53"/><path d="m7075 2800h-54"/><path d="m6989 2800h-53"/><path d="m6904 2800h-53"/><path d="m6818 2800h-53"/><path d="m6733 2800h-53"/><path d="m6647 2800h-53"/><path d="m6562 2800h-53"/><path d="m6477 2800h-54"/><path d="m6391 2800h-53"/><path d="m6306 2800h-53"/><path d="m6220 2800h-53"/><path d="m6135 2800h-53"/><path d="m6049 2800h-53"/><path d="m5964 2800h-53"/><path d="m5879 2800h-54"/><path d="m5793 2800h-53"/><path d="m5708 2800h-53"/><path d="m5622 2800h-53"/><path d="m5537 2800h-53"/><path d="m5451 2800h-53"/><path d="m5366 2800h-53"/><path d="m5280 2800h-53"/><path d="m5195 2800h-53"/><path d="m5110 2800h-53"/><path d="m5024 2800h-53"/><path d="m4939 2800h-53"/><path d="m4853 2800h-53"/><path d="m4768 2800h-53"/><path d="m4682 2800h-53"/><path d="m4597 2800h-53"/><path d="m4512 2800h-53"/><path d="m4426 2800h-53"/><path d="m4341 2800h-53"/><path d="m4255 2800h-53"/><path d="m4170 2800h-53"/><path d="m4084 2800h-53"/><path d="m3999 2800h-53"/><path d="m3914 2800h-54"/><path d="m3828 2800h-53"/><path d="m3743 2800h-53"/><path d="m3657 2800h-53"/><path d="m3572 2800h-53"/><path d="m3486 2800h-53"/><path d="m3401 2800h-53"/><path d="m3316 2800h-54"/><path d="m3230 2800h-53"/><path d="m3145 2800h-53"/><path d="m3059 2800h-53"/></g></g><g transform="translate(-2197.3 -2186)"><rect height="1100.7" width="1213.6" y="6917.1" x="23255" fill="#f3e777"/><path fill="#ca4677" d="m22802 7700.4v-405.46l150.7-169.16c82.886-93.039 170.53-186.62 194.77-207.96l44.069-38.798 783.23-0.086 783.23-0.086v613.5 613.5h-978-978v-405.46zm1027.7 136.98v-78.372l-169.91 4.925-169.91 4.9249-5.09 45.854c-8.249 74.303 46.711 101.04 207.69 101.04h137.21v-78.372zm235.86-262.94 4.495-341.31 207.2-8.6408 207.2-8.6408 5.144-46.443c9.596-86.615-41.863-102.05-322.02-96.607l-246.71 4.7956-4.438 419.08-4.439 419.08h74.537 74.538l4.494-341.31zm391.3 313.72c26.41-19.286 36.255-41.399 32.697-73.447l-5.09-45.854h-174.05-174.05l-5.38 48.984c-9.97 90.771 0.993 97.91 150.36 97.91 99.305 0 148.27-7.6982 175.52-27.594zm-627.16-274.84v-77.768h-174.05-174.05v66.246c0 36.436 4.973 71.431 11.051 77.768 6.078 6.3366 84.401 11.521 174.05 11.521h163v-77.768zm659.89-4.9154 5.125-74.042-179.18 4.9155-179.18 4.9155-5.38 48.984c-10.473 95.348-2.259 99.57 183.28 94.197l170.2-4.9284 5.125-74.042zm-659.89-237.63v-78.372l-169.91 4.925-169.91 4.925-5.097 73.447-5.097 73.447h175 175v-78.372zm659.86 4.925-5.097-73.447h-174.05-174.05l-5.38 48.984c-10.289 93.673-2.146 97.91 188.15 97.91h175.52l-5.097-73.447zm-659.86-228.98v-77.768h-137.21c-97.358 0-147.91 7.8138-174.05 26.902-34.952 25.523-49.645 92.242-25.79 117.11 6.078 6.3366 84.401 11.521 174.05 11.521h163v-77.768z"/></g><g transform="matrix(.84874 0 0 .76147 2408.1 3615.3)"><rect height="3076.2" width="2734.3" y="13264" x="19249" fill="#6076b3"/><g stroke-linejoin="round" fill-rule="evenodd" stroke-width="28.222" fill="#e0ee2c"><rect y="13369" width="356.65" x="18937" height="180.95"/><rect y="13708" width="356.65" x="18937" height="180.95"/><rect y="14048" width="356.65" x="18937" height="180.95"/><rect y="14387" width="356.65" x="18937" height="180.95"/><rect y="14726" width="356.65" x="18937" height="180.95"/><rect y="15066" width="356.65" x="18937" height="180.95"/><rect y="15405" width="356.65" x="18937" height="180.95"/><rect y="15744" width="356.65" x="18937" height="180.95"/><rect y="16083" width="356.65" x="18937" height="180.95"/><rect y="13324" width="356.65" x="21939" height="180.95"/><rect y="13663" width="356.65" x="21939" height="180.95"/><rect y="14002" width="356.65" x="21939" height="180.95"/><rect y="14342" width="356.65" x="21939" height="180.95"/><rect y="14681" width="356.65" x="21939" height="180.95"/><rect y="15020" width="356.65" x="21939" height="180.95"/><rect y="15360" width="356.65" x="21939" height="180.95"/><rect y="15699" width="356.65" x="21939" height="180.95"/><rect y="16038" width="356.65" x="21939" height="180.95"/></g><g stroke-linejoin="round" fill-rule="evenodd" transform="matrix(.98702 0 0 .90336 -2675 7020.8)" class="com.sun.star.drawing.TextShape" stroke-width="28.222"><text class="TextShape"><tspan font-size="635px" font-family="&apos;Times New Roman&apos;, serif" font-weight="400" class="TextParagraph"/></text>
<text style="word-spacing:0px;letter-spacing:0px" xml:space="preserve" font-size="1128.9px" y="9042.0264" x="22439.668" font-family="Sans" line-height="125%" fill="#000000"><tspan y="9042.0264" x="22439.668">CPU</tspan></text>
</g></g><g stroke-linejoin="round" fill-rule="evenodd" transform="translate(-11752 543.6)" class="com.sun.star.drawing.TextShape" stroke-width="28.222"><text class="TextShape"><tspan font-size="706px" font-family="&apos;Times New Roman&apos;, serif" font-weight="400" class="TextParagraph"><tspan y="15832" x="24341" class="TextPosition" transform="matrix(0,-1,1,0,8509,40173)"><tspan fill="#000000">PCI, USB, SPI, I2C, ...</tspan></tspan></tspan></text>
</g><g stroke-linejoin="round" fill-rule="evenodd" transform="translate(-655.31 963.83)" class="com.sun.star.drawing.RectangleShape" stroke-width="28.222"><g transform="matrix(.49166 0 0 1.0059 6045.6 -82.24)"><path fill="#cfe7f5" d="m14169 14572h-2268v-1412h4536v1412h-2268z"/><path fill="none" d="m14169 14572h-2268v-1412h4536v1412h-2268z" stroke="#3465af"/></g><text y="-395.11282" x="-790.22229" class="TextShape"><tspan font-size="635px" font-family="&apos;Times New Roman&apos;, serif" font-weight="400" class="TextParagraph"><tspan y="13686.9" x="12091.779" class="TextPosition"><tspan fill="#000000">Bridge</tspan></tspan></tspan></text>
<text y="338.66486" x="-846.66675" class="TextShape"><tspan font-size="635px" font-family="&apos;Times New Roman&apos;, serif" font-weight="400" class="TextParagraph"><tspan y="14420.677" x="12035.335" class="TextPosition"><tspan fill="#000000"> DMA</tspan></tspan></tspan></text>
</g></svg>
