P3
# Standard console colors
16 1
255
  0   0   0
  0   0 170
  0 170   0
  0 170 170
170   0   0
170   0 170
170  85   0
170 170 170
 85  85  85
 85  85 255
 85 255  85
 85 255 255
255  85  85
255  85 255
255 255  85
255 255 255
