P3
80 80
255
0 0 0 0 0 0 0 0 0 0 0 0 0 0 0 0 0 0 0 0 0 0 0 0
0 0 0 0 0 0 0 0 0 0 0 0 0 0 0 0 0 0 0 0 0 0 0 0
0 0 0 0 0 0 0 0 0 0 0 0 0 0 0 0 0 0 0 0 0 0 0 0
0 0 0 0 0 0 0 0 0 0 0 0 0 0 0 0 0 0 0 0 0 0 0 0
0 0 0 0 0 0 0 0 0 0 0 0 0 0 0 0 0 0 0 0 0 0 0 0
0 0 0 0 0 0 0 0 0 0 0 0 0 0 0 0 0 0 0 0 0 0 0 0
0 0 0 0 0 0 0 0 0 0 0 0 0 0 0 0 0 0 0 0 0 0 0 0
0 0 0 0 0 0 0 0 0 0 0 0 0 0 0 0 0 0 0 0 0 0 0 0
0 0 0 0 0 0 0 0 0 0 0 0 0 0 0 0 0 0 0 0 0 0 0 0
0 0 0 0 0 0 0 0 0 0 0 0 0 0 0 0 0 0 0 0 0 0 0 0

0 0 0 0 0 0 0 0 0 0 0 0 0 0 0 0 0 0 0 0 0 0 0 0
0 0 0 0 0 0 0 0 0 0 0 0 0 0 0 0 0 0 0 0 0 0 0 0
0 0 0 0 0 0 0 0 0 0 0 0 0 0 0 0 0 0 0 0 0 0 0 0
0 0 0 0 0 0 0 0 0 0 0 0 0 0 0 0 0 0 0 0 0 0 0 0
0 0 0 0 0 0 0 0 0 0 0 0 0 0 0 0 0 0 0 0 0 0 0 0
0 0 0 0 0 0 0 0 0 0 0 0 0 0 0 0 0 0 0 0 0 0 0 0
0 0 0 0 0 0 0 0 0 0 0 0 0 0 0 0 0 0 0 0 0 0 0 0
0 0 0 0 0 0 0 0 0 0 0 0 0 0 0 0 0 0 0 0 0 0 0 0
0 0 0 0 0 0 0 0 0 0 0 0 0 0 0 0 0 0 0 0 0 0 0 0
0 0 0 0 0 0 0 0 0 0 0 0 0 0 0 0 0 0 0 0 0 0 0 0

0 0 0 0 0 0 0 0 0 0 0 0 0 0 0 0 0 0 0 0 0 0 0 0
0 0 0 0 0 0 0 0 0 0 0 0 0 0 0 0 0 0 0 0 0 0 0 0
0 0 0 0 0 0 0 0 0 0 0 0 0 0 0 0 0 0 0 0 0 0 0 0
0 0 0 0 0 0 0 0 0 0 0 0 0 0 0 0 0 0 0 0 0 0 0 0
0 0 0 0 0 0 0 0 0 0 0 0 0 0 0 0 0 0 0 0 0 0 0 0
0 0 0 0 0 0 0 0 0 0 0 0 0 0 0 0 0 0 0 0 0 0 0 0
0 0 0 0 0 0 0 0 0 0 0 0 0 0 0 0 0 0 0 0 0 0 0 0
0 0 0 0 0 0 0 0 0 0 0 0 0 0 0 0 0 0 0 0 0 0 0 0
0 0 0 0 0 0 0 0 0 0 0 0 0 0 0 0 0 0 0 0 0 0 0 0
0 0 0 0 0 0 0 0 0 0 0 0 0 0 0 0 0 0 0 0 0 0 0 0

0 0 0 0 0 0 0 0 0 0 0 0 0 0 0 0 0 0 0 0 0 0 0 0
0 0 0 0 0 0 0 0 0 0 0 0 0 0 0 0 0 0 0 0 0 0 0 0
0 0 0 0 0 0 0 0 0 0 0 0 0 0 0 0 0 0 0 0 0 0 0 0
0 0 0 0 0 0 0 0 0 0 0 0 0 0 0 0 0 0 0 0 0 0 0 0
0 0 0 0 0 0 0 0 0 0 0 0 0 0 0 0 0 0 0 0 0 0 0 0
0 0 0 0 0 0 0 0 0 0 0 0 0 0 0 0 0 0 0 0 0 0 0 0
0 0 0 0 0 0 0 0 0 0 0 0 0 0 0 0 0 0 0 0 0 0 0 0
0 0 0 0 0 0 0 0 0 0 0 0 0 0 0 0 0 0 0 0 0 0 0 0
0 0 0 0 0 0 0 0 0 0 0 0 0 0 0 0 0 0 0 0 0 0 0 0
0 0 0 0 0 0 0 0 0 0 0 0 0 0 0 0 0 0 0 0 0 0 0 0

0 0 0 0 0 0 0 0 0 0 0 0 0 0 0 0 0 0 0 0 0 0 0 0
0 0 0 0 0 0 0 0 0 0 0 0 0 0 0 0 0 0 0 0 0 0 0 0
0 0 0 0 0 0 0 0 0 0 0 0 0 0 0 0 0 0 0 0 0 0 0 0
0 0 0 0 0 0 0 0 0 0 0 0 0 0 0 0 0 0 0 0 0 0 0 0
0 0 0 0 0 0 0 0 0 0 0 0 0 0 0 0 0 0 0 0 0 0 0 0
0 0 0 0 0 0 0 0 0 0 0 0 0 0 0 0 0 0 0 0 0 0 0 0
0 0 0 0 0 0 0 0 0 0 0 0 0 0 0 0 0 0 0 0 0 0 0 0
0 0 0 0 0 0 0 0 0 0 0 0 0 0 0 0 0 0 0 0 0 0 0 0
0 0 0 0 0 0 0 0 0 0 0 0 0 0 0 0 0 0 0 0 0 0 0 0
0 0 0 0 0 0 0 0 0 0 0 0 0 0 0 0 0 0 0 0 0 0 0 0

0 0 0 0 0 0 0 0 0 0 0 0 0 0 0 0 0 0 0 0 0 0 0 0
0 0 0 0 0 0 0 0 0 0 0 0 0 0 0 0 0 0 0 0 0 0 0 0
0 0 0 0 0 0 0 0 0 0 0 0 0 0 0 0 0 0 0 0 0 0 0 0
0 0 0 0 0 0 0 0 0 0 0 0 0 0 0 0 0 0 0 0 0 0 0 0
0 0 0 0 0 0 0 0 0 0 0 0 0 0 0 0 0 0 0 0 0 0 0 0
0 0 0 0 0 0 0 0 0 0 0 0 0 43 56 0 47 62 0 2 3 0 0 0
0 0 0 0 0 0 0 0 0 0 0 0 0 0 0 0 0 0 0 0 0 0 0 0
0 0 0 0 0 0 0 0 0 0 0 0 0 0 0 0 0 0 0 0 0 0 0 0
0 0 0 0 0 0 0 0 0 0 0 0 0 0 0 0 0 0 0 0 0 0 0 0
0 0 0 0 0 0 0 0 0 0 0 0 0 0 0 0 0 0 0 0 0 0 0 0

0 0 0 0 0 0 0 0 0 0 0 0 0 0 0 0 0 0 0 0 0 0 0 0
0 0 0 0 0 0 0 0 0 0 0 0 0 0 0 0 0 0 0 0 0 0 0 0
0 0 0 0 0 0 0 0 0 0 0 0 0 0 0 0 0 0 0 0 0 0 0 0
0 0 0 0 0 0 0 0 0 0 0 0 0 0 0 0 0 0 0 0 0 0 0 0
0 0 0 0 0 0 0 0 0 0 0 0 0 0 0 0 0 0 0 0 0 0 0 0
0 0 0 0 0 0 0 0 0 0 28 37 105 174 196 105 174 196 0 61 80 0 2 3
0 0 0 0 0 0 0 0 0 0 0 0 0 0 0 0 0 0 0 0 0 0 0 0
0 0 0 0 0 0 0 0 0 0 0 0 0 0 0 0 0 0 0 0 0 0 0 0
0 0 0 0 0 0 0 0 0 0 0 0 0 0 0 0 0 0 0 0 0 0 0 0
0 0 0 0 0 0 0 0 0 0 0 0 0 0 0 0 0 0 0 0 0 0 0 0

0 0 0 0 0 0 0 0 0 0 0 0 0 0 0 0 0 0 0 0 0 0 0 0
0 0 0 0 0 0 0 0 0 0 0 0 0 0 0 0 0 0 0 0 0 0 0 0
0 0 0 0 0 0 0 0 0 0 0 0 0 0 0 0 0 0 0 0 0 0 0 0
0 0 0 0 0 0 0 0 0 0 0 0 0 0 0 0 0 0 0 0 0 0 0 0
0 0 0 0 0 0 0 0 0 0 0 0 0 0 0 0 0 0 0 0 0 0 0 0
0 0 0 0 0 0 0 20 27 61 146 173 167 209 223 167 209 223 124 186 205 0 96 126
0 5 6 0 2 3 0 0 1 0 0 0 0 0 0 0 0 0 0 0 0 0 0 0
0 0 0 0 0 0 0 0 0 0 0 0 0 0 0 0 0 0 0 0 0 0 0 0
0 0 0 0 0 0 0 0 0 0 0 0 0 0 0 0 0 0 0 0 0 0 0 0
0 0 0 0 0 0 0 0 0 0 0 0 0 0 0 0 0 0 0 0 0 0 0 0

0 0 0 0 0 0 0 0 0 0 0 0 0 0 0 0 0 0 0 0 0 0 0 0
0 0 0 0 0 0 0 0 0 0 0 0 0 0 0 0 0 0 0 0 0 0 0 0
0 0 0 0 0 0 0 0 0 0 0 0 0 0 0 0 0 0 0 0 0 0 0 0
0 0 0 0 0 0 0 0 0 0 0 0 0 0 0 0 0 0 0 0 0 0 0 0
0 0 0 0 0 0 0 0 0 0 0 0 0 0 0 0 0 0 0 0 0 0 0 0
0 0 0 0 31 41 79 158 183 152 201 217 174 213 226 167 209 223 159 205 220 157 204 219
27 122 151 0 19 25 0 9 11 0 2 3 0 0 0 0 0 0 0 0 0 0 0 0
0 0 0 0 0 0 0 0 0 0 0 0 0 0 0 0 0 0 0 0 0 0 0 0
0 0 0 0 0 0 0 0 0 0 0 0 0 0 0 0 0 0 0 0 0 0 0 0
0 0 0 0 0 0 0 0 0 0 0 0 0 0 0 0 0 0 0 0 0 0 0 0

0 0 0 0 0 0 0 0 0 0 0 0 0 0 0 0 0 0 0 0 0 0 0 0
0 0 0 0 0 0 0 0 0 0 0 0 0 0 0 0 0 0 0 0 0 0 0 0
0 0 0 0 0 0 0 0 0 0 0 0 0 0 0 0 0 0 0 0 0 0 0 0
0 0 0 0 0 0 0 0 0 0 0 0 0 0 0 0 0 0 0 0 0 0 0 0
0 0 0 0 5 6 0 0 0 0 0 0 0 0 0 0 0 0 0 0 0 0 0 0
0 31 41 65 149 175 152 201 217 162 207 221 167 209 223 164 208 222 167 209 223 172 212 225
145 197 214 11 108 138 0 17 22 0 11 14 0 4 5 0 0 0 0 0 0 0 0 0
0 0 0 0 0 0 0 0 0 0 0 0 0 0 0 0 0 0 0 0 0 0 0 0
0 0 0 0 0 0 0 0 0 0 0 0 0 0 0 0 0 0 0 0 0 0 0 0
0 0 0 0 0 0 0 0 0 0 0 0 0 0 0 0 0 0 0 0 0 0 0 0

0 0 0 0 0 0 0 0 0 0 0 0 0 0 0 0 0 0 0 0 0 0 0 0
0 0 0 0 0 0 0 0 0 0 0 0 0 0 0 0 0 0 0 0 0 0 0 0
0 0 0 0 0 0 0 0 0 0 0 0 0 0 0 0 0 0 0 0 0 0 0 0
0 0 0 0 0 0 0 0 0 0 0 0 0 0 0 0 0 0 0 0 0 0 0 0
0 1 2 0 19 25 0 1 1 0 0 0 0 1 1 0 0 0 0 0 0 0 8 10
70 152 178 159 205 220 164 208 222 164 208 222 169 211 224 164 208 222 164 208 222 169 211 224
162 207 221 118 182 202 0 61 80 0 23 31 0 18 24 0 4 5 0 0 0 0 0 0
0 0 0 0 0 0 0 0 0 0 0 0 0 0 0 0 0 0 0 0 0 0 0 0
0 0 0 0 0 0 0 0 0 0 0 0 0 0 0 0 0 0 0 0 0 0 0 0
0 0 0 0 0 0 0 0 0 0 0 0 0 0 0 0 0 0 0 0 0 0 0 0

0 0 0 0 0 0 0 0 0 0 0 0 0 0 0 0 0 0 0 0 0 0 0 0
0 0 0 0 0 0 0 0 0 0 0 0 0 0 0 0 0 0 0 0 0 0 0 0
0 0 0 0 0 0 0 0 0 0 0 0 0 0 0 0 0 0 0 0 0 0 0 0
0 0 0 0 0 0 0 0 0 0 0 0 0 0 0 0 0 0 0 0 0 0 0 0
0 1 2 0 47 62 0 16 21 0 2 3 0 4 6 0 3 4 0 0 0 0 3 4
33 126 155 169 211 224 172 212 225 179 216 228 167 209 223 172 212 225 164 208 222 179 216 228
162 207 221 50 138 166 0 45 59 0 84 111 0 51 67 0 16 21 0 2 3 0 0 0
0 0 0 0 0 0 0 0 0 0 0 0 0 0 0 0 0 0 0 0 0 0 0 0
0 0 0 0 0 0 0 0 0 0 0 0 0 0 0 0 0 0 0 0 0 0 0 0
0 0 0 0 0 0 0 0 0 0 0 0 0 0 0 0 0 0 0 0 0 0 0 0

0 0 0 0 0 0 0 0 0 0 0 0 0 0 0 0 0 0 0 0 0 0 0 0
0 0 0 0 0 0 0 0 0 0 0 0 0 0 0 0 0 0 0 0 0 0 0 0
0 0 0 0 0 0 0 0 0 0 0 0 0 0 0 0 0 0 0 0 0 0 0 0
0 0 0 0 0 0 0 0 0 0 0 0 0 0 0 0 0 0 0 0 0 0 0 0
0 0 0 0 67 88 14 111 141 0 10 13 0 11 14 0 13 17 0 2 3 0 0 0
0 5 7 16 112 142 135 192 210 164 208 222 157 204 219 162 207 221 167 209 223 159 205 220
89 164 188 0 57 75 19 115 145 85 162 186 14 111 141 0 41 54 0 11 15 0 0 0
0 8 11 0 83 109 0 31 40 0 0 1 0 0 0 0 0 0 0 0 0 0 0 0
0 0 0 0 0 0 0 0 0 0 0 0 0 0 0 0 0 0 0 0 0 0 0 0
0 0 0 0 0 0 0 0 0 0 0 0 0 0 0 0 0 0 0 0 0 0 0 0

0 0 0 0 0 0 0 0 0 0 0 0 0 0 0 0 0 0 0 0 0 0 0 0
0 0 0 0 0 0 0 0 0 0 0 0 0 0 0 0 0 0 0 0 0 0 0 0
0 0 0 0 0 0 0 0 0 0 0 0 0 0 0 0 0 0 0 0 0 0 0 0
0 0 0 0 0 0 0 0 0 0 0 0 0 0 0 0 0 0 0 0 0 0 0 0
0 0 0 0 40 52 75 156 181 5 103 133 0 15 20 0 16 22 0 10 13 0 0 0
0 0 0 0 9 12 13 110 140 133 191 209 167 209 223 169 211 224 172 212 225 103 173 195
0 62 81 0 96 126 145 197 214 140 195 212 27 122 151 0 48 63 0 7 10 0 9 11
5 103 133 140 195 212 61 146 173 0 21 28 0 1 1 0 1 2 0 1 2 0 0 0
0 0 0 0 0 0 0 0 0 0 0 0 0 0 0 0 0 0 0 0 0 0 0 0
0 0 0 0 0 0 0 0 0 0 0 0 0 0 0 0 0 0 0 0 0 0 0 0

0 0 0 0 0 0 0 0 0 0 0 0 0 0 0 0 0 0 0 0 0 0 0 0
0 0 0 0 0 0 0 0 0 0 0 0 0 0 0 0 0 0 0 0 0 0 0 0
0 0 0 0 0 0 0 0 0 0 0 0 0 0 0 0 0 0 0 0 0 0 0 0
0 0 0 0 0 0 0 0 0 0 0 0 0 0 0 0 0 0 0 0 0 0 0 0
0 0 0 0 10 13 51 139 167 131 189 208 0 90 118 0 22 29 0 13 17 0 5 6
0 0 0 0 0 1 0 11 15 0 95 124 140 195 212 169 211 224 97 169 192 0 69 91
0 84 111 159 205 220 179 216 228 95 168 191 0 75 98 0 21 28 0 26 34 19 115 145
138 193 211 164 208 222 154 203 218 39 130 159 0 10 13 0 8 10 0 6 8 0 2 2
0 0 0 0 0 0 0 0 0 0 0 0 0 0 0 0 0 0 0 0 0 0 0 0
0 0 0 0 0 0 0 0 0 0 0 0 0 0 0 0 0 0 0 0 0 0 0 0

0 0 0 0 0 0 0 0 0 0 0 0 0 0 0 0 0 0 0 0 0 0 0 0
0 0 0 0 0 0 0 0 0 0 0 0 0 0 0 0 0 0 0 0 0 0 0 0
0 0 0 0 0 0 0 0 0 0 0 0 0 0 0 0 0 0 0 0 0 0 0 0
0 0 0 0 0 0 0 0 0 0 0 0 0 0 0 0 0 0 0 0 0 0 0 0
0 0 0 0 1 2 0 87 114 140 195 212 131 189 208 25 119 149 0 29 38 0 7 10
0 1 2 0 0 1 0 2 3 0 7 9 0 98 128 53 141 168 0 64 84 0 69 91
152 201 217 177 215 227 56 143 170 0 69 91 0 23 30 0 62 81 68 151 177 149 200 216
164 208 222 164 208 222 169 211 224 147 199 215 7 105 135 0 19 25 0 20 26 0 7 10
0 1 1 0 0 0 0 0 0 0 0 0 0 0 0 0 0 0 0 0 0 0 0 0
0 0 0 0 0 0 0 0 0 0 0 0 0 0 0 0 0 0 0 0 0 0 0 0

0 0 0 0 0 0 0 0 0 0 0 0 0 0 0 0 0 0 0 0 0 0 0 0
0 0 0 0 0 0 0 0 0 0 0 0 0 0 0 0 0 0 0 0 0 0 0 0
0 0 0 0 0 0 0 0 0 0 0 0 0 0 0 0 0 0 0 0 0 0 0 0
0 0 0 0 0 0 0 0 0 0 0 0 0 0 0 0 0 0 0 0 0 0 0 0
0 0 0 0 0 0 0 13 18 81 159 184 167 209 223 172 212 225 107 175 197 0 89 116
0 18 23 0 4 5 0 1 2 0 2 3 0 4 6 0 14 19 0 40 52 26 120 150
16 112 142 0 63 83 0 40 52 0 67 88 68 151 177 149 200 216 167 209 223 164 208 222
177 215 227 174 213 226 167 209 223 172 212 225 145 197 214 10 107 137 0 26 35 0 21 28
0 5 7 0 0 0 0 0 0 0 0 0 0 0 0 0 0 0 0 0 0 0 0 0
0 0 0 0 0 0 0 0 0 0 0 0 0 0 0 0 0 0 0 0 0 0 0 0

0 0 0 0 0 0 0 0 0 0 0 0 0 0 0 0 0 0 0 0 0 0 0 0
0 0 0 0 0 0 0 0 0 0 0 0 0 0 0 0 0 0 0 0 0 0 0 0
0 0 0 0 0 0 0 0 0 0 0 0 0 0 0 0 0 0 0 0 1 0 1 2
0 2 3 0 4 5 0 5 6 0 3 4 0 1 2 0 1 1 0 0 0 0 0 0
0 0 0 0 0 0 0 1 1 0 55 72 138 193 211 159 205 220 167 209 223 182 218 229
58 144 171 0 86 112 0 35 46 0 14 19 0 10 13 0 14 19 0 24 32 0 39 51
0 52 69 0 92 120 61 146 173 129 188 207 167 209 223 167 209 223 169 211 224 167 209 223
177 215 227 167 209 223 164 208 222 172 212 225 164 208 222 133 191 209 0 77 101 0 25 33
0 20 26 0 3 4 0 0 0 0 0 0 0 0 0 0 0 0 0 0 0 0 0 0
0 0 0 0 0 0 0 0 0 0 0 0 0 0 0 0 0 0 0 0 0 0 0 0

0 0 0 0 0 0 0 0 0 0 0 0 0 0 0 0 0 0 0 0 0 0 0 0
0 0 0 0 0 0 0 0 0 0 0 0 0 0 0 0 0 0 0 0 0 0 0 0
0 0 0 0 0 0 0 0 0 0 1 2 0 8 11 0 26 35 0 56 73 0 82 107
3 101 131 26 120 150 32 125 154 7 105 135 0 92 120 0 75 98 0 40 52 0 13 18
0 1 1 0 0 0 0 0 0 0 3 4 17 113 143 159 205 220 167 209 223 174 213 226
167 209 223 147 199 215 99 170 193 61 146 173 58 144 171 56 143 170 63 147 174 68 151 177
99 170 193 140 195 212 162 207 221 164 208 222 169 211 224 167 209 223 174 213 226 167 209 223
172 212 225 167 209 223 169 211 224 164 208 222 164 208 222 113 179 200 0 72 94 0 46 60
0 52 69 0 15 20 0 3 4 0 0 0 0 0 0 0 0 0 0 0 0 0 0 0
0 0 0 0 0 0 0 0 0 0 0 0 0 0 0 0 0 0 0 0 0 0 0 0

0 0 0 0 0 0 0 0 0 0 0 0 0 0 0 0 0 0 0 0 0 0 0 0
0 0 0 0 0 0 0 0 0 0 0 0 0 0 0 0 0 0 0 0 0 0 0 0
0 0 0 0 1 2 0 21 28 0 86 112 66 150 176 120 183 203 129 188 207 140 195 212
152 201 217 162 207 221 164 208 222 152 201 217 142 196 213 135 192 210 122 184 204 105 174 196
0 83 109 0 12 15 0 0 0 0 1 1 0 14 18 46 136 164 177 215 227 157 204 219
167 209 223 169 211 224 169 211 224 164 208 222 167 209 223 169 211 224 174 213 226 174 213 226
174 213 226 172 212 225 164 208 222 167 209 223 172 212 225 174 213 226 172 212 225 164 208 222
174 213 226 169 211 224 169 211 224 162 207 221 91 165 189 0 79 103 0 64 84 36 128 157
9 106 136 0 42 55 0 10 13 0 1 1 0 0 0 0 0 0 0 0 0 0 0 0
0 0 0 0 0 0 0 0 0 0 0 0 0 0 0 0 0 0 0 0 0 0 0 0

0 0 0 0 0 0 0 0 0 0 0 0 0 0 0 0 0 0 0 0 0 0 0 0
0 0 0 0 0 0 0 0 0 0 0 0 0 0 0 0 0 0 0 0 0 0 4 5
0 48 63 40 131 160 142 196 213 172 212 225 172 212 225 164 208 222 169 211 224 177 215 227
169 211 224 169 211 224 169 211 224 167 209 223 167 209 223 167 209 223 162 207 221 157 204 219
164 208 222 89 164 188 0 51 67 0 4 6 0 5 7 0 18 23 23 118 148 135 192 210
167 209 223 162 207 221 169 211 224 174 213 226 167 209 223 174 213 226 164 208 222 167 209 223
164 208 222 162 207 221 169 211 224 172 212 225 162 207 221 169 211 224 174 213 226 169 211 224
162 207 221 167 209 223 140 195 212 27 122 151 0 49 64 0 87 114 120 183 203 149 200 216
42 133 161 0 66 86 0 19 25 0 2 3 0 0 0 0 0 0 0 0 0 0 0 0
0 0 0 0 0 0 0 0 0 0 0 0 0 0 0 0 0 0 0 0 0 0 0 0

0 0 0 0 0 0 0 0 0 0 0 0 0 0 0 0 0 0 0 0 0 0 0 0
0 0 0 0 0 0 0 0 0 0 0 0 0 0 0 0 4 5 0 37 48 27 122 151
129 188 207 172 212 225 164 208 222 169 211 224 172 212 225 167 209 223 169 211 224 172 212 225
167 209 223 172 212 225 174 213 226 177 215 227 172 212 225 169 211 224 167 209 223 169 211 224
167 209 223 164 208 222 105 174 196 0 51 67 0 11 14 0 10 13 0 17 22 0 93 122
118 182 202 169 211 224 174 213 226 164 208 222 174 213 226 164 208 222 169 211 224 167 209 223
169 211 224 169 211 224 167 209 223 167 209 223 169 211 224 169 211 224 162 207 221 174 213 226
118 182 202 55 142 169 0 80 105 0 49 64 51 139 167 140 195 212 154 203 218 91 165 189
16 112 142 0 49 64 0 13 18 0 1 2 0 0 0 0 0 0 0 0 0 0 0 0
0 0 0 0 0 0 0 0 0 0 0 0 0 0 0 0 0 0 0 0 0 0 0 0

0 0 0 0 0 0 0 0 0 0 0 0 0 0 0 0 0 0 0 0 0 0 0 0
0 0 0 0 0 0 0 0 0 0 0 0 0 8 10 0 95 124 103 173 195 154 203 218
172 212 225 162 207 221 172 212 225 172 212 225 169 211 224 164 208 222 174 213 226 177 215 227
172 212 225 172 212 225 174 213 226 174 213 226 172 212 225 174 213 226 172 212 225 169 211 224
172 212 225 169 211 224 174 213 226 77 157 182 0 24 32 0 23 31 0 18 24 0 16 21
0 69 91 61 146 173 149 200 216 169 211 224 164 208 222 169 211 224 164 208 222 164 208 222
169 211 224 169 211 224 164 208 222 169 211 224 169 211 224 152 201 217 91 165 189 37 129 158
0 73 96 0 57 75 2 100 130 75 156 181 184 219 230 124 186 205 66 150 176 13 110 140
0 54 70 0 20 26 0 5 7 0 0 0 0 0 0 0 0 0 0 0 0 0 0 0
0 0 0 0 0 0 0 0 0 0 0 0 0 0 0 0 0 0 0 0 0 0 0 0

0 0 0 0 0 0 0 0 0 0 0 0 0 0 0 0 0 0 0 0 0 0 0 0
0 0 0 0 0 0 0 0 0 0 0 0 0 52 69 145 197 214 164 208 222 169 211 224
174 213 226 164 208 222 172 212 225 172 212 225 174 213 226 169 211 224 172 212 225 167 209 223
174 213 226 174 213 226 172 212 225 174 213 226 167 209 223 169 211 224 172 212 225 174 213 226
177 215 227 174 213 226 174 213 226 164 208 222 0 89 116 0 30 39 0 41 54 0 22 29
0 16 21 0 26 35 0 64 84 25 119 149 91 165 189 140 195 212 169 211 224 169 211 224
172 212 225 159 205 220 124 186 205 70 152 178 21 116 146 0 75 98 0 50 66 0 50 66
4 102 132 85 162 186 147 199 215 131 189 208 83 161 185 37 129 158 0 86 112 0 45 59
0 14 18 0 5 6 0 0 0 0 0 0 0 0 0 0 0 0 0 0 0 0 0 0
0 0 0 0 0 0 0 0 0 0 0 0 0 0 0 0 0 0 0 0 0 0 0 0

0 0 0 0 0 0 0 0 0 0 0 0 0 0 0 0 0 0 0 0 0 0 0 0
0 0 0 0 0 0 0 0 0 0 0 0 0 14 18 60 145 172 167 209 223 167 209 223
174 213 226 174 213 226 172 212 225 164 208 222 162 207 221 169 211 224 172 212 225 169 211 224
172 212 225 162 207 221 169 211 224 169 211 224 174 213 226 174 213 226 172 212 225 157 204 219
162 207 221 172 212 225 157 204 219 169 211 224 103 173 195 0 45 59 0 54 70 0 41 54
0 20 26 0 14 19 0 14 19 0 19 25 0 28 37 0 47 62 0 58 76 0 63 83
0 64 84 0 55 72 0 41 54 0 37 48 0 38 50 0 58 76 0 76 100 5 103 133
58 144 171 70 152 178 48 137 165 27 122 151 0 86 112 0 44 58 0 25 33 0 9 12
0 1 2 0 0 0 0 0 0 0 0 0 0 0 0 0 0 0 0 0 0 0 0 0
0 0 0 0 0 0 0 0 0 0 0 0 0 0 0 0 0 0 0 0 0 0 0 0

0 0 0 0 0 0 0 0 0 0 0 0 0 0 0 0 0 0 0 0 0 0 0 0
0 0 0 0 0 0 0 0 0 0 0 0 0 1 1 0 72 94 140 195 212 177 215 227
164 208 222 174 213 226 172 212 225 169 211 224 169 211 224 169 211 224 172 212 225 167 209 223
142 196 213 113 179 200 103 173 195 91 165 189 103 173 195 131 189 208 162 207 221 172 212 225
164 208 222 167 209 223 164 208 222 162 207 221 131 189 208 0 63 83 0 66 86 0 68 89
0 20 27 0 11 14 0 12 15 0 22 29 0 38 50 0 50 66 0 55 72 0 57 75
0 73 96 0 69 91 0 54 70 0 44 58 0 50 66 0 56 73 0 57 75 0 59 78
0 49 64 0 40 52 0 39 51 0 37 48 0 23 30 0 10 13 0 4 6 0 0 0
0 0 0 0 0 0 0 0 0 0 0 0 0 0 0 0 0 0 0 0 0 0 0 0
0 0 0 0 0 0 0 0 0 0 0 0 0 0 0 0 0 0 0 0 0 0 0 0

0 0 0 0 0 0 0 0 0 0 0 0 0 0 0 0 0 0 0 0 0 0 0 0
0 0 0 0 0 0 0 0 0 0 0 0 0 0 0 0 18 23 74 155 180 172 212 225
169 211 224 164 208 222 172 212 225 174 213 226 157 204 219 174 213 226 138 193 211 63 147 174
5 103 133 0 64 84 0 57 75 0 57 75 0 66 86 0 86 112 32 125 154 120 183 203
169 211 224 162 207 221 167 209 223 169 211 224 126 187 206 0 76 100 0 77 101 5 103 133
0 31 41 0 8 11 0 3 4 0 5 7 0 16 21 0 31 40 0 54 70 0 75 98
0 64 84 0 49 64 0 67 88 17 113 143 66 150 176 87 163 187 103 173 195 109 177 198
77 157 182 51 139 167 0 87 114 0 28 37 0 5 7 0 1 2 0 0 0 0 0 0
0 0 0 0 0 0 0 0 0 0 0 0 0 0 0 0 0 0 0 0 0 0 0 0
0 0 0 0 0 0 0 0 0 0 0 0 0 0 0 0 0 0 0 0 0 0 0 0

0 0 0 0 0 0 0 0 0 0 0 0 0 0 0 0 0 0 0 0 0 0 0 0
0 0 0 0 0 0 0 0 0 0 0 0 0 0 0 0 2 2 0 75 98 129 188 207
169 211 224 164 208 222 167 209 223 164 208 222 159 205 220 46 136 164 0 72 94 0 44 58
0 64 84 6 104 134 36 128 157 42 133 161 11 108 138 0 84 111 0 49 64 0 62 81
93 167 190 174 213 226 167 209 223 167 209 223 138 193 211 0 77 101 0 87 114 39 130 159
0 57 75 0 14 19 0 2 2 0 0 0 0 2 2 0 6 9 0 11 14 0 10 13
0 20 27 4 102 132 109 177 198 154 203 218 159 205 220 169 211 224 167 209 223 172 212 225
174 213 226 159 205 220 138 193 211 89 164 188 0 57 75 0 5 7 0 0 0 0 0 0
0 0 0 0 0 0 0 0 0 0 0 0 0 0 0 0 0 0 0 0 0 0 0 0
0 0 0 0 0 0 0 0 0 0 0 0 0 0 0 0 0 0 0 0 0 0 0 0

0 0 0 0 0 0 0 0 0 0 0 0 0 0 0 0 0 0 0 0 0 0 0 0
0 0 0 0 0 0 0 0 0 0 0 0 0 0 0 0 0 0 0 10 13 53 141 168
164 208 222 162 207 221 135 192 210 45 135 163 0 56 73 0 54 70 9 106 136 81 159 184
169 211 224 133 191 209 83 161 185 53 141 168 29 123 152 9 106 136 1 99 129 0 48 63
0 48 63 87 163 187 167 209 223 169 211 224 138 193 211 0 89 116 0 95 124 66 150 176
0 77 101 0 20 26 0 2 3 0 0 0 0 0 0 0 0 0 0 1 2 0 21 28
63 147 174 145 197 214 167 209 223 167 209 223 164 208 222 174 213 226 169 211 224 169 211 224
177 215 227 177 215 227 169 211 224 177 215 227 147 199 215 40 131 160 0 26 34 0 4 6
0 1 1 0 0 0 0 0 0 0 0 0 0 0 0 0 0 0 0 0 0 0 0 0
0 0 0 0 0 0 0 0 0 0 0 0 0 0 0 0 0 0 0 0 0 0 0 0

0 0 0 0 0 0 0 0 0 0 0 0 0 0 0 0 0 0 0 0 0 0 0 0
0 0 0 0 0 0 0 0 0 0 0 0 0 0 0 0 0 0 0 0 0 0 46 60
147 199 215 66 150 176 0 83 109 0 49 64 4 102 132 103 173 195 162 207 221 120 183 203
75 156 181 29 123 152 0 98 128 0 67 88 0 47 62 0 38 50 0 34 45 0 31 41
0 12 16 16 112 142 164 208 222 172 212 225 133 191 209 0 80 105 0 95 124 89 164 188
0 93 122 0 26 34 0 4 5 0 0 0 0 0 0 0 0 0 0 23 31 51 139 167
164 208 222 167 209 223 167 209 223 169 211 224 169 211 224 169 211 224 167 209 223 172 212 225
159 205 220 164 208 222 167 209 223 174 213 226 159 205 220 157 204 219 65 149 175 0 34 45
0 5 6 0 3 4 0 0 0 0 0 0 0 0 0 0 0 0 0 0 0 0 0 0
0 0 0 0 0 0 0 0 0 0 0 0 0 0 0 0 0 0 0 0 0 0 0 0

0 0 0 0 0 0 0 0 0 0 0 0 0 0 0 0 0 0 0 0 0 0 0 0
0 0 0 0 0 0 0 0 0 0 0 0 0 0 0 0 0 0 0 0 0 0 4 6
0 84 111 0 35 46 0 43 56 23 118 148 145 197 214 135 192 210 83 161 185 32 125 154
0 87 114 0 52 69 0 32 42 0 18 24 0 10 13 0 6 8 0 6 9 0 5 7
0 4 6 0 80 105 152 201 217 159 205 220 129 188 207 0 68 89 14 111 141 99 170 193
0 95 124 0 29 38 0 5 7 0 0 0 0 0 0 0 16 21 39 130 159 154 203 218
172 212 225 169 211 224 169 211 224 174 213 226 167 209 223 167 209 223 167 209 223 172 212 225
164 208 222 107 175 197 81 159 184 83 161 185 122 184 204 164 208 222 169 211 224 66 150 176
0 23 31 0 10 13 0 5 7 0 1 2 0 0 0 0 0 0 0 0 0 0 0 0
0 0 0 0 0 0 0 0 0 0 0 0 0 0 0 0 0 0 0 0 0 0 0 0

0 0 0 0 0 0 0 0 0 0 0 0 0 0 0 0 0 0 0 0 0 0 0 0
0 0 0 0 0 0 0 0 0 0 0 0 0 0 0 0 0 0 0 0 0 0 0 0
0 3 4 0 11 14 0 58 76 36 128 157 85 162 186 43 134 162 3 101 131 0 58 76
0 28 37 0 14 19 0 5 7 0 1 1 0 0 0 0 0 0 0 0 0 0 0 0
0 1 1 0 82 107 154 203 218 167 209 223 91 165 189 0 47 62 61 146 173 113 179 200
0 90 118 0 27 36 0 4 5 0 0 0 0 3 4 9 106 136 149 200 216 164 208 222
164 208 222 172 212 225 174 213 226 169 211 224 169 211 224 177 215 227 169 211 224 97 169 192
0 89 116 0 46 60 0 46 60 0 43 56 0 62 81 27 122 151 133 191 209 159 205 220
22 117 147 0 22 29 0 17 22 0 6 8 0 0 1 0 0 0 0 0 0 0 0 0
0 0 0 0 0 0 0 0 0 0 0 0 0 0 0 0 0 0 0 0 0 0 0 0

0 0 0 0 0 0 0 0 0 0 0 0 0 0 0 0 0 0 0 0 0 0 0 0
0 0 0 0 0 0 0 0 0 0 0 0 0 0 0 0 0 0 0 0 0 0 0 0
0 0 0 0 7 9 0 30 39 0 69 91 0 93 122 0 57 75 0 26 35 0 10 13
0 2 3 0 0 1 0 0 0 0 0 0 0 0 0 0 0 0 0 0 0 0 0 0
0 5 7 27 122 151 164 208 222 164 208 222 7 105 135 0 51 67 97 169 192 93 167 190
0 87 114 0 23 30 0 3 4 0 0 0 0 72 94 140 195 212 162 207 221 172 212 225
164 208 222 167 209 223 169 211 224 169 211 224 172 212 225 154 203 218 45 135 163 0 55 72
0 80 105 29 123 152 61 146 173 48 137 165 0 98 128 0 43 56 0 84 111 113 179 200
135 192 210 0 87 114 0 25 33 0 26 34 0 5 7 0 0 0 0 0 0 0 0 0
0 0 0 0 0 0 0 0 0 0 0 0 0 0 0 0 0 0 0 0 0 0 0 0

0 0 0 0 0 0 0 0 0 0 0 0 0 0 0 0 0 0 0 0 0 0 0 0
0 0 0 0 0 0 0 0 0 0 0 0 0 0 0 0 0 0 0 0 0 0 0 0
0 0 0 0 1 1 0 10 13 0 23 31 0 28 37 0 15 20 0 4 6 0 1 1
0 0 0 0 0 0 0 0 0 0 0 0 0 0 0 0 0 0 0 0 0 0 1 2
0 62 81 115 180 201 159 205 220 118 182 202 0 39 51 0 83 109 115 180 201 79 158 183
0 69 91 0 18 24 0 1 2 0 12 16 87 163 187 167 209 223 169 211 224 167 209 223
172 212 225 167 209 223 167 209 223 167 209 223 167 209 223 55 142 169 0 64 84 22 117 147
157 204 219 157 204 219 101 172 194 53 141 168 19 115 145 0 75 98 0 29 38 14 111 141
162 207 221 65 149 175 0 44 58 0 44 58 0 20 27 0 3 4 0 0 0 0 0 0
0 0 0 0 0 0 0 0 0 0 0 0 0 0 0 0 0 0 0 0 0 0 0 0

0 0 0 0 0 0 0 0 0 0 0 0 0 0 0 0 0 0 0 0 0 0 0 0
0 0 0 0 0 0 0 0 0 0 0 0 0 0 0 0 0 0 0 0 0 0 0 0
0 0 0 0 0 0 0 2 3 0 5 6 0 4 5 0 1 2 0 0 0 0 0 0
0 0 0 0 0 0 0 0 0 0 0 0 0 0 0 0 1 1 0 18 23 0 83 109
109 177 198 167 209 223 145 197 214 13 110 140 0 24 32 29 123 152 115 180 201 56 143 170
0 45 59 0 11 14 0 3 4 0 75 98 159 205 220 167 209 223 169 211 224 172 212 225
169 211 224 169 211 224 172 212 225 174 213 226 85 162 186 0 64 84 19 115 145 164 208 222
140 195 212 75 156 181 21 116 146 0 73 96 0 43 56 0 32 42 0 12 16 0 28 37
124 186 205 131 189 208 0 87 114 0 38 50 0 51 67 0 14 18 0 2 2 0 0 0
0 0 0 0 0 0 0 0 0 0 0 0 0 0 0 0 0 0 0 0 0 0 0 0

0 0 0 0 0 0 0 0 0 0 0 0 0 0 0 0 0 0 0 0 0 0 0 0
0 0 0 0 0 0 0 0 0 0 0 0 0 0 0 0 0 0 0 0 0 0 0 0
0 0 0 0 0 0 0 0 0 0 0 0 0 14 19 0 26 34 0 8 10 0 1 2
0 1 1 0 1 1 0 2 3 0 9 11 0 31 41 1 99 129 74 155 180 142 196 213
164 208 222 169 211 224 63 147 174 0 28 37 0 57 75 66 150 176 95 168 191 19 115 145
0 30 39 0 5 7 0 17 22 74 155 180 162 207 221 167 209 223 174 213 226 172 212 225
172 212 225 167 209 223 169 211 224 169 211 224 0 87 114 0 86 112 140 195 212 159 205 220
66 150 176 4 102 132 0 55 72 0 23 31 0 9 12 0 5 7 0 3 4 0 4 5
26 120 150 164 208 222 43 134 162 0 28 37 0 76 100 0 32 42 0 7 9 0 0 1
0 0 0 0 0 0 0 0 0 0 0 0 0 0 0 0 0 0 0 0 0 0 0 0

0 0 0 0 0 0 0 0 0 0 0 0 0 0 0 0 0 0 0 0 0 0 0 0
0 0 0 0 0 0 0 0 0 0 0 0 0 0 0 0 0 0 0 0 0 0 0 0
0 0 0 0 0 0 0 0 0 0 0 0 0 21 28 87 163 187 111 178 199 61 146 173
46 136 164 46 136 164 70 152 178 118 182 202 174 213 226 167 209 223 167 209 223 167 209 223
159 205 220 74 155 180 0 40 52 0 37 48 33 126 155 85 162 186 43 134 162 0 69 91
0 13 18 0 6 8 0 95 124 138 193 211 164 208 222 162 207 221 172 212 225 162 207 221
169 211 224 169 211 224 162 207 221 51 139 167 0 46 60 91 165 189 162 207 221 95 168 191
1 99 129 0 42 55 0 13 17 0 2 3 0 0 0 0 0 0 0 0 0 0 0 0
0 47 62 126 187 206 111 178 199 0 51 67 0 63 83 0 71 93 0 20 26 0 2 2
0 0 0 0 0 0 0 0 0 0 0 0 0 0 0 0 0 0 0 0 0 0 0 0

0 0 0 0 0 0 0 0 0 0 0 0 0 0 0 0 0 0 0 0 0 0 0 0
0 0 0 0 0 0 0 0 0 0 0 0 0 0 0 0 0 0 0 0 0 0 0 0
0 0 0 0 0 0 0 0 0 0 0 0 0 4 6 25 119 149 159 205 220 169 211 224
172 212 225 172 212 225 164 208 222 167 209 223 172 212 225 172 212 225 167 209 223 162 207 221
63 147 174 0 54 70 0 47 62 19 115 145 81 159 184 61 146 173 0 95 124 0 34 45
0 4 5 0 29 38 77 157 182 157 204 219 172 212 225 167 209 223 164 208 222 162 207 221
174 213 226 164 208 222 113 179 200 0 61 80 18 114 144 184 219 230 122 184 204 29 123 152
0 49 64 0 14 19 0 2 3 0 0 0 0 0 0 0 0 0 0 0 0 0 0 0
0 15 20 77 157 182 145 197 214 0 93 122 0 47 62 4 102 132 0 38 50 0 6 9
0 0 0 0 0 0 0 0 0 0 0 0 0 0 0 0 0 0 0 0 0 0 0 0

0 0 0 0 0 0 0 0 0 0 0 0 0 0 0 0 0 0 0 0 0 0 0 0
0 0 0 0 0 0 0 0 0 0 0 0 0 0 0 0 0 0 0 0 0 0 0 0
0 0 0 0 0 0 0 0 0 0 0 0 0 1 1 0 68 89 138 193 211 169 211 224
179 216 228 172 212 225 164 208 222 174 213 226 169 211 224 174 213 226 124 186 205 39 130 159
0 48 63 0 67 88 53 141 168 103 173 195 83 161 185 16 112 142 0 48 63 0 10 13
0 5 7 12 109 139 149 200 216 169 211 224 174 213 226 169 211 224 172 212 225 174 213 226
167 209 223 149 200 216 18 114 144 0 55 72 159 205 220 147 199 215 68 151 177 0 80 105
0 21 28 0 3 4 0 0 0 0 0 0 0 0 0 0 0 0 0 0 0 0 0 0
0 6 8 46 136 164 162 207 221 39 130 159 0 33 44 11 108 138 0 61 80 0 14 18
0 1 1 0 0 0 0 0 0 0 0 0 0 0 0 0 0 0 0 0 0 0 0 0

0 0 0 0 0 0 0 0 0 0 0 0 0 0 0 0 0 0 0 0 0 0 0 0
0 0 0 0 0 0 0 0 0 0 0 0 0 0 0 0 0 0 0 0 0 0 0 0
0 0 0 0 0 0 0 0 0 0 0 0 0 0 0 0 25 33 95 168 191 164 208 222
172 212 225 162 207 221 169 211 224 167 209 223 162 207 221 172 212 225 55 142 169 0 29 38
0 44 58 46 136 164 129 188 207 93 167 190 16 112 142 0 55 72 0 14 19 0 2 2
0 64 84 118 182 202 172 212 225 174 213 226 169 211 224 172 212 225 167 209 223 167 209 223
159 205 220 85 162 186 0 57 75 42 133 161 190 222 232 111 178 199 19 115 145 0 43 56
0 10 13 0 0 1 0 0 0 0 0 0 0 0 0 0 0 0 0 0 0 0 0 0
0 4 5 33 126 155 162 207 221 83 161 185 0 32 42 2 100 130 0 84 111 0 23 31
0 2 2 0 0 0 0 0 0 0 0 0 0 0 0 0 0 0 0 0 0 0 0 0

0 0 0 0 0 0 0 0 0 0 0 0 0 0 0 0 2 2 0 5 7 0 0 0
0 0 0 0 0 0 0 0 0 0 0 0 0 0 0 0 0 0 0 0 0 0 0 0
0 0 0 0 0 0 0 0 0 0 0 0 0 0 0 0 6 8 43 134 162 167 209 223
174 213 226 169 211 224 164 208 222 169 211 224 177 215 227 164 208 222 126 187 206 48 137 165
0 82 107 0 42 55 0 59 78 0 76 100 0 39 51 0 13 18 0 7 10 0 69 91
138 193 211 167 209 223 164 208 222 169 211 224 179 216 228 167 209 223 177 215 227 167 209 223
131 189 208 0 75 98 0 92 120 152 201 217 122 184 204 39 130 159 0 63 83 0 18 24
0 1 1 0 0 0 0 0 0 0 0 0 0 0 0 0 0 0 0 0 0 0 0 0
0 2 3 34 127 156 167 209 223 131 189 208 0 42 55 0 80 105 13 110 140 0 38 50
0 5 7 0 0 0 0 0 0 0 0 0 0 0 0 0 0 0 0 0 0 0 0 0

0 0 0 0 0 0 0 0 0 0 0 0 0 0 0 0 6 8 0 18 24 0 0 0
0 1 2 0 3 4 0 2 3 0 0 0 0 0 0 0 0 0 0 0 0 0 0 0
0 0 0 0 0 0 0 0 0 0 0 0 0 0 0 0 1 2 0 86 112 145 197 214
167 209 223 167 209 223 169 211 224 169 211 224 167 209 223 164 208 222 164 208 222 164 208 222
152 201 217 61 146 173 0 86 112 0 43 56 0 25 33 0 40 52 12 109 139 122 184 204
167 209 223 167 209 223 174 213 226 162 207 221 174 213 226 169 211 224 167 209 223 149 200 216
12 109 139 0 58 76 83 161 185 157 204 219 75 156 181 0 90 118 0 33 44 0 7 9
0 0 0 0 0 0 0 0 0 0 0 0 0 0 0 0 0 0 0 0 0 0 0 0
0 3 4 33 126 155 172 212 225 162 207 221 0 50 66 0 73 96 30 124 153 0 55 72
0 9 12 0 0 0 0 0 0 0 0 0 0 0 0 0 0 0 0 0 0 0 0 0

0 0 0 0 0 0 0 0 0 0 0 0 0 0 0 0 11 14 0 40 52 0 1 2
0 6 8 0 9 12 0 7 10 0 1 1 0 0 0 0 0 0 0 0 0 0 0 0
0 0 0 0 0 0 0 0 0 0 0 0 0 0 0 0 0 0 0 36 47 126 187 206
169 211 224 174 213 226 169 211 224 172 212 225 174 213 226 169 211 224 169 211 224 164 208 222
174 213 226 169 211 224 135 192 210 83 161 185 75 156 181 101 172 194 142 196 213 172 212 225
167 209 223 174 213 226 167 209 223 169 211 224 169 211 224 172 212 225 133 191 209 21 116 146
0 52 69 56 143 170 164 208 222 120 183 203 19 115 145 0 48 63 0 13 18 0 2 2
0 0 0 0 0 0 0 0 0 0 0 0 0 0 0 0 0 0 0 0 0 0 0 0
0 4 5 37 129 158 167 209 223 162 207 221 0 61 80 0 79 103 46 136 164 0 71 93
0 13 18 0 1 2 0 0 0 0 0 0 0 0 0 0 0 0 0 0 0 0 0 0

0 0 0 0 0 0 0 0 0 0 0 0 0 0 0 0 8 11 0 61 80 0 6 8
0 10 13 0 20 26 0 14 19 0 3 4 0 0 0 0 0 0 0 0 0 0 0 0
0 0 0 0 0 0 0 0 0 0 0 0 0 0 0 0 0 0 0 8 11 65 149 175
174 213 226 157 204 219 167 209 223 177 215 227 172 212 225 164 208 222 164 208 222 167 209 223
162 207 221 169 211 224 159 205 220 179 216 228 159 205 220 157 204 219 149 200 216 164 208 222
169 211 224 159 205 220 167 209 223 174 213 226 157 204 219 66 150 176 0 82 107 0 50 66
66 150 176 164 208 222 142 196 213 60 145 172 0 75 98 0 22 29 0 5 6 0 0 0
0 0 0 0 0 0 0 0 0 0 0 0 0 0 0 0 0 0 0 0 0 0 0 0
0 6 9 51 139 167 167 209 223 172 212 225 0 84 111 0 64 84 51 139 167 0 84 111
0 18 23 0 2 2 0 0 0 0 0 0 0 0 0 0 0 0 0 0 0 0 0 0

0 0 0 0 0 0 0 0 0 0 0 0 0 0 0 0 4 6 0 95 124 0 23 31
0 10 13 0 29 38 0 24 32 0 6 8 0 0 0 0 0 0 0 0 0 0 0 0
0 0 0 0 0 0 0 0 0 0 0 0 0 0 0 0 0 0 0 0 0 0 64 84
21 116 146 0 76 100 0 61 80 0 54 70 0 56 73 0 77 101 23 118 148 113 179 200
157 204 219 172 212 225 169 211 224 167 209 223 167 209 223 91 165 189 0 61 80 0 55 72
0 82 107 0 95 124 0 89 116 0 62 81 0 45 59 0 43 56 0 95 124 131 189 208
167 209 223 118 182 202 45 135 163 0 83 109 0 27 36 0 5 7 0 0 0 0 0 0
0 0 0 0 0 0 0 0 0 0 0 0 0 0 0 0 0 0 0 0 0 0 0 0
0 23 30 95 168 191 167 209 223 174 213 226 3 101 131 0 45 59 46 136 164 2 100 130
0 23 30 0 3 4 0 0 0 0 0 0 0 0 0 0 0 0 0 0 0 0 0 0

0 0 0 0 0 0 0 0 0 0 0 0 0 0 0 0 4 5 23 118 148 0 61 80
0 9 11 0 36 47 0 32 42 0 6 9 0 0 0 0 0 0 0 0 0 0 0 0
0 0 0 0 0 0 0 0 0 0 0 0 0 0 0 0 0 0 0 0 0 0 3 4
0 6 8 0 11 14 0 39 51 0 82 107 3 101 131 0 80 105 0 55 72 0 55 72
34 127 156 131 189 208 169 211 224 169 211 224 167 209 223 105 174 196 0 61 80 0 33 44
0 63 83 0 54 70 0 66 86 0 95 124 0 84 111 29 123 152 109 177 198 118 182 202
70 152 178 25 119 149 0 76 100 0 33 44 0 7 10 0 1 1 0 0 0 0 0 0
0 0 0 0 0 0 0 0 0 0 0 0 0 0 0 0 0 0 0 0 0 0 0 0
0 61 80 152 201 217 169 211 224 164 208 222 3 101 131 0 48 63 53 141 168 10 107 137
0 27 36 0 4 5 0 0 0 0 0 0 0 0 0 0 0 0 0 0 0 0 0 0

0 0 0 0 0 0 0 0 0 0 0 0 0 0 0 0 3 4 21 116 146 25 119 149
0 9 12 0 37 48 0 41 54 0 13 18 0 0 0 0 0 0 0 0 0 0 0 0
0 0 0 0 0 0 0 0 0 0 0 0 0 0 0 0 0 0 0 0 0 0 0 0
0 1 1 0 16 21 0 62 81 23 118 148 45 135 163 36 128 157 0 98 128 0 58 76
0 38 50 3 101 131 129 188 207 172 212 225 167 209 223 154 203 218 29 123 152 0 48 63
74 155 180 46 136 164 36 128 157 30 124 153 0 48 63 0 55 72 12 109 139 13 110 140
0 84 111 0 51 67 0 23 30 0 7 10 0 1 1 0 0 0 0 0 0 0 0 0
0 0 0 0 0 0 0 0 0 0 0 0 0 0 0 0 0 0 0 0 0 0 1 2
32 125 154 169 211 224 169 211 224 169 211 224 9 106 136 0 48 63 60 145 172 16 112 142
0 31 40 0 5 6 0 0 0 0 0 0 0 0 0 0 0 0 0 0 0 0 0 0

0 0 0 0 0 0 0 0 0 0 0 0 0 0 0 0 1 1 0 82 107 85 162 186
0 24 32 0 28 37 0 50 66 0 25 33 0 2 2 0 0 0 0 0 0 0 0 0
0 0 0 0 0 0 0 0 0 0 0 0 0 0 0 0 0 0 0 0 0 0 0 0
0 0 0 0 6 8 0 26 34 0 52 69 0 66 86 0 56 73 0 45 59 0 41 54
0 34 45 0 23 31 5 103 133 152 201 217 174 213 226 172 212 225 111 178 199 0 50 66
18 114 144 33 126 155 0 98 128 0 52 69 0 19 25 0 23 31 0 33 44 0 41 54
0 25 33 0 14 18 0 5 6 0 0 1 0 0 0 0 0 0 0 0 0 0 0 0
0 0 0 0 0 0 0 0 0 0 0 0 0 0 0 0 0 0 0 0 0 0 20 27
120 183 203 172 212 225 169 211 224 167 209 223 4 102 132 0 56 73 72 153 179 21 116 146
0 34 45 0 6 8 0 0 0 0 0 0 0 0 0 0 0 0 0 0 0 0 0 0

0 0 0 0 0 0 0 0 0 0 0 0 0 0 0 0 0 0 0 48 63 126 187 206
0 89 116 0 23 31 0 59 78 0 34 45 0 5 7 0 0 0 0 0 0 0 0 0
0 0 0 0 0 0 0 0 0 0 0 0 0 0 0 0 0 0 0 0 0 0 0 0
0 0 0 0 1 2 0 6 8 0 12 16 0 12 16 0 7 9 0 6 8 0 6 8
0 6 8 0 7 9 0 20 27 93 167 190 172 212 225 172 212 225 167 209 223 7 105 135
0 56 73 16 112 142 0 59 78 0 12 15 0 29 38 0 29 38 0 8 10 0 12 15
0 9 12 0 4 5 0 0 0 0 0 0 0 0 0 0 0 0 0 0 0 0 0 0
0 0 0 0 0 0 0 0 0 0 0 0 0 0 0 0 0 0 0 6 8 19 115 145
167 209 223 172 212 225 172 212 225 167 209 223 0 82 107 0 92 120 107 175 197 29 123 152
0 38 50 0 7 10 0 0 0 0 0 0 0 0 0 0 0 0 0 0 0 0 0 0

0 0 0 0 0 0 0 0 0 0 0 0 0 0 0 0 0 0 0 23 31 105 174 196
72 153 179 0 36 47 0 54 70 0 54 70 0 11 15 0 1 2 0 0 0 0 0 0
0 0 0 0 0 0 0 0 0 0 0 0 0 0 0 0 0 0 0 0 0 0 0 0
0 0 0 0 0 0 0 0 0 0 1 1 0 1 1 0 0 0 0 0 0 0 0 0
0 0 0 0 1 1 0 3 4 16 112 142 162 207 221 172 212 225 169 211 224 53 141 168
0 40 52 6 104 134 0 55 72 0 8 11 0 36 47 0 66 86 0 3 4 0 7 10
0 9 11 0 5 6 0 0 1 0 0 0 0 0 0 0 0 0 0 0 0 0 0 0
0 0 0 0 0 0 0 0 0 0 0 0 0 0 0 0 2 3 0 63 83 131 189 208
167 209 223 172 212 225 172 212 225 164 208 222 0 63 83 7 105 135 131 189 208 26 120 150
0 37 48 0 7 10 0 0 0 0 0 0 0 0 0 0 0 0 0 0 0 0 0 0

0 0 0 0 0 0 0 0 0 0 0 0 0 0 0 0 0 0 0 10 13 77 157 182
135 192 210 0 90 118 0 40 52 0 75 98 0 21 28 0 4 5 0 0 0 0 0 0
0 0 0 0 0 0 0 0 0 0 0 0 0 0 0 0 0 0 0 0 0 0 0 0
0 0 0 0 0 0 0 0 0 0 0 0 0 0 0 0 0 0 0 0 0 0 0 0
0 0 0 0 0 0 0 1 1 0 90 118 157 204 219 172 212 225 169 211 224 97 169 192
0 41 54 3 101 131 0 73 96 0 11 15 0 46 60 45 135 163 0 15 20 0 10 13
0 16 22 0 11 15 0 1 2 0 0 0 0 0 0 0 0 0 0 0 0 0 0 0
0 0 0 0 0 0 0 0 0 0 0 0 0 1 1 0 55 72 93 167 190 167 209 223
172 212 225 164 208 222 167 209 223 135 192 210 0 48 63 32 125 154 126 187 206 17 113 143
0 32 42 0 6 8 0 0 0 0 0 0 0 0 0 0 0 0 0 0 0 0 0 0

0 0 0 0 0 0 0 0 0 0 0 0 0 0 0 0 0 0 0 2 3 17 113 143
154 203 218 79 158 183 0 47 62 0 59 78 0 39 51 0 7 10 0 0 0 0 0 0
0 0 0 0 0 0 0 0 0 0 0 0 0 0 0 0 0 0 0 0 0 0 0 0
0 0 0 0 0 0 0 0 0 0 0 0 0 0 0 0 0 0 0 0 0 0 0 0
0 0 0 0 0 0 0 0 0 0 86 112 162 207 221 167 209 223 169 211 224 149 200 216
0 52 69 0 90 118 5 103 133 0 17 22 0 52 69 118 182 202 0 90 118 0 13 18
0 31 41 0 20 26 0 4 5 0 0 0 0 0 0 0 0 0 0 0 0 0 0 0
0 0 0 0 0 0 0 0 0 0 0 1 0 62 81 97 169 192 167 209 223 174 213 226
172 212 225 179 216 228 164 208 222 77 157 182 0 41 54 65 149 175 109 177 198 7 105 135
0 27 36 0 5 6 0 0 0 0 0 0 0 0 0 0 0 0 0 0 0 0 0 0

0 0 0 0 0 0 0 0 0 0 0 0 0 0 0 0 0 0 0 0 0 0 43 56
159 205 220 147 199 215 40 131 160 0 36 47 0 59 78 0 23 31 0 2 3 0 0 0
0 0 0 0 0 0 0 0 0 0 0 0 0 0 0 0 0 0 0 0 0 0 0 0
0 0 0 0 0 0 0 0 0 0 0 0 0 0 0 0 0 0 0 0 0 0 0 0
0 0 0 0 0 0 0 1 1 4 102 132 167 209 223 164 208 222 172 212 225 174 213 226
0 68 89 0 75 98 26 120 150 0 26 35 0 49 64 135 192 210 126 187 206 10 107 137
0 23 30 0 14 18 0 6 9 0 0 1 0 0 0 0 0 0 0 0 0 0 0 0
0 0 0 0 1 1 0 13 17 7 105 135 149 200 216 164 208 222 167 209 223 177 215 227
167 209 223 164 208 222 162 207 221 17 113 143 0 61 80 138 193 211 87 163 187 0 89 116
0 19 25 0 2 3 0 0 0 0 0 0 0 0 0 0 0 0 0 0 0 0 0 0

0 0 0 0 0 0 0 0 0 0 0 0 0 0 0 0 0 0 0 0 0 0 10 13
95 168 191 172 212 225 135 192 210 0 98 128 0 31 40 0 35 46 0 11 15 0 0 1
0 0 0 0 0 0 0 0 0 0 0 0 0 0 0 0 0 0 0 0 0 0 0 0
0 0 0 0 0 0 0 0 0 0 0 0 0 0 0 0 0 0 0 0 0 0 0 0
0 0 0 0 0 0 0 7 9 58 144 171 167 209 223 174 213 226 169 211 224 172 212 225
0 79 103 0 69 91 43 134 162 0 43 56 0 32 42 99 170 193 167 209 223 162 207 221
45 135 163 0 69 91 0 21 28 0 7 10 0 3 4 0 4 5 0 6 8 0 8 11
0 31 40 0 83 109 68 151 177 154 203 218 162 207 221 167 209 223 172 212 225 172 212 225
172 212 225 167 209 223 142 196 213 0 72 94 9 106 136 179 216 228 65 149 175 0 72 94
0 13 18 0 1 2 0 0 0 0 0 0 0 0 0 0 0 0 0 0 0 0 0 0

0 0 0 0 0 0 0 0 0 0 0 0 0 0 0 0 0 0 0 0 0 0 0 0
19 115 145 167 209 223 167 209 223 120 183 203 0 50 66 0 28 37 0 23 30 0 5 6
0 0 0 0 0 0 0 0 0 0 0 0 0 0 0 0 0 0 0 0 0 0 0 0
0 0 0 0 0 0 0 0 0 0 0 0 0 0 0 0 0 0 0 0 0 0 0 0
0 0 0 0 0 1 0 40 52 120 183 203 164 208 222 169 211 224 174 213 226 169 211 224
0 82 107 0 77 101 61 146 173 0 67 88 0 18 24 58 144 171 167 209 223 167 209 223
157 204 219 122 184 204 72 153 179 48 137 165 36 128 157 37 129 158 42 133 161 56 143 170
99 170 193 147 199 215 174 213 226 172 212 225 169 211 224 169 211 224 172 212 225 164 208 222
167 209 223 167 209 223 61 146 173 0 39 51 81 159 184 140 195 212 39 130 159 0 54 70
0 8 11 0 0 0 0 0 0 0 0 0 0 0 0 0 0 0 0 0 0 0 0 0

0 0 0 0 0 0 0 0 0 0 0 0 0 0 0 0 0 0 0 0 0 0 0 0
0 47 62 133 191 209 172 212 225 169 211 224 91 165 189 0 44 58 0 23 31 0 12 16
0 1 2 0 0 0 0 0 0 0 0 0 0 0 0 0 0 0 0 0 0 0 0 0
0 0 0 0 0 0 0 0 0 0 0 0 0 0 0 0 0 0 0 0 0 0 0 0
0 0 0 0 9 11 25 119 149 154 203 218 159 205 220 162 207 221 174 213 226 177 215 227
0 76 100 0 77 101 75 156 181 1 99 129 0 13 17 19 115 145 174 213 226 162 207 221
162 207 221 169 211 224 172 212 225 167 209 223 167 209 223 167 209 223 167 209 223 169 211 224
167 209 223 167 209 223 169 211 224 167 209 223 172 212 225 167 209 223 167 209 223 172 212 225
174 213 226 145 197 214 2 100 130 0 64 84 198 226 235 109 177 198 14 111 141 0 40 52
0 4 6 0 0 0 0 0 0 0 0 0 0 0 0 0 0 0 0 0 0 0 0 0

0 0 0 0 0 0 0 0 0 0 0 0 0 0 0 0 0 0 0 0 0 0 0 0
0 6 8 37 129 158 167 209 223 164 208 222 172 212 225 99 170 193 0 55 72 0 20 26
0 6 8 0 1 1 0 0 0 0 0 0 0 0 0 0 0 0 0 0 0 0 0 0
0 0 0 0 0 0 0 0 0 0 0 0 0 0 0 0 0 0 0 0 0 0 0 0
0 6 9 7 105 135 140 195 212 164 208 222 177 215 227 172 212 225 159 205 220 174 213 226
0 72 94 3 101 131 105 174 196 6 104 134 0 15 20 0 55 72 113 179 200 172 212 225
172 212 225 169 211 224 169 211 224 169 211 224 172 212 225 174 213 226 174 213 226 174 213 226
174 213 226 174 213 226 164 208 222 169 211 224 172 212 225 174 213 226 164 208 222 169 211 224
162 207 221 65 149 175 0 48 63 75 156 181 164 208 222 68 151 177 0 79 103 0 23 30
0 1 2 0 0 0 0 0 0 0 0 0 0 0 0 0 0 0 0 0 0 0 0 0

0 0 0 0 0 0 0 0 0 0 0 0 0 0 0 0 0 0 0 0 0 0 0 0
0 0 1 0 47 62 107 175 197 169 211 224 164 208 222 177 215 227 99 170 193 0 76 100
0 14 18 0 4 5 0 0 0 0 0 0 0 0 0 0 0 0 0 0 0 0 0 0
0 0 0 0 0 0 0 0 0 0 0 0 0 0 0 0 0 0 0 0 0 0 7 9
5 103 133 120 183 203 174 213 226 167 209 223 164 208 222 167 209 223 172 212 225 157 204 219
0 54 70 27 122 151 124 186 205 6 104 134 0 23 30 0 15 20 48 137 165 152 201 217
172 212 225 172 212 225 172 212 225 169 211 224 172 212 225 177 215 227 174 213 226 174 213 226
174 213 226 172 212 225 169 211 224 169 211 224 164 208 222 169 211 224 169 211 224 174 213 226
113 179 200 0 75 98 9 106 136 179 216 228 113 179 200 30 124 153 0 48 63 0 11 15
0 0 0 0 0 0 0 0 0 0 0 0 0 0 0 0 0 0 0 0 0 0 0 0

0 0 0 0 0 0 0 0 0 0 0 0 0 0 0 0 0 0 0 0 0 0 0 0
0 0 0 0 6 9 22 117 147 162 207 221 157 204 219 169 211 224 172 212 225 122 184 204
37 129 158 0 34 45 0 5 6 0 0 0 0 0 0 0 0 0 0 0 0 0 0 0
0 0 0 0 0 0 0 0 0 0 0 0 0 0 0 0 3 4 0 31 41 21 116 146
142 196 213 172 212 225 172 212 225 177 215 227 164 208 222 169 211 224 164 208 222 115 180 201
0 45 59 48 137 165 113 179 200 6 104 134 0 23 30 0 5 6 0 55 72 133 191 209
162 207 221 159 205 220 169 211 224 169 211 224 172 212 225 174 213 226 172 212 225 172 212 225
174 213 226 172 212 225 167 209 223 174 213 226 157 204 219 174 213 226 169 211 224 147 199 215
0 93 122 0 75 98 118 182 202 169 211 224 66 150 176 0 87 114 0 27 36 0 5 7
0 0 0 0 0 0 0 0 0 0 0 0 0 0 0 0 0 0 0 0 0 0 0 0

0 0 0 0 0 0 0 0 0 0 0 0 0 0 0 0 0 0 0 0 0 0 0 0
0 0 0 0 0 0 0 32 42 99 170 193 174 213 226 169 211 224 164 208 222 164 208 222
152 201 217 95 168 191 14 111 141 0 41 54 0 11 14 0 3 4 0 1 1 0 0 0
0 0 0 0 0 1 0 2 3 0 8 11 0 47 62 29 123 152 103 173 195 152 201 217
164 208 222 162 207 221 172 212 225 172 212 225 164 208 222 167 209 223 172 212 225 60 145 172
0 46 60 97 169 192 99 170 193 0 96 126 0 21 28 0 2 3 0 7 10 21 116 146
169 211 224 169 211 224 164 208 222 174 213 226 174 213 226 172 212 225 169 211 224 169 211 224
169 211 224 169 211 224 164 208 222 164 208 222 179 216 228 164 208 222 145 197 214 18 114 144
0 52 69 79 158 183 167 209 223 109 177 198 18 114 144 0 44 58 0 12 16 0 1 2
0 0 0 0 0 0 0 0 0 0 0 0 0 0 0 0 0 0 0 0 0 0 0 0

0 0 0 0 0 0 0 0 0 0 0 0 0 0 0 0 0 0 0 0 0 0 0 0
0 0 0 0 0 0 0 1 1 0 64 84 131 189 208 159 205 220 167 209 223 167 209 223
172 212 225 169 211 224 174 213 226 177 215 227 111 178 199 68 151 177 40 131 160 14 111 141
12 109 139 34 127 156 77 157 182 126 187 206 167 209 223 169 211 224 167 209 223 174 213 226
172 212 225 164 208 222 174 213 226 169 211 224 172 212 225 172 212 225 157 204 219 0 84 111
0 95 124 164 208 222 75 156 181 0 75 98 0 17 22 0 2 3 0 0 0 0 5 7
32 125 154 145 197 214 164 208 222 169 211 224 172 212 225 174 213 226 172 212 225 169 211 224
172 212 225 172 212 225 172 212 225 174 213 226 152 201 217 97 169 192 0 87 114 0 50 66
77 157 182 174 213 226 111 178 199 36 128 157 0 54 70 0 16 21 0 2 3 0 0 0
0 0 0 0 0 0 0 0 0 0 0 0 0 0 0 0 0 0 0 0 0 0 0 0

0 0 0 0 0 0 0 0 0 0 0 0 0 0 0 0 0 0 0 0 0 0 0 0
0 0 0 0 0 0 0 0 0 0 4 5 4 102 132 135 192 210 169 211 224 169 211 224
172 212 225 172 212 225 172 212 225 167 209 223 169 211 224 169 211 224 167 209 223 167 209 223
174 213 226 167 209 223 164 208 222 169 211 224 174 213 226 174 213 226 172 212 225 167 209 223
169 211 224 167 209 223 174 213 226 169 211 224 174 213 226 162 207 221 81 159 184 0 49 64
79 158 183 167 209 223 48 137 165 0 61 80 0 10 13 0 1 1 0 0 0 0 0 0
0 11 15 4 102 132 120 183 203 164 208 222 169 211 224 169 211 224 169 211 224 172 212 225
169 211 224 169 211 224 172 212 225 118 182 202 53 141 168 0 67 88 0 79 103 79 158 183
174 213 226 124 186 205 45 135 163 0 77 101 0 23 31 0 5 6 0 0 0 0 0 0
0 0 0 0 0 0 0 0 0 0 0 0 0 0 0 0 0 0 0 0 0 0 0 0

0 0 0 0 0 0 0 0 0 0 0 0 0 0 0 0 0 0 0 0 0 0 0 0
0 0 0 0 0 0 0 0 0 0 0 0 0 12 16 11 108 138 142 196 213 162 207 221
167 209 223 167 209 223 169 211 224 172 212 225 164 208 222 162 207 221 172 212 225 174 213 226
169 211 224 172 212 225 174 213 226 174 213 226 174 213 226 172 212 225 174 213 226 172 212 225
172 212 225 169 211 224 169 211 224 167 209 223 169 211 224 131 189 208 0 92 120 0 76 100
167 209 223 113 179 200 17 113 143 0 44 58 0 7 9 0 0 0 0 0 0 0 0 0
0 0 1 0 11 14 0 61 80 34 127 156 95 168 191 129 188 207 133 191 209 135 192 210
118 182 202 83 161 185 39 130 159 0 76 100 0 49 64 22 117 147 135 192 210 164 208 222
101 172 194 39 130 159 0 80 105 0 31 41 0 6 8 0 0 0 0 0 0 0 0 0
0 0 0 0 0 0 0 0 0 0 0 0 0 0 0 0 0 0 0 0 0 0 0 0

0 0 0 0 0 0 0 0 0 0 0 0 0 0 0 0 0 0 0 0 0 0 0 0
0 0 0 0 0 0 0 0 0 0 0 0 0 0 0 0 11 15 3 101 131 142 196 213
172 212 225 177 215 227 167 209 223 162 207 221 164 208 222 169 211 224 172 212 225 174 213 226
174 213 226 172 212 225 169 211 224 174 213 226 174 213 226 169 211 224 164 208 222 164 208 222
169 211 224 167 209 223 174 213 226 167 209 223 157 204 219 27 122 151 0 58 76 83 161 185
177 215 227 70 152 178 0 84 111 0 26 35 0 3 4 0 0 0 0 0 0 0 0 0
0 0 0 0 1 1 0 6 8 0 16 21 0 39 51 0 52 69 0 58 76 0 63 83
0 51 67 0 43 56 0 43 56 0 86 112 97 169 192 164 208 222 142 196 213 95 168 191
22 117 147 0 71 93 0 29 38 0 8 10 0 0 1 0 0 0 0 0 0 0 0 0
0 0 0 0 0 0 0 0 0 0 0 0 0 0 0 0 0 0 0 0 0 0 0 0

0 0 0 0 0 0 0 0 0 0 0 0 0 0 0 0 0 0 0 0 0 0 0 0
0 0 0 0 0 0 0 0 0 0 0 0 0 0 0 0 0 0 0 4 5 0 69 91
115 180 201 145 197 214 164 208 222 169 211 224 172 212 225 164 208 222 154 203 218 167 209 223
174 213 226 172 212 225 172 212 225 169 211 224 172 212 225 174 213 226 172 212 225 172 212 225
174 213 226 167 209 223 167 209 223 154 203 218 26 120 150 0 54 70 68 151 177 187 220 231
105 174 196 17 113 143 0 48 63 0 11 14 0 0 1 0 0 0 0 0 0 0 0 0
0 0 0 0 0 0 0 2 3 0 11 15 0 23 31 0 39 51 0 62 81 0 72 94
1 99 129 46 136 164 111 178 199 124 186 205 97 169 192 58 144 171 29 123 152 0 87 114
0 43 56 0 17 22 0 5 7 0 0 1 0 0 0 0 0 0 0 0 0 0 0 0
0 0 0 0 0 0 0 0 0 0 0 0 0 0 0 0 0 0 0 0 0 0 0 0

0 0 0 0 0 0 0 0 0 0 0 0 0 0 0 0 0 0 0 0 0 0 0 0
0 0 0 0 0 0 0 0 0 0 0 0 0 0 0 0 0 0 0 1 1 0 4 5
0 42 55 40 131 160 133 191 209 162 207 221 162 207 221 167 209 223 169 211 224 169 211 224
172 212 225 172 212 225 169 211 224 172 212 225 169 211 224 169 211 224 169 211 224 169 211 224
172 212 225 172 212 225 124 186 205 22 117 147 0 56 73 29 123 152 162 207 221 135 192 210
40 131 160 0 68 89 0 21 28 0 4 5 0 0 0 0 0 0 0 0 0 0 0 0
0 0 0 0 0 0 0 0 0 0 1 2 0 11 14 0 26 35 0 52 69 0 83 109
4 102 132 17 113 143 19 115 145 10 107 137 0 98 128 0 73 96 0 48 63 0 25 33
0 9 12 0 2 3 0 0 0 0 0 0 0 0 0 0 0 0 0 0 0 0 0 0
0 0 0 0 0 0 0 0 0 0 0 0 0 0 0 0 0 0 0 0 0 0 0 0

0 0 0 0 0 0 0 0 0 0 0 0 0 0 0 0 0 0 0 0 0 0 0 0
0 0 0 0 0 0 0 0 0 0 0 0 0 0 0 0 0 0 0 0 0 0 1 1
0 5 7 0 22 29 0 75 98 46 136 164 124 186 205 169 211 224 167 209 223 167 209 223
172 212 225 169 211 224 169 211 224 167 209 223 169 211 224 169 211 224 167 209 223 167 209 223
147 199 215 55 142 169 0 86 112 0 59 78 79 158 183 147 199 215 138 193 211 70 152 178
0 86 112 0 33 44 0 7 10 0 0 0 0 0 0 0 0 0 0 0 0 0 0 0
0 0 0 0 0 0 0 0 0 0 0 0 0 1 1 0 5 6 0 13 17 0 22 29
0 33 44 0 39 51 0 40 52 0 33 44 0 28 37 0 19 25 0 10 13 0 4 6
0 1 1 0 0 0 0 0 0 0 0 0 0 0 0 0 0 0 0 0 0 0 0 0
0 0 0 0 0 0 0 0 0 0 0 0 0 0 0 0 0 0 0 0 0 0 0 0

0 0 0 0 0 0 0 0 0 0 0 0 0 0 0 0 0 0 0 0 0 0 0 0
0 0 0 0 0 0 0 0 0 0 0 0 0 0 0 0 0 0 0 0 0 0 0 0
0 1 2 0 8 10 0 16 21 0 23 30 0 57 75 13 110 140 75 156 181 147 199 215
177 215 227 167 209 223 164 208 222 167 209 223 174 213 226 147 199 215 85 162 186 30 124 153
0 69 91 0 42 55 0 84 111 131 189 208 177 215 227 124 186 205 60 145 172 0 96 126
0 38 50 0 9 11 0 2 2 0 0 0 0 0 0 0 0 0 0 0 0 0 0 0
0 0 0 0 0 0 0 0 0 0 0 0 0 0 0 0 0 0 0 1 2 0 3 4
0 6 8 0 6 9 0 8 10 0 7 9 0 4 5 0 2 3 0 0 1 0 0 0
0 0 0 0 0 0 0 0 0 0 0 0 0 0 0 0 0 0 0 0 0 0 0 0
0 0 0 0 0 0 0 0 0 0 0 0 0 0 0 0 0 0 0 0 0 0 0 0

0 0 0 0 0 0 0 0 0 0 0 0 0 0 0 0 0 0 0 0 0 0 0 0
0 0 0 0 0 0 0 0 0 0 0 0 0 0 0 0 0 0 0 0 0 0 0 0
0 0 0 0 1 1 0 6 9 0 18 24 0 24 32 0 25 33 0 29 38 0 36 47
0 56 73 0 72 94 0 77 101 0 72 94 0 57 75 0 44 58 0 44 58 0 57 75
4 102 132 83 161 185 149 200 216 133 191 209 75 156 181 21 116 146 0 71 93 0 32 42
0 7 9 0 1 2 0 0 0 0 0 0 0 0 0 0 0 0 0 0 0 0 0 0
0 0 0 0 0 0 0 0 0 0 0 0 0 0 0 0 0 0 0 0 0 0 0 0
0 0 0 0 0 0 0 0 0 0 0 0 0 0 0 0 0 0 0 0 0 0 0 0
0 0 0 0 0 0 0 0 0 0 0 0 0 0 0 0 0 0 0 0 0 0 0 0
0 0 0 0 0 0 0 0 0 0 0 0 0 0 0 0 0 0 0 0 0 0 0 0

0 0 0 0 0 0 0 0 0 0 0 0 0 0 0 0 0 0 0 0 0 0 0 0
0 0 0 0 0 0 0 0 0 0 0 0 0 0 0 0 0 0 0 0 0 0 0 0
0 0 0 0 0 0 0 0 1 0 3 4 0 13 18 0 27 36 0 42 55 0 49 64
0 54 70 0 61 80 0 64 84 0 80 105 4 102 132 17 113 143 43 134 162 85 162 186
118 182 202 95 168 191 61 146 173 26 120 150 0 87 114 0 49 64 0 23 30 0 8 10
0 1 1 0 0 0 0 0 0 0 0 0 0 0 0 0 0 0 0 0 0 0 0 0
0 0 0 0 0 0 0 0 0 0 0 0 0 0 0 0 0 0 0 0 0 0 0 0
0 0 0 0 0 0 0 0 0 0 0 0 0 0 0 0 0 0 0 0 0 0 0 0
0 0 0 0 0 0 0 0 0 0 0 0 0 0 0 0 0 0 0 0 0 0 0 0
0 0 0 0 0 0 0 0 0 0 0 0 0 0 0 0 0 0 0 0 0 0 0 0

0 0 0 0 0 0 0 0 0 0 0 0 0 0 0 0 0 0 0 0 0 0 0 0
0 0 0 0 0 0 0 0 0 0 0 0 0 0 0 0 0 0 0 0 0 0 0 0
0 0 0 0 0 0 0 0 0 0 0 0 0 1 2 0 5 7 0 14 18 0 29 38
0 50 66 0 69 91 0 95 124 14 111 141 26 120 150 33 126 155 34 127 156 25 119 149
9 106 136 0 93 122 0 73 96 0 49 64 0 25 33 0 11 15 0 4 6 0 1 1
0 0 0 0 0 0 0 0 0 0 0 0 0 0 0 0 0 0 0 0 0 0 0 0
0 0 0 0 0 0 0 0 0 0 0 0 0 0 0 0 0 0 0 0 0 0 0 0
0 0 0 0 0 0 0 0 0 0 0 0 0 0 0 0 0 0 0 0 0 0 0 0
0 0 0 0 0 0 0 0 0 0 0 0 0 0 0 0 0 0 0 0 0 0 0 0
0 0 0 0 0 0 0 0 0 0 0 0 0 0 0 0 0 0 0 0 0 0 0 0

0 0 0 0 0 0 0 0 0 0 0 0 0 0 0 0 0 0 0 0 0 0 0 0
0 0 0 0 0 0 0 0 0 0 0 0 0 0 0 0 0 0 0 0 0 0 0 0
0 0 0 0 0 0 0 0 0 0 0 0 0 0 0 0 0 0 0 1 2 0 5 6
0 12 15 0 19 25 0 26 34 0 36 47 0 45 59 0 46 60 0 43 56 0 41 54
0 33 44 0 24 32 0 16 22 0 10 13 0 5 6 0 1 1 0 0 0 0 0 0
0 0 0 0 0 0 0 0 0 0 0 0 0 0 0 0 0 0 0 0 0 0 0 0
0 0 0 0 0 0 0 0 0 0 0 0 0 0 0 0 0 0 0 0 0 0 0 0
0 0 0 0 0 0 0 0 0 0 0 0 0 0 0 0 0 0 0 0 0 0 0 0
0 0 0 0 0 0 0 0 0 0 0 0 0 0 0 0 0 0 0 0 0 0 0 0
0 0 0 0 0 0 0 0 0 0 0 0 0 0 0 0 0 0 0 0 0 0 0 0

0 0 0 0 0 0 0 0 0 0 0 0 0 0 0 0 0 0 0 0 0 0 0 0
0 0 0 0 0 0 0 0 0 0 0 0 0 0 0 0 0 0 0 0 0 0 0 0
0 0 0 0 0 0 0 0 0 0 0 0 0 0 0 0 0 0 0 0 0 0 0 0
0 0 0 0 1 1 0 2 3 0 4 5 0 5 7 0 7 9 0 7 10 0 6 9
0 3 4 0 3 4 0 2 3 0 0 0 0 0 0 0 0 0 0 0 0 0 0 0
0 0 0 0 0 0 0 0 0 0 0 0 0 0 0 0 0 0 0 0 0 0 0 0
0 0 0 0 0 0 0 0 0 0 0 0 0 0 0 0 0 0 0 0 0 0 0 0
0 0 0 0 0 0 0 0 0 0 0 0 0 0 0 0 0 0 0 0 0 0 0 0
0 0 0 0 0 0 0 0 0 0 0 0 0 0 0 0 0 0 0 0 0 0 0 0
0 0 0 0 0 0 0 0 0 0 0 0 0 0 0 0 0 0 0 0 0 0 0 0

0 0 0 0 0 0 0 0 0 0 0 0 0 0 0 0 0 0 0 0 0 0 0 0
0 0 0 0 0 0 0 0 0 0 0 0 0 0 0 0 0 0 0 0 0 0 0 0
0 0 0 0 0 0 0 0 0 0 0 0 0 0 0 0 0 0 0 0 0 0 0 0
0 0 0 0 0 0 0 0 0 0 0 0 0 0 0 0 0 0 0 0 0 0 0 0
0 0 0 0 0 0 0 0 0 0 0 0 0 0 0 0 0 0 0 0 0 0 0 0
0 0 0 0 0 0 0 0 0 0 0 0 0 0 0 0 0 0 0 0 0 0 0 0
0 0 0 0 0 0 0 0 0 0 0 0 0 0 0 0 0 0 0 0 0 0 0 0
0 0 0 0 0 0 0 0 0 0 0 0 0 0 0 0 0 0 0 0 0 0 0 0
0 0 0 0 0 0 0 0 0 0 0 0 0 0 0 0 0 0 0 0 0 0 0 0
0 0 0 0 0 0 0 0 0 0 0 0 0 0 0 0 0 0 0 0 0 0 0 0

0 0 0 0 0 0 0 0 0 0 0 0 0 0 0 0 0 0 0 0 0 0 0 0
0 0 0 0 0 0 0 0 0 0 0 0 0 0 0 0 0 0 0 0 0 0 0 0
0 0 0 0 0 0 0 0 0 0 0 0 0 0 0 0 0 0 0 0 0 0 0 0
0 0 0 0 0 0 0 0 0 0 0 0 0 0 0 0 0 0 0 0 0 0 0 0
0 0 0 0 0 0 0 0 0 0 0 0 0 0 0 0 0 0 0 0 0 0 0 0
0 0 0 0 0 0 0 0 0 0 0 0 0 0 0 0 0 0 0 0 0 0 0 0
0 0 0 0 0 0 0 0 0 0 0 0 0 0 0 0 0 0 0 0 0 0 0 0
0 0 0 0 0 0 0 0 0 0 0 0 0 0 0 0 0 0 0 0 0 0 0 0
0 0 0 0 0 0 0 0 0 0 0 0 0 0 0 0 0 0 0 0 0 0 0 0
0 0 0 0 0 0 0 0 0 0 0 0 0 0 0 0 0 0 0 0 0 0 0 0

0 0 0 0 0 0 0 0 0 0 0 0 0 0 0 0 0 0 0 0 0 0 0 0
0 0 0 0 0 0 0 0 0 0 0 0 0 0 0 0 0 0 0 0 0 0 0 0
0 0 0 0 0 0 0 0 0 0 0 0 0 0 0 0 0 0 0 0 0 0 0 0
0 0 0 0 0 0 0 0 0 0 0 0 0 0 0 0 0 0 0 0 0 0 0 0
0 0 0 0 0 0 0 0 0 0 0 0 0 0 0 0 0 0 0 0 0 0 0 0
0 0 0 0 0 0 0 0 0 0 0 0 0 0 0 0 0 0 0 0 0 0 0 0
0 0 0 0 0 0 0 0 0 0 0 0 0 0 0 0 0 0 0 0 0 0 0 0
0 0 0 0 0 0 0 0 0 0 0 0 0 0 0 0 0 0 0 0 0 0 0 0
0 0 0 0 0 0 0 0 0 0 0 0 0 0 0 0 0 0 0 0 0 0 0 0
0 0 0 0 0 0 0 0 0 0 0 0 0 0 0 0 0 0 0 0 0 0 0 0

0 0 0 0 0 0 0 0 0 0 0 0 0 0 0 0 0 0 0 0 0 0 0 0
0 0 0 0 0 0 0 0 0 0 0 0 0 0 0 0 0 0 0 0 0 0 0 0
0 0 0 0 0 0 0 0 0 0 0 0 0 0 0 0 0 0 0 0 0 0 0 0
0 0 0 0 0 0 0 0 0 0 0 0 0 0 0 0 0 0 0 0 0 0 0 0
0 0 0 0 0 0 0 0 0 0 0 0 0 0 0 0 0 0 0 0 0 0 0 0
0 0 0 0 0 0 0 0 0 0 0 0 0 0 0 0 0 0 0 0 0 0 0 0
0 0 0 0 0 0 0 0 0 0 0 0 0 0 0 0 0 0 0 0 0 0 0 0
0 0 0 0 0 0 0 0 0 0 0 0 0 0 0 0 0 0 0 0 0 0 0 0
0 0 0 0 0 0 0 0 0 0 0 0 0 0 0 0 0 0 0 0 0 0 0 0
0 0 0 0 0 0 0 0 0 0 0 0 0 0 0 0 0 0 0 0 0 0 0 0

0 0 0 0 0 0 0 0 0 0 0 0 0 0 0 0 0 0 0 0 0 0 0 0
0 0 0 0 0 0 0 0 0 0 0 0 0 0 0 0 0 0 0 0 0 0 0 0
0 0 0 0 0 0 0 0 0 0 0 0 0 0 0 0 0 0 0 0 0 0 0 0
0 0 0 0 0 0 0 0 0 0 0 0 0 0 0 0 0 0 0 0 0 0 0 0
0 0 0 0 0 0 0 0 0 0 0 0 0 0 0 0 0 0 0 0 0 0 0 0
0 0 0 0 0 0 0 0 0 0 0 0 0 0 0 0 0 0 0 0 0 0 0 0
0 0 0 0 0 0 0 0 0 0 0 0 0 0 0 0 0 0 0 0 0 0 0 0
0 0 0 0 0 0 0 0 0 0 0 0 0 0 0 0 0 0 0 0 0 0 0 0
0 0 0 0 0 0 0 0 0 0 0 0 0 0 0 0 0 0 0 0 0 0 0 0
0 0 0 0 0 0 0 0 0 0 0 0 0 0 0 0 0 0 0 0 0 0 0 0

0 0 0 0 0 0 0 0 0 0 0 0 0 0 0 0 0 0 0 0 0 0 0 0
0 0 0 0 0 0 0 0 0 0 0 0 0 0 0 0 0 0 0 0 0 0 0 0
0 0 0 0 0 0 0 0 0 0 0 0 0 0 0 0 0 0 0 0 0 0 0 0
0 0 0 0 0 0 0 0 0 0 0 0 0 0 0 0 0 0 0 0 0 0 0 0
0 0 0 0 0 0 0 0 0 0 0 0 0 0 0 0 0 0 0 0 0 0 0 0
0 0 0 0 0 0 0 0 0 0 0 0 0 0 0 0 0 0 0 0 0 0 0 0
0 0 0 0 0 0 0 0 0 0 0 0 0 0 0 0 0 0 0 0 0 0 0 0
0 0 0 0 0 0 0 0 0 0 0 0 0 0 0 0 0 0 0 0 0 0 0 0
0 0 0 0 0 0 0 0 0 0 0 0 0 0 0 0 0 0 0 0 0 0 0 0
0 0 0 0 0 0 0 0 0 0 0 0 0 0 0 0 0 0 0 0 0 0 0 0

0 0 0 0 0 0 0 0 0 0 0 0 0 0 0 0 0 0 0 0 0 0 0 0
0 0 0 0 0 0 0 0 0 0 0 0 0 0 0 0 0 0 0 0 0 0 0 0
0 0 0 0 0 0 0 0 0 0 0 0 0 0 0 0 0 0 0 0 0 0 0 0
0 0 0 0 0 0 0 0 0 0 0 0 0 0 0 0 0 0 0 0 0 0 0 0
0 0 0 0 0 0 0 0 0 0 0 0 0 0 0 0 0 0 0 0 0 0 0 0
0 0 0 0 0 0 0 0 0 0 0 0 0 0 0 0 0 0 0 0 0 0 0 0
0 0 0 0 0 0 0 0 0 0 0 0 0 0 0 0 0 0 0 0 0 0 0 0
0 0 0 0 0 0 0 0 0 0 0 0 0 0 0 0 0 0 0 0 0 0 0 0
0 0 0 0 0 0 0 0 0 0 0 0 0 0 0 0 0 0 0 0 0 0 0 0
0 0 0 0 0 0 0 0 0 0 0 0 0 0 0 0 0 0 0 0 0 0 0 0
