P3
68 80
255
0 0 0  0 0 0  0 0 0  0 0 0  0 0 0  0 0 0
0 0 0  0 0 0  0 0 0  0 0 0  0 0 0  0 0 0
0 0 0  0 0 0  0 0 0  0 0 0  0 0 0  0 0 0
0 0 0  0 0 0  0 0 0  0 0 0  0 0 0  0 0 0
0 0 0  0 0 0  0 0 0  0 0 0  0 0 0  0 0 0
0 0 0  0 0 0  0 0 0  0 0 0  0 0 0  0 0 0
0 0 0  0 0 0  0 0 0  0 0 0  0 0 0  0 0 0
0 0 0  0 0 0  0 0 0  0 0 0  0 0 0  0 0 0
0 0 0  0 0 0  0 0 0  0 0 0  0 0 0  0 0 0
0 0 0  0 0 0  0 0 0  0 0 0  0 0 0  0 0 0
0 0 0  0 0 0  0 0 0  0 0 0  0 0 0  0 0 0
0 0 0  0 0 0
0 0 0  0 0 0  0 0 0  0 0 0  0 0 0  0 0 0
0 0 0  0 0 0  0 0 0  0 0 0  0 0 0  0 0 0
0 0 0  0 0 0  0 0 0  0 0 0  0 0 0  0 0 0
0 0 0  0 0 0  0 0 0  0 0 0  0 0 0  0 0 0
0 0 0  0 0 0  0 0 0  0 0 0  0 0 0  0 0 0
0 0 0  0 0 0  0 0 0  0 0 0  0 0 0  0 0 0
0 0 0  0 0 0  0 0 0  0 0 0  0 0 0  0 0 0
0 0 0  0 0 0  0 0 0  0 0 0  0 0 0  0 0 0
0 0 0  0 0 0  0 0 0  0 0 0  0 0 0  0 0 0
0 0 0  0 0 0  0 0 0  0 0 0  0 0 0  0 0 0
0 0 0  0 0 0  0 0 0  0 0 0  0 0 0  0 0 0
0 0 0  0 0 0
0 0 0  0 0 0  0 0 0  0 0 0  0 0 0  0 0 0
0 0 0  0 0 0  0 0 0  0 0 0  0 0 0  0 0 0
0 0 0  0 0 0  0 0 0  0 0 0  0 0 0  0 0 0
0 0 0  0 0 0  0 0 0  0 0 0  0 0 0  0 0 0
0 0 0  0 0 0  0 0 0  0 0 0  0 0 0  0 0 0
0 0 0  0 0 0  0 0 0  0 0 0  0 0 0  0 0 0
0 0 0  0 0 0  0 0 0  0 0 0  0 0 0  0 0 0
0 0 0  0 0 0  0 0 0  0 0 0  0 0 0  0 0 0
0 0 0  0 0 0  0 0 0  0 0 0  0 0 0  0 0 0
0 0 0  0 0 0  0 0 0  0 0 0  0 0 0  0 0 0
0 0 0  0 0 0  0 0 0  0 0 0  0 0 0  0 0 0
0 0 0  0 0 0
0 0 0  0 0 0  0 0 0  0 0 0  0 0 0  0 0 0
0 0 0  0 0 0  0 0 0  0 0 0  0 0 0  0 0 0
0 0 0  0 0 0  0 0 0  0 0 0  0 0 0  0 0 0
0 0 0  0 0 0  0 0 0  0 0 0  0 0 0  0 0 0
0 0 0  0 0 0  0 0 0  0 0 0  0 0 0  0 0 0
0 0 0  0 0 0  0 0 0  0 0 0  0 0 0  0 0 0
0 0 0  0 0 0  0 0 0  0 0 0  0 0 0  0 0 0
0 0 0  0 0 0  0 0 0  0 0 0  0 0 0  0 0 0
0 0 0  0 0 0  0 0 0  0 0 0  0 0 0  0 0 0
0 0 0  0 0 0  0 0 0  0 0 0  0 0 0  0 0 0
0 0 0  0 0 0  0 0 0  0 0 0  0 0 0  0 0 0
0 0 0  0 0 0
0 0 0  0 0 0  0 0 0  0 0 0  0 0 0  0 0 0
0 0 0  0 0 0  0 0 0  0 0 0  0 0 0  0 0 0
0 0 0  0 0 0  0 0 0  0 0 0  0 0 0  0 0 0
0 0 0  0 0 0  0 0 0  0 0 0  0 0 0  0 0 0
0 0 0  0 0 0  0 0 0  0 0 0  0 0 0  0 0 0
0 0 0  0 0 0  0 0 0  0 0 0  0 0 0  0 0 0
1 0 0  7 0 0  3 0 0  0 0 0  0 0 0  0 0 0
0 0 0  0 0 0  0 0 0  0 0 0  0 0 0  0 0 0
0 0 0  0 0 0  0 0 0  0 0 0  0 0 0  0 0 0
0 0 0  0 0 0  0 0 0  0 0 0  0 0 0  0 0 0
0 0 0  0 0 0  0 0 0  0 0 0  0 0 0  0 0 0
0 0 0  0 0 0
0 0 0  0 0 0  0 0 0  0 0 0  0 0 0  0 0 0
0 0 0  0 0 0  0 0 0  0 0 0  0 0 0  0 0 0
0 0 0  0 0 0  0 0 0  0 0 0  0 0 0  0 0 0
0 0 0  0 0 0  0 0 0  0 0 0  0 0 0  0 0 0
0 0 0  0 0 0  0 0 0  0 0 0  0 0 0  5 0 0
18 0 0  14 0 0  37 0 0  30 0 0  0 0 0  37 0 0
47 0 0  23 0 0  4 0 0  0 0 0  0 0 0  0 0 0
0 0 0  0 0 0  0 0 0  0 0 0  0 0 0  0 0 0
0 0 0  0 0 0  0 0 0  0 0 0  0 0 0  0 0 0
0 0 0  0 0 0  0 0 0  0 0 0  0 0 0  0 0 0
0 0 0  0 0 0  0 0 0  0 0 0  0 0 0  0 0 0
0 0 0  0 0 0
0 0 0  0 0 0  0 0 0  0 0 0  0 0 0  0 0 0
0 0 0  0 0 0  0 0 0  0 0 0  0 0 0  0 0 0
0 0 0  0 0 0  0 0 0  0 0 0  0 0 0  0 0 0
0 0 0  0 0 0  0 0 0  0 0 0  0 0 0  0 0 0
0 0 0  0 0 0  0 0 0  12 0 0  56 0 0  109 0 0
121 1 0  121 1 0  131 2 1  109 0 0  81 0 0  85 0 0
112 0 0  49 0 0  37 0 0  56 0 0  56 0 0  18 0 0
1 0 0  0 0 0  0 0 0  0 0 0  0 0 0  0 0 0
0 0 0  0 0 0  0 0 0  0 0 0  0 0 0  0 0 0
0 0 0  0 0 0  0 0 0  0 0 0  0 0 0  0 0 0
0 0 0  0 0 0  0 0 0  0 0 0  0 0 0  0 0 0
0 0 0  0 0 0
0 0 0  0 0 0  0 0 0  0 0 0  0 0 0  0 0 0
0 0 0  0 0 0  0 0 0  0 0 0  0 0 0  0 0 0
0 0 0  0 0 0  0 0 0  0 0 0  0 0 0  0 0 0
0 0 0  0 0 0  0 0 0  0 0 0  0 0 0  0 0 0
0 0 0  18 0 0  74 0 0  124 2 2  144 19 16  154 33 28
154 33 28  139 11 6  131 2 1  131 2 1  131 2 1  131 2 1
131 2 1  131 2 1  131 2 1  128 2 0  128 2 0  115 0 0
91 0 0  53 0 0  13 0 0  0 0 0  0 0 0  0 0 0
0 0 0  0 0 0  0 0 0  0 0 0  0 0 0  0 0 0
0 0 0  0 0 0  0 0 0  0 0 0  0 0 0  0 0 0
0 0 0  0 0 0  0 0 0  0 0 0  0 0 0  0 0 0
0 0 0  0 0 0
0 0 0  0 0 0  0 0 0  0 0 0  0 0 0  0 0 0
0 0 0  0 0 0  0 0 0  0 0 0  0 0 0  0 0 0
0 0 0  0 0 0  0 0 0  0 0 0  0 0 0  0 0 0
0 0 0  0 0 0  0 0 0  0 0 0  0 0 0  19 0 0
80 0 0  132 11 9  158 39 35  186 70 65  189 80 75  189 80 75
162 44 39  144 19 16  131 2 1  128 2 0  126 1 1  126 1 1
126 1 1  128 2 0  128 2 0  128 2 0  128 2 0  128 2 0
126 1 1  123 1 0  109 0 0  67 0 0  26 0 0  42 1 1
42 1 1  9 0 0  0 0 0  0 0 0  0 0 0  0 0 0
0 0 0  0 0 0  0 0 0  0 0 0  0 0 0  0 0 0
0 0 0  0 0 0  0 0 0  0 0 0  0 0 0  0 0 0
0 0 0  0 0 0
0 0 0  0 0 0  0 0 0  0 0 0  0 0 0  0 0 0
0 0 0  0 0 0  0 0 0  0 0 0  0 0 0  0 0 0
0 0 0  0 0 0  0 0 0  0 0 0  0 0 0  0 0 0
0 0 0  0 0 0  0 0 0  2 0 0  68 0 0  136 14 11
165 43 38  189 80 75  199 86 81  199 86 81  162 44 39  132 11 9
116 0 0  107 0 0  101 0 0  99 0 0  96 0 0  95 0 0
96 0 0  100 0 0  104 0 0  108 0 0  112 0 0  116 0 0
119 1 0  121 1 0  126 1 1  128 2 0  123 1 0  126 1 1
126 1 1  80 0 0  21 0 0  1 0 0  0 0 0  0 0 0
0 0 0  0 0 0  0 0 0  0 0 0  0 0 0  0 0 0
0 0 0  0 0 0  0 0 0  0 0 0  0 0 0  0 0 0
0 0 0  0 0 0
0 0 0  0 0 0  0 0 0  0 0 0  0 0 0  0 0 0
0 0 0  0 0 0  0 0 0  0 0 0  0 0 0  0 0 0
0 0 0  0 0 0  0 0 0  0 0 0  0 0 0  0 0 0
0 0 0  4 0 0  26 0 0  102 6 5  154 33 28  186 70 65
199 86 81  199 86 81  168 56 50  127 8 7  106 0 0  91 0 0
79 0 0  72 0 0  69 0 0  67 0 0  67 0 0  68 0 0
69 0 0  72 0 0  72 0 0  74 0 0  78 0 0  85 0 0
95 0 0  106 0 0  118 0 0  128 2 0  131 2 1  128 2 0
123 1 0  117 0 0  103 0 0  79 0 0  19 0 0  0 0 0
0 0 0  0 0 0  0 0 0  0 0 0  0 0 0  0 0 0
0 0 0  0 0 0  0 0 0  0 0 0  0 0 0  0 0 0
0 0 0  0 0 0
0 0 0  0 0 0  0 0 0  0 0 0  0 0 0  0 0 0
0 0 0  0 0 0  0 0 0  0 0 0  0 0 0  0 0 0
0 0 0  0 0 0  0 0 0  0 0 0  0 0 0  0 0 0
8 0 0  101 0 0  144 19 16  168 56 50  199 86 81  199 86 81
168 56 50  132 11 9  107 0 0  89 0 0  74 0 0  64 0 0
64 0 0  62 0 0  61 0 0  61 0 0  56 0 0  53 0 0
47 0 0  47 0 0  53 0 0  56 0 0  61 0 0  64 0 0
70 0 0  78 0 0  88 0 0  104 0 0  118 0 0  128 2 0
128 2 0  123 1 0  117 0 0  112 0 0  96 0 0  37 0 0
0 0 0  0 0 0  0 0 0  0 0 0  0 0 0  0 0 0
0 0 0  0 0 0  0 0 0  0 0 0  0 0 0  0 0 0
0 0 0  0 0 0
0 0 0  0 0 0  0 0 0  0 0 0  0 0 0  0 0 0
0 0 0  0 0 0  0 0 0  0 0 0  0 0 0  0 0 0
0 0 0  0 0 0  0 0 0  0 0 0  0 0 0  18 0 0
106 0 0  158 39 35  189 80 75  199 86 81  168 56 50  127 8 7
105 0 0  88 0 0  74 0 0  64 0 0  64 0 0  61 0 0
42 1 1  21 0 0  21 0 0  19 0 0  8 0 0  3 0 0
0 0 0  0 0 0  2 0 0  5 0 0  12 0 0  21 0 0
37 0 0  53 0 0  67 0 0  74 0 0  85 0 0  101 0 0
116 0 0  126 1 1  123 1 0  115 0 0  108 0 0  101 0 0
47 0 0  0 0 0  0 0 0  0 0 0  0 0 0  0 0 0
0 0 0  0 0 0  0 0 0  0 0 0  0 0 0  0 0 0
0 0 0  0 0 0
0 0 0  0 0 0  0 0 0  0 0 0  0 0 0  0 0 0
0 0 0  0 0 0  0 0 0  0 0 0  0 0 0  0 0 0
0 0 0  0 0 0  0 0 0  0 0 0  18 0 0  117 0 0
165 43 38  199 86 81  199 86 81  150 35 32  112 0 0  89 0 0
72 0 0  64 0 0  61 0 0  62 0 0  49 0 0  21 0 0
0 0 0  0 0 0  0 0 0  0 0 0  0 0 0  0 0 0
0 0 0  0 0 0  0 0 0  0 0 0  0 0 0  0 0 0
0 0 0  3 0 0  21 0 0  47 0 0  67 0 0  78 0 0
91 0 0  109 0 0  121 1 0  121 1 0  113 0 0  103 0 0
100 0 0  53 0 0  0 0 0  0 0 0  0 0 0  0 0 0
0 0 0  0 0 0  0 0 0  0 0 0  0 0 0  0 0 0
0 0 0  0 0 0
0 0 0  0 0 0  0 0 0  0 0 0  0 0 0  0 0 0
0 0 0  0 0 0  0 0 0  0 0 0  0 0 0  0 0 0
0 0 0  0 0 0  0 0 0  19 0 0  114 0 0  158 39 35
189 80 75  186 70 65  127 8 7  100 0 0  79 0 0  67 0 0
64 0 0  60 0 0  55 0 0  47 0 0  8 0 0  0 0 0
0 0 0  0 0 0  0 0 0  0 0 0  0 0 0  0 0 0
0 0 0  0 0 0  0 0 0  0 0 0  0 0 0  0 0 0
0 0 0  0 0 0  0 0 0  0 0 0  26 0 0  61 0 0
78 0 0  88 0 0  106 0 0  121 1 0  121 1 0  112 0 0
100 0 0  96 0 0  42 1 1  0 0 0  0 0 0  0 0 0
0 0 0  0 0 0  0 0 0  0 0 0  0 0 0  0 0 0
0 0 0  0 0 0
0 0 0  0 0 0  0 0 0  0 0 0  0 0 0  0 0 0
0 0 0  0 0 0  0 0 0  0 0 0  0 0 0  0 0 0
0 0 0  0 0 0  8 0 0  109 0 0  163 28 23  186 70 65
158 39 35  118 0 0  91 0 0  72 0 0  62 0 0  60 0 0
32 1 0  10 0 0  5 0 0  0 0 0  0 0 0  0 0 0
0 0 0  0 0 0  0 0 0  0 0 0  0 0 0  0 0 0
0 0 0  0 0 0  0 0 0  0 0 0  0 0 0  0 0 0
0 0 0  0 0 0  0 0 0  0 0 0  0 0 0  13 0 0
60 0 0  78 0 0  88 0 0  107 0 0  121 1 0  121 1 0
108 0 0  96 0 0  91 0 0  30 0 0  0 0 0  0 0 0
0 0 0  0 0 0  0 0 0  0 0 0  0 0 0  0 0 0
0 0 0  0 0 0
0 0 0  0 0 0  0 0 0  0 0 0  0 0 0  0 0 0
0 0 0  0 0 0  0 0 0  0 0 0  0 0 0  0 0 0
0 0 0  0 0 0  74 0 0  139 11 6  158 39 35  144 19 16
110 0 0  85 0 0  67 0 0  62 0 0  64 0 0  23 0 0
0 0 0  0 0 0  0 0 0  0 0 0  0 0 0  0 0 0
0 0 0  0 0 0  0 0 0  0 0 0  0 0 0  0 0 0
0 0 0  0 0 0  0 0 0  0 0 0  0 0 0  0 0 0
0 0 0  0 0 0  0 0 0  0 0 0  0 0 0  0 0 0
9 0 0  60 0 0  81 0 0  91 0 0  109 0 0  121 1 0
118 0 0  104 0 0  93 0 0  79 0 0  10 0 0  0 0 0
0 0 0  0 0 0  0 0 0  0 0 0  0 0 0  0 0 0
0 0 0  0 0 0
0 0 0  0 0 0  0 0 0  0 0 0  0 0 0  0 0 0
0 0 0  0 0 0  0 0 0  0 0 0  0 0 0  0 0 0
0 0 0  37 0 0  128 2 0  139 11 6  129 4 3  106 0 0
80 0 0  64 0 0  62 0 0  53 0 0  42 1 1  5 0 0
0 0 0  0 0 0  0 0 0  0 0 0  0 0 0  0 0 0
0 0 0  0 0 0  0 0 0  0 0 0  0 0 0  0 0 0
0 0 0  0 0 0  0 0 0  0 0 0  0 0 0  0 0 0
0 0 0  0 0 0  0 0 0  0 0 0  0 0 0  0 0 0
0 0 0  10 0 0  64 0 0  85 0 0  96 0 0  113 0 0
121 1 0  112 0 0  95 0 0  87 0 0  53 0 0  0 0 0
0 0 0  0 0 0  0 0 0  0 0 0  0 0 0  0 0 0
0 0 0  0 0 0
0 0 0  0 0 0  0 0 0  0 0 0  0 0 0  0 0 0
0 0 0  0 0 0  0 0 0  0 0 0  0 0 0  0 0 0
2 0 0  100 0 0  131 2 1  128 2 0  106 0 0  78 0 0
64 0 0  60 0 0  32 1 0  4 0 0  0 0 0  0 0 0
0 0 0  0 0 0  0 0 0  0 0 0  0 0 0  0 0 0
0 0 0  0 0 0  0 0 0  0 0 0  0 0 0  0 0 0
0 0 0  0 0 0  0 0 0  0 0 0  0 0 0  0 0 0
0 0 0  0 0 0  0 0 0  0 0 0  0 0 0  0 0 0
0 0 0  0 0 0  13 0 0  74 0 0  88 0 0  101 0 0
116 0 0  115 0 0  99 0 0  81 0 0  78 0 0  26 0 0
0 0 0  0 0 0  0 0 0  0 0 0  0 0 0  0 0 0
0 0 0  0 0 0
0 0 0  0 0 0  0 0 0  0 0 0  0 0 0  0 0 0
0 0 0  0 0 0  0 0 0  40 15 16  4 3 2  0 0 0
37 0 0  131 2 1  131 2 1  110 0 0  81 0 0  64 0 0
56 0 0  18 0 0  0 0 0  0 0 0  0 0 0  0 0 0
0 0 0  0 0 0  0 0 0  0 0 0  0 0 0  0 0 0
0 0 0  0 0 0  0 0 0  0 0 0  0 0 0  0 0 0
0 0 0  0 0 0  0 0 0  0 0 0  0 0 0  0 0 0
0 0 0  0 0 0  0 0 0  0 0 0  0 0 0  0 0 0
0 0 0  0 0 0  0 0 0  30 0 0  85 0 0  95 0 0
107 0 0  112 0 0  96 0 0  78 0 0  69 0 0  49 0 0
1 0 0  0 0 0  0 0 0  0 0 0  0 0 0  0 0 0
0 0 0  0 0 0
0 0 0  0 0 0  0 0 0  0 0 0  0 0 0  0 0 0
0 0 0  0 0 0  14 8 7  107 39 36  7 6 5  0 0 0
91 0 0  131 2 1  117 0 0  85 0 0  67 0 0  53 0 0
12 0 0  0 0 0  0 0 0  0 0 0  0 0 0  0 0 0
0 0 0  0 0 0  0 0 0  0 0 0  0 0 0  0 0 0
0 0 0  0 0 0  0 0 0  0 0 0  0 0 0  0 0 0
0 0 0  0 0 0  0 0 0  0 0 0  0 0 0  0 0 0
0 0 0  0 0 0  0 0 0  0 0 0  0 0 0  0 0 0
0 0 0  0 0 0  0 0 0  0 0 0  56 0 0  93 0 0
100 0 0  104 0 0  91 0 0  72 0 0  64 0 0  62 0 0
18 0 0  0 0 0  0 0 0  0 0 0  0 0 0  0 0 0
0 0 0  0 0 0
0 0 0  0 0 0  0 0 0  0 0 0  0 0 0  0 0 0
0 0 0  0 0 0  7 6 5  19 9 7  3 0 0  62 0 0
131 2 1  126 1 1  96 0 0  70 0 0  53 0 0  9 0 0
0 0 0  0 0 0  0 0 0  0 0 0  0 0 0  0 0 0
0 0 0  0 0 0  0 0 0  0 0 0  0 0 0  0 0 0
0 0 0  0 0 0  0 0 0  0 0 0  0 0 0  0 0 0
0 0 0  0 0 0  0 0 0  0 0 0  0 0 0  0 0 0
0 0 0  0 0 0  0 0 0  0 0 0  0 0 0  0 0 0
0 0 0  0 0 0  0 0 0  0 0 0  13 0 0  85 0 0
96 0 0  99 0 0  88 0 0  53 0 0  32 1 0  60 0 0
30 0 0  0 0 0  0 0 0  0 0 0  0 0 0  0 0 0
0 0 0  0 0 0
0 0 0  0 0 0  0 0 0  0 0 0  0 0 0  0 0 0
0 0 0  0 0 0  0 0 0  0 0 0  46 1 1  139 11 6
139 11 6  109 0 0  78 0 0  56 0 0  10 0 0  0 0 0
0 0 0  0 0 0  0 0 0  0 0 0  0 0 0  0 0 0
0 0 0  0 0 0  0 0 0  0 0 0  0 0 0  0 0 0
0 0 0  0 0 0  0 0 0  0 0 0  0 0 0  0 0 0
0 0 0  0 0 0  0 0 0  0 0 0  0 0 0  0 0 0
0 0 0  0 0 0  0 0 0  0 0 0  0 0 0  0 0 0
0 0 0  0 0 0  0 0 0  0 0 0  0 0 0  56 0 0
100 0 0  101 0 0  95 0 0  47 0 0  0 0 0  32 1 0
14 0 0  0 0 0  0 0 0  0 0 0  0 0 0  0 0 0
0 0 0  0 0 0
0 0 0  0 0 0  0 0 0  0 0 0  0 0 0  0 0 0
0 0 0  0 0 0  0 0 0  2 0 0  101 0 0  139 11 6
121 1 0  89 0 0  64 0 0  18 0 0  0 0 0  0 0 0
0 0 0  0 0 0  0 0 0  0 0 0  0 0 0  0 0 0
0 0 0  0 0 0  0 0 0  0 0 0  0 0 0  0 0 0
0 0 0  0 0 0  0 0 0  0 0 0  0 0 0  5 6 5
33 10 11  42 1 1  37 0 0  30 0 0  18 0 0  0 0 0
0 0 0  0 0 0  0 0 0  0 0 0  0 0 0  0 0 0
0 0 0  0 0 0  0 0 0  0 0 0  0 0 0  18 0 0
95 0 0  106 0 0  100 0 0  74 0 0  32 1 0  9 0 0
14 0 0  0 0 0  0 0 0  0 0 0  0 0 0  0 0 0
0 0 0  0 0 0
0 0 0  0 0 0  0 0 0  0 0 0  0 0 0  0 0 0
0 0 0  8 0 0  4 0 0  30 0 0  131 2 1  131 2 1
105 0 0  72 0 0  26 0 0  0 0 0  0 0 0  0 0 0
0 0 0  0 0 0  0 0 0  0 0 0  0 0 0  0 0 0
11 13 9  5 6 5  0 0 0  0 0 0  0 0 0  0 0 0
1 1 0  1 1 1  0 1 0  6 4 2  67 13 13  116 35 33
132 11 9  121 1 0  112 0 0  101 0 0  101 0 0  81 0 0
43 1 1  3 0 0  0 0 0  0 0 0  0 0 0  0 0 0
0 0 0  0 0 0  0 0 0  0 0 0  0 0 0  1 0 0
80 0 0  112 0 0  107 0 0  85 0 0  56 0 0  5 0 0
18 0 0  0 0 0  0 0 0  0 0 0  0 0 0  0 0 0
0 0 0  0 0 0
0 0 0  0 0 0  0 0 0  0 0 0  0 0 0  0 0 0
0 0 0  53 0 0  14 0 0  72 0 0  131 2 1  121 1 0
88 0 0  64 0 0  14 0 0  0 0 0  0 0 0  0 0 0
0 0 0  0 0 0  0 0 0  8 9 7  17 17 15  40 15 16
107 39 36  92 30 32  0 0 0  0 0 0  0 0 0  0 0 0
2 2 1  4 3 2  48 13 13  111 9 7  126 1 1  104 0 0
68 0 0  37 0 0  21 0 0  13 0 0  21 0 0  42 1 1
67 0 0  67 0 0  21 0 0  0 0 0  0 0 0  0 0 0
0 0 0  0 0 0  0 0 0  0 0 0  0 0 0  0 0 0
55 0 0  113 0 0  112 0 0  89 0 0  64 0 0  10 0 0
12 0 0  3 0 0  0 0 0  0 0 0  0 0 0  0 0 0
0 0 0  0 0 0
0 0 0  0 0 0  0 0 0  0 0 0  0 0 0  0 0 0
0 0 0  32 1 0  14 0 0  112 0 0  128 2 0  107 0 0
74 0 0  53 0 0  7 0 0  0 0 0  0 0 0  0 0 0
0 0 0  12 13 13  40 15 16  40 15 16  17 17 15  189 80 75
235 72 62  48 13 13  0 0 0  0 0 0  0 0 0  2 2 1
1 3 2  71 22 18  254 78 65  212 45 34  70 0 0  16 3 2
0 0 0  0 0 0  0 0 0  0 0 0  0 0 0  0 0 0
0 0 0  18 0 0  47 0 0  13 0 0  0 0 0  0 0 0
0 0 0  0 0 0  0 0 0  0 0 0  0 0 0  0 0 0
37 0 0  112 0 0  112 0 0  91 0 0  62 0 0  14 0 0
5 0 0  8 0 0  0 0 0  0 0 0  0 0 0  0 0 0
0 0 0  0 0 0
0 0 0  0 0 0  0 0 0  0 0 0  0 0 0  0 0 0
0 0 0  0 0 0  37 0 0  128 2 0  118 0 0  91 0 0
67 0 0  32 1 0  0 0 0  0 0 0  0 0 0  6 8 7
40 15 16  40 15 16  12 13 13  0 0 0  10 8 7  104 33 31
141 25 21  38 7 7  0 0 0  3 3 2  4 4 3  2 6 4
17 17 15  146 41 37  245 73 62  139 11 6  31 9 7  2 6 4
1 2 1  0 0 0  0 0 0  0 0 0  0 0 0  0 1 0
1 1 1  0 2 1  1 2 1  16 3 2  3 3 2  2 2 1
2 2 1  2 3 2  1 2 1  0 1 0  0 0 0  0 0 0
26 0 0  107 0 0  114 0 0  95 0 0  61 0 0  7 0 0
0 0 0  10 0 0  0 0 0  0 0 0  0 0 0  0 0 0
0 0 0  0 0 0
0 0 0  0 0 0  0 0 0  0 0 0  0 0 0  0 0 0
0 0 0  0 0 0  78 0 0  126 1 1  108 0 0  79 0 0
53 0 0  6 0 0  0 0 0  0 0 0  17 17 15  40 15 16
17 17 15  6 4 2  7 0 0  17 17 15  92 30 32  18 14 13
21 5 4  7 7 6  5 6 5  1 2 1  7 6 5  17 17 15
104 33 31  132 11 9  245 73 62  139 11 6  37 13 10  8 9 7
4 3 2  4 3 2  4 3 2  4 3 2  2 0 0  4 0 0
5 6 5  5 6 5  1 2 1  1 1 0  2 6 4  8 9 7
4 4 3  2 0 0  3 3 2  4 4 3  1 1 0  0 0 0
7 0 0  99 0 0  117 0 0  99 0 0  72 0 0  21 0 0
0 0 0  1 0 0  0 0 0  0 0 0  0 0 0  0 0 0
0 0 0  0 0 0
0 0 0  0 0 0  0 0 0  0 0 0  0 0 0  0 0 0
0 0 0  7 0 0  104 0 0  118 0 0  96 0 0  72 0 0
32 1 0  0 0 0  7 0 0  107 39 36  199 86 81  199 86 81
199 86 81  199 86 81  199 86 81  107 39 36  71 22 18  199 86 81
165 43 38  29 11 8  21 13 9  146 41 37  199 86 81  199 86 81
199 86 81  199 86 81  254 78 65  129 4 3  37 13 10  146 41 37
189 80 75  87 16 12  2 6 4  2 3 2  107 39 36  199 86 81
105 17 13  42 11 8  186 70 65  189 80 75  116 35 33  6 8 7
71 22 18  189 80 75  179 56 51  88 9 5  0 2 1  0 0 0
7 0 0  99 0 0  118 0 0  101 0 0  72 0 0  14 0 0
0 0 0  0 0 0  0 0 0  0 0 0  0 0 0  0 0 0
0 0 0  0 0 0
0 0 0  0 0 0  0 0 0  0 0 0  0 0 0  0 0 0
0 0 0  18 0 0  112 0 0  112 0 0  87 0 0  64 0 0
10 0 0  6 8 7  107 39 36  254 78 65  212 45 34  175 48 41
202 58 50  199 86 81  146 41 37  62 3 1  85 28 23  254 78 65
139 11 6  37 13 10  189 80 75  254 78 65  212 45 34  163 28 23
163 28 23  163 28 23  212 45 34  127 8 7  37 13 10  193 69 63
212 45 34  68 5 3  11 13 9  5 6 5  179 56 51  226 62 49
81 0 0  18 14 13  163 28 23  245 73 62  212 45 34  82 13 11
199 86 81  254 78 65  134 12 11  44 5 4  1 3 2  0 0 0
7 0 0  100 0 0  121 1 0  103 0 0  74 0 0  32 1 0
2 0 0  0 0 0  0 0 0  0 0 0  0 0 0  0 0 0
0 0 0  0 0 0
0 0 0  0 0 0  0 0 0  0 0 0  0 0 0  0 0 0
0 0 0  8 0 0  101 0 0  107 0 0  81 0 0  53 0 0
12 13 13  17 17 15  168 56 50  212 45 34  67 0 0  71 22 18
71 22 18  58 10 10  60 0 0  48 13 13  89 29 24  245 73 62
101 0 0  79 22 19  254 78 65  163 28 23  83 7 6  93 4 3
62 0 0  72 4 2  212 45 34  125 5 4  40 15 16  191 59 51
163 28 23  58 5 4  14 15 11  8 9 7  175 48 41  212 45 34
67 0 0  17 17 15  46 8 6  163 28 23  212 45 34  235 72 62
254 78 65  131 2 1  53 1 1  8 9 7  2 2 1  0 0 0
7 0 0  101 0 0  118 0 0  101 0 0  72 0 0  49 0 0
2 0 0  0 0 0  0 0 0  0 0 0  0 0 0  0 0 0
0 0 0  0 0 0
0 0 0  0 0 0  0 0 0  0 0 0  0 0 0  0 0 0
0 0 0  7 0 0  99 0 0  105 0 0  78 0 0  48 13 13
12 13 13  0 0 0  150 35 32  188 53 46  168 56 50  189 80 75
168 56 50  168 56 50  92 30 32  17 17 15  89 29 24  226 62 49
95 0 0  104 33 31  226 62 49  90 2 2  146 41 37  125 5 4
29 11 8  71 22 18  226 62 49  113 5 4  40 15 16  191 59 51
163 28 23  58 5 4  17 15 13  11 13 9  175 48 41  212 45 34
68 0 0  17 17 15  13 17 13  88 9 5  212 45 34  212 45 34
163 28 23  68 0 0  30 13 14  6 8 7  2 2 1  0 0 0
7 0 0  100 0 0  117 0 0  95 0 0  69 0 0  30 0 0
0 0 0  0 0 0  0 0 0  0 0 0  0 0 0  0 0 0
0 0 0  0 0 0
0 0 0  0 0 0  0 0 0  0 0 0  0 0 0  0 0 0
0 0 0  8 0 0  101 0 0  108 0 0  69 10 10  30 13 14
6 8 7  17 17 15  92 30 32  141 25 21  163 28 23  191 59 51
196 64 55  219 68 59  226 62 49  88 9 5  85 28 23  226 62 49
88 0 0  116 35 33  212 45 34  88 9 5  146 41 37  103 0 0
13 10 7  58 10 10  212 45 34  106 0 0  40 15 16  179 56 51
163 28 23  58 5 4  17 17 15  14 15 11  165 43 38  212 45 34
64 0 0  17 15 13  13 17 13  30 13 14  188 53 46  163 28 23
123 1 0  58 10 10  13 17 13  7 6 5  1 0 0  0 0 0
10 0 0  104 0 0  114 0 0  89 0 0  67 0 0  18 0 0
0 0 0  0 0 0  0 0 0  0 0 0  0 0 0  0 0 0
0 0 0  0 0 0
0 0 0  0 0 0  0 0 0  0 0 0  0 0 0  0 0 0
0 0 0  8 0 0  104 0 0  112 0 0  83 7 6  40 15 16
12 13 13  11 13 9  14 8 7  51 3 2  53 1 1  53 0 0
49 0 0  109 0 0  163 28 23  80 0 0  89 29 24  212 45 34
81 0 0  105 17 13  212 45 34  115 0 0  129 4 3  91 0 0
8 9 7  48 13 13  188 53 46  98 2 1  40 15 16  177 53 47
163 28 23  54 5 3  17 17 15  13 17 13  162 44 39  163 28 23
62 3 1  17 17 15  11 13 9  92 30 32  199 86 81  163 28 23
163 28 23  119 4 4  17 15 13  5 6 5  1 1 0  0 0 0
30 0 0  115 0 0  108 0 0  85 0 0  56 0 0  12 0 0
0 0 0  0 0 0  0 0 0  0 0 0  0 0 0  0 0 0
0 0 0  0 0 0
0 0 0  0 0 0  0 0 0  0 0 0  0 0 0  0 0 0
0 0 0  7 0 0  105 0 0  113 0 0  85 0 0  37 0 0
0 0 0  4 0 0  48 13 13  85 28 23  92 30 32  92 30 32
92 30 32  168 56 50  163 28 23  60 0 0  89 29 24  212 45 34
78 0 0  67 13 13  163 28 23  139 11 6  123 1 0  96 0 0
71 22 18  107 39 36  188 53 46  88 0 0  48 13 13  165 43 38
163 28 23  136 14 11  92 30 32  92 30 32  199 86 81  163 28 23
60 0 0  17 17 15  30 13 14  199 86 81  163 28 23  78 0 0
139 11 6  163 28 23  69 10 10  6 8 7  2 2 1  0 0 0
21 0 0  108 0 0  103 0 0  78 0 0  42 1 1  4 0 0
1 0 0  0 0 0  0 0 0  0 0 0  0 0 0  0 0 0
0 0 0  0 0 0
0 0 0  0 0 0  0 0 0  0 0 0  0 0 0  0 0 0
0 0 0  7 0 0  105 0 0  113 0 0  85 0 0  32 1 0
0 0 0  7 0 0  168 56 50  199 86 81  199 86 81  199 86 81
199 86 81  206 62 55  119 4 4  51 3 2  89 29 24  212 45 34
72 0 0  40 15 16  85 3 3  112 0 0  121 1 0  105 0 0
146 41 37  168 56 50  144 19 16  74 0 0  40 15 16  111 9 7
131 2 1  163 28 23  193 69 63  199 86 81  175 48 41  87 0 0
54 5 3  11 13 9  146 41 37  193 69 63  78 0 0  58 10 10
114 2 0  139 11 6  131 2 1  31 9 7  1 3 2  0 0 0
26 0 0  113 0 0  95 0 0  72 0 0  32 1 0  10 0 0
2 0 0  0 0 0  0 0 0  0 0 0  0 0 0  0 0 0
0 0 0  0 0 0
0 0 0  0 0 0  0 0 0  0 0 0  0 0 0  0 0 0
0 0 0  8 0 0  104 0 0  113 0 0  85 0 0  23 0 0
0 0 0  10 1 1  102 6 5  69 0 0  67 0 0  70 0 0
70 0 0  67 0 0  56 0 0  42 11 8  67 13 13  102 6 5
56 0 0  37 13 10  21 13 9  57 4 3  113 0 0  112 0 0
61 0 0  47 0 0  49 0 0  53 1 1  37 13 10  29 11 8
59 4 2  61 0 0  69 0 0  67 0 0  55 0 0  54 5 3
23 9 7  58 10 10  146 41 37  105 17 13  72 4 2  17 17 15
58 10 10  85 0 0  72 0 0  63 2 2  4 3 2  0 0 0
67 0 0  118 0 0  85 0 0  49 0 0  7 0 0  13 0 0
0 0 0  0 0 0  0 0 0  0 0 0  0 0 0  0 0 0
0 0 0  0 0 0
0 0 0  0 0 0  0 0 0  0 0 0  0 0 0  0 0 0
0 0 0  8 0 0  105 0 0  113 0 0  85 0 0  23 0 0
0 0 0  2 2 1  24 3 3  31 9 7  37 13 10  37 13 10
37 13 10  37 13 10  29 11 8  8 9 7  19 9 7  34 4 4
34 4 4  14 8 7  6 8 7  10 8 7  93 0 0  121 1 0
68 5 3  19 9 7  23 9 7  29 11 8  14 8 7  6 8 7
13 10 7  29 11 8  37 13 10  37 13 10  29 11 8  13 10 7
6 8 7  31 9 7  44 5 4  93 4 3  44 5 4  8 9 7
11 8 8  31 9 7  31 9 7  28 5 3  2 2 1  37 0 0
114 0 0  105 0 0  74 0 0  18 0 0  0 0 0  12 0 0
0 0 0  0 0 0  0 0 0  0 0 0  0 0 0  0 0 0
0 0 0  0 0 0
0 0 0  0 0 0  0 0 0  0 0 0  0 0 0  0 0 0
0 0 0  7 0 0  104 0 0  115 0 0  88 0 0  23 0 0
0 0 0  0 0 0  0 2 1  2 6 4  5 6 5  7 7 6
4 4 3  2 3 2  3 3 3  4 4 3  4 4 3  0 0 0
1 3 2  2 3 2  2 2 1  0 2 1  64 0 0  126 1 1
91 0 0  6 4 2  1 3 2  1 2 1  2 2 1  3 3 2
4 4 3  4 4 3  5 6 5  1 2 1  0 0 0  0 2 1
2 3 2  1 3 2  1 3 2  21 5 4  6 4 2  3 3 2
4 3 2  2 3 2  1 3 2  0 2 1  19 0 0  123 1 0
121 1 0  91 0 0  49 0 0  0 0 0  9 0 0  7 0 0
0 0 0  0 0 0  0 0 0  0 0 0  0 0 0  0 0 0
0 0 0  0 0 0
0 0 0  0 0 0  0 0 0  0 0 0  0 0 0  0 0 0
0 0 0  7 0 0  103 0 0  117 0 0  91 0 0  23 0 0
0 0 0  0 0 0  0 0 0  1 0 0  1 1 1  2 2 1
1 1 1  1 1 0  0 0 0  0 0 0  0 0 0  1 0 0
0 0 0  0 0 0  0 0 0  0 0 0  26 0 0  116 0 0
116 0 0  43 1 1  0 0 0  0 0 0  0 0 0  0 0 0
0 0 0  1 0 0  1 1 0  30 13 14  46 8 6  46 1 1
21 0 0  0 0 0  0 0 0  0 1 0  0 0 0  0 0 0
0 0 0  0 0 0  0 0 0  0 0 0  30 0 0  123 1 0
99 0 0  60 0 0  26 0 0  0 0 0  14 0 0  0 0 0
0 0 0  0 0 0  0 0 0  0 0 0  0 0 0  0 0 0
0 0 0  0 0 0
0 0 0  0 0 0  0 0 0  0 0 0  0 0 0  0 0 0
0 0 0  7 0 0  103 0 0  117 0 0  96 0 0  37 0 0
0 0 0  0 0 0  0 0 0  0 0 0  0 0 0  0 0 0
0 0 0  0 0 0  0 0 0  0 0 0  0 0 0  0 0 0
0 0 0  0 0 0  0 0 0  0 0 0  21 0 0  110 1 1
123 1 0  91 0 0  10 0 0  0 0 0  0 0 0  0 0 0
0 0 0  0 0 0  0 0 0  31 9 7  67 0 0  64 0 0
10 0 0  0 0 0  0 0 0  0 0 0  0 0 0  0 0 0
0 0 0  0 0 0  0 0 0  10 1 1  91 0 0  110 0 0
72 0 0  8 0 0  1 0 0  6 0 0  9 0 0  0 0 0
0 0 0  0 0 0  0 0 0  0 0 0  0 0 0  0 0 0
0 0 0  0 0 0
0 0 0  0 0 0  0 0 0  0 0 0  0 0 0  0 0 0
0 0 0  2 0 0  91 0 0  118 0 0  99 0 0  56 0 0
2 0 0  0 0 0  0 0 0  0 0 0  0 0 0  0 0 0
0 0 0  0 0 0  0 0 0  0 0 0  0 0 0  0 0 0
0 0 0  0 0 0  0 0 0  26 0 0  8 0 0  77 4 3
114 0 0  116 0 0  72 0 0  1 0 0  0 0 0  0 0 0
0 0 0  0 0 0  0 0 0  0 0 0  0 0 0  0 0 0
0 0 0  0 0 0  0 0 0  0 0 0  0 0 0  0 0 0
0 0 0  0 0 0  23 9 7  105 17 13  117 0 0  85 0 0
53 0 0  1 0 0  0 0 0  4 0 0  1 0 0  0 0 0
0 0 0  0 0 0  0 0 0  0 0 0  0 0 0  0 0 0
0 0 0  0 0 0
0 0 0  0 0 0  0 0 0  0 0 0  0 0 0  0 0 0
0 0 0  0 0 0  85 0 0  117 0 0  100 0 0  72 0 0
14 0 0  0 0 0  0 0 0  0 0 0  0 0 0  0 0 0
0 0 0  0 0 0  0 0 0  0 0 0  0 0 0  0 0 0
0 0 0  0 0 0  0 0 0  37 0 0  37 0 0  21 0 0
43 1 1  113 0 0  113 0 0  64 0 0  1 0 0  0 0 0
0 0 0  0 0 0  0 0 0  0 0 0  0 0 0  0 0 0
0 0 0  0 0 0  0 0 0  0 0 0  0 0 0  0 0 0
5 6 5  37 13 10  105 17 13  118 0 0  88 0 0  46 1 1
19 0 0  0 0 0  0 0 0  0 0 0  0 0 0  0 0 0
0 0 0  0 0 0  0 0 0  0 0 0  0 0 0  0 0 0
0 0 0  0 0 0
0 0 0  0 0 0  0 0 0  0 0 0  0 0 0  0 0 0
0 0 0  0 0 0  67 0 0  115 0 0  103 0 0  72 0 0
9 0 0  0 0 0  0 0 0  0 0 0  0 0 0  0 0 0
0 0 0  0 0 0  0 0 0  0 0 0  0 0 0  0 0 0
0 0 0  0 0 0  0 0 0  1 0 0  43 1 1  47 0 0
37 0 0  68 5 3  114 0 0  114 0 0  74 0 0  14 0 0
0 0 0  0 0 0  0 0 0  0 0 0  0 0 0  0 0 0
0 0 0  0 0 0  0 0 0  0 0 0  0 0 0  48 13 13
116 35 33  127 8 7  112 0 0  85 0 0  42 1 1  1 0 0
0 0 0  0 0 0  0 0 0  0 0 0  0 0 0  0 0 0
0 0 0  0 0 0  0 0 0  0 0 0  0 0 0  0 0 0
0 0 0  0 0 0
0 0 0  0 0 0  0 0 0  0 0 0  0 0 0  0 0 0
0 0 0  0 0 0  47 0 0  112 0 0  105 0 0  80 0 0
21 0 0  0 0 0  0 0 0  0 0 0  0 0 0  0 0 0
0 0 0  0 0 0  0 0 0  0 0 0  0 0 0  0 0 0
0 0 0  0 0 0  0 0 0  0 0 0  8 0 0  21 0 0
49 0 0  78 0 0  77 4 3  104 0 0  110 0 0  93 0 0
43 1 1  9 0 0  0 0 0  0 0 0  0 0 0  0 0 0
0 0 0  0 0 0  4 4 3  21 13 9  79 22 19  141 25 21
122 2 1  96 0 0  72 0 0  30 0 0  0 0 0  0 0 0
0 0 0  0 0 0  0 0 0  0 0 0  0 0 0  0 0 0
0 0 0  0 0 0  0 0 0  0 0 0  0 0 0  0 0 0
0 0 0  0 0 0
0 0 0  0 0 0  0 0 0  0 0 0  0 0 0  0 0 0
0 0 0  0 0 0  30 0 0  107 0 0  108 0 0  91 0 0
47 0 0  0 0 0  0 0 0  0 0 0  0 0 0  0 0 0
0 0 0  0 0 0  0 0 0  0 0 0  0 0 0  0 0 0
0 0 0  0 0 0  0 0 0  0 0 0  0 0 0  0 0 0
1 0 0  43 1 1  72 0 0  72 4 2  91 0 0  99 0 0
104 0 0  95 0 0  67 0 0  47 0 0  32 1 0  23 0 0
44 5 4  82 13 11  116 35 33  132 11 9  119 4 4  101 0 0
80 0 0  49 0 0  13 0 0  0 0 0  0 0 0  0 0 0
0 0 0  0 0 0  0 0 0  0 0 0  0 0 0  0 0 0
0 0 0  0 0 0  0 0 0  0 0 0  0 0 0  0 0 0
0 0 0  0 0 0
0 0 0  0 0 0  0 0 0  0 0 0  0 0 0  0 0 0
0 0 0  0 0 0  10 0 0  93 0 0  112 0 0  101 0 0
62 0 0  0 0 0  0 0 0  0 0 0  0 0 0  0 0 0
0 0 0  0 0 0  0 0 0  0 0 0  0 0 0  0 0 0
0 0 0  0 0 0  0 0 0  0 0 0  0 0 0  0 0 0
0 0 0  0 0 0  23 0 0  60 0 0  74 2 2  72 0 0
74 0 0  93 0 0  107 0 0  115 0 0  118 0 0  116 0 0
121 1 0  121 1 0  109 0 0  95 0 0  78 0 0  49 0 0
21 0 0  0 0 0  0 0 0  0 0 0  0 0 0  0 0 0
0 0 0  0 0 0  0 0 0  0 0 0  0 0 0  0 0 0
0 0 0  0 0 0  0 0 0  0 0 0  0 0 0  0 0 0
0 0 0  0 0 0
0 0 0  0 0 0  0 0 0  0 0 0  0 0 0  0 0 0
0 0 0  0 0 0  0 0 0  72 0 0  112 0 0  112 0 0
93 0 0  23 0 0  0 0 0  0 0 0  0 0 0  0 0 0
0 0 0  0 0 0  0 0 0  0 0 0  0 0 0  0 0 0
0 0 0  0 0 0  0 0 0  0 0 0  0 0 0  0 0 0
0 0 0  0 0 0  0 0 0  6 0 0  32 1 0  49 0 0
30 0 0  26 0 0  37 0 0  60 0 0  67 0 0  68 0 0
64 0 0  60 0 0  42 1 1  26 0 0  9 0 0  0 0 0
0 0 0  0 0 0  0 0 0  0 0 0  0 0 0  0 0 0
0 0 0  0 0 0  0 0 0  0 0 0  0 0 0  0 0 0
0 0 0  0 0 0  0 0 0  0 0 0  0 0 0  0 0 0
0 0 0  0 0 0
0 0 0  0 0 0  0 0 0  0 0 0  0 0 0  0 0 0
0 0 0  0 0 0  0 0 0  43 1 1  106 0 0  114 0 0
108 0 0  81 0 0  42 1 1  7 0 0  0 0 0  0 0 0
0 0 0  0 0 0  0 0 0  0 0 0  0 0 0  0 0 0
0 0 0  0 0 0  0 0 0  0 0 0  0 0 0  0 0 0
0 0 0  0 0 0  0 0 0  0 0 0  0 0 0  7 0 0
30 0 0  30 0 0  26 0 0  18 0 0  14 0 0  9 0 0
8 0 0  2 0 0  0 0 0  0 0 0  0 0 0  0 0 0
0 0 0  0 0 0  0 0 0  0 0 0  0 0 0  0 0 0
0 0 0  0 0 0  0 0 0  0 0 0  0 0 0  0 0 0
0 0 0  0 0 0  0 0 0  0 0 0  0 0 0  0 0 0
0 0 0  0 0 0
0 0 0  0 0 0  0 0 0  0 0 0  0 0 0  0 0 0
0 0 0  0 0 0  0 0 0  13 0 0  91 0 0  110 0 0
114 0 0  100 0 0  89 0 0  56 0 0  2 0 0  0 0 0
0 0 0  0 0 0  0 0 0  0 0 0  0 0 0  0 0 0
0 0 0  0 0 0  0 0 0  0 0 0  0 0 0  0 0 0
0 0 0  0 0 0  0 0 0  0 0 0  0 0 0  0 0 0
0 0 0  2 0 0  10 0 0  19 0 0  23 0 0  21 0 0
18 0 0  3 0 0  0 0 0  0 0 0  0 0 0  0 0 0
0 0 0  0 0 0  0 0 0  0 0 0  0 0 0  0 0 0
0 0 0  0 0 0  0 0 0  0 0 0  0 0 0  0 0 0
0 0 0  0 0 0  0 0 0  0 0 0  0 0 0  0 0 0
0 0 0  0 0 0
0 0 0  0 0 0  0 0 0  0 0 0  0 0 0  0 0 0
0 0 0  0 0 0  0 0 0  0 0 0  67 0 0  103 0 0
112 0 0  105 0 0  85 0 0  74 0 0  26 0 0  0 0 0
0 0 0  0 0 0  0 0 0  0 0 0  0 0 0  0 0 0
0 0 0  0 0 0  0 0 0  0 0 0  0 0 0  0 0 0
0 0 0  0 0 0  0 0 0  0 0 0  0 0 0  0 0 0
0 0 0  0 0 0  0 0 0  0 0 0  0 0 0  0 0 0
0 0 0  0 0 0  0 0 0  0 0 0  0 0 0  0 0 0
0 0 0  0 0 0  0 0 0  0 0 0  0 0 0  0 0 0
0 0 0  0 0 0  0 0 0  0 0 0  0 0 0  0 0 0
0 0 0  0 0 0  0 0 0  0 0 0  0 0 0  0 0 0
0 0 0  0 0 0
0 0 0  0 0 0  0 0 0  0 0 0  0 0 0  0 0 0
0 0 0  0 0 0  0 0 0  0 0 0  30 0 0  93 0 0
101 0 0  103 0 0  87 0 0  64 0 0  26 0 0  0 0 0
0 0 0  0 0 0  0 0 0  0 0 0  0 0 0  0 0 0
0 0 0  0 0 0  0 0 0  0 0 0  0 0 0  0 0 0
0 0 0  0 0 0  0 0 0  0 0 0  0 0 0  0 0 0
0 0 0  0 0 0  0 0 0  0 0 0  0 0 0  0 0 0
0 0 0  0 0 0  0 0 0  0 0 0  0 0 0  0 0 0
0 0 0  0 0 0  0 0 0  0 0 0  0 0 0  0 0 0
0 0 0  0 0 0  0 0 0  0 0 0  0 0 0  0 0 0
0 0 0  0 0 0  0 0 0  0 0 0  0 0 0  0 0 0
0 0 0  0 0 0
0 0 0  0 0 0  0 0 0  0 0 0  0 0 0  0 0 0
0 0 0  0 0 0  0 0 0  0 0 0  2 0 0  70 0 0
95 0 0  96 0 0  87 0 0  67 0 0  19 0 0  0 0 0
0 0 0  0 0 0  0 0 0  0 0 0  0 0 0  0 0 0
0 0 0  0 0 0  0 0 0  0 0 0  0 0 0  0 0 0
0 0 0  0 0 0  0 0 0  0 0 0  0 0 0  0 0 0
0 0 0  0 0 0  0 0 0  0 0 0  0 0 0  0 0 0
0 0 0  0 0 0  0 0 0  0 0 0  0 0 0  0 0 0
0 0 0  0 0 0  0 0 0  0 0 0  0 0 0  0 0 0
0 0 0  0 0 0  0 0 0  0 0 0  0 0 0  0 0 0
0 0 0  0 0 0  0 0 0  0 0 0  0 0 0  0 0 0
0 0 0  0 0 0
0 0 0  0 0 0  0 0 0  0 0 0  0 0 0  0 0 0
0 0 0  0 0 0  0 0 0  0 0 0  0 0 0  37 0 0
88 0 0  91 0 0  89 0 0  74 0 0  53 0 0  4 0 0
0 0 0  0 0 0  0 0 0  0 0 0  0 0 0  0 0 0
0 0 0  0 0 0  0 0 0  0 0 0  0 0 0  0 0 0
0 0 0  0 0 0  0 0 0  0 0 0  0 0 0  0 0 0
0 0 0  0 0 0  0 0 0  0 0 0  0 0 0  0 0 0
0 0 0  0 0 0  0 0 0  0 0 0  0 0 0  0 0 0
0 0 0  0 0 0  0 0 0  0 0 0  0 0 0  0 0 0
0 0 0  0 0 0  0 0 0  0 0 0  0 0 0  0 0 0
0 0 0  0 0 0  0 0 0  0 0 0  0 0 0  0 0 0
0 0 0  0 0 0
0 0 0  0 0 0  0 0 0  0 0 0  0 0 0  0 0 0
0 0 0  0 0 0  0 0 0  0 0 0  0 0 0  4 0 0
68 0 0  89 0 0  91 0 0  81 0 0  69 0 0  10 0 0
0 0 0  0 0 0  0 0 0  0 0 0  0 0 0  0 0 0
0 0 0  0 0 0  0 0 0  0 0 0  0 0 0  0 0 0
0 0 0  0 0 0  0 0 0  0 0 0  0 0 0  0 0 0
0 0 0  0 0 0  0 0 0  0 0 0  0 0 0  0 0 0
0 0 0  0 0 0  0 0 0  0 0 0  0 0 0  0 0 0
0 0 0  0 0 0  0 0 0  0 0 0  0 0 0  0 0 0
0 0 0  0 0 0  0 0 0  0 0 0  0 0 0  0 0 0
0 0 0  0 0 0  0 0 0  0 0 0  0 0 0  0 0 0
0 0 0  0 0 0
0 0 0  0 0 0  0 0 0  0 0 0  0 0 0  0 0 0
0 0 0  0 0 0  0 0 0  0 0 0  0 0 0  0 0 0
26 0 0  85 0 0  89 0 0  88 0 0  78 0 0  42 1 1
2 0 0  0 0 0  0 0 0  0 0 0  0 0 0  0 0 0
0 0 0  0 0 0  0 0 0  0 0 0  0 0 0  0 0 0
0 0 0  0 0 0  0 0 0  0 0 0  0 0 0  0 0 0
0 0 0  0 0 0  0 0 0  0 0 0  0 0 0  0 0 0
0 0 0  0 0 0  0 0 0  0 0 0  0 0 0  0 0 0
0 0 0  0 0 0  0 0 0  0 0 0  0 0 0  0 0 0
0 0 0  0 0 0  0 0 0  0 0 0  0 0 0  0 0 0
0 0 0  0 0 0  0 0 0  0 0 0  0 0 0  0 0 0
0 0 0  0 0 0
0 0 0  0 0 0  0 0 0  0 0 0  0 0 0  0 0 0
0 0 0  0 0 0  0 0 0  0 0 0  0 0 0  0 0 0
0 0 0  56 0 0  87 0 0  89 0 0  85 0 0  69 0 0
6 0 0  0 0 0  0 0 0  0 0 0  0 0 0  0 0 0
0 0 0  0 0 0  0 0 0  0 0 0  0 0 0  0 0 0
0 0 0  0 0 0  0 0 0  0 0 0  0 0 0  0 0 0
0 0 0  0 0 0  0 0 0  0 0 0  0 0 0  0 0 0
0 0 0  0 0 0  0 0 0  0 0 0  0 0 0  0 0 0
0 0 0  0 0 0  0 0 0  0 0 0  0 0 0  0 0 0
0 0 0  0 0 0  0 0 0  0 0 0  0 0 0  0 0 0
0 0 0  0 0 0  0 0 0  0 0 0  0 0 0  0 0 0
0 0 0  0 0 0
0 0 0  0 0 0  0 0 0  0 0 0  0 0 0  0 0 0
0 0 0  0 0 0  0 0 0  0 0 0  0 0 0  0 0 0
0 0 0  12 0 0  72 0 0  85 0 0  88 0 0  81 0 0
37 0 0  0 0 0  0 0 0  0 0 0  0 0 0  0 0 0
0 0 0  0 0 0  0 0 0  0 0 0  0 0 0  0 0 0
0 0 0  0 0 0  0 0 0  0 0 0  0 0 0  0 0 0
0 0 0  0 0 0  0 0 0  0 0 0  0 0 0  0 0 0
0 0 0  0 0 0  0 0 0  0 0 0  0 0 0  0 0 0
0 0 0  0 0 0  0 0 0  0 0 0  0 0 0  0 0 0
0 0 0  0 0 0  0 0 0  0 0 0  0 0 0  0 0 0
0 0 0  0 0 0  0 0 0  0 0 0  0 0 0  0 0 0
0 0 0  0 0 0
0 0 0  0 0 0  0 0 0  0 0 0  0 0 0  0 0 0
0 0 0  0 0 0  0 0 0  0 0 0  0 0 0  0 0 0
0 0 0  0 0 0  30 0 0  81 0 0  87 0 0  91 0 0
81 0 0  21 0 0  0 0 0  0 0 0  0 0 0  0 0 0
0 0 0  0 0 0  0 0 0  0 0 0  0 0 0  0 0 0
0 0 0  0 0 0  0 0 0  0 0 0  0 0 0  0 0 0
0 0 0  0 0 0  0 0 0  0 0 0  0 0 0  0 0 0
0 0 0  0 0 0  0 0 0  0 0 0  0 0 0  0 0 0
0 0 0  0 0 0  0 0 0  0 0 0  0 0 0  0 0 0
0 0 0  0 0 0  0 0 0  0 0 0  0 0 0  0 0 0
0 0 0  0 0 0  0 0 0  0 0 0  0 0 0  0 0 0
0 0 0  0 0 0
0 0 0  0 0 0  0 0 0  0 0 0  0 0 0  0 0 0
0 0 0  0 0 0  0 0 0  0 0 0  0 0 0  0 0 0
0 0 0  0 0 0  0 0 0  47 0 0  85 0 0  91 0 0
91 0 0  70 0 0  10 0 0  0 0 0  0 0 0  0 0 0
0 0 0  0 0 0  0 0 0  0 0 0  0 0 0  0 0 0
0 0 0  0 0 0  0 0 0  0 0 0  0 0 0  0 0 0
0 0 0  0 0 0  0 0 0  0 0 0  0 0 0  0 0 0
0 0 0  0 0 0  0 0 0  0 0 0  0 0 0  0 0 0
0 0 0  0 0 0  0 0 0  0 0 0  0 0 0  0 0 0
0 0 0  0 0 0  0 0 0  0 0 0  0 0 0  0 0 0
0 0 0  0 0 0  0 0 0  0 0 0  0 0 0  0 0 0
0 0 0  0 0 0
0 0 0  0 0 0  0 0 0  0 0 0  0 0 0  0 0 0
0 0 0  0 0 0  0 0 0  0 0 0  0 0 0  0 0 0
0 0 0  0 0 0  0 0 0  4 0 0  56 0 0  85 0 0
91 0 0  91 0 0  72 0 0  7 0 0  0 0 0  0 0 0
0 0 0  0 0 0  0 0 0  0 0 0  0 0 0  0 0 0
0 0 0  0 0 0  0 0 0  0 0 0  0 0 0  0 0 0
0 0 0  0 0 0  0 0 0  0 0 0  0 0 0  0 0 0
0 0 0  0 0 0  0 0 0  0 0 0  0 0 0  0 0 0
0 0 0  0 0 0  0 0 0  0 0 0  0 0 0  0 0 0
0 0 0  0 0 0  0 0 0  0 0 0  0 0 0  0 0 0
0 0 0  0 0 0  0 0 0  0 0 0  0 0 0  0 0 0
0 0 0  0 0 0
0 0 0  0 0 0  0 0 0  0 0 0  0 0 0  0 0 0
0 0 0  0 0 0  0 0 0  0 0 0  0 0 0  0 0 0
0 0 0  0 0 0  0 0 0  0 0 0  6 0 0  64 0 0
85 0 0  91 0 0  93 0 0  42 1 1  0 0 0  0 0 0
0 0 0  0 0 0  0 0 0  0 0 0  0 0 0  0 0 0
0 0 0  0 0 0  0 0 0  0 0 0  0 0 0  0 0 0
0 0 0  0 0 0  0 0 0  0 0 0  0 0 0  0 0 0
0 0 0  0 0 0  0 0 0  0 0 0  0 0 0  0 0 0
0 0 0  0 0 0  0 0 0  0 0 0  0 0 0  0 0 0
0 0 0  0 0 0  0 0 0  0 0 0  0 0 0  0 0 0
0 0 0  0 0 0  0 0 0  0 0 0  0 0 0  0 0 0
0 0 0  0 0 0
0 0 0  0 0 0  0 0 0  0 0 0  0 0 0  0 0 0
0 0 0  0 0 0  0 0 0  0 0 0  0 0 0  0 0 0
0 0 0  0 0 0  0 0 0  0 0 0  0 0 0  14 0 0
67 0 0  85 0 0  91 0 0  88 0 0  23 0 0  0 0 0
0 0 0  0 0 0  0 0 0  0 0 0  0 0 0  0 0 0
0 0 0  0 0 0  0 0 0  0 0 0  0 0 0  0 0 0
0 0 0  0 0 0  0 0 0  0 0 0  0 0 0  0 0 0
0 0 0  0 0 0  0 0 0  0 0 0  0 0 0  0 0 0
0 0 0  0 0 0  0 0 0  0 0 0  0 0 0  0 0 0
0 0 0  0 0 0  0 0 0  0 0 0  0 0 0  0 0 0
0 0 0  0 0 0  0 0 0  0 0 0  0 0 0  0 0 0
0 0 0  0 0 0
0 0 0  0 0 0  0 0 0  0 0 0  0 0 0  0 0 0
0 0 0  0 0 0  0 0 0  0 0 0  0 0 0  0 0 0
0 0 0  0 0 0  0 0 0  0 0 0  0 0 0  0 0 0
13 0 0  64 0 0  85 0 0  95 0 0  93 0 0  67 0 0
6 0 0  0 0 0  0 0 0  0 0 0  0 0 0  0 0 0
0 0 0  0 0 0  0 0 0  0 0 0  0 0 0  0 0 0
0 0 0  0 0 0  0 0 0  0 0 0  0 0 0  0 0 0
0 0 0  0 0 0  0 0 0  0 0 0  0 0 0  0 0 0
0 0 0  0 0 0  0 0 0  0 0 0  0 0 0  0 0 0
0 0 0  0 0 0  0 0 0  0 0 0  0 0 0  0 0 0
0 0 0  0 0 0  0 0 0  0 0 0  0 0 0  0 0 0
0 0 0  0 0 0
0 0 0  0 0 0  0 0 0  0 0 0  0 0 0  0 0 0
0 0 0  0 0 0  0 0 0  0 0 0  0 0 0  0 0 0
0 0 0  0 0 0  0 0 0  0 0 0  0 0 0  0 0 0
0 0 0  13 0 0  60 0 0  85 0 0  95 0 0  100 0 0
68 0 0  10 0 0  0 0 0  0 0 0  0 0 0  0 0 0
0 0 0  0 0 0  0 0 0  0 0 0  0 0 0  0 0 0
0 0 0  0 0 0  0 0 0  0 0 0  0 0 0  0 0 0
0 0 0  0 0 0  0 0 0  0 0 0  0 0 0  0 0 0
0 0 0  0 0 0  0 0 0  0 0 0  0 0 0  0 0 0
0 0 0  0 0 0  0 0 0  0 0 0  0 0 0  0 0 0
0 0 0  0 0 0  0 0 0  0 0 0  0 0 0  0 0 0
0 0 0  0 0 0
0 0 0  0 0 0  0 0 0  0 0 0  0 0 0  0 0 0
0 0 0  0 0 0  0 0 0  0 0 0  0 0 0  0 0 0
0 0 0  0 0 0  0 0 0  0 0 0  0 0 0  0 0 0
0 0 0  0 0 0  6 0 0  49 0 0  81 0 0  88 0 0
93 0 0  78 0 0  8 0 0  0 0 0  0 0 0  0 0 0
0 0 0  0 0 0  0 0 0  0 0 0  0 0 0  0 0 0
0 0 0  0 0 0  0 0 0  0 0 0  0 0 0  0 0 0
0 0 0  0 0 0  0 0 0  0 0 0  0 0 0  0 0 0
0 0 0  0 0 0  0 0 0  0 0 0  0 0 0  0 0 0
0 0 0  0 0 0  0 0 0  0 0 0  0 0 0  0 0 0
0 0 0  0 0 0  0 0 0  0 0 0  0 0 0  0 0 0
0 0 0  0 0 0
0 0 0  0 0 0  0 0 0  0 0 0  0 0 0  0 0 0
0 0 0  0 0 0  0 0 0  0 0 0  0 0 0  0 0 0
0 0 0  0 0 0  0 0 0  0 0 0  0 0 0  0 0 0
0 0 0  0 0 0  0 0 0  1 0 0  37 0 0  69 0 0
81 0 0  87 0 0  60 0 0  13 0 0  0 0 0  0 0 0
0 0 0  0 0 0  0 0 0  0 0 0  0 0 0  0 0 0
0 0 0  0 0 0  0 0 0  0 0 0  0 0 0  0 0 0
0 0 0  0 0 0  0 0 0  0 0 0  0 0 0  0 0 0
0 0 0  0 0 0  0 0 0  0 0 0  0 0 0  0 0 0
0 0 0  0 0 0  0 0 0  0 0 0  0 0 0  0 0 0
0 0 0  0 0 0  0 0 0  0 0 0  0 0 0  0 0 0
0 0 0  0 0 0
0 0 0  0 0 0  0 0 0  0 0 0  0 0 0  0 0 0
0 0 0  0 0 0  0 0 0  0 0 0  0 0 0  0 0 0
0 0 0  0 0 0  0 0 0  0 0 0  0 0 0  0 0 0
0 0 0  0 0 0  0 0 0  0 0 0  0 0 0  14 0 0
53 0 0  78 0 0  95 0 0  85 0 0  53 0 0  37 0 0
0 0 0  0 0 0  0 0 0  0 0 0  0 0 0  0 0 0
0 0 0  0 0 0  0 0 0  0 0 0  0 0 0  0 0 0
0 0 0  0 0 0  0 0 0  0 0 0  0 0 0  0 0 0
0 0 0  0 0 0  0 0 0  0 0 0  0 0 0  0 0 0
0 0 0  0 0 0  0 0 0  0 0 0  0 0 0  0 0 0
0 0 0  0 0 0  0 0 0  0 0 0  0 0 0  0 0 0
0 0 0  0 0 0
0 0 0  0 0 0  0 0 0  0 0 0  0 0 0  0 0 0
0 0 0  0 0 0  0 0 0  0 0 0  0 0 0  0 0 0
0 0 0  0 0 0  0 0 0  0 0 0  0 0 0  0 0 0
0 0 0  0 0 0  0 0 0  0 0 0  0 0 0  0 0 0
3 0 0  30 0 0  64 0 0  88 0 0  96 0 0  95 0 0
42 1 1  0 0 0  0 0 0  0 0 0  0 0 0  0 0 0
0 0 0  0 0 0  0 0 0  0 0 0  0 0 0  0 0 0
0 0 0  0 0 0  0 0 0  0 0 0  0 0 0  0 0 0
0 0 0  0 0 0  0 0 0  0 0 0  0 0 0  0 0 0
0 0 0  0 0 0  0 0 0  0 0 0  0 0 0  0 0 0
0 0 0  0 0 0  0 0 0  0 0 0  0 0 0  0 0 0
0 0 0  0 0 0
0 0 0  0 0 0  0 0 0  0 0 0  0 0 0  0 0 0
0 0 0  0 0 0  0 0 0  0 0 0  0 0 0  0 0 0
0 0 0  0 0 0  0 0 0  0 0 0  0 0 0  0 0 0
0 0 0  0 0 0  0 0 0  0 0 0  0 0 0  0 0 0
0 0 0  0 0 0  6 0 0  32 1 0  61 0 0  78 0 0
85 0 0  49 0 0  9 0 0  0 0 0  0 0 0  0 0 0
0 0 0  0 0 0  0 0 0  0 0 0  0 0 0  0 0 0
0 0 0  0 0 0  0 0 0  0 0 0  0 0 0  0 0 0
0 0 0  0 0 0  0 0 0  0 0 0  0 0 0  0 0 0
0 0 0  0 0 0  0 0 0  0 0 0  0 0 0  0 0 0
0 0 0  0 0 0  0 0 0  0 0 0  0 0 0  0 0 0
0 0 0  0 0 0
0 0 0  0 0 0  0 0 0  0 0 0  0 0 0  0 0 0
0 0 0  0 0 0  0 0 0  0 0 0  0 0 0  0 0 0
0 0 0  0 0 0  0 0 0  0 0 0  0 0 0  0 0 0
0 0 0  0 0 0  0 0 0  0 0 0  0 0 0  0 0 0
0 0 0  0 0 0  0 0 0  0 0 0  3 0 0  21 0 0
43 1 1  67 0 0  72 0 0  55 0 0  32 1 0  21 0 0
9 0 0  2 0 0  0 0 0  0 0 0  0 0 0  0 0 0
0 0 0  0 0 0  0 0 0  0 0 0  0 0 0  0 0 0
0 0 0  0 0 0  0 0 0  0 0 0  0 0 0  0 0 0
0 0 0  0 0 0  0 0 0  0 0 0  0 0 0  0 0 0
0 0 0  0 0 0  0 0 0  0 0 0  0 0 0  0 0 0
0 0 0  0 0 0
0 0 0  0 0 0  0 0 0  0 0 0  0 0 0  0 0 0
0 0 0  0 0 0  0 0 0  0 0 0  0 0 0  0 0 0
0 0 0  0 0 0  0 0 0  0 0 0  0 0 0  0 0 0
0 0 0  0 0 0  0 0 0  0 0 0  0 0 0  0 0 0
0 0 0  0 0 0  0 0 0  0 0 0  0 0 0  0 0 0
0 0 0  4 0 0  19 0 0  37 0 0  47 0 0  49 0 0
53 0 0  37 0 0  10 0 0  0 0 0  0 0 0  0 0 0
0 0 0  0 0 0  0 0 0  0 0 0  0 0 0  0 0 0
0 0 0  0 0 0  0 0 0  0 0 0  0 0 0  0 0 0
0 0 0  0 0 0  0 0 0  0 0 0  0 0 0  0 0 0
0 0 0  0 0 0  0 0 0  0 0 0  0 0 0  0 0 0
0 0 0  0 0 0
0 0 0  0 0 0  0 0 0  0 0 0  0 0 0  0 0 0
0 0 0  0 0 0  0 0 0  0 0 0  0 0 0  0 0 0
0 0 0  0 0 0  0 0 0  0 0 0  0 0 0  0 0 0
0 0 0  0 0 0  0 0 0  0 0 0  0 0 0  0 0 0
0 0 0  0 0 0  0 0 0  0 0 0  0 0 0  0 0 0
0 0 0  0 0 0  0 0 0  0 0 0  0 0 0  0 0 0
0 0 0  1 0 0  0 0 0  0 0 0  0 0 0  0 0 0
0 0 0  0 0 0  0 0 0  0 0 0  0 0 0  0 0 0
0 0 0  0 0 0  0 0 0  0 0 0  0 0 0  0 0 0
0 0 0  0 0 0  0 0 0  0 0 0  0 0 0  0 0 0
0 0 0  0 0 0  0 0 0  0 0 0  0 0 0  0 0 0
0 0 0  0 0 0
0 0 0  0 0 0  0 0 0  0 0 0  0 0 0  0 0 0
0 0 0  0 0 0  0 0 0  0 0 0  0 0 0  0 0 0
0 0 0  0 0 0  0 0 0  0 0 0  0 0 0  0 0 0
0 0 0  0 0 0  0 0 0  0 0 0  0 0 0  0 0 0
0 0 0  0 0 0  0 0 0  0 0 0  0 0 0  0 0 0
0 0 0  0 0 0  0 0 0  0 0 0  0 0 0  0 0 0
0 0 0  0 0 0  0 0 0  0 0 0  0 0 0  0 0 0
0 0 0  0 0 0  0 0 0  0 0 0  0 0 0  0 0 0
0 0 0  0 0 0  0 0 0  0 0 0  0 0 0  0 0 0
0 0 0  0 0 0  0 0 0  0 0 0  0 0 0  0 0 0
0 0 0  0 0 0  0 0 0  0 0 0  0 0 0  0 0 0
0 0 0  0 0 0
0 0 0  0 0 0  0 0 0  0 0 0  0 0 0  0 0 0
0 0 0  0 0 0  0 0 0  0 0 0  0 0 0  0 0 0
0 0 0  0 0 0  0 0 0  0 0 0  0 0 0  0 0 0
0 0 0  0 0 0  0 0 0  0 0 0  0 0 0  0 0 0
0 0 0  0 0 0  0 0 0  0 0 0  0 0 0  0 0 0
0 0 0  0 0 0  0 0 0  0 0 0  0 0 0  0 0 0
0 0 0  0 0 0  0 0 0  0 0 0  0 0 0  0 0 0
0 0 0  0 0 0  0 0 0  0 0 0  0 0 0  0 0 0
0 0 0  0 0 0  0 0 0  0 0 0  0 0 0  0 0 0
0 0 0  0 0 0  0 0 0  0 0 0  0 0 0  0 0 0
0 0 0  0 0 0  0 0 0  0 0 0  0 0 0  0 0 0
0 0 0  0 0 0
0 0 0  0 0 0  0 0 0  0 0 0  0 0 0  0 0 0
0 0 0  0 0 0  0 0 0  0 0 0  0 0 0  0 0 0
0 0 0  0 0 0  0 0 0  0 0 0  0 0 0  0 0 0
0 0 0  0 0 0  0 0 0  0 0 0  0 0 0  0 0 0
0 0 0  0 0 0  0 0 0  0 0 0  0 0 0  0 0 0
0 0 0  0 0 0  0 0 0  0 0 0  0 0 0  0 0 0
0 0 0  0 0 0  0 0 0  0 0 0  0 0 0  0 0 0
0 0 0  0 0 0  0 0 0  0 0 0  0 0 0  0 0 0
0 0 0  0 0 0  0 0 0  0 0 0  0 0 0  0 0 0
0 0 0  0 0 0  0 0 0  0 0 0  0 0 0  0 0 0
0 0 0  0 0 0  0 0 0  0 0 0  0 0 0  0 0 0
0 0 0  0 0 0
0 0 0  0 0 0  0 0 0  0 0 0  0 0 0  0 0 0
0 0 0  0 0 0  0 0 0  0 0 0  0 0 0  0 0 0
0 0 0  0 0 0  0 0 0  0 0 0  0 0 0  0 0 0
0 0 0  0 0 0  0 0 0  0 0 0  0 0 0  0 0 0
0 0 0  0 0 0  0 0 0  0 0 0  0 0 0  0 0 0
0 0 0  0 0 0  0 0 0  0 0 0  0 0 0  0 0 0
0 0 0  0 0 0  0 0 0  0 0 0  0 0 0  0 0 0
0 0 0  0 0 0  0 0 0  0 0 0  0 0 0  0 0 0
0 0 0  0 0 0  0 0 0  0 0 0  0 0 0  0 0 0
0 0 0  0 0 0  0 0 0  0 0 0  0 0 0  0 0 0
0 0 0  0 0 0  0 0 0  0 0 0  0 0 0  0 0 0
0 0 0  0 0 0
0 0 0  0 0 0  0 0 0  0 0 0  0 0 0  0 0 0
0 0 0  0 0 0  0 0 0  0 0 0  0 0 0  0 0 0
0 0 0  0 0 0  0 0 0  0 0 0  0 0 0  0 0 0
0 0 0  0 0 0  0 0 0  0 0 0  0 0 0  0 0 0
0 0 0  0 0 0  0 0 0  0 0 0  0 0 0  0 0 0
0 0 0  0 0 0  0 0 0  0 0 0  0 0 0  0 0 0
0 0 0  0 0 0  0 0 0  0 0 0  0 0 0  0 0 0
0 0 0  0 0 0  0 0 0  0 0 0  0 0 0  0 0 0
0 0 0  0 0 0  0 0 0  0 0 0  0 0 0  0 0 0
0 0 0  0 0 0  0 0 0  0 0 0  0 0 0  0 0 0
0 0 0  0 0 0  0 0 0  0 0 0  0 0 0  0 0 0
0 0 0  0 0 0
0 0 0  0 0 0  0 0 0  0 0 0  0 0 0  0 0 0
0 0 0  0 0 0  0 0 0  0 0 0  0 0 0  0 0 0
0 0 0  0 0 0  0 0 0  0 0 0  0 0 0  0 0 0
0 0 0  0 0 0  0 0 0  0 0 0  0 0 0  0 0 0
0 0 0  0 0 0  0 0 0  0 0 0  0 0 0  0 0 0
0 0 0  0 0 0  0 0 0  0 0 0  0 0 0  0 0 0
0 0 0  0 0 0  0 0 0  0 0 0  0 0 0  0 0 0
0 0 0  0 0 0  0 0 0  0 0 0  0 0 0  0 0 0
0 0 0  0 0 0  0 0 0  0 0 0  0 0 0  0 0 0
0 0 0  0 0 0  0 0 0  0 0 0  0 0 0  0 0 0
0 0 0  0 0 0  0 0 0  0 0 0  0 0 0  0 0 0
0 0 0  0 0 0
