<?xml version="1.0" encoding="UTF-8" standalone="no"?>
<svg
   xmlns:dc="http://purl.org/dc/elements/1.1/"
   xmlns:cc="http://creativecommons.org/ns#"
   xmlns:rdf="http://www.w3.org/1999/02/22-rdf-syntax-ns#"
   xmlns:svg="http://www.w3.org/2000/svg"
   xmlns="http://www.w3.org/2000/svg"
   xmlns:sodipodi="http://sodipodi.sourceforge.net/DTD/sodipodi-0.dtd"
   xmlns:inkscape="http://www.inkscape.org/namespaces/inkscape"
   version="1.2"
   width="237.70221mm"
   height="126.28221mm"
   viewBox="0 0 23770.221 12628.221"
   preserveAspectRatio="xMidYMid"
   xml:space="preserve"
   id="svg2"
   inkscape:version="0.91 r13725"
   sodipodi:docname="dvbstb.svg"
   style="fill-rule:evenodd;stroke-width:28.22200012;stroke-linejoin:round"><metadata
     id="metadata519"><rdf:RDF><cc:Work
         rdf:about=""><dc:format>image/svg+xml</dc:format><dc:type
           rdf:resource="http://purl.org/dc/dcmitype/StillImage" /><dc:title /></cc:Work></rdf:RDF></metadata><sodipodi:namedview
     pagecolor="#ffffff"
     bordercolor="#666666"
     borderopacity="1"
     objecttolerance="10"
     gridtolerance="10"
     guidetolerance="10"
     inkscape:pageopacity="0"
     inkscape:pageshadow="2"
     inkscape:window-width="1920"
     inkscape:window-height="997"
     id="namedview517"
     showgrid="false"
     inkscape:zoom="1.0818519"
     inkscape:cx="411.31718"
     inkscape:cy="274.87517"
     inkscape:window-x="1920"
     inkscape:window-y="30"
     inkscape:window-maximized="1"
     inkscape:current-layer="svg2"
     fit-margin-top="0"
     fit-margin-left="0"
     fit-margin-right="0"
     fit-margin-bottom="0" /><defs
     class="ClipPathGroup"
     id="defs4" /><defs
     id="defs9" /><defs
     id="defs90" /><defs
     id="defs113" /><defs
     class="TextShapeIndex"
     id="defs124" /><defs
     class="EmbeddedBulletChars"
     id="defs128" /><defs
     class="TextEmbeddedBitmaps"
     id="defs157" /><rect
     class="BoundingBox"
     x="5355.1108"
     y="13.111"
     width="18403"
     height="9603"
     id="rect197"
     style="fill:none;stroke:none" /><path
     d="m 14556.111,9614.111 -9200,0 0,-9600 18400,0 0,9600 -9200,0 z"
     id="path199"
     inkscape:connector-curvature="0"
     style="fill:#ffffff;stroke:none" /><path
     d="m 14556.111,9614.111 -9200,0 0,-9600 18400,0 0,9600 -9200,0 z"
     id="path201"
     inkscape:connector-curvature="0"
     style="fill:none;stroke:#000000" /><rect
     class="BoundingBox"
     x="13.111"
     y="4013.1111"
     width="4544"
     height="2403"
     id="rect206"
     style="fill:none;stroke:none" /><path
     d="m 2285.111,6414.111 -2271,0 0,-2400 4541,0 0,2400 -2270,0 z"
     id="path208"
     inkscape:connector-curvature="0"
     style="fill:#ffffff;stroke:none" /><path
     d="m 2285.111,6414.111 -2271,0 0,-2400 4541,0 0,2400 -2270,0 z"
     id="path210"
     inkscape:connector-curvature="0"
     style="fill:none;stroke:#000000" /><text
     class="TextShape"
     id="text212"
     y="-4585.8892"
     x="-2443.8889"><tspan
       class="TextParagraph"
       font-size="635px"
       font-weight="400"
       id="tspan214"
       style="font-weight:400;font-size:635px;font-family:'Liberation Sans', sans-serif"><tspan
         class="TextPosition"
         x="1281.111"
         y="5435.1108"
         id="tspan216"><tspan
           id="tspan218"
           style="fill:#000000;stroke:none">Antena</tspan></tspan></tspan></text>
<rect
     class="BoundingBox"
     x="6213.1108"
     y="1813.111"
     width="4544"
     height="2403"
     id="rect223"
     style="fill:none;stroke:none" /><path
     d="m 8485.111,4214.111 -2271,0 0,-2400 4541,0 0,2400 -2270,0 z"
     id="path225"
     inkscape:connector-curvature="0"
     style="fill:#ffffff;stroke:none" /><path
     d="m 8485.111,4214.111 -2271,0 0,-2400 4541,0 0,2400 -2270,0 z"
     id="path227"
     inkscape:connector-curvature="0"
     style="fill:none;stroke:#000000" /><text
     class="TextShape"
     id="text229"
     x="-2443.8889"
     y="-4585.8892"><tspan
       class="TextParagraph"
       font-size="635px"
       font-weight="400"
       id="tspan231"
       style="font-weight:400;font-size:635px;font-family:'Liberation Sans', sans-serif"><tspan
         class="TextPosition"
         x="7217.1108"
         y="3235.1111"
         id="tspan233"><tspan
           id="tspan235"
           style="fill:#000000;stroke:none">Frontend</tspan></tspan></tspan></text>
<rect
     class="BoundingBox"
     x="12113.111"
     y="1813.111"
     width="4544"
     height="2403"
     id="rect240"
     style="fill:none;stroke:none" /><path
     d="m 14385.111,4214.111 -2271,0 0,-2400 4541,0 0,2400 -2270,0 z"
     id="path242"
     inkscape:connector-curvature="0"
     style="fill:#ffffff;stroke:none" /><path
     d="m 14385.111,4214.111 -2271,0 0,-2400 4541,0 0,2400 -2270,0 z"
     id="path244"
     inkscape:connector-curvature="0"
     style="fill:none;stroke:#000000" /><text
     class="TextShape"
     id="text246"
     x="-2443.8889"
     y="-4585.8892"><tspan
       class="TextParagraph"
       font-size="635px"
       font-weight="400"
       id="tspan248"
       style="font-weight:400;font-size:635px;font-family:'Liberation Sans', sans-serif"><tspan
         class="TextPosition"
         x="13944.111"
         y="3235.1111"
         id="tspan250"><tspan
           id="tspan252"
           style="fill:#000000;stroke:none">CA</tspan></tspan></tspan></text>
<rect
     class="BoundingBox"
     x="18113.111"
     y="1813.111"
     width="4544"
     height="2403"
     id="rect257"
     style="fill:none;stroke:none" /><path
     d="m 20385.111,4214.111 -2271,0 0,-2400 4541,0 0,2400 -2270,0 z"
     id="path259"
     inkscape:connector-curvature="0"
     style="fill:#ffffff;stroke:none" /><path
     d="m 20385.111,4214.111 -2271,0 0,-2400 4541,0 0,2400 -2270,0 z"
     id="path261"
     inkscape:connector-curvature="0"
     style="fill:none;stroke:#000000" /><text
     class="TextShape"
     id="text263"
     x="-2443.8889"
     y="-4585.8892"><tspan
       class="TextParagraph"
       font-size="635px"
       font-weight="400"
       id="tspan265"
       style="font-weight:400;font-size:635px;font-family:'Liberation Sans', sans-serif"><tspan
         class="TextPosition"
         x="19384.111"
         y="3235.1111"
         id="tspan267"><tspan
           id="tspan269"
           style="fill:#000000;stroke:none">Demux</tspan></tspan></tspan></text>
<rect
     class="BoundingBox"
     x="6113.1108"
     y="5813.1108"
     width="4544"
     height="2403"
     id="rect274"
     style="fill:none;stroke:none" /><path
     d="m 8385.111,8214.111 -2271,0 0,-2400 4541,0 0,2400 -2270,0 z"
     id="path276"
     inkscape:connector-curvature="0"
     style="fill:#ffffff;stroke:none" /><path
     d="m 8385.111,8214.111 -2271,0 0,-2400 4541,0 0,2400 -2270,0 z"
     id="path278"
     inkscape:connector-curvature="0"
     style="fill:none;stroke:#000000" /><text
     class="TextShape"
     id="text280"
     x="-2443.8889"
     y="-4585.8892"><tspan
       class="TextParagraph"
       font-size="635px"
       font-weight="400"
       id="tspan282"
       style="font-weight:400;font-size:635px;font-family:'Liberation Sans', sans-serif"><tspan
         class="TextPosition"
         x="7733.1108"
         y="7235.1108"
         id="tspan284"><tspan
           id="tspan286"
           style="fill:#000000;stroke:none">SEC</tspan></tspan></tspan></text>
<rect
     class="BoundingBox"
     x="12213.111"
     y="5813.1108"
     width="4544"
     height="2403"
     id="rect291"
     style="fill:none;stroke:none" /><path
     d="m 14485.111,8214.111 -2271,0 0,-2400 4541,0 0,2400 -2270,0 z"
     id="path293"
     inkscape:connector-curvature="0"
     style="fill:#ffffff;stroke:none" /><path
     d="m 14485.111,8214.111 -2271,0 0,-2400 4541,0 0,2400 -2270,0 z"
     id="path295"
     inkscape:connector-curvature="0"
     style="fill:none;stroke:#000000" /><text
     class="TextShape"
     id="text297"
     x="-2443.8889"
     y="-4585.8892"><tspan
       class="TextParagraph"
       font-size="635px"
       font-weight="400"
       id="tspan299"
       style="font-weight:400;font-size:635px;font-family:'Liberation Sans', sans-serif"><tspan
         class="TextPosition"
         x="13676.111"
         y="7235.1108"
         id="tspan301"><tspan
           id="tspan303"
           style="fill:#000000;stroke:none">Audio</tspan></tspan></tspan></text>
<rect
     class="BoundingBox"
     x="18113.111"
     y="5813.1108"
     width="4544"
     height="2403"
     id="rect308"
     style="fill:none;stroke:none" /><path
     d="m 20385.111,8214.111 -2271,0 0,-2400 4541,0 0,2400 -2270,0 z"
     id="path310"
     inkscape:connector-curvature="0"
     style="fill:#ffffff;stroke:none" /><path
     d="m 20385.111,8214.111 -2271,0 0,-2400 4541,0 0,2400 -2270,0 z"
     id="path312"
     inkscape:connector-curvature="0"
     style="fill:none;stroke:#000000" /><text
     class="TextShape"
     id="text314"
     x="-2443.8889"
     y="-4585.8892"><tspan
       class="TextParagraph"
       font-size="635px"
       font-weight="400"
       id="tspan316"
       style="font-weight:400;font-size:635px;font-family:'Liberation Sans', sans-serif"><tspan
         class="TextPosition"
         x="19583.111"
         y="7235.1108"
         id="tspan318"><tspan
           id="tspan320"
           style="fill:#000000;stroke:none">Video</tspan></tspan></tspan></text>
<rect
     class="BoundingBox"
     x="15213.111"
     y="10213.111"
     width="4544"
     height="2403"
     id="rect325"
     style="fill:none;stroke:none" /><path
     d="m 17485.111,12614.111 -2271,0 0,-2400 4541,0 0,2400 -2270,0 z"
     id="path327"
     inkscape:connector-curvature="0"
     style="fill:#ffffff;stroke:none" /><path
     d="m 17485.111,12614.111 -2271,0 0,-2400 4541,0 0,2400 -2270,0 z"
     id="path329"
     inkscape:connector-curvature="0"
     style="fill:none;stroke:#000000" /><text
     class="TextShape"
     id="text331"
     x="-2443.8889"
     y="-4585.8892"><tspan
       class="TextParagraph"
       font-size="635px"
       font-weight="400"
       id="tspan333"
       style="font-weight:400;font-size:635px;font-family:'Liberation Sans', sans-serif"><tspan
         class="TextPosition"
         x="17076.111"
         y="11635.111"
         id="tspan335"><tspan
           id="tspan337"
           style="fill:#000000;stroke:none">TV</tspan></tspan></tspan></text>
<rect
     class="BoundingBox"
     x="4555.1108"
     y="3014.1111"
     width="1661"
     height="2202"
     id="rect342"
     style="fill:none;stroke:none" /><path
     d="m 4556.111,5214.111 1400,-1857"
     id="path344"
     inkscape:connector-curvature="0"
     style="fill:none;stroke:#000000" /><path
     d="m 6215.111,3014.111 -391,269 240,181 151,-450 z"
     id="path346"
     inkscape:connector-curvature="0"
     style="fill:#000000;stroke:none" /><rect
     class="BoundingBox"
     x="4555.1108"
     y="5213.1108"
     width="1561"
     height="1802"
     id="rect351"
     style="fill:none;stroke:none" /><path
     d="m 4556.111,5214.111 1277,1475"
     id="path353"
     inkscape:connector-curvature="0"
     style="fill:none;stroke:#000000" /><path
     d="m 6115.111,7014.111 -181,-438 -227,196 408,242 z"
     id="path355"
     inkscape:connector-curvature="0"
     style="fill:#000000;stroke:none" /><rect
     class="BoundingBox"
     x="10755.111"
     y="2864.1111"
     width="1361"
     height="301"
     id="rect360"
     style="fill:none;stroke:none" /><path
     d="m 10756.111,3014.111 929,0"
     id="path362"
     inkscape:connector-curvature="0"
     style="fill:none;stroke:#000000" /><path
     d="m 12115.111,3014.111 -450,-150 0,300 450,-150 z"
     id="path364"
     inkscape:connector-curvature="0"
     style="fill:#000000;stroke:none" /><rect
     class="BoundingBox"
     x="16655.111"
     y="2864.1111"
     width="1461"
     height="301"
     id="rect369"
     style="fill:none;stroke:none" /><path
     d="m 16656.111,3014.111 1029,0"
     id="path371"
     inkscape:connector-curvature="0"
     style="fill:none;stroke:#000000" /><path
     d="m 18115.111,3014.111 -450,-150 0,300 450,-150 z"
     id="path373"
     inkscape:connector-curvature="0"
     style="fill:#000000;stroke:none" /><rect
     class="BoundingBox"
     x="20235.111"
     y="4213.1108"
     width="301"
     height="1602"
     id="rect378"
     style="fill:none;stroke:none" /><path
     d="m 20385.111,4214.111 0,1170"
     id="path380"
     inkscape:connector-curvature="0"
     style="fill:none;stroke:#000000" /><path
     d="m 20385.111,5814.111 150,-450 -300,0 150,450 z"
     id="path382"
     inkscape:connector-curvature="0"
     style="fill:#000000;stroke:none" /><rect
     class="BoundingBox"
     x="17485.111"
     y="8213.1113"
     width="2902"
     height="2002"
     id="rect387"
     style="fill:none;stroke:none" /><path
     d="m 20385.111,8214.111 -2546,1756"
     id="path389"
     inkscape:connector-curvature="0"
     style="fill:none;stroke:#000000" /><path
     d="m 17485.111,10214.111 456,-132 -171,-247 -285,379 z"
     id="path391"
     inkscape:connector-curvature="0"
     style="fill:#000000;stroke:none" /><rect
     class="BoundingBox"
     x="14484.111"
     y="8213.1113"
     width="3002"
     height="2002"
     id="rect396"
     style="fill:none;stroke:none" /><path
     d="m 14485.111,8214.111 2642,1761"
     id="path398"
     inkscape:connector-curvature="0"
     style="fill:none;stroke:#000000" /><path
     d="m 17485.111,10214.111 -291,-374 -167,249 458,125 z"
     id="path400"
     inkscape:connector-curvature="0"
     style="fill:#000000;stroke:none" /><rect
     class="BoundingBox"
     x="14485.111"
     y="4213.1108"
     width="5902"
     height="1629"
     id="rect405"
     style="fill:none;stroke:none" /><path
     d="m 20385.111,4214.111 -51,14"
     id="path407"
     inkscape:connector-curvature="0"
     style="fill:none;stroke:#000000" /><path
     d="m 20283.111,4242.111 -52,14"
     id="path409"
     inkscape:connector-curvature="0"
     style="fill:none;stroke:#000000" /><path
     d="m 20180.111,4270.111 -51,13"
     id="path411"
     inkscape:connector-curvature="0"
     style="fill:none;stroke:#000000" /><path
     d="m 20078.111,4297.111 -52,14"
     id="path413"
     inkscape:connector-curvature="0"
     style="fill:none;stroke:#000000" /><path
     d="m 19975.111,4325.111 -51,14"
     id="path415"
     inkscape:connector-curvature="0"
     style="fill:none;stroke:#000000" /><path
     d="m 19873.111,4353.111 -52,14"
     id="path417"
     inkscape:connector-curvature="0"
     style="fill:none;stroke:#000000" /><path
     d="m 19770.111,4381.111 -51,14"
     id="path419"
     inkscape:connector-curvature="0"
     style="fill:none;stroke:#000000" /><path
     d="m 19668.111,4409.111 -52,13"
     id="path421"
     inkscape:connector-curvature="0"
     style="fill:none;stroke:#000000" /><path
     d="m 19565.111,4436.111 -51,14"
     id="path423"
     inkscape:connector-curvature="0"
     style="fill:none;stroke:#000000" /><path
     d="m 19463.111,4464.111 -52,14"
     id="path425"
     inkscape:connector-curvature="0"
     style="fill:none;stroke:#000000" /><path
     d="m 19360.111,4492.111 -51,14"
     id="path427"
     inkscape:connector-curvature="0"
     style="fill:none;stroke:#000000" /><path
     d="m 19258.111,4520.111 -52,14"
     id="path429"
     inkscape:connector-curvature="0"
     style="fill:none;stroke:#000000" /><path
     d="m 19155.111,4547.111 -51,14"
     id="path431"
     inkscape:connector-curvature="0"
     style="fill:none;stroke:#000000" /><path
     d="m 19053.111,4575.111 -52,14"
     id="path433"
     inkscape:connector-curvature="0"
     style="fill:none;stroke:#000000" /><path
     d="m 18950.111,4603.111 -51,14"
     id="path435"
     inkscape:connector-curvature="0"
     style="fill:none;stroke:#000000" /><path
     d="m 18848.111,4631.111 -51,14"
     id="path437"
     inkscape:connector-curvature="0"
     style="fill:none;stroke:#000000" /><path
     d="m 18745.111,4659.111 -51,14"
     id="path439"
     inkscape:connector-curvature="0"
     style="fill:none;stroke:#000000" /><path
     d="m 18643.111,4686.111 -51,14"
     id="path441"
     inkscape:connector-curvature="0"
     style="fill:none;stroke:#000000" /><path
     d="m 18540.111,4714.111 -51,14"
     id="path443"
     inkscape:connector-curvature="0"
     style="fill:none;stroke:#000000" /><path
     d="m 18438.111,4742.111 -51,14"
     id="path445"
     inkscape:connector-curvature="0"
     style="fill:none;stroke:#000000" /><path
     d="m 18335.111,4770.111 -51,14"
     id="path447"
     inkscape:connector-curvature="0"
     style="fill:none;stroke:#000000" /><path
     d="m 18233.111,4798.111 -51,14"
     id="path449"
     inkscape:connector-curvature="0"
     style="fill:none;stroke:#000000" /><path
     d="m 18130.111,4825.111 -51,14"
     id="path451"
     inkscape:connector-curvature="0"
     style="fill:none;stroke:#000000" /><path
     d="m 18028.111,4853.111 -51,14"
     id="path453"
     inkscape:connector-curvature="0"
     style="fill:none;stroke:#000000" /><path
     d="m 17925.111,4881.111 -51,14"
     id="path455"
     inkscape:connector-curvature="0"
     style="fill:none;stroke:#000000" /><path
     d="m 17823.111,4909.111 -51,14"
     id="path457"
     inkscape:connector-curvature="0"
     style="fill:none;stroke:#000000" /><path
     d="m 17720.111,4937.111 -51,13"
     id="path459"
     inkscape:connector-curvature="0"
     style="fill:none;stroke:#000000" /><path
     d="m 17618.111,4964.111 -51,14"
     id="path461"
     inkscape:connector-curvature="0"
     style="fill:none;stroke:#000000" /><path
     d="m 17516.111,4992.111 -52,14"
     id="path463"
     inkscape:connector-curvature="0"
     style="fill:none;stroke:#000000" /><path
     d="m 17413.111,5020.111 -51,14"
     id="path465"
     inkscape:connector-curvature="0"
     style="fill:none;stroke:#000000" /><path
     d="m 17311.111,5048.111 -52,14"
     id="path467"
     inkscape:connector-curvature="0"
     style="fill:none;stroke:#000000" /><path
     d="m 17208.111,5076.111 -51,13"
     id="path469"
     inkscape:connector-curvature="0"
     style="fill:none;stroke:#000000" /><path
     d="m 17106.111,5103.111 -52,14"
     id="path471"
     inkscape:connector-curvature="0"
     style="fill:none;stroke:#000000" /><path
     d="m 17003.111,5131.111 -51,14"
     id="path473"
     inkscape:connector-curvature="0"
     style="fill:none;stroke:#000000" /><path
     d="m 16901.111,5159.111 -52,14"
     id="path475"
     inkscape:connector-curvature="0"
     style="fill:none;stroke:#000000" /><path
     d="m 16798.111,5187.111 -51,14"
     id="path477"
     inkscape:connector-curvature="0"
     style="fill:none;stroke:#000000" /><path
     d="m 16696.111,5214.111 -52,14"
     id="path479"
     inkscape:connector-curvature="0"
     style="fill:none;stroke:#000000" /><path
     d="m 16593.111,5242.111 -51,14"
     id="path481"
     inkscape:connector-curvature="0"
     style="fill:none;stroke:#000000" /><path
     d="m 16491.111,5270.111 -52,14"
     id="path483"
     inkscape:connector-curvature="0"
     style="fill:none;stroke:#000000" /><path
     d="m 16388.111,5298.111 -51,14"
     id="path485"
     inkscape:connector-curvature="0"
     style="fill:none;stroke:#000000" /><path
     d="m 16286.111,5326.111 -52,14"
     id="path487"
     inkscape:connector-curvature="0"
     style="fill:none;stroke:#000000" /><path
     d="m 16183.111,5353.111 -51,14"
     id="path489"
     inkscape:connector-curvature="0"
     style="fill:none;stroke:#000000" /><path
     d="m 16081.111,5381.111 -51,14"
     id="path491"
     inkscape:connector-curvature="0"
     style="fill:none;stroke:#000000" /><path
     d="m 15978.111,5409.111 -51,14"
     id="path493"
     inkscape:connector-curvature="0"
     style="fill:none;stroke:#000000" /><path
     d="m 15876.111,5437.111 -51,14"
     id="path495"
     inkscape:connector-curvature="0"
     style="fill:none;stroke:#000000" /><path
     d="m 15773.111,5465.111 -51,14"
     id="path497"
     inkscape:connector-curvature="0"
     style="fill:none;stroke:#000000" /><path
     d="m 15671.111,5492.111 -51,14"
     id="path499"
     inkscape:connector-curvature="0"
     style="fill:none;stroke:#000000" /><path
     d="m 15568.111,5520.111 -51,14"
     id="path501"
     inkscape:connector-curvature="0"
     style="fill:none;stroke:#000000" /><path
     d="m 15466.111,5548.111 -51,14"
     id="path503"
     inkscape:connector-curvature="0"
     style="fill:none;stroke:#000000" /><path
     d="m 15363.111,5576.111 -51,14"
     id="path505"
     inkscape:connector-curvature="0"
     style="fill:none;stroke:#000000" /><path
     d="m 15261.111,5604.111 -51,13"
     id="path507"
     inkscape:connector-curvature="0"
     style="fill:none;stroke:#000000" /><path
     d="m 15158.111,5631.111 -51,14"
     id="path509"
     inkscape:connector-curvature="0"
     style="fill:none;stroke:#000000" /><path
     d="m 15056.111,5659.111 -51,14"
     id="path511"
     inkscape:connector-curvature="0"
     style="fill:none;stroke:#000000" /><path
     d="m 14953.111,5687.111 -51,14"
     id="path513"
     inkscape:connector-curvature="0"
     style="fill:none;stroke:#000000" /><path
     d="m 14485.111,5814.111 474,27 -79,-290 -395,263 z"
     id="path515"
     inkscape:connector-curvature="0"
     style="fill:#000000;stroke:none" /></svg>