<?xml version="1.0" encoding="UTF-8"?>
<svg id="svg2" width="237.7mm" height="126.28mm" fill-rule="evenodd" stroke-linejoin="round" stroke-width="28.222" preserveAspectRatio="xMidYMid" version="1.2" viewBox="0 0 23770.221 12628.221" xml:space="preserve" xmlns="http://www.w3.org/2000/svg" xmlns:cc="http://creativecommons.org/ns#" xmlns:dc="http://purl.org/dc/elements/1.1/" xmlns:rdf="http://www.w3.org/1999/02/22-rdf-syntax-ns#"><metadata id="metadata519"><rdf:RDF><cc:Work rdf:about=""><dc:format>image/svg+xml</dc:format><dc:type rdf:resource="http://purl.org/dc/dcmitype/StillImage"/><dc:title/></cc:Work></rdf:RDF></metadata><rect id="rect197" class="BoundingBox" x="5355.1" y="13.111" width="18403" height="9603" fill="none"/><path id="path199" d="m14556 9614.1h-9200v-9600h18400v9600h-9200z" fill="#fff"/><path id="path201" d="m14556 9614.1h-9200v-9600h18400v9600h-9200z" fill="none" stroke="#000"/><rect id="rect206"
class="BoundingBox" x="13.111" y="4013.1" width="4544" height="2403" fill="none"/><path id="path208" d="m2285.1 6414.1h-2271v-2400h4541v2400h-2270z" fill="#fff"/><path id="path210" d="m2285.1 6414.1h-2271v-2400h4541v2400h-2270z" fill="none" stroke="#000"/><text id="text212" class="TextShape" x="-2443.8889" y="-4585.8892"><tspan id="tspan214" class="TextParagraph" font-family="sans-serif" font-size="635px" font-weight="400"><tspan id="tspan216" class="TextPosition" x="1281.111" y="5435.1108"><tspan id="tspan218" fill="#000000">Antena</tspan></tspan></tspan></text>
<rect id="rect223" class="BoundingBox" x="6213.1" y="1813.1" width="4544" height="2403" fill="none"/><path id="path225" d="m8485.1 4214.1h-2271v-2400h4541v2400h-2270z" fill="#fff"/><path id="path227" d="m8485.1 4214.1h-2271v-2400h4541v2400h-2270z" fill="none" stroke="#000"/><text id="text229" class="TextShape" x="-2443.8889" y="-4585.8892"><tspan id="tspan231" class="TextParagraph" font-family="sans-serif" font-size="635px" font-weight="400"><tspan id="tspan233" class="TextPosition" x="7217.1108" y="3235.1111"><tspan id="tspan235" fill="#000000">Frontend</tspan></tspan></tspan></text>
<rect id="rect240" class="BoundingBox" x="12113" y="1813.1" width="4544" height="2403" fill="none"/><path id="path242" d="m14385 4214.1h-2271v-2400h4541v2400h-2270z" fill="#fff"/><path id="path244" d="m14385 4214.1h-2271v-2400h4541v2400h-2270z" fill="none" stroke="#000"/><text id="text246" class="TextShape" x="-2443.8889" y="-4585.8892"><tspan id="tspan248" class="TextParagraph" font-family="sans-serif" font-size="635px" font-weight="400"><tspan id="tspan250" class="TextPosition" x="13944.111" y="3235.1111"><tspan id="tspan252" fill="#000000">CA</tspan></tspan></tspan></text>
<rect id="rect257" class="BoundingBox" x="18113" y="1813.1" width="4544" height="2403" fill="none"/><path id="path259" d="m20385 4214.1h-2271v-2400h4541v2400h-2270z" fill="#fff"/><path id="path261" d="m20385 4214.1h-2271v-2400h4541v2400h-2270z" fill="none" stroke="#000"/><text id="text263" class="TextShape" x="-2443.8889" y="-4585.8892"><tspan id="tspan265" class="TextParagraph" font-family="sans-serif" font-size="635px" font-weight="400"><tspan id="tspan267" class="TextPosition" x="19384.111" y="3235.1111"><tspan id="tspan269" fill="#000000">Demux</tspan></tspan></tspan></text>
<rect id="rect274" class="BoundingBox" x="6113.1" y="5813.1" width="4544" height="2403" fill="none"/><path id="path276" d="m8385.1 8214.1h-2271v-2400h4541v2400h-2270z" fill="#fff"/><path id="path278" d="m8385.1 8214.1h-2271v-2400h4541v2400h-2270z" fill="none" stroke="#000"/><text id="text280" class="TextShape" x="-2443.8889" y="-4585.8892"><tspan id="tspan282" class="TextParagraph" font-family="sans-serif" font-size="635px" font-weight="400"><tspan id="tspan284" class="TextPosition" x="7733.1108" y="7235.1108"><tspan id="tspan286" fill="#000000">SEC</tspan></tspan></tspan></text>
<rect id="rect291" class="BoundingBox" x="12213" y="5813.1" width="4544" height="2403" fill="none"/><path id="path293" d="m14485 8214.1h-2271v-2400h4541v2400h-2270z" fill="#fff"/><path id="path295" d="m14485 8214.1h-2271v-2400h4541v2400h-2270z" fill="none" stroke="#000"/><text id="text297" class="TextShape" x="-2443.8889" y="-4585.8892"><tspan id="tspan299" class="TextParagraph" font-family="sans-serif" font-size="635px" font-weight="400"><tspan id="tspan301" class="TextPosition" x="13676.111" y="7235.1108"><tspan id="tspan303" fill="#000000">Audio</tspan></tspan></tspan></text>
<rect id="rect308" class="BoundingBox" x="18113" y="5813.1" width="4544" height="2403" fill="none"/><path id="path310" d="m20385 8214.1h-2271v-2400h4541v2400h-2270z" fill="#fff"/><path id="path312" d="m20385 8214.1h-2271v-2400h4541v2400h-2270z" fill="none" stroke="#000"/><text id="text314" class="TextShape" x="-2443.8889" y="-4585.8892"><tspan id="tspan316" class="TextParagraph" font-family="sans-serif" font-size="635px" font-weight="400"><tspan id="tspan318" class="TextPosition" x="19583.111" y="7235.1108"><tspan id="tspan320" fill="#000000">Video</tspan></tspan></tspan></text>
<rect id="rect325" class="BoundingBox" x="15213" y="10213" width="4544" height="2403" fill="none"/><path id="path327" d="m17485 12614h-2271v-2400h4541v2400h-2270z" fill="#fff"/><path id="path329" d="m17485 12614h-2271v-2400h4541v2400h-2270z" fill="none" stroke="#000"/><text id="text331" class="TextShape" x="-2443.8889" y="-4585.8892"><tspan id="tspan333" class="TextParagraph" font-family="sans-serif" font-size="635px" font-weight="400"><tspan id="tspan335" class="TextPosition" x="17076.111" y="11635.111"><tspan id="tspan337" fill="#000000">TV</tspan></tspan></tspan></text>
<rect id="rect342" class="BoundingBox" x="4555.1" y="3014.1" width="1661" height="2202" fill="none"/><path id="path344" d="m4556.1 5214.1 1400-1857" fill="none" stroke="#000"/><path id="path346" d="m6215.1 3014.1-391 269 240 181 151-450z"/><rect id="rect351" class="BoundingBox" x="4555.1" y="5213.1" width="1561" height="1802" fill="none"/><path id="path353" d="m4556.1 5214.1 1277 1475" fill="none" stroke="#000"/><path id="path355" d="m6115.1 7014.1-181-438-227 196 408 242z"/><rect id="rect360" class="BoundingBox" x="10755" y="2864.1" width="1361" height="301" fill="none"/><path id="path362" d="m10756 3014.1h929" fill="none" stroke="#000"/><path id="path364" d="m12115 3014.1-450-150v300l450-150z"/><rect id="rect369" class="BoundingBox" x="16655" y="2864.1" width="1461" height="301" fill="none"/><path id="path371" d="m16656 3014.1h1029" fill="none" stroke="#000"/><path id="path373"
d="m18115 3014.1-450-150v300l450-150z"/><rect id="rect378" class="BoundingBox" x="20235" y="4213.1" width="301" height="1602" fill="none"/><path id="path380" d="m20385 4214.1v1170" fill="none" stroke="#000"/><path id="path382" d="m20385 5814.1 150-450h-300l150 450z"/><rect id="rect387" class="BoundingBox" x="17485" y="8213.1" width="2902" height="2002" fill="none"/><path id="path389" d="m20385 8214.1-2546 1756" fill="none" stroke="#000"/><path id="path391" d="m17485 10214 456-132-171-247-285 379z"/><rect id="rect396" class="BoundingBox" x="14484" y="8213.1" width="3002" height="2002" fill="none"/><path id="path398" d="m14485 8214.1 2642 1761" fill="none" stroke="#000"/><path id="path400" d="m17485 10214-291-374-167 249 458 125z"/><rect id="rect405" class="BoundingBox" x="14485" y="4213.1" width="5902" height="1629" fill="none"/><path id="path407" d="m20385 4214.1-51 14" fill="none"
stroke="#000"/><path id="path409" d="m20283 4242.1-52 14" fill="none" stroke="#000"/><path id="path411" d="m20180 4270.1-51 13" fill="none" stroke="#000"/><path id="path413" d="m20078 4297.1-52 14" fill="none" stroke="#000"/><path id="path415" d="m19975 4325.1-51 14" fill="none" stroke="#000"/><path id="path417" d="m19873 4353.1-52 14" fill="none" stroke="#000"/><path id="path419" d="m19770 4381.1-51 14" fill="none" stroke="#000"/><path id="path421" d="m19668 4409.1-52 13" fill="none" stroke="#000"/><path id="path423" d="m19565 4436.1-51 14" fill="none" stroke="#000"/><path id="path425" d="m19463 4464.1-52 14" fill="none" stroke="#000"/><path id="path427" d="m19360 4492.1-51 14" fill="none" stroke="#000"/><path id="path429" d="m19258 4520.1-52 14" fill="none" stroke="#000"/><path id="path431" d="m19155 4547.1-51 14" fill="none" stroke="#000"/><path id="path433" d="m19053 4575.1-52 14"
fill="none" stroke="#000"/><path id="path435" d="m18950 4603.1-51 14" fill="none" stroke="#000"/><path id="path437" d="m18848 4631.1-51 14" fill="none" stroke="#000"/><path id="path439" d="m18745 4659.1-51 14" fill="none" stroke="#000"/><path id="path441" d="m18643 4686.1-51 14" fill="none" stroke="#000"/><path id="path443" d="m18540 4714.1-51 14" fill="none" stroke="#000"/><path id="path445" d="m18438 4742.1-51 14" fill="none" stroke="#000"/><path id="path447" d="m18335 4770.1-51 14" fill="none" stroke="#000"/><path id="path449" d="m18233 4798.1-51 14" fill="none" stroke="#000"/><path id="path451" d="m18130 4825.1-51 14" fill="none" stroke="#000"/><path id="path453" d="m18028 4853.1-51 14" fill="none" stroke="#000"/><path id="path455" d="m17925 4881.1-51 14" fill="none" stroke="#000"/><path id="path457" d="m17823 4909.1-51 14" fill="none" stroke="#000"/><path id="path459" d="m17720
4937.1-51 13" fill="none" stroke="#000"/><path id="path461" d="m17618 4964.1-51 14" fill="none" stroke="#000"/><path id="path463" d="m17516 4992.1-52 14" fill="none" stroke="#000"/><path id="path465" d="m17413 5020.1-51 14" fill="none" stroke="#000"/><path id="path467" d="m17311 5048.1-52 14" fill="none" stroke="#000"/><path id="path469" d="m17208 5076.1-51 13" fill="none" stroke="#000"/><path id="path471" d="m17106 5103.1-52 14" fill="none" stroke="#000"/><path id="path473" d="m17003 5131.1-51 14" fill="none" stroke="#000"/><path id="path475" d="m16901 5159.1-52 14" fill="none" stroke="#000"/><path id="path477" d="m16798 5187.1-51 14" fill="none" stroke="#000"/><path id="path479" d="m16696 5214.1-52 14" fill="none" stroke="#000"/><path id="path481" d="m16593 5242.1-51 14" fill="none" stroke="#000"/><path id="path483" d="m16491 5270.1-52 14" fill="none" stroke="#000"/><path id="path485"
d="m16388 5298.1-51 14" fill="none" stroke="#000"/><path id="path487" d="m16286 5326.1-52 14" fill="none" stroke="#000"/><path id="path489" d="m16183 5353.1-51 14" fill="none" stroke="#000"/><path id="path491" d="m16081 5381.1-51 14" fill="none" stroke="#000"/><path id="path493" d="m15978 5409.1-51 14" fill="none" stroke="#000"/><path id="path495" d="m15876 5437.1-51 14" fill="none" stroke="#000"/><path id="path497" d="m15773 5465.1-51 14" fill="none" stroke="#000"/><path id="path499" d="m15671 5492.1-51 14" fill="none" stroke="#000"/><path id="path501" d="m15568 5520.1-51 14" fill="none" stroke="#000"/><path id="path503" d="m15466 5548.1-51 14" fill="none" stroke="#000"/><path id="path505" d="m15363 5576.1-51 14" fill="none" stroke="#000"/><path id="path507" d="m15261 5604.1-51 13" fill="none" stroke="#000"/><path id="path509" d="m15158 5631.1-51 14" fill="none" stroke="#000"/><path
id="path511" d="m15056 5659.1-51 14" fill="none" stroke="#000"/><path id="path513" d="m14953 5687.1-51 14" fill="none" stroke="#000"/><path id="path515" d="m14485 5814.1 474 27-79-290-395 263z"/></svg>
