<?xml version="1.0" encoding="UTF-8" standalone="no"?>
<!DOCTYPE svg PUBLIC "-//W3C//DTD SVG 1.1//EN"
 "http://www.w3.org/Graphics/SVG/1.1/DTD/svg11.dtd">
<!-- Generated by graphviz version 2.38.0 (20140413.2041)
 -->
<!-- Title: G Pages: 1 -->
<svg width="393pt" height="188pt"
 viewBox="0.00 0.00 393.00 188.00" xmlns="http://www.w3.org/2000/svg" xmlns:xlink="http://www.w3.org/1999/xlink">
<g id="graph0" class="graph" transform="scale(1 1) rotate(0) translate(4 184)">
<title>G</title>
<polygon fill="white" stroke="none" points="-4,4 -4,-184 389,-184 389,4 -4,4"/>
<!-- part_main -->
<g id="node1" class="node"><title>part_main</title>
<text text-anchor="middle" x="47.5" y="-158.3" font-family="Times,serif" font-size="14.00">Main partition</text>
</g>
<!-- main -->
<g id="node4" class="node"><title>main</title>
<ellipse fill="lightblue" stroke="black" cx="75.5" cy="-90" rx="28.6953" ry="18"/>
<text text-anchor="middle" x="75.5" y="-86.3" font-family="Times,serif" font-size="14.00">main</text>
</g>
<!-- part_main&#45;&gt;main -->
<g id="edge1" class="edge"><title>part_main&#45;&gt;main</title>
<path fill="none" stroke="black" d="M54.4214,-143.697C57.6218,-135.696 61.492,-126.02 65.0381,-117.155"/>
<polygon fill="black" stroke="black" points="68.3868,-118.207 68.8511,-107.622 61.8874,-115.607 68.3868,-118.207"/>
</g>
<!-- part1 -->
<g id="node2" class="node"><title>part1</title>
<text text-anchor="middle" x="176.5" y="-158.3" font-family="Times,serif" font-size="14.00">Loadable partition 1</text>
</g>
<!-- f1 -->
<g id="node5" class="node"><title>f1</title>
<ellipse fill="lightsalmon" stroke="black" cx="176.5" cy="-90" rx="27" ry="18"/>
<text text-anchor="middle" x="176.5" y="-86.3" font-family="Times,serif" font-size="14.00">f1</text>
</g>
<!-- part1&#45;&gt;f1 -->
<g id="edge3" class="edge"><title>part1&#45;&gt;f1</title>
<path fill="none" stroke="black" d="M176.5,-143.697C176.5,-135.983 176.5,-126.712 176.5,-118.112"/>
<polygon fill="black" stroke="black" points="180,-118.104 176.5,-108.104 173,-118.104 180,-118.104"/>
</g>
<!-- part2 -->
<g id="node3" class="node"><title>part2</title>
<text text-anchor="middle" x="321.5" y="-158.3" font-family="Times,serif" font-size="14.00">Loadable partition 2</text>
</g>
<!-- f2 -->
<g id="node6" class="node"><title>f2</title>
<ellipse fill="palegreen" stroke="black" cx="284.5" cy="-90" rx="27" ry="18"/>
<text text-anchor="middle" x="284.5" y="-86.3" font-family="Times,serif" font-size="14.00">f2</text>
</g>
<!-- part2&#45;&gt;f2 -->
<g id="edge7" class="edge"><title>part2&#45;&gt;f2</title>
<path fill="none" stroke="black" d="M312.354,-143.697C307.97,-135.403 302.636,-125.311 297.813,-116.187"/>
<polygon fill="black" stroke="black" points="300.801,-114.35 293.034,-107.145 294.612,-117.621 300.801,-114.35"/>
</g>
<!-- f3 -->
<g id="node7" class="node"><title>f3</title>
<ellipse fill="lightblue" stroke="black" cx="104.5" cy="-18" rx="27" ry="18"/>
<text text-anchor="middle" x="104.5" y="-14.3" font-family="Times,serif" font-size="14.00">f3</text>
</g>
<!-- main&#45;&gt;f3 -->
<g id="edge2" class="edge"><title>main&#45;&gt;f3</title>
<path fill="none" stroke="black" d="M82.3726,-72.411C85.7675,-64.2164 89.9422,-54.1395 93.7473,-44.9548"/>
<polygon fill="black" stroke="black" points="97.0828,-46.0481 97.6767,-35.4699 90.6158,-43.3689 97.0828,-46.0481"/>
</g>
<!-- f1&#45;&gt;f3 -->
<g id="edge4" class="edge"><title>f1&#45;&gt;f3</title>
<path fill="none" stroke="black" d="M161.93,-74.8345C151.75,-64.9376 137.976,-51.5462 126.469,-40.3591"/>
<polygon fill="black" stroke="black" points="128.905,-37.8461 119.296,-33.3847 124.026,-42.865 128.905,-37.8461"/>
</g>
<!-- f4 -->
<g id="node8" class="node"><title>f4</title>
<ellipse fill="lightsalmon" stroke="black" cx="176.5" cy="-18" rx="27" ry="18"/>
<text text-anchor="middle" x="176.5" y="-14.3" font-family="Times,serif" font-size="14.00">f4</text>
</g>
<!-- f1&#45;&gt;f4 -->
<g id="edge5" class="edge"><title>f1&#45;&gt;f4</title>
<path fill="none" stroke="black" d="M176.5,-71.6966C176.5,-63.9827 176.5,-54.7125 176.5,-46.1124"/>
<polygon fill="black" stroke="black" points="180,-46.1043 176.5,-36.1043 173,-46.1044 180,-46.1043"/>
</g>
<!-- f5 -->
<g id="node9" class="node"><title>f5</title>
<ellipse fill="lightblue" stroke="black" cx="248.5" cy="-18" rx="27" ry="18"/>
<text text-anchor="middle" x="248.5" y="-14.3" font-family="Times,serif" font-size="14.00">f5</text>
</g>
<!-- f1&#45;&gt;f5 -->
<g id="edge6" class="edge"><title>f1&#45;&gt;f5</title>
<path fill="none" stroke="black" d="M191.07,-74.8345C201.25,-64.9376 215.024,-51.5462 226.531,-40.3591"/>
<polygon fill="black" stroke="black" points="228.974,-42.865 233.704,-33.3847 224.095,-37.8461 228.974,-42.865"/>
</g>
<!-- f2&#45;&gt;f3 -->
<g id="edge8" class="edge"><title>f2&#45;&gt;f3</title>
<path fill="none" stroke="black" d="M260.806,-81.0022C232.063,-71.1346 182.266,-53.5073 140.5,-36 138.683,-35.2385 136.825,-34.4358 134.957,-33.6106"/>
<polygon fill="black" stroke="black" points="136.231,-30.3452 125.68,-29.3829 133.328,-36.7149 136.231,-30.3452"/>
</g>
<!-- f2&#45;&gt;f5 -->
<g id="edge9" class="edge"><title>f2&#45;&gt;f5</title>
<path fill="none" stroke="black" d="M276.15,-72.7646C271.788,-64.2831 266.353,-53.7144 261.459,-44.1974"/>
<polygon fill="black" stroke="black" points="264.49,-42.4395 256.804,-35.1473 258.265,-45.6409 264.49,-42.4395"/>
</g>
<!-- f6 -->
<g id="node10" class="node"><title>f6</title>
<ellipse fill="palegreen" stroke="black" cx="320.5" cy="-18" rx="27" ry="18"/>
<text text-anchor="middle" x="320.5" y="-14.3" font-family="Times,serif" font-size="14.00">f6</text>
</g>
<!-- f2&#45;&gt;f6 -->
<g id="edge10" class="edge"><title>f2&#45;&gt;f6</title>
<path fill="none" stroke="black" d="M292.85,-72.7646C297.212,-64.2831 302.647,-53.7144 307.541,-44.1974"/>
<polygon fill="black" stroke="black" points="310.735,-45.6409 312.196,-35.1473 304.51,-42.4395 310.735,-45.6409"/>
</g>
</g>
</svg>
