<?xml version="1.0" encoding="UTF-8"?>
<!-- SPDX-License-Identifier: GPL-2.0 OR GFDL-1.1-no-invariants-or-later -->
<svg id="svg2" width="15.847cm" height="8.4187cm" fill-rule="evenodd" stroke-linejoin="round" stroke-width="28.222" preserveAspectRatio="xMidYMid" version="1.2" viewBox="0 0 23770.123 12628.122" xml:space="preserve" xmlns="http://www.w3.org/2000/svg" xmlns:cc="http://creativecommons.org/ns#" xmlns:dc="http://purl.org/dc/elements/1.1/" xmlns:rdf="http://www.w3.org/1999/02/22-rdf-syntax-ns#"><defs id="defs142"><marker id="Arrow1Lend" overflow="visible" orient="auto"><path id="path954" transform="matrix(-.8 0 0 -.8 -10 0)" d="m0 0 5-5-17.5 5 17.5 5z" fill-rule="evenodd" stroke="#000" stroke-width="1pt"/></marker><marker id="marker1243" overflow="visible" orient="auto"><path id="path1241" transform="matrix(-.8 0 0 -.8 -10 0)" d="m0 0 5-5-17.5 5 17.5 5z" fill-rule="evenodd" stroke="#000" stroke-width="1pt"/></marker></defs><metadata id="metadata519"><rdf:RDF><cc:Work
rdf:about=""><dc:format>image/svg+xml</dc:format><dc:type rdf:resource="http://purl.org/dc/dcmitype/StillImage"/><dc:title/></cc:Work></rdf:RDF></metadata><rect id="rect197" class="BoundingBox" x="5355.1" y="13.122" width="18403" height="9603" fill="none"/><path id="path199" d="m14556 9614.1h-9200v-9600h18400v9600z" fill="#fff"/><path id="path201" d="m14556 9614.1h-9200v-9600h18400v9600z" fill="none" stroke="#000"/><rect id="rect206" class="BoundingBox" x="13.122" y="4013.1" width="4544" height="2403" fill="none"/><path id="path208" d="m2285.1 6414.1h-2271v-2400h4541v2400z" fill="#fff"/><path id="path210" d="m2285.1 6414.1h-2271v-2400h4541v2400z" fill="none" stroke="#000"/><text id="text212" class="TextShape" x="-2443.8779" y="-4585.8779"><tspan id="tspan214" class="TextParagraph" font-family="sans-serif" font-size="635px" font-weight="400"><tspan id="tspan216" class="TextPosition"
x="1281.1219" y="5435.1221"><tspan id="tspan218" fill="#000000">Antena</tspan></tspan></tspan></text>
<rect id="rect223" class="BoundingBox" x="6213.1" y="1813.1" width="4544" height="2403" fill="none"/><path id="path225" d="m8485.1 4214.1h-2271v-2400h4541v2400z" fill="#fff"/><path id="path227" d="m8485.1 4214.1h-2271v-2400h4541v2400z" fill="none" stroke="#000"/><text id="text229" class="TextShape" x="-2443.8779" y="-4585.8779"><tspan id="tspan231" class="TextParagraph" font-family="sans-serif" font-size="635px" font-weight="400"><tspan id="tspan233" class="TextPosition" x="7217.1221" y="3235.1221"><tspan id="tspan235" fill="#000000">Frontend</tspan></tspan></tspan></text>
<rect id="rect240" class="BoundingBox" x="12113" y="1813.1" width="4544" height="2403" fill="none"/><path id="path242" d="m14385 4214.1h-2271v-2400h4541v2400z" fill="#fff"/><path id="path244" d="m14385 4214.1h-2271v-2400h4541v2400z" fill="none" stroke="#000"/><text id="text246" class="TextShape" x="-2443.8779" y="-4585.8779"><tspan id="tspan248" class="TextParagraph" font-family="sans-serif" font-size="635px" font-weight="400"><tspan id="tspan250" class="TextPosition" x="13944.122" y="3235.1221"><tspan id="tspan252" fill="#000000">CA</tspan></tspan></tspan></text>
<rect id="rect257" class="BoundingBox" x="18113" y="1813.1" width="4544" height="2403" fill="none"/><path id="path259" d="m20385 4214.1h-2271v-2400h4541v2400z" fill="#fff"/><path id="path261" d="m20385 4214.1h-2271v-2400h4541v2400z" fill="none" stroke="#000"/><text id="text263" class="TextShape" x="-2443.8779" y="-4585.8779"><tspan id="tspan265" class="TextParagraph" font-family="sans-serif" font-size="635px" font-weight="400"><tspan id="tspan267" class="TextPosition" x="19384.123" y="3235.1221"><tspan id="tspan269" fill="#000000">Demux</tspan></tspan></tspan></text>
<rect id="rect274" class="BoundingBox" x="6113.1" y="5813.1" width="4544" height="2403" fill="none"/><path id="path276" d="m8385.1 8214.1h-2271v-2400h4541v2400z" fill="#fff"/><path id="path278" d="m8385.1 8214.1h-2271v-2400h4541v2400z" fill="none" stroke="#000"/><text id="text280" class="TextShape" x="-2443.8779" y="-4585.8779"><tspan id="tspan282" class="TextParagraph" font-family="sans-serif" font-size="635px" font-weight="400"><tspan id="tspan284" class="TextPosition" x="7733.1221" y="7235.1221"><tspan id="tspan286" fill="#000000">SEC</tspan></tspan></tspan></text>
<rect id="rect291" class="BoundingBox" x="12213" y="5813.1" width="4544" height="2403" fill="none"/><path id="path293" d="m14485 8214.1h-2271v-2400h4541v2400z" fill="#fff"/><path id="path295" d="m14485 8214.1h-2271v-2400h4541v2400z" fill="none" stroke="#000" stroke-dasharray="28.22200113,56.44400226" stroke-width="28.222"/><text id="text297" class="TextShape" x="-2443.8779" y="-4903.3779"><tspan id="tspan299" class="TextParagraph" font-family="sans-serif" font-size="635px" font-weight="400"><tspan id="tspan301" class="TextPosition" x="13676.122" y="6917.6221"><tspan id="tspan303" fill="#000000">Audio</tspan></tspan></tspan></text>
<rect id="rect308" class="BoundingBox" x="18113" y="5813.1" width="4544" height="2403" fill="none"/><path id="path310" d="m20385 8214.1h-2271v-2400h4541v2400z" fill="#fff"/><path id="path312" d="m20385 8214.1h-2271v-2400h4541v2400z" fill="none" stroke="#000" stroke-dasharray="28.22200113,56.44400226" stroke-width="28.222"/><text id="text314" class="TextShape" x="-2443.8779" y="-4903.3779"><tspan id="tspan316" class="TextParagraph" font-family="sans-serif" font-size="635px" font-weight="400"><tspan id="tspan318" class="TextPosition" x="19583.123" y="6917.6221"><tspan id="tspan320" fill="#000000">Video</tspan></tspan></tspan></text>
<rect id="rect325" class="BoundingBox" x="15213" y="10213" width="4544" height="2403" fill="none"/><path id="path327" d="m17485 12614h-2271v-2400h4541v2400z" fill="#fff"/><path id="path329" d="m17485 12614h-2271v-2400h4541v2400z" fill="none" stroke="#000" stroke-dasharray="28.22200113,56.44400226" stroke-width="28.222"/><text id="text331" class="TextShape" x="-2443.8779" y="-4585.8779"><tspan id="tspan333" class="TextParagraph" font-family="sans-serif" font-size="635px" font-weight="400"><tspan id="tspan335" class="TextPosition" x="17076.123" y="11635.122"><tspan id="tspan337" fill="#000000">TV</tspan></tspan></tspan></text>
<rect id="rect342" class="BoundingBox" x="4555.1" y="3014.1" width="1661" height="2202" fill="none"/><path id="path344" d="m4556.1 5214.1 1400-1857" fill="none" stroke="#000"/><path id="path346" d="m6215.1 3014.1-391 269 240 181z"/><rect id="rect351" class="BoundingBox" x="4555.1" y="5213.1" width="1561" height="1802" fill="none"/><path id="path353" d="m4556.1 5214.1 1277 1475" fill="none" stroke="#000"/><path id="path355" d="m6115.1 7014.1-181-438-227 196z"/><rect id="rect360" class="BoundingBox" x="10755" y="2864.1" width="1361" height="301" fill="none"/><path id="path362" d="m10756 3014.1h929" fill="none" stroke="#000"/><path id="path364" d="m12115 3014.1-450-150v300z"/><rect id="rect369" class="BoundingBox" x="16655" y="2864.1" width="1461" height="301" fill="none"/><path id="path371" d="m16656 3014.1h1029" fill="none" stroke="#000"/><path id="path373" d="m18115
3014.1-450-150v300z"/><rect id="rect378" class="BoundingBox" x="20235" y="4213.1" width="301" height="1602" fill="none"/><rect id="rect387" class="BoundingBox" x="17485" y="8213.1" width="2902" height="2002" fill="none"/><path id="path389" d="m20385 8214.1-2546 1756" fill="none" stroke="#000" stroke-dasharray="28.22200113,56.44400226" stroke-width="28.222"/><path id="path391" d="m17485 10214 456-132-171-247z"/><rect id="rect396" class="BoundingBox" x="14484" y="8213.1" width="3002" height="2002" fill="none"/><path id="path398" d="m14485 8214.1 2642 1761" fill="none" stroke="#000" stroke-dasharray="28.22200113,56.44400226" stroke-width="28.222"/><path id="path400" d="m17485 10214-291-374-167 249z"/><rect id="rect405" class="BoundingBox" x="14485" y="4213.1" width="5902" height="1629" fill="none"/><path id="path949" d="m20387 4213.1v1629" fill="none" marker-end="url(#Arrow1Lend)"
stroke="#000" stroke-dasharray="26.45879596, 52.91759192999999328" stroke-linejoin="miter" stroke-width="26.459"/><path id="path1233" d="m20385 4214.1-3628 1599" fill="none" marker-end="url(#marker1243)" stroke="#000" stroke-dasharray="26.45879596, 52.91759193" stroke-linejoin="miter" stroke-width="26.459"/><text id="text297-3" class="TextShape" x="-2911.9202" y="-4257.2061" font-size="12px" stroke-width="1"><tspan id="tspan299-6" class="TextParagraph" font-family="sans-serif" font-size="635px" font-weight="400" stroke-width="1"><tspan id="tspan301-7" class="TextPosition" x="13208.079" y="7563.793" stroke-width="1"><tspan id="tspan303-5" fill="#000000" stroke-width="1">Decoder</tspan></tspan></tspan></text>
<text id="text297-3-3" class="TextShape" x="2950.9287" y="-4259.5928" font-size="12px" stroke-width="1"><tspan id="tspan299-6-5" class="TextParagraph" font-family="sans-serif" font-size="635px" font-weight="400" stroke-width="1"><tspan id="tspan301-7-6" class="TextPosition" x="19070.928" y="7561.4053" stroke-width="1"><tspan id="tspan303-5-2" fill="#000000" stroke-width="1">Decoder</tspan></tspan></tspan></text>
</svg>
