<?xml version="1.0" encoding="UTF-8"?>
<!-- SPDX-License-Identifier: GPL-2.0 OR GFDL-1.1-no-invariants-or-later -->
<svg id="svg2" width="249.01mm" height="143.01mm" fill-rule="evenodd" stroke-linejoin="round" stroke-width="28.222" preserveAspectRatio="xMidYMid" version="1.2" viewBox="0 0 24900.998 14300.999" xml:space="preserve" xmlns="http://www.w3.org/2000/svg" xmlns:cc="http://creativecommons.org/ns#" xmlns:dc="http://purl.org/dc/elements/1.1/" xmlns:rdf="http://www.w3.org/1999/02/22-rdf-syntax-ns#"><metadata id="metadata325"><rdf:RDF><cc:Work rdf:about=""><dc:format>image/svg+xml</dc:format><dc:type rdf:resource="http://purl.org/dc/dcmitype/StillImage"/><dc:title/></cc:Work></rdf:RDF></metadata><defs id="defs4" class="ClipPathGroup"><marker id="marker6261" overflow="visible" orient="auto"><path id="path6263" transform="matrix(-.4 0 0 -.4 -4 0)" d="m0 0 5-5-17.5 5 17.5 5-5-5z" fill="#f00" fill-rule="evenodd" stroke="#f00" stroke-width="1pt"/></marker><marker id="marker6125" overflow="visible"
orient="auto"><path id="path6127" transform="matrix(-.4 0 0 -.4 -4 0)" d="m0 0 5-5-17.5 5 17.5 5-5-5z" fill="#f00" fill-rule="evenodd" stroke="#f00" stroke-width="1pt"/></marker><marker id="marker6001" overflow="visible" orient="auto"><path id="path6003" transform="matrix(-.4 0 0 -.4 -4 0)" d="m0 0 5-5-17.5 5 17.5 5-5-5z" fill="#f00" fill-rule="evenodd" stroke="#f00" stroke-width="1pt"/></marker><marker id="marker5693" overflow="visible" orient="auto"><path id="path5695" transform="matrix(-.4 0 0 -.4 -4 0)" d="m0 0 5-5-17.5 5 17.5 5-5-5z" fill="#f00" fill-rule="evenodd" stroke="#f00" stroke-width="1pt"/></marker><marker id="marker5575" overflow="visible" orient="auto"><path id="path5577" transform="matrix(-.4 0 0 -.4 -4 0)" d="m0 0 5-5-17.5 5 17.5 5-5-5z" fill="#000080" fill-rule="evenodd" stroke="#000080" stroke-width="1pt"/></marker><marker id="marker5469" overflow="visible"
orient="auto"><path id="path5471" transform="matrix(-.4 0 0 -.4 -4 0)" d="m0 0 5-5-17.5 5 17.5 5-5-5z" fill="#000080" fill-rule="evenodd" stroke="#000080" stroke-width="1pt"/></marker><marker id="marker5259" overflow="visible" orient="auto"><path id="path5261" transform="matrix(-.4 0 0 -.4 -4 0)" d="m0 0 5-5-17.5 5 17.5 5-5-5z" fill="#000080" fill-rule="evenodd" stroke="#000080" stroke-width="1pt"/></marker><marker id="Arrow2Mend" overflow="visible" orient="auto"><path id="path4241" transform="scale(-.6)" d="m8.7186 4.0337-10.926-4.0177 10.926-4.0177c-1.7455 2.3721-1.7354 5.6175-6e-7 8.0354z" fill="#000080" fill-rule="evenodd" stroke="#000080" stroke-linejoin="round" stroke-width=".625"/></marker></defs><g id="g204" class="com.sun.star.drawing.CustomShape" transform="translate(-1350,-3250)"><g id="id6"><rect id="rect207" class="BoundingBox" x="1350" y="3250" width="24901" height="14301"
fill="none"/><path id="path209" d="m13800 17500h-12400v-14200h24800v14200h-12400z" fill="#fff"/><path id="path211" d="m13800 17500h-12400v-14200h24800v14200h-12400z" fill="none" stroke="#f00" stroke-linejoin="round" stroke-width="100"/><text id="text213" class="TextShape"><tspan id="tspan215" class="TextParagraph" font-family="sans-serif" font-size="846px" font-weight="400"><tspan id="tspan217" class="TextPosition" x="1652" y="17093" fill="#ff0000"><tspan id="tspan219"/><tspan id="tspan221">V4L2_SEL_FLAG_GE</tspan></tspan></tspan></text>
</g></g><rect id="rect226" class="BoundingBox" x="3e3" y="2200" width="18101" height="10101" fill="none"/><path id="path228" d="m12050 12250h-9e3v-1e4h18000v1e4h-9e3z" fill="#fff"/><path id="path230" d="m12050 12250h-9e3v-1e4h18000v1e4h-9e3z" fill="none" stroke="#000" stroke-linejoin="round" stroke-width="100"/><text id="text232" class="TextShape" x="-1350" y="-3250"><tspan id="tspan234" class="TextParagraph" font-family="sans-serif" font-size="987px" font-weight="400"><tspan id="tspan236" class="TextPosition" x="3227" y="11503" fill="#000000"><tspan id="tspan238"/><tspan id="tspan240">ORIGINAL</tspan></tspan></tspan></text>
<g id="g242" class="com.sun.star.drawing.CustomShape" transform="translate(-1350,-3250)"><g id="id8"><rect id="rect245" class="BoundingBox" x="7050" y="7950" width="7901" height="5501" fill="none"/><path id="path247" d="m11000 13400h-3900v-5400h7800v5400h-3900z" fill="#fff"/><path id="path249" d="m11000 13400h-3900v-5400h7800v5400h-3900z" fill="none" stroke="#3465a4" stroke-linejoin="round" stroke-width="100"/><text id="text251" class="TextShape"><tspan id="tspan253" class="TextParagraph" font-family="sans-serif" font-size="776px" font-weight="400"><tspan id="tspan255" class="TextPosition" x="7228" y="10969"><tspan id="tspan257" fill="#000080">V4L2_SEL_FLAG_LE</tspan></tspan></tspan></text>
</g></g><rect id="rect262" class="BoundingBox" x="13700" y="7100" width="7101" height="101" fill="none"/><path id="path264" d="m20750 7150h-7e3" fill="none" marker-end="url(#Arrow2Mend)" stroke="#000080" stroke-linejoin="round" stroke-width="99.991"/><rect id="rect269" class="BoundingBox" x="3400" y="7100" width="2101" height="101" fill="none"/><path id="path271" d="m3450 7150h2e3" fill="none" marker-end="url(#marker5575)" stroke="#000080" stroke-linejoin="round" stroke-width="100"/><rect id="rect276" class="BoundingBox" x="9800" y="2900" width="101" height="1501" fill="none"/><path id="path278" d="m9850 2950v1400" fill="none" marker-end="url(#marker5259)" stroke="#000080" stroke-linejoin="round" stroke-width="100"/><rect id="rect283" class="BoundingBox" x="9600" y="10600" width="101" height="1301" fill="none"/><path id="path285" d="m9650 11850v-1200" fill="none"
marker-end="url(#marker5469)" stroke="#000080" stroke-linejoin="round" stroke-width="100"/><rect id="rect290" class="BoundingBox" x="450" y="6850" width="2051" height="601" fill="none"/><path id="path292" d="m2450 7150h-2000.9" fill="none" marker-end="url(#marker6125)" stroke="#f00" stroke-linejoin="round" stroke-width="132.48"/><rect id="rect299" class="BoundingBox" x="21600" y="6750" width="2651" height="601" fill="none"/><path id="path301" d="m21650 7050h2522.6" fill="none" marker-end="url(#marker6001)" stroke="#f00" stroke-linejoin="round" stroke-width="120.41"/><rect id="rect308" class="BoundingBox" x="9550" y="550" width="601" height="1451" fill="none"/><path id="path310" d="m9837 1950v-1453" fill="none" marker-end="url(#marker6261)" stroke="#f00" stroke-linejoin="round" stroke-width="164.04"/><rect id="rect317" class="BoundingBox" x="9350" y="12500" width="601" height="1451"
fill="none"/><path id="path319" d="m9650 12550v1505.2" fill="none" marker-end="url(#marker5693)" stroke="#f00" stroke-linejoin="round" stroke-width="166.96"/></svg>
